<svg width="13" height="23" viewBox="0 0 13 23" fill="none" xmlns="http://www.w3.org/2000/svg">
<path d="M9.38502 18.792C9.80502 18.792 10.115 18.296 10.115 17.624C10.115 16.952 9.80502 16.456 9.38502 16.456C8.96502 16.456 8.65502 16.952 8.65502 17.624C8.65502 18.12 8.96502 18.792 9.38502 18.792ZM6.36502 13.96C6.78502 13.96 7.09502 13.464 7.09502 12.792C7.09502 12.296 6.78502 11.624 6.36502 11.624C5.94502 11.624 5.63502 12.296 5.63502 12.792C5.63502 13.464 5.94502 13.96 6.36502 13.96ZM9.38502 13.96C9.80502 13.96 10.115 13.464 10.115 12.792C10.115 12.12 9.80502 11.624 9.38502 11.624C8.96502 11.624 8.65502 12.296 8.65502 12.792C8.65502 13.464 8.96502 13.96 9.38502 13.96ZM11.565 2.312H10.425V0.647995H9.28502V2.312H3.46502V0.647995H2.32502V2.312H1.18502C0.665019 2.312 0.14502 3.144 0.14502 3.976V21.112C0.14502 21.944 0.665019 22.776 1.18502 22.776H11.585C12.105 22.776 12.625 21.944 12.625 21.112V3.976C12.625 3.144 12.105 2.312 11.585 2.312H11.565ZM11.565 21.112H1.16502V9.288H11.565V21.112ZM11.565 7.624H1.16502V3.95999H11.565V7.624ZM3.34502 18.776C3.76502 18.776 4.07502 18.28 4.07502 17.608C4.07502 16.936 3.76502 16.44 3.34502 16.44C2.92502 16.44 2.61502 16.936 2.61502 17.608C2.61502 18.104 3.03502 18.776 3.34502 18.776ZM3.34502 13.944C3.76502 13.944 4.07502 13.448 4.07502 12.776C4.07502 12.104 3.76502 11.608 3.34502 11.608C2.92502 11.608 2.61502 12.28 2.61502 12.776C2.61502 13.448 3.03502 13.944 3.34502 13.944ZM6.36502 18.776C6.78502 18.776 7.09502 18.28 7.09502 17.608C7.09502 16.936 6.78502 16.44 6.36502 16.44C5.94502 16.44 5.63502 16.936 5.63502 17.608C5.63502 18.104 5.94502 18.776 6.36502 18.776Z" fill="white"/>
</svg>
