<svg width="84" height="83" viewBox="0 0 84 83" fill="none" xmlns="http://www.w3.org/2000/svg">
<path d="M42 0C36.2721 0 30.8955 1.08073 25.8701 3.24219C20.7907 5.40365 16.3732 8.36214 12.6177 12.1177C8.86214 15.8732 5.90365 20.2907 3.74219 25.3701C1.58073 30.3955 0.5 35.7721 0.5 41.5C0.5 47.2279 1.58073 52.6045 3.74219 57.6299C5.90365 62.7093 8.86214 67.1268 12.6177 70.8823C16.3732 74.6379 20.7907 77.5964 25.8701 79.7578C30.8955 81.9193 36.2721 83 42 83C47.7279 83 53.1045 81.9193 58.1299 79.7578C63.2093 77.5964 67.6268 74.6379 71.3823 70.8823C75.1379 67.1268 78.0964 62.7093 80.2578 57.6299C82.4193 52.6045 83.5 47.2279 83.5 41.5C83.5 35.7721 82.4193 30.3955 80.2578 25.3701C78.0964 20.2907 75.1379 15.8732 71.3823 12.1177C67.6268 8.36214 63.2093 5.40365 58.1299 3.24219C53.1045 1.08073 47.7279 0 42 0ZM70.0449 69.5449C68.2617 71.3281 66.3164 72.9492 64.209 74.4082C62.0475 75.8132 59.7915 77.0155 57.4409 78.0151C55.0903 79.0148 52.6182 79.7848 50.0244 80.3252C47.4307 80.8656 44.7559 81.1357 42 81.1357C39.2441 81.1357 36.5693 80.8656 33.9756 80.3252C31.3818 79.7848 28.9097 79.0148 26.5591 78.0151C24.2085 77.0155 21.9525 75.8132 19.791 74.4082C17.6836 72.9492 15.7383 71.3281 13.9551 69.5449C12.1719 67.7617 10.5508 65.8164 9.0918 63.709C7.68685 61.5475 6.48454 59.2915 5.48486 56.9409C4.48519 54.5903 3.71517 52.1182 3.1748 49.5244C2.63444 46.9307 2.36426 44.2559 2.36426 41.5C2.36426 38.7441 2.63444 36.0693 3.1748 33.4756C3.71517 30.8818 4.48519 28.4097 5.48486 26.0591C6.48454 23.7085 7.68685 21.4525 9.0918 19.291C10.5508 17.1836 12.1719 15.2383 13.9551 13.4551C15.7383 11.6719 17.6836 10.0508 19.791 8.5918C21.9525 7.18685 24.2085 5.98454 26.5591 4.98486C28.9097 3.98519 31.3818 3.21517 33.9756 2.6748C36.5693 2.13444 39.2441 1.86426 42 1.86426C44.7559 1.86426 47.4307 2.13444 50.0244 2.6748C52.6182 3.21517 55.0903 3.98519 57.4409 4.98486C59.7915 5.98454 62.0475 7.18685 64.209 8.5918C66.3164 10.0508 68.2617 11.6719 70.0449 13.4551C71.8281 15.2383 73.4492 17.1836 74.9082 19.291C76.3131 21.4525 77.5155 23.7085 78.5151 26.0591C79.5148 28.4097 80.2848 30.8818 80.8252 33.4756C81.3656 36.0693 81.6357 38.7441 81.6357 41.5C81.6357 44.2559 81.3656 46.9307 80.8252 49.5244C80.2848 52.1182 79.5148 54.5903 78.5151 56.9409C77.5155 59.2915 76.3131 61.5475 74.9082 63.709C73.4492 65.8164 71.8281 67.7617 70.0449 69.5449ZM58.6973 27.3965C58.9674 27.5046 59.2376 27.5046 59.5078 27.3965C59.778 27.2884 59.9671 27.0993 60.0752 26.8291C60.2373 26.3968 60.575 25.5457 61.0884 24.2759C61.6017 23.006 61.9665 22.182 62.1826 21.8037C62.2907 21.5335 62.2772 21.2633 62.1421 20.9932C62.007 20.723 61.8314 20.5339 61.6152 20.4258C61.3451 20.3177 61.0749 20.3177 60.8047 20.4258C60.5345 20.5339 60.3454 20.723 60.2373 20.9932C60.0752 21.3714 59.724 22.1955 59.1836 23.4653C58.6432 24.7352 58.292 25.5863 58.1299 26.0186C58.0218 26.2887 58.0218 26.5589 58.1299 26.8291C58.238 27.0993 58.4271 27.2884 58.6973 27.3965ZM51.4834 25.0459C51.4834 25.262 51.4969 25.4377 51.5239 25.5728C51.5509 25.7078 51.5645 25.8564 51.5645 26.0186C51.5645 26.1266 51.5645 26.2347 51.5645 26.3428C51.5645 26.4508 51.5915 26.5319 51.6455 26.5859C51.6455 26.8561 51.7671 27.0858 52.0103 27.2749C52.2534 27.464 52.5101 27.5316 52.7803 27.4775C53.0505 27.4235 53.2801 27.2884 53.4692 27.0723C53.6584 26.8561 53.7259 26.613 53.6719 26.3428C53.6719 26.2887 53.6719 26.2212 53.6719 26.1401C53.6719 26.0591 53.6719 25.9375 53.6719 25.7754C53.6178 25.3431 53.5638 24.7757 53.5098 24.0732C53.4557 23.3708 53.4017 22.6413 53.3477 21.8848C53.2936 21.1283 53.2396 20.4123 53.1855 19.7368C53.1315 19.0614 53.1045 18.5615 53.1045 18.2373C53.0505 17.9671 52.9154 17.7375 52.6992 17.5483C52.4831 17.3592 52.2399 17.2917 51.9697 17.3457C51.6455 17.3457 51.3888 17.4538 51.1997 17.6699C51.0106 17.8861 50.943 18.1562 50.9971 18.4805C50.9971 18.8047 51.0376 19.3586 51.1187 20.1421C51.1997 20.9256 51.2673 21.7767 51.3213 22.6953C51.3213 23.1276 51.3348 23.5464 51.3618 23.9517C51.3888 24.3569 51.4294 24.7217 51.4834 25.0459ZM43.0537 23.9922C43.6481 24.9108 44.2695 25.8294 44.918 26.748C45.5664 27.6667 46.1068 28.4772 46.5391 29.1797C46.7012 29.4499 46.9173 29.612 47.1875 29.666C47.4577 29.7201 47.7279 29.666 47.998 29.5039C48.2682 29.3958 48.4303 29.1932 48.4844 28.896C48.5384 28.5988 48.4844 28.3421 48.3223 28.126C47.8359 27.3695 47.2821 26.5319 46.6606 25.6133C46.0392 24.6947 45.4313 23.776 44.8369 22.8574C44.6748 22.5872 44.4451 22.4251 44.1479 22.3711C43.8507 22.3171 43.5941 22.3711 43.3779 22.5332C43.1077 22.6953 42.9456 22.9115 42.8916 23.1816C42.8376 23.4518 42.8916 23.722 43.0537 23.9922ZM67.7754 31.0439C66.9108 30.8818 66.0462 30.7603 65.1816 30.6792C64.3171 30.5981 63.4525 30.5576 62.5879 30.5576C60.6966 30.5576 58.8324 30.7467 56.9951 31.125C55.1579 31.5033 53.3747 32.0706 51.6455 32.8271C50.835 33.1514 50.0379 33.5161 49.2544 33.9214C48.4709 34.3267 47.7279 34.7184 47.0254 35.0967C46.2689 35.4209 45.5124 35.7181 44.7559 35.9883C43.9993 36.2585 43.2428 36.4476 42.4863 36.5557C42.1621 36.6097 41.7974 36.6502 41.3921 36.6772C40.9868 36.7043 40.568 36.7448 40.1357 36.7988C40.514 35.9342 40.8382 35.0562 41.1084 34.1646C41.3786 33.2729 41.5677 32.3408 41.6758 31.3682C41.7298 31.152 41.7568 30.9224 41.7568 30.6792C41.7568 30.436 41.7568 30.2064 41.7568 29.9902C41.7568 29.0716 41.6488 28.1665 41.4326 27.2749C41.2165 26.3833 40.8382 25.5592 40.2979 24.8027C40.0277 24.3704 39.7034 23.9787 39.3252 23.6274C38.9469 23.2762 38.5417 22.9925 38.1094 22.7764C37.623 22.5062 37.1367 22.3035 36.6504 22.1685C36.1641 22.0334 35.6507 21.9658 35.1104 21.9658C34.9482 21.9658 34.7726 21.9658 34.5835 21.9658C34.3944 21.9658 34.2188 21.9928 34.0566 22.0469C33.4082 22.209 32.8138 22.4251 32.2734 22.6953C31.7331 22.9655 31.2467 23.2357 30.8145 23.5059C30.5443 23.668 30.3011 23.8031 30.085 23.9111C29.8688 24.0192 29.6797 24.1003 29.5176 24.1543C29.3014 24.2624 29.0988 24.3299 28.9097 24.3569C28.7205 24.384 28.5449 24.3975 28.3828 24.3975H28.2207C28.0046 24.3975 27.7884 24.3704 27.5723 24.3164C27.3561 24.2624 27.14 24.1813 26.9238 24.0732C26.5456 23.9111 26.1673 23.7355 25.7891 23.5464C25.4108 23.3573 25.0326 23.1546 24.6543 22.9385C24.222 22.7223 23.7762 22.5332 23.3169 22.3711C22.8576 22.209 22.3577 22.1279 21.8174 22.1279C21.7633 22.1279 21.7093 22.1279 21.6553 22.1279C21.6012 22.1279 21.5472 22.1279 21.4932 22.1279C20.8447 22.1279 20.2233 22.236 19.6289 22.4521C19.0345 22.6683 18.4941 22.9655 18.0078 23.3438C17.5215 23.722 17.0892 24.1543 16.7109 24.6406C16.3327 25.127 16.0085 25.6403 15.7383 26.1807C15.5221 26.7751 15.36 27.383 15.252 28.0044C15.1439 28.6258 15.0898 29.2337 15.0898 29.8281C15.0898 30.4225 15.1304 31.0034 15.2114 31.5708C15.2925 32.1382 15.4141 32.6921 15.5762 33.2324C15.6842 33.6647 15.8058 34.097 15.9409 34.5293C16.076 34.9616 16.2246 35.3669 16.3867 35.7451C15.9004 35.637 15.4276 35.556 14.9683 35.502C14.509 35.4479 14.0361 35.4209 13.5498 35.4209C13.2796 35.4209 13.0094 35.4209 12.7393 35.4209C12.4691 35.4209 12.1989 35.4479 11.9287 35.502C11.6585 35.556 11.4424 35.7046 11.2803 35.9478C11.1182 36.1909 11.0641 36.4476 11.1182 36.7178C11.1722 36.988 11.3073 37.2041 11.5234 37.3662C11.7396 37.5283 11.9827 37.6094 12.2529 37.6094C12.4691 37.5553 12.6852 37.5148 12.9014 37.4878C13.1175 37.4608 13.3337 37.4473 13.5498 37.4473C14.1982 37.4473 14.8467 37.5283 15.4951 37.6904C16.1436 37.8525 16.765 38.0687 17.3594 38.3389C17.4134 38.555 17.481 38.7441 17.562 38.9062C17.6431 39.0684 17.7106 39.2575 17.7646 39.4736C18.251 40.7705 18.6427 42.1079 18.9399 43.4858C19.2371 44.8638 19.4938 46.2552 19.71 47.6602C19.764 47.9844 19.8045 48.2951 19.8315 48.5923C19.8586 48.8895 19.9261 49.2002 20.0342 49.5244C20.0882 49.8486 20.1963 50.1729 20.3584 50.4971C20.5205 50.8213 20.7096 51.1185 20.9258 51.3887C21.0879 51.6048 21.2635 51.7939 21.4526 51.9561C21.6418 52.1182 21.8714 52.2803 22.1416 52.4424C22.3577 52.5505 22.6009 52.6315 22.8711 52.6855C23.1413 52.7396 23.4115 52.7666 23.6816 52.7666C23.9518 52.7666 24.249 52.7126 24.5732 52.6045C24.8975 52.4964 25.1676 52.3343 25.3838 52.1182C25.654 51.902 25.8566 51.6724 25.9917 51.4292C26.1268 51.186 26.2214 50.9564 26.2754 50.7402C26.3294 50.4701 26.37 50.2269 26.397 50.0107C26.424 49.7946 26.4375 49.5784 26.4375 49.3623C26.4375 49.1462 26.4375 48.957 26.4375 48.7949C26.4375 48.6328 26.4105 48.4707 26.3564 48.3086C26.3564 48.2546 26.3564 48.187 26.3564 48.106C26.3564 48.0249 26.3564 47.9574 26.3564 47.9033C26.3564 47.1468 26.451 46.3768 26.6401 45.5933C26.8293 44.8097 27.0859 44.0938 27.4102 43.4453C27.4642 43.2292 27.5452 43.04 27.6533 42.8779C27.7614 42.7158 27.8695 42.5807 27.9775 42.4727C28.0316 42.4186 28.0856 42.3781 28.1396 42.3511C28.1937 42.3241 28.2477 42.2835 28.3018 42.2295C28.3558 42.2295 28.3963 42.2295 28.4233 42.2295C28.4504 42.2295 28.4639 42.2295 28.4639 42.2295H28.5449C28.5449 42.2295 28.5584 42.243 28.5854 42.27C28.6125 42.297 28.626 42.3105 28.626 42.3105C28.68 42.3105 28.734 42.3376 28.7881 42.3916C28.8421 42.4456 28.8962 42.5267 28.9502 42.6348C29.0042 42.6888 29.0583 42.7699 29.1123 42.8779C29.1663 42.986 29.2204 43.0941 29.2744 43.2021C29.5986 43.9587 29.8553 44.7557 30.0444 45.5933C30.2336 46.4308 30.3281 47.2549 30.3281 48.0654V48.1465C30.3281 48.3086 30.3146 48.4572 30.2876 48.5923C30.2606 48.7274 30.2471 48.876 30.2471 49.0381C30.2471 49.2542 30.2606 49.4974 30.2876 49.7676C30.3146 50.0378 30.3551 50.3079 30.4092 50.5781C30.4632 50.7943 30.5443 51.0239 30.6523 51.2671C30.7604 51.5103 30.9225 51.7399 31.1387 51.9561C31.3008 52.1182 31.4899 52.2938 31.7061 52.4829C31.9222 52.672 32.1924 52.7936 32.5166 52.8477C32.6247 52.9017 32.7327 52.9287 32.8408 52.9287C32.9489 52.9287 33.057 52.9287 33.165 52.9287C33.3812 52.9287 33.5838 52.9017 33.7729 52.8477C33.9621 52.7936 34.1377 52.7396 34.2998 52.6855C34.5159 52.5775 34.7321 52.4289 34.9482 52.2397C35.1644 52.0506 35.3535 51.875 35.5156 51.7129C35.6777 51.4967 35.8263 51.2941 35.9614 51.105C36.0965 50.9159 36.2181 50.7132 36.3262 50.4971C36.5964 49.8486 36.799 49.2002 36.9341 48.5518C37.0692 47.9033 37.1908 47.2549 37.2988 46.6064C37.4069 45.958 37.5015 45.3366 37.5825 44.7422C37.6636 44.1478 37.7581 43.5804 37.8662 43.04C38.0283 42.3376 38.2174 41.6621 38.4336 41.0137C38.6497 40.3652 38.8929 39.7168 39.1631 39.0684C39.2712 39.0684 39.3657 39.0549 39.4468 39.0278C39.5278 39.0008 39.6224 38.9873 39.7305 38.9873C40.1628 38.8792 40.6356 38.8117 41.1489 38.7847C41.6623 38.7576 42.2161 38.6901 42.8105 38.582C43.7292 38.474 44.6073 38.2713 45.4448 37.9741C46.2824 37.6769 47.1064 37.3392 47.917 36.9609C48.6735 36.5827 49.43 36.1909 50.1865 35.7856C50.943 35.3804 51.6995 35.0156 52.4561 34.6914C54.0231 33.9889 55.6712 33.4621 57.4004 33.1108C59.1296 32.7596 60.8587 32.584 62.5879 32.584C63.3984 32.584 64.209 32.6245 65.0195 32.7056C65.8301 32.7866 66.6136 32.9082 67.3701 33.0703C67.6403 33.1243 67.897 33.0703 68.1401 32.9082C68.3833 32.7461 68.5319 32.5299 68.5859 32.2598C68.64 31.9896 68.5859 31.7329 68.4238 31.4897C68.2617 31.2466 68.0456 31.098 67.7754 31.0439ZM39.6494 31.125C39.5413 32.0436 39.3252 32.9622 39.001 33.8809C38.6768 34.7995 38.3255 35.7181 37.9473 36.6367C37.569 37.6094 37.1908 38.582 36.8125 39.5547C36.4342 40.5273 36.11 41.527 35.8398 42.5537C35.7318 43.2021 35.6372 43.8371 35.5562 44.4585C35.4751 45.0799 35.3805 45.7148 35.2725 46.3633C35.1644 46.9577 35.0428 47.5251 34.9077 48.0654C34.7726 48.6058 34.597 49.1191 34.3809 49.6055C34.3268 49.7676 34.2323 49.9432 34.0972 50.1323C33.9621 50.3215 33.8405 50.4701 33.7324 50.5781C33.6784 50.6322 33.6243 50.6727 33.5703 50.6997C33.5163 50.7267 33.4622 50.7673 33.4082 50.8213C33.3542 50.8213 33.3001 50.8348 33.2461 50.8618C33.1921 50.8888 33.165 50.9023 33.165 50.9023L33.084 50.8213C33.0299 50.8213 32.9759 50.8078 32.9219 50.7808C32.8678 50.7537 32.8138 50.7132 32.7598 50.6592C32.7057 50.5511 32.6517 50.4565 32.5977 50.3755C32.5436 50.2944 32.4896 50.1999 32.4355 50.0918C32.4355 49.9297 32.422 49.7676 32.395 49.6055C32.368 49.4434 32.3545 49.2542 32.3545 49.0381C32.3545 48.93 32.3545 48.7949 32.3545 48.6328C32.3545 48.4707 32.3545 48.3086 32.3545 48.1465C32.3545 47.1198 32.2599 46.1201 32.0708 45.1475C31.8817 44.1748 31.598 43.2562 31.2197 42.3916C31.1117 42.1755 31.0036 41.9593 30.8955 41.7432C30.7874 41.527 30.6523 41.3109 30.4902 41.0947C30.3822 41.0407 30.2741 40.9596 30.166 40.8516C30.0579 40.7435 29.9499 40.6354 29.8418 40.5273C29.7337 40.4733 29.6121 40.4058 29.4771 40.3247C29.342 40.2437 29.1934 40.2031 29.0312 40.2031C28.9232 40.1491 28.8286 40.1221 28.7476 40.1221C28.6665 40.1221 28.5719 40.1221 28.4639 40.1221C28.2477 40.1221 28.0586 40.1491 27.8965 40.2031C27.7344 40.2572 27.5723 40.3112 27.4102 40.3652C27.14 40.5273 26.9103 40.6895 26.7212 40.8516C26.5321 41.0137 26.3564 41.1758 26.1943 41.3379C26.0322 41.554 25.8971 41.7567 25.7891 41.9458C25.681 42.1349 25.5729 42.3376 25.4648 42.5537C25.0866 43.3643 24.8029 44.2288 24.6138 45.1475C24.4246 46.0661 24.3301 46.9847 24.3301 47.9033C24.3301 48.0114 24.3301 48.106 24.3301 48.187C24.3301 48.2681 24.3301 48.3356 24.3301 48.3896C24.3301 48.5518 24.3301 48.7139 24.3301 48.876C24.3301 49.0381 24.3301 49.2002 24.3301 49.3623C24.3301 49.5244 24.3301 49.673 24.3301 49.8081C24.3301 49.9432 24.3031 50.0648 24.249 50.1729C24.249 50.2809 24.222 50.362 24.168 50.416C24.1139 50.4701 24.0599 50.5241 24.0059 50.5781C24.0059 50.6322 23.9788 50.6592 23.9248 50.6592C23.8708 50.6592 23.7897 50.6862 23.6816 50.7402C23.5736 50.7402 23.479 50.7267 23.3979 50.6997C23.3169 50.6727 23.2223 50.6322 23.1143 50.5781C23.0062 50.5241 22.9116 50.4565 22.8306 50.3755C22.7495 50.2944 22.6549 50.2269 22.5469 50.1729C22.4388 50.0107 22.3442 49.8351 22.2632 49.646C22.1821 49.4569 22.1146 49.2272 22.0605 48.957C22.0065 48.7409 21.9525 48.4977 21.8984 48.2275C21.8444 47.9574 21.8174 47.6872 21.8174 47.417C21.6012 45.958 21.3311 44.499 21.0068 43.04C20.6826 41.5811 20.2503 40.1491 19.71 38.7441C19.3857 37.7174 19.021 36.7043 18.6157 35.7046C18.2104 34.7049 17.8727 33.7188 17.6025 32.7461C17.4945 32.2598 17.3999 31.7734 17.3188 31.2871C17.2378 30.8008 17.1973 30.3145 17.1973 29.8281C17.1973 29.2878 17.2378 28.7879 17.3188 28.3286C17.3999 27.8693 17.5215 27.4235 17.6836 26.9912C17.8997 26.613 18.1429 26.2482 18.4131 25.897C18.6833 25.5457 18.9805 25.235 19.3047 24.9648C19.6289 24.6947 19.9801 24.492 20.3584 24.3569C20.7367 24.2218 21.1149 24.1543 21.4932 24.1543C21.5472 24.1543 21.5877 24.1543 21.6147 24.1543C21.6418 24.1543 21.6553 24.1543 21.6553 24.1543C21.8714 24.2083 22.1011 24.2624 22.3442 24.3164C22.5874 24.3704 22.8171 24.4245 23.0332 24.4785C23.3574 24.6406 23.7087 24.8162 24.0869 25.0054C24.4652 25.1945 24.8704 25.3971 25.3027 25.6133C25.681 25.8294 26.0998 26.0186 26.5591 26.1807C27.0184 26.3428 27.5182 26.4508 28.0586 26.5049C28.1126 26.5049 28.1667 26.5049 28.2207 26.5049C28.2747 26.5049 28.3288 26.5049 28.3828 26.5049C28.7611 26.5049 29.0988 26.4644 29.396 26.3833C29.6932 26.3022 29.9769 26.2077 30.2471 26.0996C30.6794 25.9375 31.0846 25.7484 31.4629 25.5322C31.8411 25.3161 32.1924 25.127 32.5166 24.9648C32.8949 24.7487 33.2461 24.5596 33.5703 24.3975C33.8945 24.2354 34.1917 24.1273 34.4619 24.0732C34.57 24.0732 34.6781 24.0597 34.7861 24.0327C34.8942 24.0057 35.0023 23.9922 35.1104 23.9922C35.4346 23.9922 35.7588 24.0462 36.083 24.1543C36.4072 24.2624 36.7314 24.3975 37.0557 24.5596C37.3799 24.7217 37.6771 24.9243 37.9473 25.1675C38.2174 25.4106 38.4336 25.6943 38.5957 26.0186C38.974 26.5589 39.2576 27.1668 39.4468 27.8423C39.6359 28.5177 39.7305 29.2337 39.7305 29.9902C39.7305 30.1523 39.717 30.328 39.6899 30.5171C39.6629 30.7062 39.6494 30.9089 39.6494 31.125ZM19.4668 29.9902C19.737 30.0443 19.9937 29.9902 20.2368 29.8281C20.48 29.666 20.6286 29.4229 20.6826 29.0986C20.7367 28.8825 20.8177 28.6663 20.9258 28.4502C21.0339 28.2341 21.196 28.0179 21.4121 27.8018C21.5742 27.6396 21.6688 27.41 21.6958 27.1128C21.7228 26.8156 21.6283 26.5589 21.4121 26.3428C21.196 26.1266 20.9393 26.0186 20.6421 26.0186C20.3449 26.0186 20.1152 26.1266 19.9531 26.3428C19.5749 26.667 19.2777 27.0317 19.0615 27.437C18.8454 27.8423 18.7103 28.2881 18.6562 28.7744C18.6022 29.0446 18.6562 29.3013 18.8184 29.5444C18.9805 29.7876 19.1966 29.9362 19.4668 29.9902ZM66.8027 44.9043C66.8027 44.472 66.7892 44.0667 66.7622 43.6885C66.7352 43.3102 66.6676 42.932 66.5596 42.5537C66.3975 41.4189 66.0732 40.3247 65.5869 39.271C65.1006 38.2173 64.4251 37.3122 63.5605 36.5557C62.9661 36.0693 62.2907 35.6911 61.5342 35.4209C60.7777 35.1507 60.0212 35.0156 59.2646 35.0156C58.8324 35.0156 58.4001 35.0562 57.9678 35.1372C57.5355 35.2183 57.1302 35.3669 56.752 35.583C56.1035 35.9072 55.5632 36.2855 55.1309 36.7178C54.6986 37.1501 54.2933 37.5553 53.915 37.9336C53.6989 38.1497 53.5098 38.3389 53.3477 38.501C53.1855 38.6631 52.9964 38.7982 52.7803 38.9062C52.6182 39.0143 52.4561 39.1089 52.2939 39.1899C52.1318 39.271 51.9427 39.3385 51.7266 39.3926C51.6185 39.4466 51.5104 39.4736 51.4023 39.4736C51.2943 39.4736 51.1862 39.4736 51.0781 39.4736C50.6999 39.4736 50.3351 39.4466 49.9839 39.3926C49.6326 39.3385 49.2409 39.2575 48.8086 39.1494C48.4303 39.0413 48.0116 38.9468 47.5522 38.8657C47.0929 38.7847 46.6201 38.7441 46.1338 38.7441C45.9717 38.7441 45.7826 38.7576 45.5664 38.7847C45.3503 38.8117 45.1341 38.8522 44.918 38.9062C44.2695 39.0143 43.6751 39.2575 43.1348 39.6357C42.5944 40.014 42.1351 40.4463 41.7568 40.9326C41.3245 41.4189 40.9868 41.9728 40.7437 42.5942C40.5005 43.2157 40.3249 43.8236 40.2168 44.418C40.2168 44.6341 40.2033 44.8232 40.1763 44.9854C40.1493 45.1475 40.1357 45.3366 40.1357 45.5527C40.1357 46.5794 40.3114 47.5791 40.6626 48.5518C41.0138 49.5244 41.4326 50.443 41.9189 51.3076C42.4593 52.2803 43.0672 53.1989 43.7427 54.0635C44.4181 54.9281 45.0531 55.7926 45.6475 56.6572C46.458 57.846 47.201 59.0618 47.8765 60.3047C48.5519 61.5475 49.1598 62.8174 49.7002 64.1143C49.8623 64.3844 49.9974 64.6546 50.1055 64.9248C50.2135 65.195 50.3486 65.4922 50.5107 65.8164C50.6729 66.0866 50.8755 66.3568 51.1187 66.627C51.3618 66.8971 51.6185 67.1403 51.8887 67.3564C52.2129 67.6266 52.5641 67.8158 52.9424 67.9238C53.3206 68.0319 53.6989 68.0859 54.0771 68.0859C54.2933 68.0859 54.5094 68.0589 54.7256 68.0049C54.9417 67.9508 55.1579 67.8968 55.374 67.8428C55.5902 67.7347 55.7928 67.5996 55.9819 67.4375C56.1711 67.2754 56.3197 67.0863 56.4277 66.8701C56.5898 66.5999 56.7114 66.3298 56.7925 66.0596C56.8735 65.7894 56.887 65.5462 56.833 65.3301C56.833 65.0599 56.8195 64.8167 56.7925 64.6006C56.7655 64.3844 56.7249 64.1953 56.6709 64.0332C56.6169 63.8171 56.5628 63.6144 56.5088 63.4253C56.4548 63.2362 56.4007 63.0876 56.3467 62.9795C56.1846 62.4391 56.063 61.8988 55.9819 61.3584C55.9009 60.818 55.8604 60.2507 55.8604 59.6562C55.8604 59.3861 55.8739 59.1024 55.9009 58.8052C55.9279 58.508 55.9684 58.2243 56.0225 57.9541C56.0225 57.738 56.063 57.5218 56.144 57.3057C56.2251 57.0895 56.3197 56.9274 56.4277 56.8193C56.4277 56.7653 56.4548 56.7113 56.5088 56.6572C56.5628 56.6032 56.6169 56.5762 56.6709 56.5762C56.6709 56.5221 56.6844 56.4951 56.7114 56.4951C56.7384 56.4951 56.752 56.4951 56.752 56.4951C56.752 56.4951 56.7655 56.4951 56.7925 56.4951C56.8195 56.4951 56.833 56.4951 56.833 56.4951C56.833 56.4951 56.86 56.5086 56.9141 56.5356C56.9681 56.5627 57.0492 56.6032 57.1572 56.6572C57.2653 56.7113 57.3734 56.7923 57.4814 56.9004C57.5895 57.0085 57.6706 57.1165 57.7246 57.2246C58.265 57.873 58.7378 58.589 59.1431 59.3726C59.5483 60.1561 59.8591 60.9531 60.0752 61.7637C60.1833 62.0879 60.2778 62.4391 60.3589 62.8174C60.4399 63.1956 60.5885 63.6009 60.8047 64.0332C60.9668 64.2493 61.1289 64.452 61.291 64.6411C61.4531 64.8302 61.6423 65.0059 61.8584 65.168C62.0745 65.3301 62.3177 65.4652 62.5879 65.5732C62.8581 65.6813 63.1283 65.7354 63.3984 65.7354H63.4795C63.6956 65.7354 63.9118 65.6948 64.1279 65.6138C64.3441 65.5327 64.5602 65.4382 64.7764 65.3301C65.0465 65.168 65.2762 64.9653 65.4653 64.7222C65.6545 64.479 65.8301 64.2223 65.9922 63.9521C66.1003 63.736 66.1948 63.4928 66.2759 63.2227C66.3569 62.9525 66.4245 62.6823 66.4785 62.4121C66.5326 62.0879 66.5596 61.7907 66.5596 61.5205C66.5596 61.2503 66.5596 60.9801 66.5596 60.71C66.5596 59.6292 66.4785 58.6025 66.3164 57.6299C66.1543 56.6572 66.0462 55.7116 65.9922 54.793C65.9922 54.6309 65.9922 54.4958 65.9922 54.3877C65.9922 54.2796 65.9922 54.1445 65.9922 53.9824C65.9922 53.1719 66.0462 52.3343 66.1543 51.4697C66.2624 50.6051 66.3704 49.7406 66.4785 48.876C66.5326 48.2275 66.6001 47.5656 66.6812 46.8901C66.7622 46.2147 66.8027 45.5527 66.8027 44.9043ZM63.9658 54.874C64.0199 55.9007 64.1279 56.9004 64.29 57.873C64.4521 58.8457 64.5332 59.7913 64.5332 60.71C64.5332 60.9261 64.5197 61.1423 64.4927 61.3584C64.4657 61.5745 64.4251 61.8177 64.3711 62.0879C64.3711 62.304 64.3306 62.5202 64.2495 62.7363C64.1685 62.9525 64.0739 63.1146 63.9658 63.2227C63.9118 63.3307 63.8577 63.3983 63.8037 63.4253C63.7497 63.4523 63.6956 63.4928 63.6416 63.5469C63.5876 63.5469 63.547 63.5604 63.52 63.5874C63.493 63.6144 63.4525 63.6279 63.3984 63.6279C63.3984 63.6279 63.3579 63.6144 63.2769 63.5874C63.1958 63.5604 63.1283 63.5199 63.0742 63.4658C63.0202 63.4118 62.9526 63.3442 62.8716 63.2632C62.7905 63.1821 62.723 63.0876 62.6689 62.9795C62.5609 62.7633 62.4663 62.5067 62.3853 62.2095C62.3042 61.9123 62.2096 61.5745 62.1016 61.1963C61.8314 60.2236 61.4666 59.2915 61.0073 58.3999C60.548 57.5083 60.0212 56.6842 59.4268 55.9277C59.2646 55.7656 59.1025 55.6035 58.9404 55.4414C58.7783 55.2793 58.5892 55.1172 58.373 54.9551C58.2109 54.793 57.9948 54.6579 57.7246 54.5498C57.4544 54.4417 57.1572 54.3877 56.833 54.3877H56.6709C56.4548 54.3877 56.2386 54.4282 56.0225 54.5093C55.8063 54.5903 55.6172 54.6849 55.4551 54.793C55.1849 55.0091 54.9688 55.2253 54.8066 55.4414C54.6445 55.6576 54.5094 55.9007 54.4014 56.1709C54.2933 56.387 54.1987 56.6167 54.1177 56.8599C54.0366 57.103 53.9691 57.3597 53.915 57.6299C53.861 57.9541 53.8205 58.2918 53.7935 58.6431C53.7664 58.9943 53.7529 59.332 53.7529 59.6562C53.7529 60.3047 53.807 60.9666 53.915 61.6421C54.0231 62.3175 54.1852 62.9525 54.4014 63.5469C54.4554 63.709 54.4959 63.8711 54.5229 64.0332C54.55 64.1953 54.5905 64.3574 54.6445 64.5195C54.6986 64.6816 54.7391 64.8302 54.7661 64.9653C54.7931 65.1004 54.8066 65.222 54.8066 65.3301C54.8066 65.4382 54.7931 65.5192 54.7661 65.5732C54.7391 65.6273 54.6986 65.6813 54.6445 65.7354C54.6445 65.7894 54.631 65.8299 54.604 65.8569C54.577 65.884 54.5365 65.8975 54.4824 65.8975C54.4284 65.9515 54.3608 65.9785 54.2798 65.9785C54.1987 65.9785 54.1312 65.9785 54.0771 65.9785C53.915 65.9785 53.7529 65.9515 53.5908 65.8975C53.4287 65.8434 53.2936 65.7894 53.1855 65.7354C53.0234 65.5732 52.8748 65.4111 52.7397 65.249C52.6047 65.0869 52.4831 64.8978 52.375 64.6816C52.2129 64.5195 52.0778 64.3169 51.9697 64.0737C51.8617 63.8306 51.7536 63.5739 51.6455 63.3037C51.0511 61.9528 50.4027 60.6154 49.7002 59.2915C48.9977 57.9676 48.2412 56.6842 47.4307 55.4414C46.7822 54.5768 46.1203 53.7122 45.4448 52.8477C44.7694 51.9831 44.1885 51.1185 43.7021 50.2539C43.2699 49.4974 42.9186 48.7139 42.6484 47.9033C42.3783 47.0928 42.2432 46.2822 42.2432 45.4717C42.2432 45.3636 42.2567 45.242 42.2837 45.1069C42.3107 44.9718 42.3242 44.8503 42.3242 44.7422C42.3783 44.2559 42.4998 43.8101 42.689 43.4048C42.8781 42.9995 43.1077 42.6077 43.3779 42.2295C43.6481 41.9053 43.9588 41.6216 44.3101 41.3784C44.6613 41.1353 45.026 40.9867 45.4043 40.9326C45.5124 40.8786 45.634 40.8516 45.769 40.8516C45.9041 40.8516 46.0257 40.8516 46.1338 40.8516C46.458 40.8516 46.8092 40.8786 47.1875 40.9326C47.5658 40.9867 47.971 41.0677 48.4033 41.1758C48.7816 41.2839 49.2004 41.3784 49.6597 41.4595C50.119 41.5405 50.5918 41.5811 51.0781 41.5811C51.2402 41.5811 51.4159 41.5675 51.605 41.5405C51.7941 41.5135 51.9697 41.473 52.1318 41.4189C52.5101 41.3649 52.8478 41.2703 53.145 41.1353C53.4422 41.0002 53.7259 40.8245 53.9961 40.6084C54.4284 40.3382 54.7931 40.041 55.0903 39.7168C55.3875 39.3926 55.6982 39.0954 56.0225 38.8252C56.2926 38.501 56.5628 38.2308 56.833 38.0146C57.1032 37.7985 57.3734 37.6094 57.6436 37.4473C57.9137 37.3392 58.1839 37.2446 58.4541 37.1636C58.7243 37.0825 58.9945 37.042 59.2646 37.042C59.751 37.042 60.2643 37.1501 60.8047 37.3662C61.3451 37.5824 61.8044 37.8525 62.1826 38.1768C62.8311 38.7171 63.3579 39.4061 63.7632 40.2437C64.1685 41.0812 64.4251 41.9323 64.5332 42.7969C64.5872 43.1751 64.6278 43.5264 64.6548 43.8506C64.6818 44.1748 64.6953 44.526 64.6953 44.9043C64.6953 45.4987 64.6683 46.1066 64.6143 46.728C64.5602 47.3494 64.4792 47.9844 64.3711 48.6328C64.263 49.4974 64.1549 50.3755 64.0469 51.2671C63.9388 52.1587 63.8848 53.0638 63.8848 53.9824C63.8848 54.1445 63.8983 54.2931 63.9253 54.4282C63.9523 54.5633 63.9658 54.7119 63.9658 54.874Z" fill="#009CDE"/>
</svg>
