<svg width="24" height="21" viewBox="0 0 24 21" fill="none" xmlns="http://www.w3.org/2000/svg">
<path d="M23.8924 10.4167C23.8924 16.1696 18.5439 20.8333 11.9462 20.8333C5.34849 20.8333 0 16.1696 0 10.4167C0 4.6637 5.34849 0 11.9462 0C18.5439 0 23.8924 4.6637 23.8924 10.4167Z" fill="white"/>
<path fill-rule="evenodd" clip-rule="evenodd" d="M11.9463 5.46875C12.4411 5.46875 12.8422 5.81853 12.8422 6.25V10.093L15.5663 12.4684C15.9162 12.7735 15.9162 13.2681 15.5663 13.5732C15.2164 13.8783 14.6492 13.8783 14.2993 13.5732L11.3128 10.9691C11.1447 10.8226 11.0503 10.6239 11.0503 10.4167V6.25C11.0503 5.81853 11.4514 5.46875 11.9463 5.46875Z" fill="black"/>
</svg>
