<svg width="65" height="64" viewBox="0 0 65 64" fill="none" xmlns="http://www.w3.org/2000/svg">
<g clip-path="url(#clip0_1_3642)">
<path d="M32.8447 0C28.4281 0 24.2822 0.833332 20.4072 2.5C16.4906 4.16667 13.0843 6.44792 10.1885 9.34375C7.29264 12.2396 5.01139 15.6458 3.34473 19.5625C1.67806 23.4375 0.844727 27.5833 0.844727 32C0.844727 36.4167 1.67806 40.5625 3.34473 44.4375C5.01139 48.3542 7.29264 51.7604 10.1885 54.6562C13.0843 57.5521 16.4906 59.8333 20.4072 61.5C24.2822 63.1667 28.4281 64 32.8447 64C37.2614 64 41.4072 63.1667 45.2822 61.5C49.1989 59.8333 52.6051 57.5521 55.501 54.6562C58.3968 51.7604 60.6781 48.3542 62.3447 44.4375C64.0114 40.5625 64.8447 36.4167 64.8447 32C64.8447 27.5833 64.0114 23.4375 62.3447 19.5625C60.6781 15.6458 58.3968 12.2396 55.501 9.34375C52.6051 6.44792 49.1989 4.16667 45.2822 2.5C41.4072 0.833332 37.2614 0 32.8447 0ZM54.4697 53.625C53.0947 55 51.5947 56.25 49.9697 57.375C48.3031 58.4583 46.5635 59.3854 44.751 60.1562C42.9385 60.9271 41.0322 61.5208 39.0322 61.9375C37.0322 62.3542 34.9697 62.5625 32.8447 62.5625C30.7197 62.5625 28.6572 62.3542 26.6572 61.9375C24.6572 61.5208 22.751 60.9271 20.9385 60.1562C19.126 59.3854 17.3864 58.4583 15.7197 57.375C14.0947 56.25 12.5947 55 11.2197 53.625C9.84473 52.25 8.59473 50.75 7.46973 49.125C6.38639 47.4583 5.45931 45.7188 4.68848 43.9062C3.91764 42.0938 3.32389 40.1875 2.90723 38.1875C2.49056 36.1875 2.28223 34.125 2.28223 32C2.28223 29.875 2.49056 27.8125 2.90723 25.8125C3.32389 23.8125 3.91764 21.9062 4.68848 20.0938C5.45931 18.2812 6.38639 16.5417 7.46973 14.875C8.59473 13.25 9.84473 11.75 11.2197 10.375C12.5947 9 14.0947 7.75 15.7197 6.625C17.3864 5.54167 19.126 4.61458 20.9385 3.84375C22.751 3.07292 24.6572 2.47917 26.6572 2.0625C28.6572 1.64583 30.7197 1.4375 32.8447 1.4375C34.9697 1.4375 37.0322 1.64583 39.0322 2.0625C41.0322 2.47917 42.9385 3.07292 44.751 3.84375C46.5635 4.61458 48.3031 5.54167 49.9697 6.625C51.5947 7.75 53.0947 9 54.4697 10.375C55.8447 11.75 57.0947 13.25 58.2197 14.875C59.3031 16.5417 60.2301 18.2812 61.001 20.0938C61.7718 21.9062 62.3656 23.8125 62.7822 25.8125C63.1989 27.8125 63.4072 29.875 63.4072 32C63.4072 34.125 63.1989 36.1875 62.7822 38.1875C62.3656 40.1875 61.7718 42.0938 61.001 43.9062C60.2301 45.7188 59.3031 47.4583 58.2197 49.125C57.0947 50.75 55.8447 52.25 54.4697 53.625ZM47.1572 23.0625C47.1572 21.9375 47.0114 20.8854 46.7197 19.9062C46.4281 18.9271 46.0322 18.0625 45.5322 17.3125C44.8656 16.4792 44.0739 15.8333 43.1572 15.375C42.2406 14.9167 41.2197 14.6875 40.0947 14.6875H40.0322C38.7822 14.6875 37.6572 14.8438 36.6572 15.1562C35.6572 15.4688 34.7822 15.7708 34.0322 16.0625C33.6989 16.2292 33.3864 16.3646 33.0947 16.4688C32.8031 16.5729 32.5531 16.625 32.3447 16.625C32.1781 16.625 31.9489 16.5729 31.6572 16.4688C31.3656 16.3646 31.0531 16.2292 30.7197 16.0625C29.9697 15.7708 29.0947 15.4688 28.0947 15.1562C27.0947 14.8438 25.9697 14.6875 24.7197 14.6875H24.6572C23.5322 14.6875 22.501 14.9167 21.5635 15.375C20.626 15.8333 19.8447 16.4792 19.2197 17.3125C18.6781 18.0625 18.2718 18.9271 18.001 19.9062C17.7301 20.8854 17.5947 21.9375 17.5947 23.0625C17.5947 23.8125 17.6572 24.5312 17.7822 25.2188C17.9072 25.9062 18.0739 26.5417 18.2822 27.125C18.7406 28.2083 19.0322 29.2083 19.1572 30.125C19.2822 31.0417 19.4072 31.9792 19.5322 32.9375C19.6156 34.1042 19.7718 35.3854 20.001 36.7812C20.2301 38.1771 20.7406 39.8958 21.5322 41.9375C22.2406 43.8542 23.2093 45.0417 24.4385 45.5C25.6676 45.9583 26.5947 46.1875 27.2197 46.1875C27.7197 46.1875 28.1989 46.0625 28.6572 45.8125C29.1156 45.5625 29.5322 45.2083 29.9072 44.75C30.4906 44.0833 30.876 43.3021 31.0635 42.4062C31.251 41.5104 31.2614 40.5833 31.0947 39.625C30.9281 38.875 30.7926 37.7917 30.6885 36.375C30.5843 34.9583 30.8239 33.8958 31.4072 33.1875C31.5322 33.0208 31.6781 32.8958 31.8447 32.8125C32.0114 32.7292 32.1781 32.6875 32.3447 32.6875C32.5531 32.6875 32.7406 32.7292 32.9072 32.8125C33.0739 32.8958 33.2197 33.0208 33.3447 33.1875C33.9281 33.8958 34.1676 34.9583 34.0635 36.375C33.9593 37.7917 33.8239 38.875 33.6572 39.625C33.4906 40.5833 33.501 41.5104 33.6885 42.4062C33.876 43.3021 34.2406 44.0833 34.7822 44.75C35.1572 45.2083 35.5843 45.5625 36.0635 45.8125C36.5426 46.0625 37.0322 46.1875 37.5322 46.1875V47.5C37.5322 47.5833 37.5426 47.6667 37.5635 47.75C37.5843 47.8333 37.6364 47.8958 37.7197 47.9375C37.7614 47.9792 37.8239 48.0208 37.9072 48.0625C37.9906 48.1042 38.0739 48.125 38.1572 48.125H38.7822V52.625C38.7822 52.7083 38.8031 52.7917 38.8447 52.875C38.8864 52.9583 38.9281 53.0208 38.9697 53.0625C39.0531 53.1458 39.1364 53.1979 39.2197 53.2188C39.3031 53.2396 39.3864 53.25 39.4697 53.25H44.5947C44.6781 53.25 44.7614 53.2396 44.8447 53.2188C44.9281 53.1979 44.9906 53.1458 45.0322 53.0625C45.1156 53.0208 45.1676 52.9583 45.1885 52.875C45.2093 52.7917 45.2197 52.7083 45.2197 52.625V48.125H45.9072C45.9906 48.125 46.0635 48.1042 46.126 48.0625C46.1885 48.0208 46.2614 47.9792 46.3447 47.9375C46.3864 47.8542 46.4281 47.7812 46.4697 47.7188C46.5114 47.6562 46.5322 47.5833 46.5322 47.5V43.625C46.5322 43.5417 46.5114 43.4583 46.4697 43.375C46.4281 43.2917 46.3864 43.2292 46.3447 43.1875C46.2614 43.1042 46.1885 43.0521 46.126 43.0312C46.0635 43.0104 45.9906 43 45.9072 43H45.3447L47.1572 32.125C47.1572 32.0417 47.1468 31.9583 47.126 31.875C47.1051 31.7917 47.0739 31.7083 47.0322 31.625C46.9489 31.5417 46.8656 31.4792 46.7822 31.4375C46.6989 31.3958 46.6156 31.375 46.5322 31.375H45.4072C45.4906 30.75 45.6051 30.0938 45.751 29.4062C45.8968 28.7188 46.1364 27.9583 46.4697 27.125C46.6781 26.5417 46.8447 25.8958 46.9697 25.1875C47.0947 24.4792 47.1572 23.7708 47.1572 23.0625ZM43.9697 52H40.0947V48.125H43.9697V52ZM45.2197 46.8125H38.7822V44.25H45.2197V46.8125ZM45.7822 32.6875L44.0322 43H39.9697L38.2822 32.6875H39.5322L40.0947 36C40.1364 36.1667 40.2093 36.3021 40.3135 36.4062C40.4176 36.5104 40.5531 36.5625 40.7197 36.5625H40.8447C40.9281 36.5208 41.001 36.4792 41.0635 36.4375C41.126 36.3958 41.1989 36.3333 41.2822 36.25C41.3239 36.2083 41.3551 36.1458 41.376 36.0625C41.3968 35.9792 41.3864 35.8958 41.3447 35.8125L40.8447 32.6875H43.2197L42.6572 35.8125C42.6572 35.9792 42.7093 36.1354 42.8135 36.2812C42.9176 36.4271 43.0531 36.5208 43.2197 36.5625C43.3864 36.5625 43.5426 36.5104 43.6885 36.4062C43.8343 36.3021 43.9281 36.1667 43.9697 36L44.5322 32.6875H45.7822ZM45.2822 26.6875C44.9072 27.6042 44.6364 28.4479 44.4697 29.2188C44.3031 29.9896 44.1781 30.7083 44.0947 31.375H37.5322C37.4489 31.375 37.3551 31.3958 37.251 31.4375C37.1468 31.4792 37.0739 31.5417 37.0322 31.625C36.9489 31.7083 36.8968 31.7917 36.876 31.875C36.8551 31.9583 36.8656 32.0417 36.9072 32.125L38.7197 43H38.1572C37.9906 43 37.8447 43.0625 37.7197 43.1875C37.5947 43.3125 37.5322 43.4583 37.5322 43.625V44.9375C37.2406 44.9375 36.9385 44.8438 36.626 44.6562C36.3135 44.4688 36.0322 44.2292 35.7822 43.9375C35.3656 43.4375 35.0843 42.8229 34.9385 42.0938C34.7926 41.3646 34.7822 40.625 34.9072 39.875C35.2822 38.0833 35.4176 36.5521 35.3135 35.2812C35.2093 34.0104 34.8864 33.0417 34.3447 32.375C34.0947 32.0417 33.8031 31.7917 33.4697 31.625C33.1364 31.4583 32.7614 31.375 32.3447 31.375C31.9697 31.375 31.6156 31.4583 31.2822 31.625C30.9489 31.7917 30.6572 32.0417 30.4072 32.375C29.8656 33.0417 29.5426 34.0104 29.4385 35.2812C29.3343 36.5521 29.4697 38.0833 29.8447 39.875C29.9697 40.625 29.9593 41.3646 29.8135 42.0938C29.6676 42.8229 29.3864 43.4375 28.9697 43.9375C28.7197 44.2292 28.4385 44.4688 28.126 44.6562C27.8135 44.8438 27.5114 44.9375 27.2197 44.9375C26.6364 44.9375 25.8864 44.7292 24.9697 44.3125C24.0531 43.8958 23.3031 42.9375 22.7197 41.4375C21.9697 39.5208 21.4906 37.8854 21.2822 36.5312C21.0739 35.1771 20.9072 33.9375 20.7822 32.8125C20.6989 31.8542 20.5843 30.8854 20.4385 29.9062C20.2926 28.9271 19.9697 27.8333 19.4697 26.625C19.3031 26.125 19.1572 25.5625 19.0322 24.9375C18.9072 24.3125 18.8447 23.6875 18.8447 23.0625C18.8447 22.0625 18.9697 21.1354 19.2197 20.2812C19.4697 19.4271 19.8239 18.7083 20.2822 18.125C20.7822 17.4167 21.4072 16.875 22.1572 16.5C22.9072 16.125 23.7406 15.9375 24.6572 15.9375H24.7197C25.8447 15.9375 26.876 16.0938 27.8135 16.4062C28.751 16.7188 29.5531 17 30.2197 17.25C30.6364 17.4167 31.0218 17.5625 31.376 17.6875C31.7301 17.8125 32.0739 17.875 32.4072 17.875C32.6989 17.875 33.0218 17.8125 33.376 17.6875C33.7301 17.5625 34.1156 17.4167 34.5322 17.25C35.1989 17 36.001 16.7188 36.9385 16.4062C37.876 16.0938 38.9072 15.9375 40.0322 15.9375H40.0947C41.0114 15.9375 41.8447 16.125 42.5947 16.5C43.3447 16.875 43.9697 17.4167 44.4697 18.125C44.9281 18.7083 45.2822 19.4271 45.5322 20.2812C45.7822 21.1354 45.9072 22.0625 45.9072 23.0625C45.9072 23.6875 45.8447 24.3125 45.7197 24.9375C45.5947 25.5625 45.4489 26.125 45.2822 26.625V26.6875ZM22.0947 23.6875C22.1781 23.6875 22.2614 23.6667 22.3447 23.625C22.4281 23.5833 22.4906 23.5417 22.5322 23.5C22.6156 23.4167 22.6676 23.3438 22.6885 23.2812C22.7093 23.2188 22.7197 23.125 22.7197 23C22.7197 22.375 22.7822 21.8229 22.9072 21.3438C23.0322 20.8646 23.2197 20.5 23.4697 20.25C23.6364 20.125 23.8135 20.0208 24.001 19.9375C24.1885 19.8542 24.4072 19.8125 24.6572 19.8125C24.8239 19.8125 24.9697 19.75 25.0947 19.625C25.2197 19.5 25.2822 19.3542 25.2822 19.1875C25.2822 18.9792 25.2197 18.8125 25.0947 18.6875C24.9697 18.5625 24.8239 18.5 24.6572 18.5C24.2406 18.5 23.8551 18.5729 23.501 18.7188C23.1468 18.8646 22.8239 19.0833 22.5322 19.375C22.1572 19.75 21.876 20.2396 21.6885 20.8438C21.501 21.4479 21.4072 22.1667 21.4072 23C21.4072 23.2083 21.4801 23.375 21.626 23.5C21.7718 23.625 21.9281 23.6875 22.0947 23.6875ZM24.5947 32.8125C24.5114 31.8542 24.3968 30.8854 24.251 29.9062C24.1051 28.9271 23.8031 27.8542 23.3447 26.6875C23.2614 26.5208 23.1364 26.3958 22.9697 26.3125C22.8031 26.2292 22.6364 26.2292 22.4697 26.3125C22.3031 26.3542 22.1885 26.4583 22.126 26.625C22.0635 26.7917 22.0531 26.9583 22.0947 27.125C22.5531 28.2083 22.8551 29.2083 23.001 30.125C23.1468 31.0417 23.2614 31.9792 23.3447 32.9375C23.4281 34.0208 23.5739 35.2188 23.7822 36.5312C23.9906 37.8438 24.4281 39.4167 25.0947 41.25C25.1364 41.3333 25.1781 41.4062 25.2197 41.4688C25.2614 41.5312 25.3239 41.5833 25.4072 41.625C25.4906 41.6667 25.5739 41.6875 25.6572 41.6875C25.7406 41.6875 25.8239 41.6875 25.9072 41.6875C25.9906 41.6458 26.0635 41.5938 26.126 41.5312C26.1885 41.4688 26.2406 41.3958 26.2822 41.3125C26.3239 41.2292 26.3447 41.1458 26.3447 41.0625C26.3447 40.9792 26.3239 40.8958 26.2822 40.8125C25.6572 39.0625 25.251 37.5521 25.0635 36.2812C24.876 35.0104 24.7197 33.8542 24.5947 32.8125Z" fill="#009CDE"/>
</g>
<defs>
<clipPath id="clip0_1_3642">
<rect width="64" height="64" fill="white" transform="matrix(1 0 0 -1 0.844727 64)"/>
</clipPath>
</defs>
</svg>
