<svg width="700" height="550" viewBox="0 0 700 550" fill="none" xmlns="http://www.w3.org/2000/svg">
<rect width="700" height="550" fill="#E0F3FE"/>
<path d="M540.397 400.922H79.4363C68.3668 400.922 59.3949 393.041 59.3949 383.319V119.268C59.3949 109.545 68.3668 101.665 79.4363 101.665H540.397C551.466 101.665 560.438 109.545 560.438 119.268V383.318C560.438 393.04 551.466 400.922 540.397 400.922Z" fill="#FFDC64"/>
<path d="M209.708 233.69H129.541C124.007 233.69 119.52 229.749 119.52 224.889V172.078C119.52 167.218 124.007 163.277 129.541 163.277H209.708C215.241 163.277 219.729 167.218 219.729 172.078V224.889C219.729 229.749 215.241 233.69 209.708 233.69Z" fill="#FFC850"/>
<path d="M520.355 233.69C437.341 233.69 370.043 292.799 370.043 365.715C370.043 377.927 372.08 389.697 375.613 400.922H540.397C551.465 400.922 560.438 393.04 560.438 383.319V238.584C547.66 235.48 534.259 233.69 520.355 233.69Z" fill="#FFC850"/>
<path d="M395.094 233.69C419.998 233.69 440.187 215.957 440.187 194.082C440.187 172.208 419.998 154.475 395.094 154.475C370.189 154.475 350 172.208 350 194.082C350 215.957 370.189 233.69 395.094 233.69Z" fill="#FF507D"/>
<path d="M455.219 233.69C480.124 233.69 500.313 215.957 500.313 194.082C500.313 172.208 480.124 154.475 455.219 154.475C430.315 154.475 410.125 172.208 410.125 194.082C410.125 215.957 430.315 233.69 455.219 233.69Z" fill="#FFC850"/>
<path d="M410.125 194.083C410.125 205.767 415.994 216.162 425.157 223.41C434.32 216.161 440.189 205.766 440.189 194.083C440.189 182.398 434.32 172.003 425.157 164.755C415.994 172.003 410.125 182.398 410.125 194.083Z" fill="#FF8C66"/>
<path d="M520.355 471.335C586.768 471.335 640.606 424.047 640.606 365.715C640.606 307.382 586.768 260.094 520.355 260.094C453.943 260.094 400.105 307.382 400.105 365.715C400.105 424.047 453.943 471.335 520.355 471.335Z" fill="#B4E66E"/>
<path d="M580.48 450.211C514.067 450.211 460.229 402.923 460.229 344.591C460.229 310.345 478.868 279.996 507.63 260.698C447.203 266.283 400.104 311.159 400.104 365.715C400.104 424.047 453.942 471.335 520.354 471.335C547.777 471.335 572.973 463.181 593.204 449.609C589.02 449.996 584.779 450.211 580.48 450.211Z" fill="#A0D755"/>
<path d="M370.041 392.67H79.4363C73.5652 392.67 68.7887 388.474 68.7887 383.318V119.268C68.7887 114.111 73.5652 109.916 79.4363 109.916H540.397C546.268 109.916 551.044 114.111 551.044 119.268V233.692C551.044 238.249 555.25 241.944 560.439 241.944C565.627 241.944 569.834 238.25 569.834 233.692V119.268C569.834 105.011 556.63 93.4131 540.398 93.4131H79.4363C63.2047 93.4131 50 105.011 50 119.268V383.318C50 397.574 63.2047 409.173 79.4363 409.173H370.041C375.229 409.173 379.436 405.478 379.436 400.921C379.436 396.365 375.23 392.67 370.041 392.67Z" fill="black"/>
<path d="M520.355 251.844C448.869 251.844 390.711 302.927 390.711 365.715C390.711 428.503 448.87 479.586 520.355 479.586C591.841 479.586 650 428.504 650 365.715C650 302.926 591.841 251.844 520.355 251.844ZM520.355 463.083C459.229 463.083 409.5 419.404 409.5 365.715C409.5 312.026 459.229 268.346 520.355 268.346C581.482 268.346 631.211 312.026 631.211 365.715C631.211 419.404 581.48 463.083 520.355 463.083Z" fill="black"/>
<path d="M129.541 241.942H209.708C220.414 241.942 229.123 234.292 229.123 224.888V172.078C229.123 162.675 220.414 155.025 209.708 155.025H129.541C118.835 155.025 110.125 162.675 110.125 172.078V224.888C110.125 234.292 118.835 241.942 129.541 241.942ZM210.334 172.078V224.888C210.334 225.192 210.053 225.438 209.708 225.438H168.998V206.735H179.646C184.834 206.735 189.041 203.041 189.041 198.483C189.041 193.925 184.835 190.231 179.646 190.231H168.998V171.528H209.708C210.053 171.529 210.334 171.775 210.334 172.078ZM128.914 172.078C128.914 171.775 129.194 171.529 129.54 171.529H150.208V225.439H129.541C129.195 225.439 128.915 225.193 128.915 224.889V172.078H128.914Z" fill="black"/>
<path d="M425.182 154.179C416.309 149.015 405.859 146.223 395.094 146.223C365.049 146.223 340.605 167.692 340.605 194.082C340.605 220.472 365.048 241.942 395.094 241.942C406.191 241.942 416.52 239.005 425.142 233.98C434.015 239.14 444.477 241.942 455.219 241.942C485.264 241.942 509.708 220.472 509.708 194.082C509.708 167.692 485.265 146.223 455.219 146.223C444.125 146.223 433.8 149.158 425.182 154.179ZM359.395 194.082C359.395 176.792 375.41 162.727 395.094 162.727C400.697 162.727 406.166 163.887 411.092 166.056C404.582 173.94 400.73 183.621 400.73 194.082C400.73 204.257 404.416 214.028 411.071 222.11C406.259 224.235 400.835 225.438 395.094 225.438C375.41 225.438 359.395 211.372 359.395 194.082ZM490.919 194.082C490.919 211.372 474.904 225.438 455.22 225.438C449.627 225.438 444.153 224.276 439.224 222.106C445.733 214.222 449.584 204.542 449.584 194.081C449.584 189.525 445.378 185.829 440.189 185.829C435.001 185.829 430.794 189.524 430.794 194.081C430.794 200.295 428.717 206.089 425.152 210.966C421.517 205.975 419.52 200.138 419.52 194.081C419.52 176.791 435.535 162.726 455.219 162.726C474.904 162.726 490.919 176.792 490.919 194.082Z" fill="black"/>
<path d="M119.52 303.554H199.687C204.875 303.554 209.082 299.859 209.082 295.302C209.082 290.745 204.876 287.05 199.687 287.05H119.52C114.332 287.05 110.125 290.744 110.125 295.302C110.125 299.859 114.331 303.554 119.52 303.554Z" fill="black"/>
<path d="M119.52 356.364H360.022C365.21 356.364 369.417 352.669 369.417 348.112C369.417 343.555 365.211 339.86 360.022 339.86H119.52C114.332 339.86 110.125 343.554 110.125 348.112C110.125 352.668 114.331 356.364 119.52 356.364Z" fill="black"/>
<path d="M319.938 303.554C325.126 303.554 329.333 299.859 329.333 295.302C329.333 290.745 325.127 287.05 319.938 287.05H239.771C234.583 287.05 230.376 290.744 230.376 295.302C230.376 299.858 234.582 303.554 239.771 303.554H319.938Z" fill="black"/>
<path d="M380.062 287.05H360.021C354.833 287.05 350.626 290.744 350.626 295.302C350.626 299.858 354.832 303.554 360.021 303.554H380.062C385.25 303.554 389.457 299.859 389.457 295.302C389.457 290.745 385.251 287.05 380.062 287.05Z" fill="black"/>
<path d="M597.144 324.673C593.475 321.451 587.526 321.451 583.858 324.673L500.313 398.053L456.852 359.879C453.182 356.657 447.234 356.657 443.566 359.879C439.897 363.102 439.897 368.326 443.566 371.549L493.671 415.557C495.505 417.169 497.909 417.974 500.313 417.974C502.716 417.974 505.121 417.169 506.955 415.557L597.143 336.343C600.813 333.12 600.813 327.896 597.144 324.673Z" fill="black"/>
</svg>
