<svg width="140" height="143" viewBox="0 0 140 143" fill="none" xmlns="http://www.w3.org/2000/svg">
<path d="M140 42.9006H98V0H42V42.9006H0V100.101H42V143H98V100.101H140V42.9006Z" fill="#D80027"/>
<path d="M98 42.9006V0H70V143H98V100.101H140V42.9006H98Z" fill="#A2001D"/>
<path d="M93.6786 56.2261C88.1631 50.9356 79.4932 51.2135 74.3132 56.8467L70 61.5386L65.6865 56.8472C60.5065 51.2141 51.8369 50.9362 46.3211 56.2266C40.8056 61.5176 40.5341 70.3736 45.7136 76.007L70 100.1L94.2862 76.007C99.4662 70.373 99.1941 61.5171 93.6786 56.2261Z" fill="white"/>
</svg>
