<svg width="64" height="64" viewBox="0 0 64 64" fill="none" xmlns="http://www.w3.org/2000/svg">
<g clip-path="url(#clip0_144_64)">
<path d="M64 19.2003H44.8V0H19.2V19.2003H0V44.8003H19.2V64H44.8V44.8003H64V19.2003Z" fill="#D80027"/>
<path d="M44.8 19.2003V0H32V64H44.8V44.8003H64V19.2003H44.8Z" fill="#A2001D"/>
<path d="M42.8245 25.1641C40.3031 22.7964 36.3397 22.9208 33.9717 25.4419L32 27.5418L30.0281 25.4421C27.6601 22.921 23.6969 22.7966 21.1754 25.1644C18.654 27.5324 18.5299 31.4959 20.8976 34.0171L32 44.8L43.1022 34.0171C45.4702 31.4956 45.3459 27.5321 42.8245 25.1641Z" fill="white"/>
</g>
<defs>
<clipPath id="clip0_144_64">
<rect width="64" height="64" fill="white"/>
</clipPath>
</defs>
</svg>
