<svg width="65" height="64" viewBox="0 0 65 64" fill="none" xmlns="http://www.w3.org/2000/svg">
<g clip-path="url(#clip0_1_44)">
<path d="M32.64 0C28.2233 0 24.0775 0.833333 20.2025 2.5C16.3275 4.16667 12.9421 6.44792 10.0463 9.34375C7.15043 12.2396 4.84835 15.6458 3.14001 19.5625C1.47335 23.4375 0.640015 27.5833 0.640015 32C0.640015 36.4167 1.47335 40.5625 3.14001 44.4375C4.84835 48.3542 7.15043 51.7604 10.0463 54.6562C12.9421 57.5521 16.3275 59.8333 20.2025 61.5C24.0775 63.1667 28.2233 64 32.64 64C37.0567 64 41.2233 63.1667 45.14 61.5C49.015 59.8333 52.4004 57.5521 55.2963 54.6562C58.1921 51.7604 60.4733 48.3542 62.14 44.4375C63.8067 40.5625 64.64 36.4167 64.64 32C64.64 27.5833 63.8067 23.4375 62.14 19.5625C60.4733 15.6458 58.1921 12.2396 55.2963 9.34375C52.4004 6.44792 49.015 4.16667 45.14 2.5C41.2233 0.833333 37.0567 0 32.64 0ZM54.265 53.625C52.89 55 51.39 56.25 49.765 57.375C48.14 58.4583 46.4108 59.3854 44.5775 60.1562C42.7442 60.9271 40.8275 61.5208 38.8275 61.9375C36.8275 62.3542 34.765 62.5625 32.64 62.5625C30.5567 62.5625 28.515 62.3542 26.515 61.9375C24.515 61.5208 22.5983 60.9271 20.765 60.1562C18.9317 59.3854 17.2025 58.4583 15.5775 57.375C13.9525 56.25 12.4317 55 11.015 53.625C9.64001 52.25 8.41085 50.75 7.32751 49.125C6.20251 47.4583 5.2546 45.7188 4.48376 43.9062C3.71293 42.0938 3.11918 40.1875 2.70251 38.1875C2.28585 36.1875 2.07751 34.125 2.07751 32C2.07751 29.875 2.28585 27.8125 2.70251 25.8125C3.11918 23.8125 3.71293 21.9062 4.48376 20.0938C5.2546 18.2812 6.20251 16.5417 7.32751 14.875C8.41085 13.25 9.64001 11.75 11.015 10.375C12.4317 9 13.9525 7.75 15.5775 6.625C17.2025 5.54167 18.9317 4.61458 20.765 3.84375C22.5983 3.07292 24.515 2.47917 26.515 2.0625C28.515 1.64583 30.5567 1.4375 32.64 1.4375C34.765 1.4375 36.8275 1.64583 38.8275 2.0625C40.8275 2.47917 42.7442 3.07292 44.5775 3.84375C46.4108 4.61458 48.14 5.54167 49.765 6.625C51.39 7.75 52.89 9 54.265 10.375C55.64 11.75 56.89 13.25 58.015 14.875C59.0983 16.5417 60.0358 18.2812 60.8275 20.0938C61.6192 21.9062 62.2233 23.8125 62.64 25.8125C63.015 27.8125 63.2025 29.875 63.2025 32C63.2025 34.125 63.015 36.1875 62.64 38.1875C62.2233 40.1875 61.6192 42.0938 60.8275 43.9062C60.0358 45.7188 59.0983 47.4583 58.015 49.125C56.89 50.75 55.64 52.25 54.265 53.625ZM16.0775 28.6875C16.0775 29.2292 16.2546 29.7083 16.6088 30.125C16.9629 30.5417 17.4108 30.75 17.9525 30.75H19.4525C19.7442 30.75 19.9942 30.6979 20.2025 30.5938C20.4108 30.4896 20.5983 30.3542 20.765 30.1875C20.9733 30.4375 21.2338 30.6354 21.5463 30.7812C21.8588 30.9271 22.1817 31 22.515 31H24.64C24.9733 31 25.2754 30.9479 25.5463 30.8438C25.8171 30.7396 26.0567 30.5833 26.265 30.375C26.4733 30.7083 26.765 30.9896 27.14 31.2188C27.515 31.4479 27.9317 31.5625 28.39 31.5625H30.7025C31.1192 31.5625 31.4942 31.4688 31.8275 31.2812C32.1608 31.0938 32.4317 30.8542 32.64 30.5625C32.89 30.8542 33.1817 31.0938 33.515 31.2812C33.8483 31.4688 34.2025 31.5625 34.5775 31.5625H36.9525C37.3692 31.5625 37.765 31.4479 38.14 31.2188C38.515 30.9896 38.8067 30.7083 39.015 30.375C39.265 30.5833 39.5254 30.7396 39.7963 30.8438C40.0671 30.9479 40.3483 31 40.64 31H42.765C43.14 31 43.4733 30.9271 43.765 30.7812C44.0567 30.6354 44.3275 30.4375 44.5775 30.1875C44.7025 30.3542 44.8796 30.4896 45.1088 30.5938C45.3379 30.6979 45.5775 30.75 45.8275 30.75H47.39C47.9317 30.75 48.3692 30.5417 48.7025 30.125C49.0358 29.7083 49.2025 29.2292 49.2025 28.6875V26.625C49.6192 26.0833 49.8796 25.4688 49.9838 24.7812C50.0879 24.0938 50.14 23.375 50.14 22.625C50.14 21.75 49.9629 20.9688 49.6088 20.2812C49.2546 19.5938 48.7025 19.0625 47.9525 18.6875C47.3692 18.3958 46.5775 18.1146 45.5775 17.8438C44.5775 17.5729 43.4108 17.3333 42.0775 17.125C40.7442 16.9167 39.2754 16.75 37.6713 16.625C36.0671 16.5 34.39 16.4375 32.64 16.4375C30.89 16.4375 29.2233 16.5 27.64 16.625C26.0567 16.75 24.5983 16.9167 23.265 17.125C21.9317 17.3333 20.765 17.5729 19.765 17.8438C18.765 18.1146 17.9525 18.3958 17.3275 18.6875C16.6192 19.0625 16.0775 19.5938 15.7025 20.2812C15.3275 20.9688 15.14 21.75 15.14 22.625C15.14 23.375 15.2025 24.0833 15.3275 24.75C15.4525 25.4167 15.7025 26.0417 16.0775 26.625V28.6875ZM20.2025 28.6875C20.2025 28.9792 20.1296 29.2083 19.9838 29.375C19.8379 29.5417 19.6608 29.625 19.4525 29.625H17.9525C17.7442 29.625 17.5671 29.5417 17.4213 29.375C17.2754 29.2083 17.2025 28.9792 17.2025 28.6875V25.75C17.2025 25.2083 17.3483 24.7708 17.64 24.4375C17.9317 24.1042 18.2858 23.9375 18.7025 23.9375C19.1192 23.9375 19.4733 24.1042 19.765 24.4375C20.0567 24.7708 20.2025 25.2083 20.2025 25.75V28.6875ZM25.89 28.6875C25.89 29.0208 25.765 29.3125 25.515 29.5625C25.265 29.8125 24.9733 29.9375 24.64 29.9375H22.515C22.1817 29.9375 21.9004 29.8125 21.6713 29.5625C21.4421 29.3125 21.3275 29.0208 21.3275 28.6875V25.25C21.3275 24.5833 21.5463 24.0312 21.9838 23.5938C22.4213 23.1562 22.9525 22.9375 23.5775 22.9375C24.2442 22.9375 24.7963 23.1562 25.2338 23.5938C25.6713 24.0312 25.89 24.5833 25.89 25.25V28.6875ZM32.0775 29C32.0775 29.4167 31.9421 29.7604 31.6713 30.0312C31.4004 30.3021 31.0775 30.4375 30.7025 30.4375H28.39C27.9733 30.4375 27.6296 30.3021 27.3588 30.0312C27.0879 29.7604 26.9525 29.4167 26.9525 29V25.25C26.9525 24.5417 27.2025 23.9375 27.7025 23.4375C28.2025 22.9375 28.8067 22.6875 29.515 22.6875C30.265 22.6875 30.8796 22.9375 31.3588 23.4375C31.8379 23.9375 32.0775 24.5417 32.0775 25.25V29ZM38.3275 29C38.3275 29.4167 38.1921 29.7604 37.9213 30.0312C37.6504 30.3021 37.3275 30.4375 36.9525 30.4375H34.5775C34.2025 30.4375 33.8796 30.3021 33.6088 30.0312C33.3379 29.7604 33.2025 29.4167 33.2025 29V25.25C33.2025 24.5417 33.4525 23.9375 33.9525 23.4375C34.4525 22.9375 35.0567 22.6875 35.765 22.6875C36.4733 22.6875 37.0775 22.9375 37.5775 23.4375C38.0775 23.9375 38.3275 24.5417 38.3275 25.25V29ZM44.015 28.6875C44.015 29.0208 43.89 29.3125 43.64 29.5625C43.39 29.8125 43.0983 29.9375 42.765 29.9375H40.64C40.3067 29.9375 40.0254 29.8125 39.7963 29.5625C39.5671 29.3125 39.4525 29.0208 39.4525 28.6875V25.25C39.4525 24.5833 39.6713 24.0312 40.1088 23.5938C40.5463 23.1562 41.0775 22.9375 41.7025 22.9375C42.3275 22.9375 42.8692 23.1562 43.3275 23.5938C43.7858 24.0312 44.015 24.5833 44.015 25.25V28.6875ZM48.14 28.6875C48.14 28.9792 48.0567 29.2083 47.89 29.375C47.7233 29.5417 47.5567 29.625 47.39 29.625H45.8275C45.6608 29.625 45.4942 29.5417 45.3275 29.375C45.1608 29.2083 45.0775 28.9792 45.0775 28.6875V25.75C45.0775 25.2083 45.2338 24.7708 45.5463 24.4375C45.8588 24.1042 46.2025 23.9375 46.5775 23.9375C46.9942 23.9375 47.3588 24.1042 47.6713 24.4375C47.9838 24.7708 48.14 25.2083 48.14 25.75V28.6875ZM17.8275 19.6875C18.3275 19.4375 19.0567 19.1875 20.015 18.9375C20.9733 18.6875 22.1192 18.4583 23.4525 18.25C24.7442 18.0417 26.1713 17.875 27.7338 17.75C29.2963 17.625 30.9317 17.5625 32.64 17.5625C34.3483 17.5625 35.9942 17.625 37.5775 17.75C39.1608 17.875 40.5983 18.0417 41.89 18.25C43.1817 18.4583 44.3171 18.6875 45.2963 18.9375C46.2754 19.1875 46.9942 19.4375 47.4525 19.6875C48.0358 19.9375 48.4421 20.3021 48.6713 20.7812C48.9004 21.2604 49.015 21.875 49.015 22.625C49.015 22.9583 49.015 23.2708 49.015 23.5625C49.015 23.8542 48.9733 24.125 48.89 24.375C48.6817 23.9167 48.3796 23.5417 47.9838 23.25C47.5879 22.9583 47.1192 22.8125 46.5775 22.8125C46.2025 22.8125 45.8588 22.8958 45.5463 23.0625C45.2338 23.2292 44.9525 23.4375 44.7025 23.6875C44.4525 23.1458 44.0567 22.6979 43.515 22.3438C42.9733 21.9896 42.3692 21.8125 41.7025 21.8125C41.1192 21.8125 40.5879 21.9479 40.1088 22.2188C39.6296 22.4896 39.2233 22.8542 38.89 23.3125C38.5983 22.8125 38.1713 22.3958 37.6088 22.0625C37.0463 21.7292 36.4317 21.5625 35.765 21.5625C35.0983 21.5625 34.4942 21.7188 33.9525 22.0312C33.4108 22.3438 32.9733 22.7708 32.64 23.3125C32.3483 22.7708 31.9213 22.3438 31.3588 22.0312C30.7963 21.7188 30.1817 21.5625 29.515 21.5625C28.89 21.5625 28.2963 21.7188 27.7338 22.0312C27.1713 22.3438 26.7233 22.7708 26.39 23.3125C26.0983 22.8542 25.7025 22.4896 25.2025 22.2188C24.7025 21.9479 24.1608 21.8125 23.5775 21.8125C22.9525 21.8125 22.3692 21.9896 21.8275 22.3438C21.2858 22.6979 20.8692 23.1458 20.5775 23.6875C20.3692 23.4375 20.0983 23.2292 19.765 23.0625C19.4317 22.8958 19.0775 22.8125 18.7025 22.8125C18.2025 22.8125 17.7442 22.9583 17.3275 23.25C16.9108 23.5417 16.5983 23.9167 16.39 24.375C16.3483 24.125 16.3171 23.8542 16.2963 23.5625C16.2754 23.2708 16.265 22.9583 16.265 22.625C16.265 21.875 16.39 21.2604 16.64 20.7812C16.89 20.3021 17.2858 19.9375 17.8275 19.6875ZM49.89 37.5625V35.3125C49.89 34.8125 49.7338 34.3646 49.4213 33.9688C49.1088 33.5729 48.7025 33.375 48.2025 33.375H46.8275C46.5358 33.375 46.2754 33.4479 46.0463 33.5938C45.8171 33.7396 45.6192 33.8958 45.4525 34.0625H43.9525C43.6608 34.0625 43.39 34.1458 43.14 34.3125C42.89 34.4792 42.6817 34.6875 42.515 34.9375C42.3483 34.7708 42.1608 34.6562 41.9525 34.5938C41.7442 34.5312 41.4942 34.5 41.2025 34.5H39.3275C38.9108 34.5 38.5358 34.5938 38.2025 34.7812C37.8692 34.9688 37.6192 35.2292 37.4525 35.5625C37.3275 35.4792 37.1504 35.3854 36.9213 35.2812C36.6921 35.1771 36.4317 35.125 36.14 35.125H34.265C33.9733 35.125 33.6817 35.1875 33.39 35.3125C33.0983 35.4375 32.8483 35.625 32.64 35.875C32.4733 35.625 32.2442 35.4375 31.9525 35.3125C31.6608 35.1875 31.3692 35.125 31.0775 35.125H29.2025C28.9108 35.125 28.64 35.1771 28.39 35.2812C28.14 35.3854 27.9733 35.4792 27.89 35.5625C27.6817 35.2292 27.4213 34.9688 27.1088 34.7812C26.7963 34.5938 26.4317 34.5 26.015 34.5H24.14C23.8483 34.5 23.5983 34.5312 23.39 34.5938C23.1817 34.6562 22.9733 34.7708 22.765 34.9375C22.64 34.6875 22.4525 34.4792 22.2025 34.3125C21.9525 34.1458 21.6817 34.0625 21.39 34.0625H19.8275C19.7025 33.8958 19.5254 33.7396 19.2963 33.5938C19.0671 33.4479 18.8067 33.375 18.515 33.375H17.14C16.64 33.375 16.2233 33.5729 15.89 33.9688C15.5567 34.3646 15.39 34.8125 15.39 35.3125V37.5625C15.39 37.7292 15.4108 37.8854 15.4525 38.0312C15.4942 38.1771 15.5358 38.3125 15.5775 38.4375C15.4108 38.8958 15.3067 39.3646 15.265 39.8438C15.2233 40.3229 15.2025 40.8333 15.2025 41.375C15.2025 42.25 15.3796 43.0312 15.7338 43.7188C16.0879 44.4062 16.64 44.9375 17.39 45.3125C17.9733 45.6042 18.765 45.8854 19.765 46.1562C20.765 46.4271 21.9317 46.6667 23.265 46.875C24.5983 47.0833 26.0671 47.25 27.6713 47.375C29.2754 47.5 30.9317 47.5625 32.64 47.5625C34.39 47.5625 36.0671 47.5 37.6713 47.375C39.2754 47.25 40.7442 47.0833 42.0775 46.875C43.4108 46.6667 44.5775 46.4271 45.5775 46.1562C46.5775 45.8854 47.3692 45.6042 47.9525 45.3125C48.7025 44.9375 49.2546 44.4062 49.6088 43.7188C49.9629 43.0312 50.14 42.25 50.14 41.375C50.14 40.8333 50.1192 40.3229 50.0775 39.8438C50.0358 39.3646 49.9317 38.8958 49.765 38.4375C49.8067 38.3125 49.8379 38.1771 49.8588 38.0312C49.8796 37.8854 49.89 37.7292 49.89 37.5625ZM46.8275 34.5C46.8275 34.5 47.0567 34.5 47.515 34.5C47.9733 34.5 48.2025 34.5 48.2025 34.5C48.3275 34.5 48.4629 34.5729 48.6088 34.7188C48.7546 34.8646 48.8275 35.0625 48.8275 35.3125V37.5625C48.8275 38.0208 48.6921 38.4062 48.4213 38.7188C48.1504 39.0312 47.8483 39.1875 47.515 39.1875C47.39 39.1875 47.2858 39.1458 47.2025 39.0625C47.1192 38.9792 47.0775 38.8333 47.0775 38.625V36C47.0775 35.7083 47.0254 35.4479 46.9213 35.2188C46.8171 34.9896 46.6817 34.7917 46.515 34.625C46.5567 34.5833 46.5983 34.5521 46.64 34.5312C46.6817 34.5104 46.7442 34.5 46.8275 34.5ZM43.3275 36C43.3275 35.75 43.4004 35.5521 43.5463 35.4062C43.6921 35.2604 43.8275 35.1875 43.9525 35.1875H45.3275C45.4942 35.1875 45.64 35.2604 45.765 35.4062C45.89 35.5521 45.9525 35.75 45.9525 36V38.625C45.9525 39.0833 45.8171 39.4583 45.5463 39.75C45.2754 40.0417 44.9733 40.1875 44.64 40.1875C44.3067 40.1875 44.0046 40.0417 43.7338 39.75C43.4629 39.4583 43.3275 39.0833 43.3275 38.625V36ZM38.265 36.625C38.265 36.3333 38.3692 36.0833 38.5775 35.875C38.7858 35.6667 39.0358 35.5625 39.3275 35.5625H41.2025C41.4942 35.5625 41.7442 35.6667 41.9525 35.875C42.1608 36.0833 42.265 36.3333 42.265 36.625V39.6875C42.265 40.2708 42.0671 40.75 41.6713 41.125C41.2754 41.5 40.8067 41.6875 40.265 41.6875C39.7233 41.6875 39.2546 41.5 38.8588 41.125C38.4629 40.75 38.265 40.2708 38.265 39.6875V36.625ZM33.2025 37.3125C33.2025 37.0208 33.3067 36.7708 33.515 36.5625C33.7233 36.3542 33.9733 36.25 34.265 36.25H36.14C36.4317 36.25 36.6817 36.3542 36.89 36.5625C37.0983 36.7708 37.2025 37.0208 37.2025 37.3125V40.375C37.2025 40.9167 37.0046 41.3854 36.6088 41.7812C36.2129 42.1771 35.7442 42.375 35.2025 42.375C34.6608 42.375 34.1921 42.1771 33.7963 41.7812C33.4004 41.3854 33.2025 40.9167 33.2025 40.375V37.3125ZM28.14 37.3125C28.14 37.0208 28.2442 36.7708 28.4525 36.5625C28.6608 36.3542 28.9108 36.25 29.2025 36.25H31.0775C31.3692 36.25 31.6088 36.3542 31.7963 36.5625C31.9838 36.7708 32.0775 37.0208 32.0775 37.3125V40.375C32.0775 40.9167 31.89 41.3854 31.515 41.7812C31.14 42.1771 30.6817 42.375 30.14 42.375C29.5567 42.375 29.0775 42.1771 28.7025 41.7812C28.3275 41.3854 28.14 40.9167 28.14 40.375V37.3125ZM23.0775 36.625C23.0775 36.3333 23.1817 36.0833 23.39 35.875C23.5983 35.6667 23.8275 35.5625 24.0775 35.5625H26.015C26.3067 35.5625 26.5463 35.6667 26.7338 35.875C26.9213 36.0833 27.015 36.3333 27.015 36.625V39.6875C27.015 40.2708 26.8275 40.75 26.4525 41.125C26.0775 41.5 25.6192 41.6875 25.0775 41.6875C24.4942 41.6875 24.015 41.5 23.64 41.125C23.265 40.75 23.0775 40.2708 23.0775 39.6875V36.625ZM19.39 36C19.39 35.75 19.4525 35.5521 19.5775 35.4062C19.7025 35.2604 19.8275 35.1875 19.9525 35.1875H21.3275C21.4942 35.1875 21.64 35.2604 21.765 35.4062C21.89 35.5521 21.9525 35.75 21.9525 36V38.625C21.9525 39.0833 21.8275 39.4583 21.5775 39.75C21.3275 40.0417 21.015 40.1875 20.64 40.1875C20.3067 40.1875 20.015 40.0417 19.765 39.75C19.515 39.4583 19.39 39.0833 19.39 38.625V36ZM16.515 35.3125C16.515 35.0625 16.5775 34.8646 16.7025 34.7188C16.8275 34.5729 16.9733 34.5 17.14 34.5H18.515C18.5567 34.5 18.6088 34.5104 18.6713 34.5312C18.7338 34.5521 18.7858 34.5833 18.8275 34.625C18.6608 34.7917 18.5254 34.9896 18.4213 35.2188C18.3171 35.4479 18.265 35.7083 18.265 36V38.5625C18.265 38.8125 18.2233 38.9688 18.14 39.0312C18.0567 39.0938 17.9525 39.125 17.8275 39.125C17.4942 39.125 17.1921 38.9792 16.9213 38.6875C16.6504 38.3958 16.515 38.0208 16.515 37.5625V35.3125ZM47.4525 44.3125C46.9942 44.5625 46.2754 44.8229 45.2963 45.0938C44.3171 45.3646 43.1817 45.5833 41.89 45.75C40.5983 45.9583 39.1608 46.125 37.5775 46.25C35.9942 46.375 34.3483 46.4375 32.64 46.4375C30.9317 46.4375 29.2963 46.375 27.7338 46.25C26.1713 46.125 24.7442 45.9583 23.4525 45.75C22.1192 45.5833 20.9733 45.3646 20.015 45.0938C19.0567 44.8229 18.3275 44.5625 17.8275 44.3125C17.2858 44.0625 16.89 43.6979 16.64 43.2188C16.39 42.7396 16.265 42.125 16.265 41.375C16.265 41.0833 16.2754 40.8021 16.2963 40.5312C16.3171 40.2604 16.3483 40 16.39 39.75C16.5983 39.9167 16.8171 40.0417 17.0463 40.125C17.2754 40.2083 17.5358 40.25 17.8275 40.25C17.9942 40.25 18.14 40.2292 18.265 40.1875C18.39 40.1458 18.515 40.1042 18.64 40.0625C18.8483 40.4375 19.1296 40.7396 19.4838 40.9688C19.8379 41.1979 20.2233 41.3125 20.64 41.3125C20.9733 41.3125 21.2546 41.2708 21.4838 41.1875C21.7129 41.1042 21.9317 40.9583 22.14 40.75C22.3483 41.375 22.7129 41.875 23.2338 42.25C23.7546 42.625 24.3692 42.8125 25.0775 42.8125C25.5775 42.8125 26.0254 42.7083 26.4213 42.5C26.8171 42.2917 27.14 42.0417 27.39 41.75C27.5567 42.1667 27.8796 42.5625 28.3588 42.9375C28.8379 43.3125 29.4317 43.5 30.14 43.5C30.7233 43.5 31.2442 43.3542 31.7025 43.0625C32.1608 42.7708 32.4733 42.4583 32.64 42.125C32.8483 42.4583 33.1817 42.7708 33.64 43.0625C34.0983 43.3542 34.6192 43.5 35.2025 43.5C35.8692 43.5 36.4525 43.3125 36.9525 42.9375C37.4525 42.5625 37.7858 42.1667 37.9525 41.75C38.2025 42.0417 38.515 42.2917 38.89 42.5C39.265 42.7083 39.7233 42.8125 40.265 42.8125C40.9733 42.8125 41.5879 42.625 42.1088 42.25C42.6296 41.875 42.9942 41.375 43.2025 40.75C43.4108 40.9583 43.6192 41.1042 43.8275 41.1875C44.0358 41.2708 44.3067 41.3125 44.64 41.3125C45.0983 41.3125 45.5046 41.1979 45.8588 40.9688C46.2129 40.7396 46.4942 40.4375 46.7025 40.0625C46.7858 40.1042 46.9004 40.1458 47.0463 40.1875C47.1921 40.2292 47.3483 40.25 47.515 40.25C47.765 40.25 48.015 40.2083 48.265 40.125C48.515 40.0417 48.7442 39.9167 48.9525 39.75C48.9942 40 49.015 40.2604 49.015 40.5312C49.015 40.8021 49.015 41.0833 49.015 41.375C49.015 42.125 48.9004 42.7396 48.6713 43.2188C48.4421 43.6979 48.0358 44.0625 47.4525 44.3125Z" fill="#009CDE"/>
</g>
<defs>
<clipPath id="clip0_1_44">
<rect width="64" height="64" fill="white" transform="matrix(1 0 0 -1 0.640015 64)"/>
</clipPath>
</defs>
</svg>
