<svg width="65" height="64" viewBox="0 0 65 64" fill="none" xmlns="http://www.w3.org/2000/svg">
<g clip-path="url(#clip0_1_3661)">
<path d="M32.9795 0C28.5628 0 24.417 0.833332 20.542 2.5C16.667 4.16667 13.2816 6.44792 10.3857 9.34375C7.48991 12.2396 5.18783 15.6458 3.47949 19.5625C1.81283 23.4375 0.979492 27.5833 0.979492 32C0.979492 36.4167 1.81283 40.5625 3.47949 44.4375C5.18783 48.3542 7.48991 51.7604 10.3857 54.6562C13.2816 57.5521 16.667 59.8333 20.542 61.5C24.417 63.1667 28.5628 64 32.9795 64C37.3962 64 41.5628 63.1667 45.4795 61.5C49.3545 59.8333 52.7399 57.5521 55.6357 54.6562C58.5316 51.7604 60.8128 48.3542 62.4795 44.4375C64.1462 40.5625 64.9795 36.4167 64.9795 32C64.9795 27.5833 64.1462 23.4375 62.4795 19.5625C60.8128 15.6458 58.5316 12.2396 55.6357 9.34375C52.7399 6.44792 49.3545 4.16667 45.4795 2.5C41.5628 0.833332 37.3962 0 32.9795 0ZM54.6045 53.625C53.2295 55 51.7295 56.25 50.1045 57.375C48.4795 58.4583 46.7503 59.3854 44.917 60.1562C43.0837 60.9271 41.167 61.5208 39.167 61.9375C37.167 62.3542 35.1045 62.5625 32.9795 62.5625C30.8962 62.5625 28.8545 62.3542 26.8545 61.9375C24.8545 61.5208 22.9378 60.9271 21.1045 60.1562C19.2712 59.3854 17.542 58.4583 15.917 57.375C14.292 56.25 12.7712 55 11.3545 53.625C9.97949 52.25 8.75033 50.75 7.66699 49.125C6.54199 47.4583 5.59408 45.7188 4.82324 43.9062C4.05241 42.0938 3.45866 40.1875 3.04199 38.1875C2.62533 36.1875 2.41699 34.125 2.41699 32C2.41699 29.875 2.62533 27.8125 3.04199 25.8125C3.45866 23.8125 4.05241 21.9062 4.82324 20.0938C5.59408 18.2812 6.54199 16.5417 7.66699 14.875C8.75033 13.25 9.97949 11.75 11.3545 10.375C12.7712 9 14.292 7.75 15.917 6.625C17.542 5.54167 19.2712 4.61458 21.1045 3.84375C22.9378 3.07292 24.8545 2.47917 26.8545 2.0625C28.8545 1.64583 30.8962 1.4375 32.9795 1.4375C35.1045 1.4375 37.167 1.64583 39.167 2.0625C41.167 2.47917 43.0837 3.07292 44.917 3.84375C46.7503 4.61458 48.4795 5.54167 50.1045 6.625C51.7295 7.75 53.2295 9 54.6045 10.375C55.9795 11.75 57.2295 13.25 58.3545 14.875C59.4378 16.5417 60.3753 18.2812 61.167 20.0938C61.9587 21.9062 62.5628 23.8125 62.9795 25.8125C63.3545 27.8125 63.542 29.875 63.542 32C63.542 34.125 63.3545 36.1875 62.9795 38.1875C62.5628 40.1875 61.9587 42.0938 61.167 43.9062C60.3753 45.7188 59.4378 47.4583 58.3545 49.125C57.2295 50.75 55.9795 52.25 54.6045 53.625ZM16.417 28.6875C16.417 29.2292 16.5941 29.7083 16.9482 30.125C17.3024 30.5417 17.7503 30.75 18.292 30.75H19.792C20.0837 30.75 20.3337 30.6979 20.542 30.5938C20.7503 30.4896 20.9378 30.3542 21.1045 30.1875C21.3128 30.4375 21.5732 30.6354 21.8857 30.7812C22.1982 30.9271 22.5212 31 22.8545 31H24.9795C25.3128 31 25.6149 30.9479 25.8857 30.8438C26.1566 30.7396 26.3962 30.5833 26.6045 30.375C26.8128 30.7083 27.1045 30.9896 27.4795 31.2188C27.8545 31.4479 28.2712 31.5625 28.7295 31.5625H31.042C31.4587 31.5625 31.8337 31.4688 32.167 31.2812C32.5003 31.0938 32.7712 30.8542 32.9795 30.5625C33.2295 30.8542 33.5212 31.0938 33.8545 31.2812C34.1878 31.4688 34.542 31.5625 34.917 31.5625H37.292C37.7087 31.5625 38.1045 31.4479 38.4795 31.2188C38.8545 30.9896 39.1462 30.7083 39.3545 30.375C39.6045 30.5833 39.8649 30.7396 40.1357 30.8438C40.4066 30.9479 40.6878 31 40.9795 31H43.1045C43.4795 31 43.8128 30.9271 44.1045 30.7812C44.3962 30.6354 44.667 30.4375 44.917 30.1875C45.042 30.3542 45.2191 30.4896 45.4482 30.5938C45.6774 30.6979 45.917 30.75 46.167 30.75H47.7295C48.2712 30.75 48.7087 30.5417 49.042 30.125C49.3753 29.7083 49.542 29.2292 49.542 28.6875V26.625C49.9587 26.0833 50.2191 25.4688 50.3232 24.7812C50.4274 24.0938 50.4795 23.375 50.4795 22.625C50.4795 21.75 50.3024 20.9688 49.9482 20.2812C49.5941 19.5938 49.042 19.0625 48.292 18.6875C47.7087 18.3958 46.917 18.1146 45.917 17.8438C44.917 17.5729 43.7503 17.3333 42.417 17.125C41.0837 16.9167 39.6149 16.75 38.0107 16.625C36.4066 16.5 34.7295 16.4375 32.9795 16.4375C31.2295 16.4375 29.5628 16.5 27.9795 16.625C26.3962 16.75 24.9378 16.9167 23.6045 17.125C22.2712 17.3333 21.1045 17.5729 20.1045 17.8438C19.1045 18.1146 18.292 18.3958 17.667 18.6875C16.9587 19.0625 16.417 19.5938 16.042 20.2812C15.667 20.9688 15.4795 21.75 15.4795 22.625C15.4795 23.375 15.542 24.0833 15.667 24.75C15.792 25.4167 16.042 26.0417 16.417 26.625V28.6875ZM20.542 28.6875C20.542 28.9792 20.4691 29.2083 20.3232 29.375C20.1774 29.5417 20.0003 29.625 19.792 29.625H18.292C18.0837 29.625 17.9066 29.5417 17.7607 29.375C17.6149 29.2083 17.542 28.9792 17.542 28.6875V25.75C17.542 25.2083 17.6878 24.7708 17.9795 24.4375C18.2712 24.1042 18.6253 23.9375 19.042 23.9375C19.4587 23.9375 19.8128 24.1042 20.1045 24.4375C20.3962 24.7708 20.542 25.2083 20.542 25.75V28.6875ZM26.2295 28.6875C26.2295 29.0208 26.1045 29.3125 25.8545 29.5625C25.6045 29.8125 25.3128 29.9375 24.9795 29.9375H22.8545C22.5212 29.9375 22.2399 29.8125 22.0107 29.5625C21.7816 29.3125 21.667 29.0208 21.667 28.6875V25.25C21.667 24.5833 21.8857 24.0312 22.3232 23.5938C22.7607 23.1562 23.292 22.9375 23.917 22.9375C24.5837 22.9375 25.1357 23.1562 25.5732 23.5938C26.0107 24.0312 26.2295 24.5833 26.2295 25.25V28.6875ZM32.417 29C32.417 29.4167 32.2816 29.7604 32.0107 30.0312C31.7399 30.3021 31.417 30.4375 31.042 30.4375H28.7295C28.3128 30.4375 27.9691 30.3021 27.6982 30.0312C27.4274 29.7604 27.292 29.4167 27.292 29V25.25C27.292 24.5417 27.542 23.9375 28.042 23.4375C28.542 22.9375 29.1462 22.6875 29.8545 22.6875C30.6045 22.6875 31.2191 22.9375 31.6982 23.4375C32.1774 23.9375 32.417 24.5417 32.417 25.25V29ZM38.667 29C38.667 29.4167 38.5316 29.7604 38.2607 30.0312C37.9899 30.3021 37.667 30.4375 37.292 30.4375H34.917C34.542 30.4375 34.2191 30.3021 33.9482 30.0312C33.6774 29.7604 33.542 29.4167 33.542 29V25.25C33.542 24.5417 33.792 23.9375 34.292 23.4375C34.792 22.9375 35.3962 22.6875 36.1045 22.6875C36.8128 22.6875 37.417 22.9375 37.917 23.4375C38.417 23.9375 38.667 24.5417 38.667 25.25V29ZM44.3545 28.6875C44.3545 29.0208 44.2295 29.3125 43.9795 29.5625C43.7295 29.8125 43.4378 29.9375 43.1045 29.9375H40.9795C40.6462 29.9375 40.3649 29.8125 40.1357 29.5625C39.9066 29.3125 39.792 29.0208 39.792 28.6875V25.25C39.792 24.5833 40.0107 24.0312 40.4482 23.5938C40.8857 23.1562 41.417 22.9375 42.042 22.9375C42.667 22.9375 43.2087 23.1562 43.667 23.5938C44.1253 24.0312 44.3545 24.5833 44.3545 25.25V28.6875ZM48.4795 28.6875C48.4795 28.9792 48.3962 29.2083 48.2295 29.375C48.0628 29.5417 47.8962 29.625 47.7295 29.625H46.167C46.0003 29.625 45.8337 29.5417 45.667 29.375C45.5003 29.2083 45.417 28.9792 45.417 28.6875V25.75C45.417 25.2083 45.5732 24.7708 45.8857 24.4375C46.1982 24.1042 46.542 23.9375 46.917 23.9375C47.3337 23.9375 47.6982 24.1042 48.0107 24.4375C48.3232 24.7708 48.4795 25.2083 48.4795 25.75V28.6875ZM18.167 19.6875C18.667 19.4375 19.3962 19.1875 20.3545 18.9375C21.3128 18.6875 22.4587 18.4583 23.792 18.25C25.0837 18.0417 26.5107 17.875 28.0732 17.75C29.6357 17.625 31.2712 17.5625 32.9795 17.5625C34.6878 17.5625 36.3337 17.625 37.917 17.75C39.5003 17.875 40.9378 18.0417 42.2295 18.25C43.5212 18.4583 44.6566 18.6875 45.6357 18.9375C46.6149 19.1875 47.3337 19.4375 47.792 19.6875C48.3753 19.9375 48.7816 20.3021 49.0107 20.7812C49.2399 21.2604 49.3545 21.875 49.3545 22.625C49.3545 22.9583 49.3545 23.2708 49.3545 23.5625C49.3545 23.8542 49.3128 24.125 49.2295 24.375C49.0212 23.9167 48.7191 23.5417 48.3232 23.25C47.9274 22.9583 47.4587 22.8125 46.917 22.8125C46.542 22.8125 46.1982 22.8958 45.8857 23.0625C45.5732 23.2292 45.292 23.4375 45.042 23.6875C44.792 23.1458 44.3962 22.6979 43.8545 22.3438C43.3128 21.9896 42.7087 21.8125 42.042 21.8125C41.4587 21.8125 40.9274 21.9479 40.4482 22.2188C39.9691 22.4896 39.5628 22.8542 39.2295 23.3125C38.9378 22.8125 38.5107 22.3958 37.9482 22.0625C37.3857 21.7292 36.7712 21.5625 36.1045 21.5625C35.4378 21.5625 34.8337 21.7188 34.292 22.0312C33.7503 22.3438 33.3128 22.7708 32.9795 23.3125C32.6878 22.7708 32.2607 22.3438 31.6982 22.0312C31.1357 21.7188 30.5212 21.5625 29.8545 21.5625C29.2295 21.5625 28.6357 21.7188 28.0732 22.0312C27.5107 22.3438 27.0628 22.7708 26.7295 23.3125C26.4378 22.8542 26.042 22.4896 25.542 22.2188C25.042 21.9479 24.5003 21.8125 23.917 21.8125C23.292 21.8125 22.7087 21.9896 22.167 22.3438C21.6253 22.6979 21.2087 23.1458 20.917 23.6875C20.7087 23.4375 20.4378 23.2292 20.1045 23.0625C19.7712 22.8958 19.417 22.8125 19.042 22.8125C18.542 22.8125 18.0837 22.9583 17.667 23.25C17.2503 23.5417 16.9378 23.9167 16.7295 24.375C16.6878 24.125 16.6566 23.8542 16.6357 23.5625C16.6149 23.2708 16.6045 22.9583 16.6045 22.625C16.6045 21.875 16.7295 21.2604 16.9795 20.7812C17.2295 20.3021 17.6253 19.9375 18.167 19.6875ZM50.2295 37.5625V35.3125C50.2295 34.8125 50.0732 34.3646 49.7607 33.9688C49.4482 33.5729 49.042 33.375 48.542 33.375H47.167C46.8753 33.375 46.6149 33.4479 46.3857 33.5938C46.1566 33.7396 45.9587 33.8958 45.792 34.0625H44.292C44.0003 34.0625 43.7295 34.1458 43.4795 34.3125C43.2295 34.4792 43.0212 34.6875 42.8545 34.9375C42.6878 34.7708 42.5003 34.6562 42.292 34.5938C42.0837 34.5312 41.8337 34.5 41.542 34.5H39.667C39.2503 34.5 38.8753 34.5938 38.542 34.7812C38.2087 34.9688 37.9587 35.2292 37.792 35.5625C37.667 35.4792 37.4899 35.3854 37.2607 35.2812C37.0316 35.1771 36.7712 35.125 36.4795 35.125H34.6045C34.3128 35.125 34.0212 35.1875 33.7295 35.3125C33.4378 35.4375 33.1878 35.625 32.9795 35.875C32.8128 35.625 32.5837 35.4375 32.292 35.3125C32.0003 35.1875 31.7087 35.125 31.417 35.125H29.542C29.2503 35.125 28.9795 35.1771 28.7295 35.2812C28.4795 35.3854 28.3128 35.4792 28.2295 35.5625C28.0212 35.2292 27.7607 34.9688 27.4482 34.7812C27.1357 34.5938 26.7712 34.5 26.3545 34.5H24.4795C24.1878 34.5 23.9378 34.5312 23.7295 34.5938C23.5212 34.6562 23.3128 34.7708 23.1045 34.9375C22.9795 34.6875 22.792 34.4792 22.542 34.3125C22.292 34.1458 22.0212 34.0625 21.7295 34.0625H20.167C20.042 33.8958 19.8649 33.7396 19.6357 33.5938C19.4066 33.4479 19.1462 33.375 18.8545 33.375H17.4795C16.9795 33.375 16.5628 33.5729 16.2295 33.9688C15.8962 34.3646 15.7295 34.8125 15.7295 35.3125V37.5625C15.7295 37.7292 15.7503 37.8854 15.792 38.0312C15.8337 38.1771 15.8753 38.3125 15.917 38.4375C15.7503 38.8958 15.6462 39.3646 15.6045 39.8438C15.5628 40.3229 15.542 40.8333 15.542 41.375C15.542 42.25 15.7191 43.0312 16.0732 43.7188C16.4274 44.4062 16.9795 44.9375 17.7295 45.3125C18.3128 45.6042 19.1045 45.8854 20.1045 46.1562C21.1045 46.4271 22.2712 46.6667 23.6045 46.875C24.9378 47.0833 26.4066 47.25 28.0107 47.375C29.6149 47.5 31.2712 47.5625 32.9795 47.5625C34.7295 47.5625 36.4066 47.5 38.0107 47.375C39.6149 47.25 41.0837 47.0833 42.417 46.875C43.7503 46.6667 44.917 46.4271 45.917 46.1562C46.917 45.8854 47.7087 45.6042 48.292 45.3125C49.042 44.9375 49.5941 44.4062 49.9482 43.7188C50.3024 43.0312 50.4795 42.25 50.4795 41.375C50.4795 40.8333 50.4587 40.3229 50.417 39.8438C50.3753 39.3646 50.2712 38.8958 50.1045 38.4375C50.1462 38.3125 50.1774 38.1771 50.1982 38.0312C50.2191 37.8854 50.2295 37.7292 50.2295 37.5625ZM47.167 34.5C47.167 34.5 47.3962 34.5 47.8545 34.5C48.3128 34.5 48.542 34.5 48.542 34.5C48.667 34.5 48.8024 34.5729 48.9482 34.7188C49.0941 34.8646 49.167 35.0625 49.167 35.3125V37.5625C49.167 38.0208 49.0316 38.4062 48.7607 38.7188C48.4899 39.0312 48.1878 39.1875 47.8545 39.1875C47.7295 39.1875 47.6253 39.1458 47.542 39.0625C47.4587 38.9792 47.417 38.8333 47.417 38.625V36C47.417 35.7083 47.3649 35.4479 47.2607 35.2188C47.1566 34.9896 47.0212 34.7917 46.8545 34.625C46.8962 34.5833 46.9378 34.5521 46.9795 34.5312C47.0212 34.5104 47.0837 34.5 47.167 34.5ZM43.667 36C43.667 35.75 43.7399 35.5521 43.8857 35.4062C44.0316 35.2604 44.167 35.1875 44.292 35.1875H45.667C45.8337 35.1875 45.9795 35.2604 46.1045 35.4062C46.2295 35.5521 46.292 35.75 46.292 36V38.625C46.292 39.0833 46.1566 39.4583 45.8857 39.75C45.6149 40.0417 45.3128 40.1875 44.9795 40.1875C44.6462 40.1875 44.3441 40.0417 44.0732 39.75C43.8024 39.4583 43.667 39.0833 43.667 38.625V36ZM38.6045 36.625C38.6045 36.3333 38.7087 36.0833 38.917 35.875C39.1253 35.6667 39.3753 35.5625 39.667 35.5625H41.542C41.8337 35.5625 42.0837 35.6667 42.292 35.875C42.5003 36.0833 42.6045 36.3333 42.6045 36.625V39.6875C42.6045 40.2708 42.4066 40.75 42.0107 41.125C41.6149 41.5 41.1462 41.6875 40.6045 41.6875C40.0628 41.6875 39.5941 41.5 39.1982 41.125C38.8024 40.75 38.6045 40.2708 38.6045 39.6875V36.625ZM33.542 37.3125C33.542 37.0208 33.6462 36.7708 33.8545 36.5625C34.0628 36.3542 34.3128 36.25 34.6045 36.25H36.4795C36.7712 36.25 37.0212 36.3542 37.2295 36.5625C37.4378 36.7708 37.542 37.0208 37.542 37.3125V40.375C37.542 40.9167 37.3441 41.3854 36.9482 41.7812C36.5524 42.1771 36.0837 42.375 35.542 42.375C35.0003 42.375 34.5316 42.1771 34.1357 41.7812C33.7399 41.3854 33.542 40.9167 33.542 40.375V37.3125ZM28.4795 37.3125C28.4795 37.0208 28.5837 36.7708 28.792 36.5625C29.0003 36.3542 29.2503 36.25 29.542 36.25H31.417C31.7087 36.25 31.9482 36.3542 32.1357 36.5625C32.3232 36.7708 32.417 37.0208 32.417 37.3125V40.375C32.417 40.9167 32.2295 41.3854 31.8545 41.7812C31.4795 42.1771 31.0212 42.375 30.4795 42.375C29.8962 42.375 29.417 42.1771 29.042 41.7812C28.667 41.3854 28.4795 40.9167 28.4795 40.375V37.3125ZM23.417 36.625C23.417 36.3333 23.5212 36.0833 23.7295 35.875C23.9378 35.6667 24.167 35.5625 24.417 35.5625H26.3545C26.6462 35.5625 26.8857 35.6667 27.0732 35.875C27.2607 36.0833 27.3545 36.3333 27.3545 36.625V39.6875C27.3545 40.2708 27.167 40.75 26.792 41.125C26.417 41.5 25.9587 41.6875 25.417 41.6875C24.8337 41.6875 24.3545 41.5 23.9795 41.125C23.6045 40.75 23.417 40.2708 23.417 39.6875V36.625ZM19.7295 36C19.7295 35.75 19.792 35.5521 19.917 35.4062C20.042 35.2604 20.167 35.1875 20.292 35.1875H21.667C21.8337 35.1875 21.9795 35.2604 22.1045 35.4062C22.2295 35.5521 22.292 35.75 22.292 36V38.625C22.292 39.0833 22.167 39.4583 21.917 39.75C21.667 40.0417 21.3545 40.1875 20.9795 40.1875C20.6462 40.1875 20.3545 40.0417 20.1045 39.75C19.8545 39.4583 19.7295 39.0833 19.7295 38.625V36ZM16.8545 35.3125C16.8545 35.0625 16.917 34.8646 17.042 34.7188C17.167 34.5729 17.3128 34.5 17.4795 34.5H18.8545C18.8962 34.5 18.9482 34.5104 19.0107 34.5312C19.0732 34.5521 19.1253 34.5833 19.167 34.625C19.0003 34.7917 18.8649 34.9896 18.7607 35.2188C18.6566 35.4479 18.6045 35.7083 18.6045 36V38.5625C18.6045 38.8125 18.5628 38.9688 18.4795 39.0312C18.3962 39.0938 18.292 39.125 18.167 39.125C17.8337 39.125 17.5316 38.9792 17.2607 38.6875C16.9899 38.3958 16.8545 38.0208 16.8545 37.5625V35.3125ZM47.792 44.3125C47.3337 44.5625 46.6149 44.8229 45.6357 45.0938C44.6566 45.3646 43.5212 45.5833 42.2295 45.75C40.9378 45.9583 39.5003 46.125 37.917 46.25C36.3337 46.375 34.6878 46.4375 32.9795 46.4375C31.2712 46.4375 29.6357 46.375 28.0732 46.25C26.5107 46.125 25.0837 45.9583 23.792 45.75C22.4587 45.5833 21.3128 45.3646 20.3545 45.0938C19.3962 44.8229 18.667 44.5625 18.167 44.3125C17.6253 44.0625 17.2295 43.6979 16.9795 43.2188C16.7295 42.7396 16.6045 42.125 16.6045 41.375C16.6045 41.0833 16.6149 40.8021 16.6357 40.5312C16.6566 40.2604 16.6878 40 16.7295 39.75C16.9378 39.9167 17.1566 40.0417 17.3857 40.125C17.6149 40.2083 17.8753 40.25 18.167 40.25C18.3337 40.25 18.4795 40.2292 18.6045 40.1875C18.7295 40.1458 18.8545 40.1042 18.9795 40.0625C19.1878 40.4375 19.4691 40.7396 19.8232 40.9688C20.1774 41.1979 20.5628 41.3125 20.9795 41.3125C21.3128 41.3125 21.5941 41.2708 21.8232 41.1875C22.0524 41.1042 22.2712 40.9583 22.4795 40.75C22.6878 41.375 23.0524 41.875 23.5732 42.25C24.0941 42.625 24.7087 42.8125 25.417 42.8125C25.917 42.8125 26.3649 42.7083 26.7607 42.5C27.1566 42.2917 27.4795 42.0417 27.7295 41.75C27.8962 42.1667 28.2191 42.5625 28.6982 42.9375C29.1774 43.3125 29.7712 43.5 30.4795 43.5C31.0628 43.5 31.5837 43.3542 32.042 43.0625C32.5003 42.7708 32.8128 42.4583 32.9795 42.125C33.1878 42.4583 33.5212 42.7708 33.9795 43.0625C34.4378 43.3542 34.9587 43.5 35.542 43.5C36.2087 43.5 36.792 43.3125 37.292 42.9375C37.792 42.5625 38.1253 42.1667 38.292 41.75C38.542 42.0417 38.8545 42.2917 39.2295 42.5C39.6045 42.7083 40.0628 42.8125 40.6045 42.8125C41.3128 42.8125 41.9274 42.625 42.4482 42.25C42.9691 41.875 43.3337 41.375 43.542 40.75C43.7503 40.9583 43.9587 41.1042 44.167 41.1875C44.3753 41.2708 44.6462 41.3125 44.9795 41.3125C45.4378 41.3125 45.8441 41.1979 46.1982 40.9688C46.5524 40.7396 46.8337 40.4375 47.042 40.0625C47.1253 40.1042 47.2399 40.1458 47.3857 40.1875C47.5316 40.2292 47.6878 40.25 47.8545 40.25C48.1045 40.25 48.3545 40.2083 48.6045 40.125C48.8545 40.0417 49.0837 39.9167 49.292 39.75C49.3337 40 49.3545 40.2604 49.3545 40.5312C49.3545 40.8021 49.3545 41.0833 49.3545 41.375C49.3545 42.125 49.2399 42.7396 49.0107 43.2188C48.7816 43.6979 48.3753 44.0625 47.792 44.3125Z" fill="#009CDE"/>
</g>
<defs>
<clipPath id="clip0_1_3661">
<rect width="64" height="64" fill="white" transform="matrix(1 0 0 -1 0.979492 64)"/>
</clipPath>
</defs>
</svg>
