<svg width="65" height="64" viewBox="0 0 65 64" fill="none" xmlns="http://www.w3.org/2000/svg">
<g clip-path="url(#clip0_1_3615)">
<path d="M32.9053 0C28.4886 0 24.3428 0.833332 20.4678 2.5C16.5511 4.16667 13.1449 6.44792 10.249 9.34375C7.35319 12.2396 5.07194 15.6458 3.40527 19.5625C1.73861 23.4375 0.905273 27.5833 0.905273 32C0.905273 36.4167 1.73861 40.5625 3.40527 44.4375C5.07194 48.3542 7.35319 51.7604 10.249 54.6562C13.1449 57.5521 16.5511 59.8333 20.4678 61.5C24.3428 63.1667 28.4886 64 32.9053 64C37.3219 64 41.4678 63.1667 45.3428 61.5C49.2594 59.8333 52.6657 57.5521 55.5615 54.6562C58.4574 51.7604 60.7386 48.3542 62.4053 44.4375C64.0719 40.5625 64.9053 36.4167 64.9053 32C64.9053 27.5833 64.0719 23.4375 62.4053 19.5625C60.7386 15.6458 58.4574 12.2396 55.5615 9.34375C52.6657 6.44792 49.2594 4.16667 45.3428 2.5C41.4678 0.833332 37.3219 0 32.9053 0ZM54.5303 53.625C53.1553 55 51.6553 56.25 50.0303 57.375C48.3636 58.4583 46.624 59.3854 44.8115 60.1562C42.999 60.9271 41.0928 61.5208 39.0928 61.9375C37.0928 62.3542 35.0303 62.5625 32.9053 62.5625C30.7803 62.5625 28.7178 62.3542 26.7178 61.9375C24.7178 61.5208 22.8115 60.9271 20.999 60.1562C19.1865 59.3854 17.4469 58.4583 15.7803 57.375C14.1553 56.25 12.6553 55 11.2803 53.625C9.90527 52.25 8.65527 50.75 7.53027 49.125C6.44694 47.4583 5.51986 45.7188 4.74902 43.9062C3.97819 42.0938 3.38444 40.1875 2.96777 38.1875C2.55111 36.1875 2.34277 34.125 2.34277 32C2.34277 29.875 2.55111 27.8125 2.96777 25.8125C3.38444 23.8125 3.97819 21.9062 4.74902 20.0938C5.51986 18.2812 6.44694 16.5417 7.53027 14.875C8.65527 13.25 9.90527 11.75 11.2803 10.375C12.6553 9 14.1553 7.75 15.7803 6.625C17.4469 5.54167 19.1865 4.61458 20.999 3.84375C22.8115 3.07292 24.7178 2.47917 26.7178 2.0625C28.7178 1.64583 30.7803 1.4375 32.9053 1.4375C35.0303 1.4375 37.0928 1.64583 39.0928 2.0625C41.0928 2.47917 42.999 3.07292 44.8115 3.84375C46.624 4.61458 48.3636 5.54167 50.0303 6.625C51.6553 7.75 53.1553 9 54.5303 10.375C55.9053 11.75 57.1553 13.25 58.2803 14.875C59.3636 16.5417 60.2907 18.2812 61.0615 20.0938C61.8324 21.9062 62.4261 23.8125 62.8428 25.8125C63.2594 27.8125 63.4678 29.875 63.4678 32C63.4678 34.125 63.2594 36.1875 62.8428 38.1875C62.4261 40.1875 61.8324 42.0938 61.0615 43.9062C60.2907 45.7188 59.3636 47.4583 58.2803 49.125C57.1553 50.75 55.9053 52.25 54.5303 53.625ZM29.9678 15.1875H35.9678C36.4678 15.1875 36.8844 15.3542 37.2178 15.6875C37.5511 16.0208 37.7178 16.4375 37.7178 16.9375V23.9375C37.7178 24.8542 38.0407 25.6354 38.6865 26.2812C39.3324 26.9271 40.0928 27.25 40.9678 27.25H48.0303C48.4886 27.25 48.8844 27.4167 49.2178 27.75C49.5511 28.0833 49.7178 28.4792 49.7178 28.9375V34.9375C49.7178 35.4375 49.5511 35.8542 49.2178 36.1875C48.8844 36.5208 48.4886 36.6875 48.0303 36.6875H40.9678C40.0511 36.6875 39.2699 37.0104 38.624 37.6562C37.9782 38.3021 37.6553 39.0625 37.6553 39.9375V47C37.6553 47.4583 37.499 47.8542 37.1865 48.1875C36.874 48.5208 36.4678 48.7083 35.9678 48.75H29.9678C29.5094 48.75 29.1136 48.5833 28.7803 48.25C28.4469 47.9167 28.2803 47.5 28.2803 47V40C28.2803 39.0833 27.9574 38.3021 27.3115 37.6562C26.6657 37.0104 25.8844 36.6875 24.9678 36.6875H17.9053C17.4469 36.6875 17.0511 36.5208 16.7178 36.1875C16.3844 35.8542 16.2178 35.4583 16.2178 35V28.9375C16.2178 28.4792 16.3844 28.0833 16.7178 27.75C17.0511 27.4167 17.4469 27.25 17.9053 27.25H24.9678C25.8844 27.25 26.6657 26.9271 27.3115 26.2812C27.9574 25.6354 28.2803 24.8542 28.2803 23.9375V16.875C28.2803 16.4167 28.4469 16.0208 28.7803 15.6875C29.1136 15.3542 29.5094 15.1875 29.9678 15.1875ZM36.0303 13.625H29.9678C29.0511 13.625 28.2699 13.9479 27.624 14.5938C26.9782 15.2396 26.6553 16 26.6553 16.875V23.9375C26.6553 24.3958 26.4886 24.7917 26.1553 25.125C25.8219 25.4583 25.4261 25.625 24.9678 25.625H17.9053C17.0303 25.6667 16.2699 26 15.624 26.625C14.9782 27.25 14.6553 28.0208 14.6553 28.9375V35C14.6553 35.875 14.9782 36.6354 15.624 37.2812C16.2699 37.9271 17.0303 38.25 17.9053 38.25H24.9678C25.4261 38.25 25.8219 38.4167 26.1553 38.75C26.4886 39.0833 26.6553 39.5 26.6553 40V47.0625C26.6553 47.9375 26.9782 48.6979 27.624 49.3438C28.2699 49.9896 29.0511 50.3125 29.9678 50.3125H36.0303C36.9053 50.3125 37.6657 49.9896 38.3115 49.3438C38.9574 48.6979 39.2803 47.9375 39.2803 47.0625V40C39.2803 39.5 39.4469 39.0833 39.7803 38.75C40.1136 38.4167 40.5303 38.25 41.0303 38.25H48.0303C48.9469 38.25 49.7282 37.9271 50.374 37.2812C51.0199 36.6354 51.3428 35.8542 51.3428 34.9375V28.9375C51.3428 28.0208 51.0199 27.25 50.374 26.625C49.7282 26 48.9469 25.6667 48.0303 25.625H41.0303C40.5303 25.625 40.1136 25.4583 39.7803 25.125C39.4469 24.7917 39.2803 24.3958 39.2803 23.9375V16.875C39.2803 16 38.9574 15.2396 38.3115 14.5938C37.6657 13.9479 36.9053 13.625 36.0303 13.625Z" fill="#F15F10"/>
</g>
<defs>
<clipPath id="clip0_1_3615">
<rect width="64" height="64" fill="white" transform="matrix(1 0 0 -1 0.905273 64)"/>
</clipPath>
</defs>
</svg>
