<svg width="65" height="64" viewBox="0 0 65 64" fill="none" xmlns="http://www.w3.org/2000/svg">
<g clip-path="url(#clip0_1_109)">
<path d="M18.4425 34.625C18.5675 35.6667 19.13 36.5521 20.13 37.2812C21.13 38.0104 21.9216 38.5208 22.505 38.8125L23.3175 39.25V36.6875C23.3591 36.7292 23.3904 36.7604 23.4112 36.7812C23.4321 36.8021 23.4633 36.8333 23.505 36.875C23.7133 37.1667 23.9529 37.5417 24.2237 38C24.4946 38.4583 24.6925 38.8542 24.8175 39.1875C25.4008 40.8125 25.7758 42.2292 25.9425 43.4375C26.1091 44.6458 26.2341 45.7083 26.3175 46.625C26.3591 47.5417 26.4529 48.1771 26.5987 48.5312C26.7446 48.8854 27.0883 49.25 27.63 49.625C27.755 49.7083 27.8904 49.7812 28.0362 49.8438C28.1821 49.9062 28.3383 49.9375 28.505 49.9375C28.6716 49.9375 28.8383 49.9062 29.005 49.8438C29.1716 49.7812 29.3383 49.6875 29.505 49.5625C29.6716 49.4375 29.7966 49.2812 29.88 49.0938C29.9633 48.9062 30.0258 48.7083 30.0675 48.5C30.3175 46.25 30.7133 44.4479 31.255 43.0938C31.7966 41.7396 32.255 41 32.63 40.875C33.005 41 33.4737 41.75 34.0362 43.125C34.5987 44.5 35.005 46.3125 35.255 48.5625C35.255 48.8125 35.3383 49.0521 35.505 49.2812C35.6716 49.5104 35.88 49.6875 36.13 49.8125C36.38 49.8958 36.6404 49.9271 36.9112 49.9062C37.1821 49.8854 37.4216 49.7917 37.63 49.625C38.1716 49.25 38.5154 48.8854 38.6612 48.5312C38.8071 48.1771 38.9008 47.5417 38.9425 46.625C39.0258 45.6667 39.1612 44.5312 39.3487 43.2188C39.5362 41.9062 39.9841 40.3542 40.6925 38.5625C40.7758 38.3542 40.88 38.1354 41.005 37.9062C41.13 37.6771 41.2758 37.4792 41.4425 37.3125C41.5258 37.1875 41.6091 37.0729 41.6925 36.9688C41.7758 36.8646 41.8591 36.7708 41.9425 36.6875V39.25L42.755 38.8125C43.3383 38.5208 44.13 38.0104 45.13 37.2812C46.13 36.5521 46.6925 35.6667 46.8175 34.625L47.38 27.3125C47.4633 25.7708 47.0779 24.3438 46.2237 23.0312C45.3696 21.7188 44.2133 20.8125 42.755 20.3125L38.8175 18.875C39.9841 18.1667 40.9216 17.2083 41.63 16C42.3383 14.7917 42.6925 13.4792 42.6925 12.0625V11.875H41.505V12.0625C41.505 13.4792 41.1091 14.7708 40.3175 15.9375C39.5258 17.1042 38.4633 17.9375 37.13 18.4375L36.63 18.625C36.5883 18.25 36.4946 17.875 36.3487 17.5C36.2029 17.125 36.0258 16.7917 35.8175 16.5L36.13 16.375C37.0466 16 37.7862 15.4062 38.3487 14.5938C38.9112 13.7812 39.1925 12.875 39.1925 11.875H38.005C38.005 12.625 37.7966 13.3125 37.38 13.9375C36.9633 14.5625 36.4008 15.0208 35.6925 15.3125L34.8175 15.625C34.5258 15.4167 34.1925 15.25 33.8175 15.125C33.4425 15 33.0466 14.9375 32.63 14.9375C32.2133 14.9375 31.8175 15 31.4425 15.125C31.0675 15.25 30.7341 15.4167 30.4425 15.625L29.5675 15.3125C28.8591 15.0208 28.2966 14.5625 27.88 13.9375C27.4633 13.3125 27.255 12.625 27.255 11.875H26.0675C26.0675 12.875 26.3487 13.7812 26.9112 14.5938C27.4737 15.4062 28.2133 16 29.13 16.375L29.4425 16.5C29.2758 16.7083 29.13 16.9479 29.005 17.2188C28.88 17.4896 28.7758 17.75 28.6925 18L27.8175 18.3125C26.6091 17.7708 25.63 16.9375 24.88 15.8125C24.13 14.6875 23.755 13.4375 23.755 12.0625V11.875H22.5675V12.0625C22.5675 13.4792 22.9112 14.7917 23.5987 16C24.2862 17.2083 25.2133 18.1667 26.38 18.875L22.4425 20.25C20.9841 20.7917 19.8383 21.7188 19.005 23.0312C18.1716 24.3438 17.7966 25.7708 17.88 27.3125L18.4425 34.625ZM41.9425 33C41.9008 33.5833 41.8071 34.125 41.6612 34.625C41.5154 35.125 41.3383 35.5208 41.13 35.8125C41.13 35.8542 41.1091 35.8958 41.0675 35.9375C41.0258 35.9792 40.9633 36.0417 40.88 36.125C40.7133 36.3333 40.505 36.6042 40.255 36.9375C40.005 37.2708 39.8175 37.6042 39.6925 37.9375C38.9425 39.8125 38.4633 41.4583 38.255 42.875C38.0466 44.2917 37.9008 45.5208 37.8175 46.5625C37.7341 47.4375 37.6508 47.9583 37.5675 48.125C37.4841 48.2917 37.2758 48.4792 36.9425 48.6875C36.8591 48.7292 36.7966 48.75 36.755 48.75C36.7133 48.75 36.6716 48.75 36.63 48.75C36.5883 48.7083 36.5362 48.6667 36.4737 48.625C36.4112 48.5833 36.38 48.5208 36.38 48.4375C36.3383 47.8958 36.0154 46.3125 35.4112 43.6875C34.8071 41.0625 33.88 39.75 32.63 39.75C31.38 39.75 30.4529 41.0625 29.8487 43.6875C29.2446 46.3125 28.9216 47.8958 28.88 48.4375C28.88 48.5208 28.8487 48.5833 28.7862 48.625C28.7237 48.6667 28.6716 48.7083 28.63 48.75C28.5883 48.75 28.5466 48.75 28.505 48.75C28.4633 48.75 28.4008 48.7292 28.3175 48.6875C27.9841 48.4792 27.7758 48.2917 27.6925 48.125C27.6091 47.9583 27.5258 47.4375 27.4425 46.5625C27.3591 45.5208 27.2133 44.3021 27.005 42.9062C26.7966 41.5104 26.3175 39.8542 25.5675 37.9375C25.4425 37.6042 25.255 37.2812 25.005 36.9688C24.755 36.6562 24.5466 36.375 24.38 36.125C24.3383 36.0417 24.2862 35.9792 24.2237 35.9375C24.1612 35.8958 24.13 35.8542 24.13 35.8125C23.9216 35.5208 23.7446 35.125 23.5987 34.625C23.4529 34.125 23.3591 33.5833 23.3175 33V32.75C23.3591 32.3333 23.4216 31.8854 23.505 31.4062C23.5883 30.9271 23.755 30.4792 24.005 30.0625C24.4216 29.1875 25.0466 28.5312 25.88 28.0938C26.7133 27.6562 27.7133 27.4375 28.88 27.4375C29.5466 27.4375 30.0571 27.5417 30.4112 27.75C30.7654 27.9583 31.1508 28.2292 31.5675 28.5625C31.9008 28.7708 32.255 29.0104 32.63 29.2812C33.005 29.5521 33.4841 29.7917 34.0675 30L34.505 28.9375C34.3383 28.8542 34.1925 28.7812 34.0675 28.7188C33.9425 28.6562 33.8175 28.6042 33.6925 28.5625C34.1091 28.2292 34.4946 27.9583 34.8487 27.75C35.2029 27.5417 35.7133 27.4375 36.38 27.4375C37.5466 27.4375 38.5466 27.6562 39.38 28.0938C40.2133 28.5312 40.8591 29.1875 41.3175 30.0625C41.5258 30.4792 41.6716 30.9062 41.755 31.3438C41.8383 31.7812 41.9008 32.2292 41.9425 32.6875V33ZM36.5675 19.9375L37.38 19.625L42.38 21.375C43.5883 21.8333 44.5466 22.6042 45.255 23.6875C45.9633 24.7708 46.2758 25.9583 46.1925 27.25L45.63 34.5C45.5883 35 45.3175 35.5 44.8175 36C44.3175 36.5 43.7341 36.9375 43.0675 37.3125V27.5625C43.0675 26.6042 42.8071 25.7396 42.2862 24.9688C41.7654 24.1979 41.0675 23.6458 40.1925 23.3125L35.8175 21.5C35.9841 21.25 36.13 21 36.255 20.75C36.38 20.5 36.4841 20.2292 36.5675 19.9375ZM32.63 16.125C33.4216 16.125 34.0987 16.4062 34.6612 16.9688C35.2237 17.5312 35.505 18.2083 35.505 19C35.505 19.7917 35.2237 20.4688 34.6612 21.0312C34.0987 21.5938 33.4216 21.875 32.63 21.875C31.8383 21.875 31.1612 21.5938 30.5987 21.0312C30.0362 20.4688 29.755 19.7917 29.755 19C29.755 18.2083 30.0362 17.5312 30.5987 16.9688C31.1612 16.4062 31.8383 16.125 32.63 16.125ZM30.4425 22.375C30.7341 22.5833 31.0675 22.7396 31.4425 22.8438C31.8175 22.9479 32.2133 23 32.63 23C33.0466 23 33.4425 22.9479 33.8175 22.8438C34.1925 22.7396 34.5466 22.5833 34.88 22.375L39.755 24.375C40.4216 24.625 40.9529 25.0417 41.3487 25.625C41.7446 26.2083 41.9425 26.8542 41.9425 27.5625V28.8125C41.4841 28.1875 40.8175 27.6042 39.9425 27.0625C39.0675 26.5208 37.88 26.2708 36.38 26.3125C35.5466 26.3125 34.88 26.4479 34.38 26.7188C33.88 26.9896 33.4216 27.2917 33.005 27.625C32.9216 27.6667 32.8487 27.7083 32.7862 27.75C32.7237 27.7917 32.6716 27.8333 32.63 27.875C32.5883 27.8333 32.5362 27.7917 32.4737 27.75C32.4112 27.7083 32.3591 27.6667 32.3175 27.625C31.8591 27.2917 31.3904 26.9896 30.9112 26.7188C30.4321 26.4479 29.7758 26.3125 28.9425 26.3125H28.88C27.38 26.3125 26.1925 26.5729 25.3175 27.0938C24.4425 27.6146 23.7966 28.1875 23.38 28.8125V27.5625C23.38 26.8542 23.5675 26.2083 23.9425 25.625C24.3175 25.0417 24.8383 24.625 25.505 24.375L30.4425 22.375ZM22.88 21.375L28.63 19.3125C28.63 19.7292 28.7133 20.1146 28.88 20.4688C29.0466 20.8229 29.2341 21.1667 29.4425 21.5L25.0675 23.25C24.1925 23.625 23.4946 24.1979 22.9737 24.9688C22.4529 25.7396 22.1925 26.6042 22.1925 27.5625V37.3125C21.5258 36.9375 20.9425 36.5 20.4425 36C19.9425 35.5 19.6716 35 19.63 34.5L19.0675 27.25C18.9841 25.9583 19.2966 24.7604 20.005 23.6562C20.7133 22.5521 21.6716 21.7917 22.88 21.375ZM32.63 0C28.2133 0 24.0675 0.833333 20.1925 2.5C16.2758 4.16667 12.8696 6.44792 9.97372 9.34375C7.07789 12.2396 4.79664 15.6458 3.12997 19.5625C1.46331 23.4375 0.629974 27.5833 0.629974 32C0.629974 36.4167 1.46331 40.5625 3.12997 44.4375C4.79664 48.3542 7.07789 51.7604 9.97372 54.6562C12.8696 57.5521 16.2758 59.8333 20.1925 61.5C24.0675 63.1667 28.2133 64 32.63 64C37.0466 64 41.1925 63.1667 45.0675 61.5C48.9841 59.8333 52.3904 57.5521 55.2862 54.6562C58.1821 51.7604 60.4633 48.3542 62.13 44.4375C63.7966 40.5625 64.63 36.4167 64.63 32C64.63 27.5833 63.7966 23.4375 62.13 19.5625C60.4633 15.6458 58.1821 12.2396 55.2862 9.34375C52.3904 6.44792 48.9841 4.16667 45.0675 2.5C41.1925 0.833333 37.0466 0 32.63 0ZM54.255 53.625C52.88 55 51.38 56.25 49.755 57.375C48.0883 58.4583 46.3487 59.3854 44.5362 60.1562C42.7237 60.9271 40.8175 61.5208 38.8175 61.9375C36.8175 62.3542 34.755 62.5625 32.63 62.5625C30.505 62.5625 28.4425 62.3542 26.4425 61.9375C24.4425 61.5208 22.5362 60.9271 20.7237 60.1562C18.9112 59.3854 17.1716 58.4583 15.505 57.375C13.88 56.25 12.38 55 11.005 53.625C9.62997 52.25 8.37997 50.75 7.25497 49.125C6.17164 47.4583 5.24456 45.7188 4.47372 43.9062C3.70289 42.0938 3.10914 40.1875 2.69247 38.1875C2.27581 36.1875 2.06747 34.125 2.06747 32C2.06747 29.875 2.27581 27.8125 2.69247 25.8125C3.10914 23.8125 3.70289 21.9062 4.47372 20.0938C5.24456 18.2812 6.17164 16.5417 7.25497 14.875C8.37997 13.25 9.62997 11.75 11.005 10.375C12.38 9 13.88 7.75 15.505 6.625C17.1716 5.54167 18.9112 4.61458 20.7237 3.84375C22.5362 3.07292 24.4425 2.47917 26.4425 2.0625C28.4425 1.64583 30.505 1.4375 32.63 1.4375C34.755 1.4375 36.8175 1.64583 38.8175 2.0625C40.8175 2.47917 42.7237 3.07292 44.5362 3.84375C46.3487 4.61458 48.0883 5.54167 49.755 6.625C51.38 7.75 52.88 9 54.255 10.375C55.63 11.75 56.88 13.25 58.005 14.875C59.0883 16.5417 60.0154 18.2812 60.7862 20.0938C61.5571 21.9062 62.1508 23.8125 62.5675 25.8125C62.9841 27.8125 63.1925 29.875 63.1925 32C63.1925 34.125 62.9841 36.1875 62.5675 38.1875C62.1508 40.1875 61.5571 42.0938 60.7862 43.9062C60.0154 45.7188 59.0883 47.4583 58.005 49.125C56.88 50.75 55.63 52.25 54.255 53.625ZM42.505 40.5C42.2133 40.5417 41.9529 40.6562 41.7237 40.8438C41.4946 41.0312 41.3175 41.2708 41.1925 41.5625C40.8591 42.5208 40.6196 43.3854 40.4737 44.1562C40.3279 44.9271 40.2341 45.7292 40.1925 46.5625C40.1091 47.5625 39.9737 48.3229 39.7862 48.8438C39.5987 49.3646 39.1091 49.9167 38.3175 50.5C38.1091 50.625 37.8696 50.7396 37.5987 50.8438C37.3279 50.9479 37.0466 51 36.755 51C36.1716 51 35.6404 50.8229 35.1612 50.4688C34.6821 50.1146 34.3591 49.6667 34.1925 49.125C34.0675 48.7917 33.8591 48.5208 33.5675 48.3125C33.2758 48.1042 32.9633 48 32.63 48C32.2966 48 31.9841 48.1042 31.6925 48.3125C31.4008 48.5208 31.2133 48.7917 31.13 49.125C30.9216 49.6667 30.5779 50.1146 30.0987 50.4688C29.6196 50.8229 29.0883 51 28.505 51C28.2133 51 27.9425 50.9479 27.6925 50.8438C27.4425 50.7396 27.1925 50.625 26.9425 50.5C26.1508 49.9167 25.6612 49.3646 25.4737 48.8438C25.2862 48.3229 25.1508 47.5625 25.0675 46.5625C25.0258 45.7292 24.9321 44.9271 24.7862 44.1562C24.6404 43.3854 24.4008 42.5208 24.0675 41.5625C23.9425 41.2708 23.7654 41.0312 23.5362 40.8438C23.3071 40.6562 23.0466 40.5417 22.755 40.5C21.7966 40.4167 20.2654 40.5208 18.1612 40.8125C16.0571 41.1042 13.9841 42.2708 11.9425 44.3125L12.755 45.1875C14.63 43.3125 16.5258 42.2292 18.4425 41.9375C20.3591 41.6458 21.755 41.5625 22.63 41.6875C22.7133 41.6875 22.7862 41.7083 22.8487 41.75C22.9112 41.7917 22.9425 41.8542 22.9425 41.9375C23.2758 42.8542 23.505 43.6667 23.63 44.375C23.755 45.0833 23.8591 45.8542 23.9425 46.6875C24.0258 47.7292 24.1821 48.5938 24.4112 49.2812C24.6404 49.9688 25.255 50.6875 26.255 51.4375C26.5883 51.6458 26.9425 51.8125 27.3175 51.9375C27.6925 52.0625 28.0883 52.125 28.505 52.125C29.3383 52.125 30.0987 51.8854 30.7862 51.4062C31.4737 50.9271 31.9425 50.2917 32.1925 49.5C32.2758 49.2917 32.4321 49.1875 32.6612 49.1875C32.8904 49.1875 33.0258 49.2917 33.0675 49.5C33.3591 50.2917 33.8383 50.9271 34.505 51.4062C35.1716 51.8854 35.9216 52.125 36.755 52.125C37.1716 52.125 37.5675 52.0625 37.9425 51.9375C38.3175 51.8125 38.6716 51.6458 39.005 51.4375C40.005 50.6875 40.6196 49.9688 40.8487 49.2812C41.0779 48.5938 41.2341 47.7292 41.3175 46.6875C41.4008 45.8542 41.505 45.0833 41.63 44.375C41.755 43.6667 41.9841 42.8542 42.3175 41.9375C42.3591 41.8542 42.4112 41.7917 42.4737 41.75C42.5362 41.7083 42.6091 41.6875 42.6925 41.6875C43.5258 41.5625 44.9008 41.6458 46.8175 41.9375C48.7341 42.2292 50.63 43.3125 52.505 45.1875L53.3175 44.3125C51.2758 42.2708 49.2029 41.1042 47.0987 40.8125C44.9946 40.5208 43.4633 40.4167 42.505 40.5Z" fill="#009CDE"/>
</g>
<defs>
<clipPath id="clip0_1_109">
<rect width="64" height="64" fill="white" transform="matrix(1 0 0 -1 0.629974 64)"/>
</clipPath>
</defs>
</svg>
