<svg width="32" height="32" viewBox="0 0 32 32" fill="none" xmlns="http://www.w3.org/2000/svg">
<path d="M16 31.625C7.384 31.625 0.375 24.615 0.375 16C0.375 7.384 7.384 0.375 16 0.375C24.615 0.375 31.625 7.384 31.625 16C31.625 24.615 24.615 31.625 16 31.625Z" fill="white"/>
<path d="M16 0.75C24.409 0.75 31.25 7.591 31.25 16C31.25 24.409 24.409 31.25 16 31.25C7.591 31.25 0.75 24.409 0.75 16C0.75 7.591 7.591 0.75 16 0.75ZM16 0C7.163 0 0 7.163 0 16C0 24.836 7.163 32 16 32C24.837 32 32 24.836 32 16C32 7.163 24.837 0 16 0Z" fill="#E5E5E5"/>
<path d="M13.69 24.9032H17.369V15.9992H19.823L20.148 12.9312H17.369L17.373 11.3952C17.373 10.5952 17.449 10.1662 18.597 10.1662H20.131V7.09717H17.676C14.727 7.09717 13.69 8.58617 13.69 11.0892V12.9312H11.852V16.0002H13.69V24.9032Z" fill="#023047"/>
</svg>
