<svg width="200" height="150" viewBox="0 0 200 150" fill="none" xmlns="http://www.w3.org/2000/svg">
<g clip-path="url(#clip0_43_236)">
<path d="M153.124 43.6665C153.396 43.4463 153.714 43.2759 154.06 43.1651C154.406 43.0543 154.774 43.0053 155.142 43.021C155.61 43.0092 156.072 43.1098 156.48 43.3123C156.889 43.5147 157.227 43.8113 157.46 44.1705C158.244 45.3845 158.2 47.6157 157.665 48.9946C157.285 49.971 156.664 51.4646 155.177 52.5331C154.85 52.7721 154.471 52.9485 154.062 53.0511C153.654 53.1538 153.226 53.1805 152.806 53.1296L152.579 53.095C152.353 53.7614 152.078 54.4139 151.755 55.0486C151.174 56.4283 148.089 61.1096 144.134 63.2355C144.156 63.0142 144.178 63.2013 144.2 63.3195C144.431 64.5568 144.688 65.828 145.426 66.895C146.664 68.6713 150.843 70.0676 153.946 71.2027L149.88 73.047C147.261 74.324 144.682 75.419 137.049 75.5695C130.598 75.6955 126.535 74.9084 120.583 72.4163L116.762 70.4421C120.508 69.2569 124.265 68.4127 126.068 67.3433C126.29 67.2513 126.487 67.1177 126.645 66.9518C126.721 66.8238 126.769 66.6846 126.788 66.5411C126.982 65.5783 127.176 64.6164 127.369 63.6555C125.37 62.8389 123.585 61.5059 121.891 59.6981C120.056 57.7201 118.697 55.4308 117.9 52.971C117.451 53.053 116.988 53.0436 116.544 52.9436C116.101 52.8436 115.689 52.6557 115.34 52.3939C113.862 51.316 113.254 49.8182 112.883 48.839C112.359 47.4567 112.336 45.2251 113.131 44.0173C113.367 43.6594 113.708 43.3648 114.118 43.1651C114.528 42.9654 114.992 42.868 115.46 42.8834C115.828 42.8705 116.196 42.9223 116.541 43.0357C116.886 43.1492 117.203 43.3221 117.472 43.5444C117.472 43.5444 112.681 30.0007 135.286 30.0007C157.89 30.0007 153.124 43.6665 153.124 43.6665Z" fill="white"/>
<path d="M88.3599 34.7151C88.6532 34.4904 88.9938 34.3193 89.3623 34.2117C89.7307 34.1041 90.1195 34.0622 90.5064 34.0883C90.9995 34.0882 91.4834 34.2064 91.9065 34.4304C92.3296 34.6544 92.6761 34.9757 92.9091 35.3602C93.6941 36.659 93.5732 39.0076 92.9627 40.4456C92.5301 41.464 91.8255 43.0206 90.2241 44.1059C89.8716 44.3489 89.4659 44.5247 89.0327 44.6221C88.5995 44.7195 88.1481 44.7363 87.7072 44.6716L87.4689 44.6293C87.2086 45.3252 86.897 46.0054 86.5361 46.6653C86.0887 47.6421 84.3726 50.1933 81.9901 52.3981C78.1333 54.5007 76.6352 58.8297 76.6273 62.6549C76.6067 63.3078 76.5684 63.9599 76.5236 64.6019C68.4961 67.066 60.2427 65.7354 53.6492 60.545C55.3929 59.9566 57.495 59.2388 57.5653 59.2209C58.8906 58.7839 59.3442 57.8211 59.6115 56.7867C59.7845 56.14 59.9155 55.485 60.0036 54.825C58.0255 53.7865 56.3009 52.4101 54.9305 50.7758C53.0641 48.6451 51.7104 46.1989 50.9528 43.5879C50.478 43.6628 49.9901 43.6409 49.5263 43.524C49.0624 43.4071 48.6348 43.1982 48.2758 42.9133C46.7567 41.7397 46.1659 40.1462 45.809 39.1052C45.3034 37.6358 45.354 35.2848 46.2314 34.0334C46.4917 33.6631 46.8608 33.3621 47.2993 33.1626C47.7377 32.9632 48.2291 32.8726 48.7211 32.9007C49.1091 32.8966 49.4941 32.9604 49.854 33.0886C50.2139 33.2168 50.5415 33.4069 50.8179 33.6477C50.8179 33.6477 44.1948 18.0936 69.8852 18.0936C95.5755 18.0936 88.3599 34.7151 88.3599 34.7151Z" fill="white"/>
<path d="M86.8504 43.1723C86.6569 43.8614 86.4117 44.5384 86.1164 45.1986C86.0122 45.4378 85.9036 45.675 85.7823 45.9075C85.7317 46.0039 85.6746 46.0976 85.6249 46.1945C85.2996 46.8275 85.7001 46.0805 85.537 46.3714C85.1509 47.0654 84.7168 47.7377 84.2372 48.3845C82.8644 50.3186 81.1315 52.0331 79.1118 53.4555C77.9801 54.2622 76.6539 54.8279 75.2356 55.1089C74.9659 55.1749 74.7368 55.333 74.5988 55.5484C74.4608 55.7638 74.4252 56.0189 74.4998 56.2576C74.5744 56.4962 74.7531 56.6989 74.9966 56.8209C75.2402 56.943 75.5285 56.9745 75.7983 56.9085C78.6858 56.403 81.1448 54.6011 83.0846 52.7287C84.745 51.1747 86.148 49.4204 87.2518 47.5181C87.2935 47.4427 87.334 47.3672 87.3727 47.2906C87.425 47.1997 87.4712 47.1061 87.5111 47.0103C87.432 47.1483 87.5384 46.9714 87.5551 46.9415C87.599 46.8637 87.6386 46.7824 87.679 46.7023C87.7722 46.5168 87.861 46.3294 87.9485 46.142C88.3328 45.3406 88.6456 44.5139 88.8839 43.6693C89.2004 42.5027 87.1665 42.0034 86.8496 43.1731L86.8504 43.1723Z" fill="#211715"/>
<path d="M79.8665 53.9882C77.5711 56.2937 76.6339 59.6316 76.6273 62.6549C76.5772 64.2247 76.4269 65.7875 76.3253 67.2259C76.1605 69.5979 76.6106 71.8373 78.3707 73.4763C80.2362 75.2141 82.1796 76.3219 84.8324 75.4443C86.4328 74.5153 88.8843 74.0666 90.8686 73.8029C93.759 73.4324 96.7014 74.0333 99.1158 75.487C101.918 73.9767 103.832 71.9874 104.792 69.9214C105.91 67.2764 106.364 64.4482 106.123 61.6326C105.493 53.6565 97.2256 50.3711 88.9846 50.6872C86.5859 50.7296 84.235 51.289 82.136 52.3169C81.2845 52.7644 80.5185 53.3285 79.8665 53.9882Z" fill="white"/>
<path d="M55.7881 128.776C45.3975 127.846 37.4048 126.083 34.0803 125.15C29.3945 123.834 26.3614 120.586 24.5816 117.394C22.6572 113.941 22.9398 107.162 23.5301 103.9C24.9557 96.018 25.8647 91.9036 27.5742 84.1398C28.2736 80.9667 29.5883 74.3407 32.8135 70.5121C35.2008 67.6773 39.0844 65.6063 43.4414 63.8744C46.6674 62.5911 50.1537 61.4957 53.4839 60.4136C60.1029 65.714 68.4293 67.0886 76.5227 64.6035C76.4594 65.5044 76.3834 66.3875 76.324 67.2278C76.1592 69.5998 76.6093 71.8392 78.3693 73.4782C80.0129 75.0091 81.7171 76.0512 83.9145 75.6776L84.4908 75.5796C81.5255 77.0183 78.8854 78.7246 76.9605 81.7289C76.2067 80.3047 75.2767 78.9588 74.1877 77.7159C74.7203 76.8134 74.8872 75.7767 74.6607 74.7785C74.4778 73.9872 73.8796 73.1454 72.9679 73.103C72.2373 73.0699 71.6267 73.5614 71.1098 74.0191C69.6759 72.5294 67.6447 71.2073 65.4508 71.4527C63.0657 71.7179 61.3381 73.9161 61.4186 76.0411C61.5096 78.459 63.5285 80.6133 65.9264 81.6985C65.4262 84.6425 67.7783 92.4215 68.6517 95.0447C69.2056 96.7055 70.0091 98.4476 71.7155 99.4123C72.6331 99.8952 73.6634 100.186 74.7275 100.262L74.473 100.984C70.2592 101.369 67.2069 105.789 68.7427 109.281L69.4416 110.79C69.5146 112.269 69.5849 113.698 69.5849 113.698C69.7977 118.027 68.9256 125.805 68.486 129.387C63.9931 129.36 59.7192 129.128 55.7881 128.776Z" fill="white"/>
<path d="M155.014 125.935C147.961 125.935 134.656 125.913 121.942 125.889C105.675 125.858 90.3745 125.823 90.3745 125.823C91.7125 114.562 95.5878 85.6348 95.5878 85.6348L106.294 76.4828C108.067 74.7073 110.294 73.3331 112.549 72.0557C113.876 71.3868 115.278 70.8412 116.733 70.4276L120.581 72.4154C126.533 74.9064 130.596 75.6946 137.047 75.5686C144.68 75.4193 147.259 74.3243 149.878 73.0461L153.944 71.2018C157.258 72.2736 160.446 73.6272 163.465 75.2435C166.206 76.7923 168.366 79.0273 169.668 81.6643C170.678 83.7466 171.497 85.8976 172.116 88.0963C173.584 92.7742 175.162 97.4408 176.066 102.237C176.872 106.508 177.741 111.964 175.582 116.019C174.21 118.599 171.784 120.586 169.34 122.374C169.339 122.374 161.309 123.976 155.014 125.935Z" fill="white"/>
<path d="M153.456 98.7809C153.695 98.5976 153.976 98.462 154.279 98.3834C154.582 98.3048 154.902 98.2851 155.214 98.3255C155.521 98.364 155.815 98.4628 156.073 98.6147C156.331 98.7665 156.547 98.9676 156.706 99.2032C156.89 99.5281 156.995 99.8837 157.014 100.247C157.148 101.667 156.838 103.093 156.118 104.369C155.778 105.013 155.285 105.585 154.673 106.046C154.421 106.263 154.099 106.404 153.752 106.453C153.404 106.501 153.049 106.453 152.734 106.315C152.606 106.741 152.453 107.161 152.277 107.573C151.777 108.693 148.98 112.667 145.459 114.121C145.48 114.263 145.51 114.424 145.545 114.606C145.731 115.564 146.034 116.648 147.475 117.352C147.571 117.379 149.453 118.169 149.597 118.226L150.155 118.448L150.029 118.588C148.45 120.336 144.744 121.826 140.98 122.028C138.705 122.157 136.42 122.02 134.186 121.618C131.959 121.209 129.775 120.355 128.225 118.883L127.868 118.543L128.722 118.226C128.878 118.168 130.748 117.379 130.854 117.352C132.285 116.648 132.593 115.564 132.779 114.606C132.794 114.548 132.805 114.495 132.815 114.441C130.921 113.696 129.237 112.588 127.885 111.198C126.447 109.771 125.355 108.099 124.676 106.285C123.675 106.746 123.074 106.547 122.478 106.126C121.866 105.665 121.373 105.093 121.033 104.448C120.313 103.173 120.003 101.747 120.137 100.327C120.155 99.9634 120.26 99.6078 120.445 99.2829C120.603 99.0473 120.82 98.8462 121.078 98.6943C121.336 98.5424 121.629 98.4437 121.936 98.4052C122.249 98.3648 122.568 98.3845 122.872 98.4631C123.175 98.5417 123.456 98.6773 123.694 98.8606C123.694 98.8606 120.053 87.1414 136.942 87.1414C153.831 87.1414 153.456 98.7809 153.456 98.7809Z" fill="white"/>
<path d="M116.871 125.209C115.778 126.73 115.096 128.257 114.272 130.367H164.637C163.344 127.695 161.599 125.213 159.463 123.005C157.646 121.099 154.046 119.406 150.336 118.204C148.988 120.112 145.017 121.812 140.979 122.028C138.704 122.158 136.419 122.02 134.185 121.619C131.781 121.176 129.427 120.217 127.867 118.519C124.483 119.696 120.339 121.373 118.747 123.005C118.061 123.698 117.434 124.435 116.871 125.209Z" fill="#FEBE69"/>
<path d="M150.721 23.3536C149.511 22.3716 148.226 21.4639 146.876 20.6367C145.918 20.1108 144.915 19.6524 143.876 19.2656C141.169 18.2416 138.235 17.7716 135.293 17.8907C125.464 17.3789 116.056 23.8883 114.122 32.1261C113.597 34.3488 113.799 37.7874 114.083 39.5921C114.222 40.605 114.517 41.5961 114.962 42.5376L115.158 42.9024C115.252 42.8931 115.352 42.8868 115.456 42.8837C116.151 42.8604 116.831 43.0657 117.365 43.46C119.112 41.641 121.127 40.8399 124.401 39.6454C124.733 39.5378 125.057 39.4121 125.371 39.269C125.65 39.269 125.847 39.269 125.847 39.269C125.804 39.4333 125.82 39.6055 125.891 39.7618C125.963 39.9181 126.088 40.0509 126.249 40.1419C126.689 40.2776 127.156 40.3335 127.622 40.3064C129.272 40.3693 130.91 40.0284 132.355 39.3211H134.972C134.86 39.6481 134.972 40.0334 135.626 40.1143C137.411 40.2601 139.198 39.8564 140.686 38.9715C141.81 38.1936 142.753 37.2295 143.46 36.1329C144.215 34.966 144.735 33.6918 144.996 32.3672H146.652C146.963 34.5926 147.977 36.6897 149.062 38.7164C149.714 39.9351 150.516 41.2408 151.935 41.7319L153.122 43.6661C153.393 43.4459 153.711 43.2754 154.058 43.1646C154.404 43.0538 154.772 43.0049 155.14 43.0206C155.514 43.0284 155.883 43.0951 156.231 43.2177C157.657 40.0463 156.926 34.8773 156.331 32.2712C156.028 30.9424 155.538 29.6526 154.871 28.432C153.879 26.5139 152.469 24.788 150.721 23.3536Z" fill="#FEBE69"/>
<path d="M145.346 82.8274C145.713 80.5491 147.813 79.5708 150.134 79.2795C152.571 78.9743 154.285 79.5381 156.233 81.0776C156.94 81.6428 157.499 82.3376 157.871 83.1136C158.377 84.2235 158.768 85.372 159.039 86.5449C159.431 88.115 159.833 89.1159 161.044 90.2156C158.885 90.8113 157.006 90.928 155.241 90.2743" fill="#85807F"/>
<path d="M124.824 99.3116C124.684 99.3614 124.628 99.1533 124.665 99.0242C125.076 97.536 125.83 96.139 126.88 94.9207C127.579 94.092 128.462 93.3979 129.474 92.8806C130.486 92.3634 131.606 92.0337 132.767 91.9117C133.664 93.0223 134.829 93.9423 136.177 94.6049C136.45 94.7602 136.757 94.8629 137.077 94.9063C137.077 94.9063 142.848 94.9063 147.11 94.9063C147.54 95.0147 147.959 95.1506 148.366 95.313C149.319 95.7124 150.152 96.3056 150.797 97.0442C151.442 97.7828 151.88 98.6458 152.076 99.5628L152.133 99.8381L153.456 98.7816C153.675 98.6124 153.931 98.4841 154.207 98.4042C154.484 98.3244 154.776 98.2947 155.065 98.3169C155.337 96.9439 155.439 95.5488 155.37 94.1562C155.277 91.714 154.477 89.3337 153.046 87.2432C152.437 86.3774 151.72 85.5749 150.909 84.851C150.583 84.5601 150.089 84.1351 149.752 83.8761C148.871 83.2542 147.93 82.7021 146.939 82.2262C146.152 81.8429 145.33 81.517 144.483 81.2518C142.61 80.6804 140.64 80.3947 138.659 80.4068C135.132 80.3538 131.677 81.2946 128.794 83.093C126.756 84.3363 125.076 85.9846 123.887 87.9057C122.699 89.8269 122.036 91.9675 121.951 94.1562C121.927 95.5755 122.065 96.9933 122.363 98.3881C122.852 98.4091 123.32 98.5757 123.689 98.8609" fill="#85807F"/>
<path d="M52.9019 61.2049C58.0625 65.2369 64.7861 67.3534 71.6747 66.5598C73.6316 66.3356 75.5536 65.9165 77.404 65.3104C77.6698 65.2389 77.8943 65.08 78.0314 64.8663C78.1685 64.6526 78.2076 64.4006 78.1408 64.1621C78.0644 63.9246 77.8855 63.7232 77.6428 63.6012C77.4 63.4793 77.1128 63.4467 76.8431 63.5104C70.9766 65.4321 64.5312 65.3314 58.957 62.7016C57.317 61.9236 55.7856 60.9783 54.3942 59.8851C53.3797 59.0927 51.8821 60.4078 52.9019 61.2049Z" fill="#211715"/>
<path d="M48.1703 21.5027C49.7118 17.2673 52.8095 13.6092 56.971 11.1099C60.9385 8.70057 65.6889 7.50689 70.4957 7.71134C74.9466 7.78471 79.2692 9.04305 82.8996 11.3222L85.7475 13.3882C89.2751 16.3948 92.3925 21.0151 92.4686 27.7018C92.4782 29.9133 92.096 32.1125 91.3358 34.2194C91.066 34.1474 90.7877 34.1034 90.5064 34.0883C90.1195 34.0622 89.7307 34.1042 89.3622 34.2118C88.9938 34.3194 88.6532 34.4904 88.3599 34.7151L85.4588 32.5438C84.5752 30.3763 82.4903 27.9503 80.2889 26.1627C79.3034 25.3294 78.1651 24.6501 76.9227 24.1535L73.2079 23.6422C70.6584 24.5086 67.0394 26.3766 65.013 27.2974C64.8983 27.343 64.7717 27.3596 64.647 27.3454C64.5223 27.3312 64.4046 27.2868 64.3066 27.2171C64.2087 27.1474 64.1345 27.0551 64.0922 26.9504C64.0499 26.8457 64.0412 26.7327 64.067 26.6239C64.1329 26.2382 64.118 25.845 64.023 25.464C63.9083 24.9767 63.4956 24.7598 63.1632 24.9021C60.3271 26.1165 56.2316 29.349 53.8997 31.5044L50.8183 33.6477C50.5419 33.4069 50.2143 33.2169 49.8544 33.0887C49.4945 32.9605 49.1095 32.8966 48.7216 32.9008C48.4111 32.8992 48.1018 32.9336 47.8015 33.003C47.199 30.8494 46.9694 28.6273 47.1206 26.4128C47.2536 24.7456 47.6059 23.0978 48.1703 21.5027Z" fill="#85807F"/>
<path d="M51.5625 32.9879C50.9453 32.4743 50.1682 32.1363 49.3315 32.0174C48.4949 31.8985 47.6372 32.0043 46.8692 32.321C46.3401 32.5652 45.8772 32.9079 45.5121 33.3255C45.147 33.7431 44.8885 34.2257 44.7544 34.7401C43.9786 37.1261 44.5883 39.8885 46.0415 41.9844C47.0463 43.434 48.6939 44.7355 50.7449 44.5543C51.0223 44.5476 51.2863 44.4472 51.4825 44.2736C51.6788 44.1 51.7923 43.8665 51.7999 43.6211C51.7979 43.3741 51.6861 43.1377 51.4887 42.9631C51.2913 42.7884 51.0241 42.6895 50.7449 42.6878C49.1435 42.8294 48.1132 41.5668 47.4811 40.4274C46.9473 39.4883 46.6314 38.4642 46.5518 37.4154C46.4938 36.4044 46.5518 35.1779 47.2692 34.3357C47.1193 34.5118 47.3787 34.2431 47.4129 34.2143C47.551 34.0977 47.3593 34.2276 47.5448 34.1171C47.7731 33.9806 48.0334 33.8916 48.3062 33.857C48.6194 33.8048 48.9421 33.8184 49.2483 33.8967C49.5544 33.9751 49.8355 34.116 50.0688 34.3081C51.05 35.1383 52.5441 33.8204 51.5607 32.986L51.5625 32.9879Z" fill="#211715"/>
<path d="M89.1059 35.375C89.36 35.204 89.6561 35.0886 89.9702 35.038C90.2843 34.9873 90.6075 35.003 90.9134 35.0837C91.2808 35.1467 91.6088 35.3278 91.8343 35.5919C92.5038 36.4591 92.4831 37.7256 92.346 38.7284C92.1785 39.7856 91.7751 40.8027 91.1591 41.7206C90.5437 42.6671 89.4039 43.9787 87.9872 43.7718C87.7176 43.7134 87.4331 43.7483 87.1917 43.8695C86.9504 43.9906 86.7706 44.1889 86.6891 44.4235C86.6171 44.6622 86.654 44.9164 86.7919 45.1312C86.9298 45.346 87.1577 45.5043 87.4263 45.5718C90.8888 46.0773 92.9961 43.1376 94.0031 40.6361C94.8418 38.5523 94.9702 35.235 92.7108 33.7892C91.9448 33.3344 91.0315 33.1142 90.1106 33.1622C89.1897 33.2103 88.312 33.5239 87.6118 34.0552C87.4161 34.2312 87.3064 34.4682 87.3064 34.7151C87.3064 34.962 87.4161 35.199 87.6118 35.375C87.8124 35.5453 88.0797 35.6404 88.3577 35.6404C88.6358 35.6404 88.9031 35.5453 89.1037 35.375H89.1059Z" fill="#211715"/>
<path d="M49.6073 42.5505C50.1524 45.0603 51.2136 47.4603 52.7384 49.6311C54.3648 51.9308 56.5336 54.0901 59.1886 55.4868C60.5452 56.2001 62.0348 56.6934 63.5874 56.9435C63.857 57.0024 64.1418 56.9676 64.3832 56.8463C64.6246 56.725 64.8042 56.5264 64.885 56.2914C64.9569 56.0528 64.92 55.7988 64.7822 55.5841C64.6444 55.3694 64.4167 55.2111 64.1483 55.1435C60.7487 54.5991 58.1086 52.7715 55.9696 50.4426C53.7716 48.0026 52.2855 45.122 51.6421 42.0543C51.5652 41.817 51.3862 41.6158 51.1435 41.494C50.9008 41.3721 50.6137 41.3393 50.344 41.4026C50.0774 41.4728 49.8518 41.6314 49.7145 41.8454C49.5772 42.0594 49.5388 42.312 49.6073 42.5505Z" fill="#211715"/>
<path d="M83.4319 10.5184C80.1347 8.52081 76.3319 7.27259 72.3598 6.88411C68.3877 6.49563 64.3685 6.97886 60.6577 8.29108C57.6299 9.40928 54.8951 11.0674 52.6238 13.162C50.3525 15.2565 48.5935 17.7427 47.4565 20.4653C45.8652 24.4782 45.6041 28.8099 46.7039 32.9497C46.998 34.1217 49.0337 33.6256 48.7387 32.4536C47.1962 26.3097 48.7435 19.7295 53.559 14.9999C57.1453 11.5047 62.0483 9.2851 67.3507 8.75648C72.6531 8.22785 77.9916 9.4264 82.3672 12.1279C82.6094 12.2506 82.8964 12.2843 83.1664 12.2217C83.4364 12.1591 83.6678 12.0051 83.8108 11.7931C83.9465 11.5783 83.9828 11.3253 83.9123 11.0873C83.8417 10.8493 83.6697 10.6447 83.4323 10.5165L83.4319 10.5184Z" fill="#211715"/>
<path d="M92.4418 34.1921C92.9971 32.5203 93.3481 30.8007 93.4888 29.0627C93.5889 27.3374 93.4762 25.6076 93.1526 23.9038C92.6558 21.1056 91.4772 18.4363 89.6984 16.0809C88.8159 14.9315 87.8024 13.8653 86.6737 12.899C85.6979 12.0625 84.2042 13.3807 85.1818 14.2187C87.0665 15.8207 88.5818 17.7311 89.6435 19.8438C90.9149 22.5194 91.5178 25.4064 91.411 28.3072C91.3368 30.1333 90.9994 31.9435 90.407 33.694C90.0417 34.8531 92.0774 35.3474 92.4418 34.1905V34.1921Z" fill="#211715"/>
<path d="M66.1216 48.1981C67.2402 48.7454 68.4945 49.0393 69.7726 49.0536C70.9881 49.0882 72.4158 48.9467 73.4312 48.2918C73.6679 48.163 73.8393 47.9585 73.9098 47.7207C73.9803 47.4829 73.9444 47.2302 73.8097 47.0152C73.6665 46.8035 73.4351 46.6499 73.1654 46.5873C72.8956 46.5247 72.6088 46.5581 72.3666 46.6804C72.2414 46.7604 72.1091 46.8313 71.9709 46.8924C71.9314 46.9099 71.8901 46.9239 71.8514 46.9425C71.7437 46.995 72.0905 46.8647 71.9173 46.918C71.8039 46.9542 71.6914 46.9907 71.5758 47.0207C71.4427 47.0552 71.3082 47.0847 71.1722 47.1093C71.1037 47.1218 71.0355 47.1331 70.9665 47.1432C70.8637 47.1583 70.7907 47.1614 70.9366 47.1486C70.5494 47.1841 70.16 47.1971 69.7709 47.1875C69.5823 47.1821 69.3933 47.1719 69.2056 47.1564C69.1911 47.1564 68.8539 47.1175 69.0799 47.1471C69.0016 47.1369 68.9237 47.1257 68.846 47.1132C68.5658 47.0696 68.2894 47.0088 68.0187 46.9312C67.9031 46.8978 67.7906 46.8577 67.6768 46.8208C67.5515 46.78 67.8987 46.9149 67.7401 46.843C67.693 46.8216 67.6434 46.8041 67.5954 46.7827C67.4557 46.7217 67.3198 46.6548 67.1849 46.5863C67.0652 46.5245 66.933 46.4841 66.7957 46.4674C66.6584 46.4507 66.5188 46.4582 66.3847 46.4893C66.2507 46.5203 66.1249 46.5745 66.0145 46.6486C65.9041 46.7227 65.8113 46.8153 65.7413 46.9211C65.6714 47.027 65.6257 47.1439 65.6069 47.2654C65.5881 47.3868 65.5964 47.5104 65.6316 47.629C65.6667 47.7475 65.7279 47.8588 65.8117 47.9565C65.8955 48.0542 66.0002 48.1363 66.1198 48.1981H66.1216Z" fill="#211715"/>
<path d="M69.5348 40.5709C69.6605 41.0593 69.7775 41.5531 69.8544 42.0485L69.8166 41.8004C69.8355 41.9244 69.8531 42.0481 69.8737 42.1718L69.8359 41.9237C69.8526 42.0177 69.8548 42.1133 69.8425 42.2079L69.8803 41.9598C69.8734 41.9944 69.8627 42.0282 69.8482 42.0609L69.9546 41.8381C69.9423 41.8608 69.9276 41.8824 69.9107 41.9027L70.0755 41.7137C70.064 41.7269 70.0508 41.7391 70.0364 41.7499L70.2496 41.6036C70.1958 41.6367 70.1376 41.6637 70.0764 41.6841L70.3287 41.59C70.2576 41.6142 70.184 41.6321 70.1089 41.6433L70.3894 41.6099C70.3098 41.6188 70.2293 41.6188 70.1498 41.6099L70.4302 41.6433C70.3335 41.6305 70.2395 41.6064 70.1428 41.592C69.868 41.5334 69.5784 41.5669 69.33 41.6861C69.2103 41.7479 69.1056 41.83 69.0218 41.9277C68.938 42.0253 68.8768 42.1366 68.8417 42.2552C68.8065 42.3738 68.7981 42.4973 68.817 42.6188C68.8358 42.7403 68.8815 42.8572 68.9515 42.9631C69.0192 43.0678 69.1098 43.1596 69.218 43.2331C69.3262 43.3065 69.4499 43.3601 69.5819 43.3908C69.792 43.4223 69.9889 43.4662 70.2052 43.4806C70.5442 43.4891 70.8799 43.4198 71.1797 43.2796C71.36 43.2022 71.5186 43.0905 71.6443 42.9525C71.77 42.8145 71.8597 42.6536 71.9068 42.4813C71.9712 42.1965 71.9676 41.903 71.8962 41.6196L71.934 41.8677C71.8463 41.2642 71.7236 40.6651 71.5665 40.0727C71.4902 39.8352 71.3113 39.6338 71.0686 39.5119C70.8258 39.3899 70.5386 39.3573 70.2689 39.421C70.0024 39.4913 69.777 39.65 69.6397 39.864C69.5024 40.0779 69.4639 40.3305 69.5322 40.5689L69.5348 40.5709Z" fill="#211715"/>
<path d="M59.9504 35.578C59.6071 36.4631 59.735 38.5244 61.6423 38.7538C64.1725 38.8121 64.3971 36.3309 63.5883 35.1375C62.9241 34.1607 60.8907 33.7053 59.9504 35.578Z" fill="#211715"/>
<path d="M80.2059 36.1538C80.4841 37.0564 80.2059 39.1064 78.2871 39.2258C75.7579 39.1402 75.7135 36.6512 76.6075 35.5068C77.3394 34.5708 79.4037 34.2313 80.2059 36.1538Z" fill="#211715"/>
<path d="M76.39 24.9596C78.1899 25.755 79.7911 26.8618 81.0991 28.2143C82.5273 29.5413 83.6605 31.0942 84.4398 32.7918C84.5205 33.0269 84.7002 33.2256 84.9418 33.3469C85.1833 33.4682 85.4683 33.5028 85.7379 33.4435C86.0064 33.3761 86.2342 33.2179 86.3721 33.0031C86.5099 32.7883 86.5467 32.5342 86.4746 32.2956C85.6006 30.3399 84.3211 28.5458 82.7022 27.0057C81.2484 25.4879 79.4639 24.2448 77.455 23.3505C77.2117 23.2321 76.9264 23.2009 76.6578 23.2632C76.3892 23.3255 76.1578 23.4766 76.0115 23.6853C75.8727 23.8996 75.8347 24.1534 75.9055 24.3923C75.9762 24.6311 76.1502 24.8358 76.39 24.9623V24.9596Z" fill="#211715"/>
<path d="M54.6439 32.1642C56.9292 29.9773 59.5035 28.0413 62.3114 26.398C62.6116 26.23 62.9171 26.0686 63.2296 25.9189C63.3102 25.8863 63.3885 25.8497 63.4643 25.8092C63.6103 25.7179 63.5685 25.8283 63.4736 25.775C63.4296 25.7505 62.7672 25.992 63.0138 25.6751C62.9773 25.7221 63.0349 25.8306 63.0402 25.8835C63.0731 26.2191 62.9879 26.5504 63.0217 26.8829C63.0432 27.1041 63.1185 27.3185 63.2426 27.5115C63.3666 27.7045 63.5365 27.8714 63.7404 28.0008C64.5967 28.5417 65.4108 28.1727 66.2222 27.7901C66.9233 27.4595 67.6201 27.122 68.3194 26.7884C69.9883 25.9462 71.7144 25.1961 73.4879 24.5424C73.7532 24.4703 73.9773 24.3112 74.1142 24.0977C74.2512 23.8843 74.2907 23.6325 74.2246 23.3941C74.1484 23.1564 73.9695 22.9548 73.7266 22.8329C73.4837 22.711 73.1963 22.6784 72.9266 22.7424C71.2659 23.3387 69.6465 24.0213 68.0768 24.7866C67.311 25.147 66.5501 25.5149 65.7866 25.8792C65.4789 26.0258 65.1712 26.172 64.8635 26.3155C64.6195 26.4291 64.4828 26.3976 64.8112 26.4897C65.1396 26.5819 65.1224 26.7367 65.151 26.3676C65.216 25.5367 65.0033 24.5249 64.1066 24.0921C63.2591 23.683 62.4107 24.1698 61.6814 24.5501C60.1687 25.3744 58.7348 26.307 57.3943 27.3386C55.9108 28.44 54.4944 29.6102 53.1511 30.8445C52.2104 31.7112 53.7006 33.0329 54.6457 32.1642H54.6439Z" fill="#211715"/>
<path d="M53.9283 61.4448C54.8716 61.1264 55.8143 60.807 56.7565 60.4866C57.3492 60.3126 57.9291 60.1061 58.4928 59.8684C60.4766 58.9262 60.8014 56.6798 61.048 54.905C61.048 54.6575 60.9369 54.4202 60.739 54.2451C60.5412 54.0701 60.2728 53.9718 59.9931 53.9718C59.7158 53.9789 59.4521 54.0796 59.256 54.2531C59.0599 54.4265 58.9461 54.6598 58.9381 54.905C58.9214 55.0238 58.9184 55.0463 58.9293 54.9727C58.9182 55.0419 58.9064 55.1111 58.8941 55.1804C58.8761 55.2834 58.8563 55.3868 58.8357 55.4914C58.7869 55.7349 58.7319 55.9771 58.673 56.219C58.5953 56.572 58.491 56.92 58.3609 57.2607C58.3425 57.307 58.3227 57.3529 58.3025 57.3984C58.3561 57.2887 58.3587 57.2817 58.3104 57.3774C58.273 57.4423 58.2387 57.508 58.1992 57.5718C58.153 57.6461 58.0998 57.7161 58.0501 57.7884C57.9148 57.9859 58.131 57.7328 57.9912 57.8592C57.9328 57.912 57.8792 57.968 57.8185 58.019C57.7776 58.0536 57.7354 58.087 57.6923 58.1189C57.7943 58.0528 57.7961 58.0505 57.6989 58.1127C57.622 58.1551 57.5482 58.1998 57.469 58.2391C57.3937 58.2678 57.3203 58.3004 57.2492 58.3367C57.3372 58.3075 57.2084 58.3468 57.1881 58.3534C57.0958 58.3822 57.0044 58.4144 56.913 58.4455C56.6064 58.5492 56.3002 58.6529 55.9943 58.7566C55.1192 59.0537 54.2436 59.3504 53.3674 59.6467C53.1012 59.7174 52.876 59.8761 52.7388 60.0899C52.6015 60.3038 52.5628 60.5562 52.6307 60.7946C52.7077 61.0317 52.8867 61.2327 53.1292 61.3545C53.3718 61.4763 53.6586 61.5093 53.9283 61.4463V61.4448Z" fill="#211715"/>
<path d="M52.9861 59.5826C48.6185 60.9999 44.1907 62.3663 40.0627 64.2877C36.3976 65.9936 32.9232 68.2302 30.8541 71.4771C28.8637 74.6008 27.8554 78.1817 27.0496 81.6689C26.1894 85.3903 25.3916 89.1256 24.6078 92.8601C23.7775 96.8136 22.8856 100.793 22.333 104.785C21.8614 108.194 21.8218 111.807 22.6451 115.176C23.4851 118.616 26.0413 121.804 29.1767 123.923C31.7306 125.65 34.7839 126.373 37.849 127.039C46.2575 128.837 54.8457 129.898 63.4892 130.207C64.8296 130.259 66.1706 130.293 67.5122 130.31C68.8705 130.327 68.8709 128.461 67.5122 128.444C58.544 128.343 49.6104 127.439 40.8487 125.743C39.4675 125.473 38.0912 125.181 36.725 124.858C35.5565 124.61 34.4082 124.292 33.288 123.908C29.7389 122.585 26.8224 119.718 25.3406 116.636C24.7115 115.167 24.3469 113.619 24.2601 112.05C24.113 110.336 24.1026 108.614 24.2289 106.899C24.3678 105.242 24.6075 103.592 24.9472 101.958C25.3179 99.9574 25.704 97.9594 26.1054 95.9635C26.8967 92.0388 27.7718 88.127 28.6299 84.2132C29.3244 81.0437 30.0541 77.8617 31.386 74.8442C32.0164 73.313 32.9218 71.8818 34.0674 70.6057C35.3319 69.3067 36.8105 68.1836 38.4534 67.2744C42.1322 65.1715 46.2642 63.7615 50.3522 62.42C51.4155 62.07 52.4815 61.7278 53.5466 61.3825C53.8123 61.3112 54.037 61.1522 54.1741 60.9385C54.3112 60.7248 54.3503 60.4727 54.2833 60.2343C54.2068 59.9968 54.028 59.7954 53.7852 59.6735C53.5425 59.5516 53.2558 59.519 52.9861 59.5826Z" fill="#211715"/>
<path d="M45.2147 88.3864C44.5553 93.0448 43.612 97.8884 42.7254 102.602C42.4871 103.87 42.2474 105.137 42.0062 106.405C41.9402 106.643 41.9797 106.895 42.1168 107.108C42.2538 107.322 42.478 107.481 42.7434 107.553C43.0131 107.617 43.3003 107.584 43.543 107.462C43.7858 107.34 43.9646 107.139 44.041 106.901C44.9764 101.969 45.9188 97.0372 46.7457 92.0898C46.9518 90.8567 47.1492 89.6229 47.3246 88.3864C47.3231 88.1393 47.2115 87.9027 47.0139 87.7279C46.8164 87.5532 46.549 87.4545 46.2696 87.4531C45.9919 87.459 45.7275 87.5593 45.5311 87.733C45.3346 87.9068 45.2213 88.1407 45.2147 88.3864Z" fill="#211715"/>
<path d="M131.761 114.437C131.761 114.454 131.816 114.161 131.783 114.274C131.772 114.309 131.767 114.345 131.759 114.38C131.75 114.424 131.742 114.468 131.732 114.512C131.711 114.615 131.687 114.719 131.661 114.823C131.61 115.028 131.544 115.231 131.464 115.429C131.448 115.466 131.361 115.657 131.437 115.495C131.509 115.342 131.43 115.503 131.411 115.538C131.354 115.642 131.29 115.742 131.221 115.84C131.185 115.89 131.146 115.938 131.108 115.987C131.006 116.12 131.252 115.839 131.129 115.962C131.035 116.057 130.936 116.148 130.832 116.234C130.776 116.279 130.718 116.321 130.66 116.364C130.575 116.429 130.743 116.308 130.742 116.308C130.712 116.323 130.684 116.341 130.658 116.361C130.59 116.402 130.515 116.436 130.45 116.477C130.307 116.574 130.555 116.454 130.558 116.454C130.384 116.496 130.218 116.56 130.064 116.643C129.725 116.78 129.388 116.921 129.051 117.061C128.765 117.18 128.481 117.306 128.191 117.416C127.954 117.539 127.78 117.739 127.708 117.974C127.635 118.217 127.673 118.475 127.814 118.693C127.954 118.903 128.18 119.056 128.444 119.121C128.72 119.172 129.006 119.139 129.257 119.027C129.881 118.791 130.486 118.515 131.103 118.265L131.279 118.195C131.469 118.117 131.011 118.303 131.138 118.248C131.342 118.169 131.539 118.075 131.727 117.969C131.92 117.852 132.105 117.725 132.281 117.588C132.792 117.17 133.187 116.652 133.434 116.076C133.54 115.843 133.625 115.603 133.689 115.359C133.788 115.056 133.851 114.746 133.875 114.432C133.875 114.184 133.764 113.947 133.566 113.772C133.369 113.597 133.1 113.498 132.82 113.498C132.541 113.498 132.272 113.597 132.074 113.772C131.877 113.947 131.765 114.184 131.765 114.432L131.761 114.437Z" fill="#211715"/>
<path d="M144.404 114.121C144.579 115.297 144.849 116.45 145.779 117.358C146.037 117.602 146.328 117.818 146.646 117.999C146.817 118.106 147.003 118.192 147.2 118.255C147.271 118.276 146.879 118.129 146.999 118.179C147.025 118.19 147.051 118.2 147.077 118.211C147.426 118.349 147.771 118.495 148.116 118.638C148.432 118.77 148.746 118.905 149.064 119.032C149.307 119.151 149.593 119.182 149.861 119.12C150.13 119.058 150.361 118.906 150.507 118.697C150.645 118.483 150.683 118.229 150.612 117.991C150.542 117.752 150.368 117.547 150.129 117.42C149.524 117.178 148.928 116.919 148.327 116.673C148.231 116.634 148.135 116.595 148.037 116.556C147.94 116.517 147.856 116.481 147.762 116.453C147.773 116.457 148 116.566 147.906 116.492C147.875 116.473 147.842 116.455 147.808 116.439C147.744 116.404 147.683 116.367 147.621 116.33C147.598 116.316 147.498 116.247 147.613 116.327C147.728 116.406 147.606 116.32 147.583 116.302C147.473 116.219 147.37 116.13 147.273 116.036C147.229 115.995 147.194 115.945 147.149 115.907C147.146 115.905 147.276 116.069 147.219 115.985C147.198 115.954 147.172 115.926 147.149 115.896C147.077 115.801 147.011 115.702 146.952 115.6C146.924 115.554 146.901 115.506 146.875 115.46C146.8 115.325 146.958 115.66 146.881 115.47C146.789 115.244 146.713 115.013 146.655 114.778C146.628 114.668 146.604 114.558 146.582 114.447C146.565 114.366 146.55 114.284 146.535 114.203C146.522 114.137 146.474 113.84 146.515 114.116C146.506 113.87 146.396 113.636 146.208 113.455C146.008 113.282 145.74 113.184 145.46 113.183C144.95 113.203 144.328 113.598 144.405 114.116L144.404 114.121Z" fill="#211715"/>
<path d="M146.632 82.1613C147.74 80.151 151.242 79.6629 153.399 80.4924C154.743 81.0077 155.872 81.879 156.632 82.9861C157.418 84.1973 157.726 85.6793 158.078 87.0243C158.4 88.4644 159.168 89.7971 160.296 90.8739L160.762 89.3142C159.003 89.7902 157.265 89.9947 155.522 89.3722C155.252 89.3081 154.964 89.3405 154.722 89.4625C154.479 89.5845 154.3 89.7862 154.224 90.0239C154.156 90.2624 154.195 90.5147 154.333 90.7285C154.47 90.9423 154.695 91.1012 154.961 91.1722C157.018 91.9067 159.251 91.6757 161.323 91.1142C161.498 91.0682 161.658 90.9829 161.785 90.8665C161.913 90.7502 162.005 90.6067 162.051 90.45C162.098 90.2933 162.098 90.1285 162.052 89.9716C162.006 89.8147 161.915 89.6709 161.788 89.5542C160.7 88.5482 160.325 87.3634 159.988 86.0347C159.597 84.4925 159.109 82.7788 158.042 81.4874C157.008 80.2501 155.611 79.2876 154.002 78.7048C152.44 78.202 150.744 78.1287 149.134 78.4944C147.345 78.8464 145.637 79.7193 144.81 81.2187C144.676 81.4339 144.64 81.6865 144.711 81.9241C144.781 82.1618 144.952 82.3665 145.189 82.4957C145.431 82.6185 145.718 82.6521 145.988 82.5895C146.258 82.5269 146.489 82.373 146.632 82.1609V82.1613Z" fill="#211715"/>
<path d="M154.202 99.4406C154.322 99.3582 154.459 99.2987 154.606 99.2657C154.753 99.2327 154.907 99.227 155.056 99.2489C155.206 99.2708 155.349 99.3199 155.476 99.393C155.603 99.4662 155.712 99.5618 155.795 99.6739C155.947 100.012 156.013 100.377 155.988 100.74C156.002 101.174 155.968 101.609 155.884 102.037C155.716 102.9 155.362 103.726 154.843 104.472C154.628 104.789 154.354 105.073 154.035 105.312C153.942 105.408 153.819 105.476 153.681 105.509C153.543 105.542 153.398 105.537 153.263 105.496C151.95 105.185 151.39 106.986 152.702 107.295C154.333 107.68 155.61 106.756 156.5 105.635C157.347 104.507 157.873 103.214 158.03 101.866C158.203 100.608 158.194 99.0199 157.044 98.1049C156.443 97.6409 155.672 97.3866 154.874 97.3896C154.076 97.3925 153.307 97.6525 152.71 98.1209C152.514 98.2968 152.404 98.5338 152.404 98.7808C152.404 99.0277 152.514 99.2647 152.71 99.4406C152.911 99.6108 153.178 99.7059 153.456 99.7059C153.734 99.7059 154.001 99.6108 154.202 99.4406Z" fill="#211715"/>
<path d="M124.435 98.2007C123.838 97.7325 123.069 97.4727 122.271 97.4698C121.474 97.4668 120.702 97.721 120.101 98.1847C118.952 99.0989 118.942 100.689 119.115 101.946C119.272 103.293 119.798 104.587 120.646 105.714C121.535 106.837 122.811 107.76 124.443 107.375C125.753 107.064 125.197 105.265 123.882 105.576C123.747 105.618 123.601 105.623 123.464 105.59C123.326 105.557 123.203 105.488 123.11 105.392C122.791 105.152 122.518 104.869 122.302 104.552C121.783 103.806 121.429 102.98 121.261 102.117C121.181 101.712 121.146 101.301 121.156 100.89C121.123 100.503 121.189 100.115 121.35 99.7538C121.434 99.6416 121.542 99.546 121.669 99.4728C121.796 99.3997 121.939 99.3506 122.089 99.3287C122.239 99.3068 122.392 99.3125 122.539 99.3455C122.686 99.3785 122.824 99.4381 122.943 99.5204C123.145 99.6894 123.412 99.7836 123.689 99.7836C123.967 99.7836 124.234 99.6894 124.435 99.5204C124.631 99.3444 124.741 99.1074 124.741 98.8606C124.741 98.6137 124.631 98.3767 124.435 98.2007Z" fill="#211715"/>
<path d="M151.871 105.366C151.804 105.759 151.703 106.147 151.569 106.526C151.444 106.785 151.341 107.052 151.261 107.325C151.238 107.467 151.384 107.117 151.289 107.264C151.249 107.325 151.22 107.394 151.185 107.459C151.109 107.594 151.027 107.728 150.944 107.86C150.477 108.592 149.947 109.292 149.358 109.952C147.89 111.577 146.033 113.216 143.717 113.664C142.392 113.92 142.953 115.72 144.279 115.463C146.968 114.943 149.185 113.122 150.849 111.271C152.29 109.67 153.563 107.927 153.908 105.864C153.973 105.626 153.933 105.374 153.796 105.161C153.659 104.948 153.436 104.788 153.171 104.716C152.901 104.652 152.614 104.685 152.371 104.807C152.128 104.929 151.949 105.13 151.873 105.368L151.871 105.366Z" fill="#211715"/>
<path d="M123.34 105.58C124.071 108.072 125.508 110.358 127.516 112.222C129.502 114.065 132.066 115.562 134.96 115.925C135.229 115.983 135.513 115.948 135.754 115.826C135.996 115.705 136.176 115.508 136.258 115.274C136.33 115.035 136.293 114.781 136.155 114.566C136.018 114.351 135.789 114.193 135.521 114.125C130.434 113.488 126.602 109.284 125.372 105.084C125.032 103.922 122.996 104.414 123.338 105.58H123.34Z" fill="#211715"/>
<path d="M156.102 98.4634C156.847 94.4237 156.392 90.142 153.855 86.6276C151.395 83.2774 147.581 80.8849 143.193 79.9393C138.808 78.988 134.182 79.4553 130.151 81.2568C127.174 82.6414 124.706 84.749 123.036 87.3318C121.939 89.0843 121.247 91.0123 121.001 93.0036C120.81 94.8266 120.908 96.6641 121.29 98.4634C121.366 98.7011 121.545 98.9027 121.787 99.0247C122.03 99.1467 122.317 99.1793 122.587 99.1156C122.853 99.0447 123.078 98.8858 123.216 98.672C123.353 98.4581 123.392 98.2058 123.324 97.9673C123.058 96.598 122.958 95.2074 123.027 93.8194C123.13 92.2552 123.553 90.7204 124.274 89.2893C125.502 86.9607 127.438 84.9804 129.866 83.5696C133.147 81.7328 137.057 80.9835 140.903 81.4547C144.904 81.9122 148.559 83.6992 151.125 86.453C154.098 89.6497 154.803 93.9745 154.067 97.9661C154.001 98.2045 154.041 98.4562 154.178 98.6696C154.315 98.883 154.539 99.0419 154.804 99.114C155.074 99.1779 155.361 99.1454 155.604 99.0234C155.847 98.9015 156.026 98.6999 156.102 98.4623V98.4634Z" fill="#211715"/>
<path d="M165.438 129.659C164.11 126.911 162.279 124.375 160.018 122.154C157.769 119.955 154.451 118.626 151.389 117.563C151.119 117.5 150.832 117.532 150.589 117.654C150.346 117.776 150.168 117.978 150.092 118.216C150.024 118.454 150.062 118.706 150.2 118.92C150.337 119.134 150.562 119.293 150.828 119.363C153.594 120.323 156.627 121.554 158.623 123.57C160.695 125.667 162.38 128.041 163.616 130.602C163.758 130.815 163.99 130.969 164.26 131.032C164.53 131.095 164.817 131.061 165.059 130.937C165.296 130.808 165.467 130.603 165.537 130.366C165.607 130.128 165.572 129.875 165.438 129.66V129.659Z" fill="#211715"/>
<path d="M115.289 130.615C116.329 127.96 117.613 125.102 120.041 123.177C121.265 122.291 122.62 121.555 124.069 120.991C125.675 120.294 127.329 119.689 129.001 119.125C129.266 119.053 129.49 118.894 129.627 118.68C129.764 118.467 129.804 118.215 129.737 117.976C129.661 117.739 129.482 117.537 129.24 117.415C128.997 117.293 128.709 117.261 128.44 117.325C125.653 118.265 122.817 119.276 120.296 120.703C118.074 122.038 116.292 123.871 115.133 126.014C114.399 127.341 113.771 128.712 113.253 130.116C112.808 131.254 114.845 131.743 115.288 130.613L115.289 130.615Z" fill="#211715"/>
<path d="M135.948 109.134C136.734 109.815 137.949 110.035 139.01 110.034C140.07 110.033 141.285 109.815 142.072 109.134C142.267 108.959 142.376 108.722 142.375 108.476C142.373 108.23 142.262 107.994 142.066 107.82C141.869 107.646 141.602 107.548 141.324 107.547C141.046 107.546 140.778 107.642 140.58 107.815C140.539 107.85 140.387 107.957 140.562 107.837C140.737 107.718 140.547 107.842 140.495 107.87C140.436 107.903 140.374 107.933 140.311 107.961C140.269 107.979 140.223 107.994 140.182 108.014C140.231 107.99 140.433 107.929 140.267 107.98C140.066 108.043 139.86 108.093 139.651 108.129C139.617 108.135 139.583 108.14 139.549 108.145C139.469 108.156 139.503 108.152 139.651 108.134C139.589 108.148 139.526 108.154 139.462 108.151C139.312 108.162 139.161 108.167 139.01 108.167C138.872 108.167 138.734 108.163 138.596 108.154C138.52 108.143 138.444 108.137 138.368 108.134C138.469 108.13 138.561 108.16 138.401 108.134C138.189 108.101 137.98 108.052 137.777 107.988C137.693 107.961 137.557 107.883 137.837 108.014C137.802 107.997 137.764 107.985 137.729 107.969C137.659 107.939 137.59 107.906 137.524 107.869C137.473 107.842 137.426 107.808 137.376 107.781C137.683 107.948 137.526 107.888 137.44 107.814C137.242 107.642 136.974 107.545 136.696 107.546C136.418 107.547 136.151 107.646 135.954 107.82C135.758 107.994 135.647 108.23 135.645 108.476C135.644 108.722 135.753 108.959 135.948 109.134L135.948 109.134Z" fill="#211715"/>
<path d="M138.86 104.051C138.832 104.066 138.802 104.079 138.772 104.09L139.024 103.996C138.978 104.013 138.93 104.025 138.881 104.031L139.162 103.998C139.114 104.003 139.067 104.003 139.019 103.998L139.3 104.031C139.272 104.028 139.245 104.023 139.217 104.018C139.101 103.998 138.983 103.987 138.865 103.974C138.588 103.981 138.324 104.081 138.128 104.255C137.931 104.428 137.818 104.662 137.81 104.907L137.848 105.155C137.897 105.311 137.99 105.453 138.119 105.567L138.333 105.713C138.494 105.797 138.678 105.841 138.865 105.84H138.87L138.59 105.807C138.625 105.812 138.659 105.818 138.694 105.824C138.804 105.842 138.916 105.853 139.027 105.863C139.047 105.865 139.068 105.867 139.089 105.867C139.111 105.868 139.132 105.867 139.154 105.865C139.249 105.856 139.354 105.842 139.448 105.83L139.465 105.827C139.478 105.827 139.49 105.823 139.502 105.82C139.53 105.813 139.557 105.805 139.584 105.796C139.7 105.758 139.813 105.714 139.923 105.664C140.104 105.573 140.25 105.435 140.34 105.269C140.43 105.103 140.46 104.916 140.426 104.734C140.42 104.61 140.377 104.491 140.301 104.387L140.136 104.198C140.007 104.084 139.847 104.001 139.671 103.958L139.39 103.925C139.203 103.925 139.019 103.969 138.858 104.052L138.86 104.051Z" fill="#211715"/>
<path d="M131.225 100.024C130.989 100.702 131.143 102.262 132.595 102.396C134.514 102.386 134.617 100.5 133.97 99.6133C133.441 98.8861 131.886 98.5844 131.225 100.024Z" fill="#211715"/>
<path d="M146.531 100.024C146.767 100.702 146.613 102.262 145.161 102.396C143.242 102.386 143.139 100.5 143.786 99.6133C144.315 98.8861 145.871 98.5844 146.531 100.024Z" fill="#211715"/>
<path d="M130.718 91.3498C128.636 92.023 126.847 93.2602 125.605 94.8852C124.98 95.7007 124.473 96.5825 124.096 97.51C123.899 97.9425 123.745 98.3895 123.637 98.8457C123.505 99.4978 123.953 100.313 124.824 100.246C125.101 100.239 125.365 100.139 125.562 99.9652C125.758 99.7916 125.872 99.5578 125.879 99.3123C125.877 99.0653 125.765 98.829 125.568 98.6543C125.37 98.4797 125.103 98.3808 124.824 98.3791L124.761 98.3837L125.293 98.5113L125.245 98.4825L125.623 98.8173C125.698 98.934 125.607 99.5153 125.735 99.0984C125.765 99.0012 125.796 98.904 125.828 98.8084C125.887 98.6344 125.949 98.462 126.015 98.2912C126.132 97.9873 126.266 97.6888 126.417 97.3968C126.753 96.7378 127.172 96.1143 127.666 95.5381C128.591 94.4566 129.843 93.6285 131.278 93.1494C131.544 93.0783 131.768 92.9194 131.906 92.7057C132.043 92.4919 132.082 92.2396 132.014 92.0011C131.938 91.7637 131.759 91.5623 131.516 91.4404C131.273 91.3185 130.986 91.2858 130.717 91.3494L130.718 91.3498Z" fill="#211715"/>
<path d="M130.486 89.4106C130.781 90.8713 131.544 92.2263 132.684 93.3147C133.251 93.8693 133.885 94.3675 134.574 94.8005C135.298 95.3268 136.16 95.6841 137.08 95.8395C137.36 95.8395 137.628 95.7412 137.826 95.5662C138.024 95.3912 138.135 95.1538 138.135 94.9063C138.127 94.6611 138.013 94.428 137.817 94.2545C137.621 94.081 137.357 93.9804 137.08 93.973C137.27 93.9956 136.955 93.9198 136.945 93.9163C137.077 93.9625 136.898 93.8887 136.855 93.8681C136.692 93.7903 136.533 93.7086 136.375 93.6235C136.082 93.4644 135.798 93.2918 135.521 93.111C135.43 93.0519 135.609 93.1751 135.461 93.0721C135.384 93.0172 135.308 92.9624 135.232 92.906C135.107 92.8125 134.984 92.7163 134.863 92.6175C134.599 92.4009 134.348 92.1717 134.112 91.9312C134.058 91.8767 134.006 91.8215 133.954 91.7659C133.91 91.7193 133.816 91.6135 133.907 91.7181C133.798 91.5929 133.695 91.4638 133.596 91.3327C133.408 91.0841 133.237 90.8251 133.086 90.5574C133.042 90.4796 133.003 90.4018 132.962 90.3264C132.879 90.1709 132.98 90.3731 132.937 90.2751C132.873 90.1292 132.812 89.983 132.761 89.8337C132.656 89.5336 132.577 89.2268 132.524 88.916C132.449 88.6778 132.27 88.4755 132.027 88.3534C131.784 88.2312 131.496 88.1992 131.227 88.2643C130.961 88.3363 130.737 88.4953 130.6 88.7087C130.463 88.9221 130.424 89.1738 130.49 89.4122L130.486 89.4106Z" fill="#211715"/>
<path d="M138.371 89.8594C139.104 91.191 140.063 92.4148 141.217 93.4878C142.359 94.4729 143.791 95.1548 145.349 95.4562C146.675 95.7672 148.034 96.0177 149.109 96.8226C150.129 97.5895 150.819 98.645 151.06 99.8101C151.137 100.048 151.316 100.249 151.559 100.371C151.801 100.493 152.088 100.526 152.358 100.462C152.625 100.392 152.85 100.233 152.988 100.019C153.125 99.8053 153.164 99.5525 153.095 99.314C152.803 98.0269 152.1 96.8409 151.07 95.8959C149.982 94.939 148.619 94.2625 147.129 93.9392C145.692 93.5846 144.172 93.3758 143.036 92.4503C141.855 91.4347 140.892 90.2376 140.195 88.9172C140.125 88.8114 140.032 88.7188 139.922 88.6447C139.811 88.5706 139.685 88.5164 139.551 88.4854C139.417 88.4543 139.278 88.4468 139.14 88.4635C139.003 88.4801 138.871 88.5206 138.751 88.5824C138.631 88.6443 138.527 88.7264 138.443 88.8241C138.359 88.9217 138.298 89.033 138.263 89.1516C138.228 89.2702 138.219 89.3937 138.238 89.5152C138.257 89.6366 138.303 89.7536 138.373 89.8594H138.371Z" fill="#211715"/>
<path d="M127.478 119.543C129.866 121.763 133.266 122.576 136.609 122.883C140.125 123.207 143.682 122.941 146.939 121.662C148.41 121.129 149.723 120.303 150.776 119.248C150.967 119.07 151.073 118.834 151.073 118.589C151.073 118.343 150.967 118.107 150.776 117.929C150.577 117.755 150.309 117.658 150.03 117.658C149.751 117.658 149.483 117.755 149.284 117.929C147.086 120.301 143.099 121.083 139.809 121.136C136.068 121.196 131.69 120.749 128.972 118.223C128.035 117.351 126.544 118.672 127.48 119.543H127.478Z" fill="#211715"/>
<path d="M153.868 44.3264C154.097 44.1582 154.368 44.0409 154.658 43.9842C154.949 43.9276 155.251 43.9331 155.538 44.0005C155.754 44.0447 155.959 44.1209 156.145 44.226C156.148 44.226 156.309 44.3606 156.36 44.4057C156.516 44.5429 156.305 44.3112 156.424 44.4698C157.046 45.2938 157.058 46.4207 156.968 47.3769C156.849 48.3674 156.506 49.3265 155.959 50.1972C155.429 51.071 154.396 52.3872 153.083 52.2286C152.814 52.1713 152.53 52.2068 152.289 52.3279C152.048 52.449 151.868 52.6466 151.786 52.8807C151.713 53.1193 151.75 53.3735 151.888 53.5884C152.026 53.8032 152.254 53.9614 152.522 54.0286C155.856 54.4307 157.805 51.6302 158.7 49.1858C159.435 47.1786 159.466 44.053 157.32 42.6866C156.572 42.2483 155.681 42.042 154.786 42.0999C153.891 42.1578 153.043 42.4767 152.375 43.0066C151.356 43.8041 152.853 45.1204 153.867 44.3264H153.868Z" fill="#211715"/>
<path d="M151.901 51.6893C151.605 52.8004 151.195 53.8855 150.678 54.9311C150.804 54.659 150.634 55.014 150.582 55.1073C150.494 55.2718 150.399 55.4339 150.303 55.5949C150.088 55.9534 149.858 56.305 149.619 56.651C148.35 58.5517 146.728 60.2493 144.821 61.6723C143.802 62.4384 142.598 62.9865 141.301 63.274C139.978 63.5415 140.538 65.3415 141.862 65.074C144.613 64.5183 146.909 62.7502 148.707 60.9066C150.231 59.3971 151.506 57.7042 152.494 55.8784C152.562 55.745 152.626 55.6101 152.69 55.4752C152.716 55.4192 152.819 55.2135 152.703 55.4468C152.855 55.1392 153.004 54.8308 153.139 54.517C153.472 53.7587 153.739 52.9787 153.936 52.1839C154.214 51.0123 152.181 50.5118 151.901 51.6877V51.6893Z" fill="#211715"/>
<path d="M116.531 52.0089C117.332 55.1843 118.999 58.1379 121.387 60.6119C123.695 63.0002 126.676 64.9002 130.25 65.3831C130.52 65.441 130.804 65.4057 131.045 65.2846C131.286 65.1634 131.466 64.9654 131.548 64.731C131.62 64.4924 131.584 64.2382 131.446 64.0234C131.308 63.8087 131.08 63.6505 130.811 63.5831C127.551 63.1429 124.984 61.4705 122.879 59.2921C120.746 57.0484 119.266 54.3773 118.567 51.5116C118.271 50.3396 116.237 50.8358 116.533 52.0078L116.531 52.0089Z" fill="#211715"/>
<path d="M131.216 56.9862C132.317 57.4948 133.544 57.7507 134.786 57.7305C136.083 57.781 137.363 57.4471 138.422 56.7817C138.62 56.6067 138.731 56.3693 138.731 56.1218C138.731 55.8743 138.62 55.6369 138.422 55.4619C138.22 55.2937 137.954 55.2001 137.676 55.2001C137.399 55.2001 137.132 55.2937 136.93 55.4619C137.259 55.2368 137.034 55.3892 136.95 55.4366C136.88 55.4755 136.807 55.5125 136.733 55.5467C136.628 55.5949 136.399 55.6326 136.689 55.5731C136.589 55.5937 136.489 55.6404 136.391 55.668C136.118 55.7428 135.839 55.7981 135.556 55.8337C135.713 55.8131 135.616 55.8255 135.515 55.8337C135.433 55.8407 135.351 55.8464 135.269 55.8508C135.071 55.8613 134.873 55.8652 134.675 55.8632C134.5 55.8632 134.321 55.8558 134.144 55.8446C134.063 55.8395 133.982 55.8321 133.901 55.8259C133.593 55.8026 134.109 55.8609 133.822 55.8181C133.559 55.7809 133.299 55.7289 133.043 55.6626C132.934 55.6334 132.827 55.5984 132.72 55.5654C132.464 55.4876 132.91 55.6486 132.679 55.551C132.547 55.4946 132.415 55.4343 132.283 55.3744C132.042 55.2495 131.754 55.2146 131.483 55.2774C131.212 55.3401 130.981 55.4955 130.84 55.7092C130.698 55.923 130.659 56.1776 130.73 56.4171C130.801 56.6565 130.977 56.8613 131.218 56.9862H131.216Z" fill="#211715"/>
<path d="M134.215 49.6288C134.374 50.1439 134.501 50.6664 134.595 51.1939L134.557 50.9458C134.568 51.0173 134.57 51.0897 134.563 51.1616L134.601 50.9136C134.595 50.9466 134.586 50.9792 134.573 51.0108L134.68 50.7876C134.669 50.8094 134.656 50.8304 134.641 50.8502L134.805 50.6612C134.788 50.6797 134.769 50.6965 134.747 50.7114L134.961 50.5651C134.916 50.5898 134.869 50.6116 134.821 50.6305L135.073 50.5364C134.997 50.5646 134.918 50.5847 134.837 50.5962L135.117 50.5632C135.044 50.5707 134.97 50.5707 134.897 50.5632L135.178 50.5966C135.094 50.5857 135.013 50.5675 134.929 50.5578C134.793 50.5191 134.648 50.5133 134.508 50.541C134.369 50.5467 134.233 50.5849 134.116 50.6519C133.996 50.7137 133.891 50.7958 133.808 50.8934C133.724 50.9911 133.663 51.1024 133.627 51.221C133.592 51.3396 133.584 51.4631 133.603 51.5846C133.622 51.706 133.667 51.823 133.737 51.9288C133.804 52.0341 133.895 52.1262 134.003 52.1997C134.112 52.2732 134.236 52.3266 134.368 52.3566C134.571 52.3815 134.768 52.4266 134.975 52.4344C135.293 52.4359 135.606 52.3691 135.888 52.2399C136.068 52.166 136.228 52.0575 136.356 51.9222C136.484 51.787 136.576 51.6285 136.626 51.4579C136.692 51.1846 136.69 50.9018 136.62 50.6293C136.526 50.1238 136.396 49.6253 136.252 49.1307C136.215 49.0125 136.152 48.9019 136.067 48.8051C135.982 48.7084 135.876 48.6275 135.755 48.5669C135.635 48.5064 135.502 48.4675 135.365 48.4523C135.227 48.4372 135.087 48.4462 134.954 48.4788C134.82 48.5113 134.695 48.5669 134.586 48.6422C134.477 48.7175 134.385 48.8112 134.317 48.9178C134.248 49.0244 134.204 49.1419 134.187 49.2635C134.17 49.3852 134.18 49.5087 134.217 49.6268L134.215 49.6288Z" fill="#211715"/>
<path d="M125.03 45.1301C124.731 45.9778 124.915 47.9299 126.732 48.1029C129.134 48.0986 129.272 45.7387 128.469 44.6262C127.811 43.7155 125.865 43.3309 125.03 45.1301Z" fill="#211715"/>
<path d="M144.266 45.1966C144.557 46.0463 144.357 47.9964 142.538 48.1574C140.137 48.1364 140.019 45.7757 140.832 44.669C141.498 43.7626 143.447 43.3916 144.266 45.1966Z" fill="#211715"/>
<path d="M148.325 20.3622C144.71 18.1322 140.408 16.937 136 16.938C134.169 16.9002 132.338 16.9995 130.525 17.2347C128.817 17.5185 127.153 17.9842 125.571 18.6217C119.403 21.0629 114.164 26.2615 113.024 32.2591C112.716 34.0834 112.648 35.9331 112.824 37.7711C112.958 39.5497 113.204 41.3738 114.052 43.0089C114.194 43.2211 114.426 43.3752 114.696 43.4378C114.966 43.5005 115.253 43.4667 115.495 43.3437C115.732 43.2149 115.903 43.0102 115.974 42.7724C116.044 42.5345 116.008 42.2818 115.874 42.0667C115.199 40.7668 115.071 39.3922 114.956 38.0445C114.809 36.5218 114.809 34.9907 114.956 33.4681C115.248 30.769 116.612 28.1746 118.415 26.0118C122.12 21.5688 128.306 18.6882 134.576 18.799C135.688 18.8185 136.798 18.7815 137.908 18.8694C139.007 18.9614 140.094 19.1426 141.156 19.4107C143.336 19.963 145.398 20.8291 147.26 21.974C148.383 22.6545 149.44 21.0376 148.325 20.3622Z" fill="#211715"/>
<path d="M157.168 43.6416C158.393 41.0611 158.244 37.9748 157.907 35.249C157.763 33.9604 157.528 32.6812 157.2 31.4192C156.718 29.7153 155.964 28.0811 154.959 26.5663C153.952 25.0452 152.689 23.6685 151.214 22.4834C150.216 21.6714 148.72 22.9889 149.722 23.8031C152.23 25.8278 154.054 28.4291 154.989 31.3169C155.749 33.8042 156.089 36.3774 155.997 38.9528C156.007 40.3855 155.715 41.8072 155.134 43.1446C155.061 43.3833 155.098 43.6377 155.236 43.8526C155.374 44.0675 155.602 44.2256 155.871 44.2925C156.141 44.3519 156.426 44.3174 156.667 44.1961C156.909 44.0748 157.088 43.876 157.169 43.6408L157.168 43.6416Z" fill="#211715"/>
<path d="M145.598 32.3676C145.979 34.5203 146.729 36.609 147.821 38.562C148.692 40.2341 149.637 41.8848 151.656 42.6325C151.925 42.6969 152.213 42.6645 152.456 42.5424C152.699 42.4203 152.878 42.2184 152.953 41.9804C153.021 41.742 152.982 41.4898 152.844 41.2761C152.707 41.0624 152.482 40.9036 152.216 40.8325C150.812 40.3123 150.14 38.5826 149.561 37.4627C148.662 35.8552 148.037 34.1385 147.708 32.3688C147.699 32.1237 147.585 31.8907 147.389 31.7173C147.193 31.5439 146.93 31.4431 146.653 31.4355C146.373 31.4369 146.106 31.5356 145.909 31.7104C145.711 31.8851 145.599 32.1217 145.598 32.3688V32.3676Z" fill="#211715"/>
<path d="M107.04 77.1428C108.876 75.3816 111.011 73.8847 113.369 72.706C115.542 71.5907 118.087 70.9783 120.468 70.3203C121.759 69.963 121.208 68.1607 119.907 68.5204C117.357 69.2257 114.632 69.8996 112.305 71.0942C109.789 72.3512 107.509 73.9465 105.546 75.823C104.644 76.7173 106.131 78.0394 107.038 77.1428H107.04Z" fill="#211715"/>
<path d="M118.214 42.8838C117.619 42.4093 116.88 42.1002 116.087 41.9951C115.295 41.89 114.485 41.9935 113.759 42.2927C113.248 42.5237 112.801 42.8517 112.449 43.2533C112.098 43.6548 111.851 44.12 111.726 44.6157C111.009 46.9271 111.673 49.6226 113.154 51.6022C114.159 52.9461 115.757 54.162 117.703 53.9412C117.98 53.9336 118.244 53.8328 118.44 53.6594C118.636 53.486 118.749 53.253 118.758 53.0079C118.757 52.7608 118.645 52.5242 118.447 52.3495C118.25 52.1748 117.982 52.076 117.703 52.0747C116.256 52.2392 115.279 51.1963 114.643 50.1693C114.061 49.2621 113.702 48.257 113.588 47.2191C113.526 46.6452 113.55 46.0665 113.659 45.498C113.71 45.2211 113.796 44.95 113.915 44.69C113.945 44.6301 113.998 44.5473 114.038 44.4874C114.052 44.466 114.209 44.2541 114.131 44.349C114.058 44.4365 114.272 44.2133 114.298 44.1899C114.325 44.1666 114.533 44.0262 114.43 44.0892C114.641 43.962 114.881 43.8781 115.133 43.8435C115.411 43.7914 115.699 43.7966 115.975 43.8588C116.25 43.921 116.506 44.0384 116.722 44.202C117.726 45.0057 119.223 43.6899 118.213 42.8822L118.214 42.8838Z" fill="#211715"/>
<path d="M153.663 72.1017C155.868 72.8238 158.02 73.668 160.105 74.6292C162.009 75.5127 163.895 76.4452 165.424 77.8003C168.571 80.5864 169.851 84.382 171.013 88.0777C172.323 92.2442 173.719 96.3991 174.668 100.645C175.47 104.237 176.176 108.001 175.781 111.67C175.598 113.637 174.853 115.532 173.617 117.175C172.27 118.936 170.429 120.366 168.591 121.713C168.395 121.888 168.286 122.125 168.286 122.372C168.286 122.619 168.395 122.856 168.591 123.032C168.792 123.202 169.059 123.297 169.337 123.297C169.615 123.297 169.883 123.202 170.083 123.032C173.548 120.494 176.684 117.567 177.589 113.535C178.447 109.719 177.8 105.777 177.082 101.988C176.242 97.5606 174.84 93.2428 173.472 88.9261C172.184 84.8591 170.978 80.6825 167.845 77.3772C166.2 75.6414 164.116 74.4313 161.887 73.3561C159.418 72.178 156.856 71.1564 154.223 70.299C153.953 70.2354 153.666 70.2681 153.423 70.3901C153.18 70.512 153.002 70.7135 152.925 70.9511C152.857 71.1896 152.895 71.4422 153.033 71.6561C153.17 71.8701 153.396 72.0287 153.662 72.099L153.663 72.1017Z" fill="#211715"/>
<path d="M160.924 109.2C161.99 108.977 163.089 108.907 164.18 108.992C164.688 109.03 165.192 109.105 165.687 109.215C166.253 109.339 166.808 109.502 167.346 109.701C167.616 109.766 167.904 109.734 168.147 109.611C168.39 109.489 168.569 109.287 168.644 109.048C168.709 108.81 168.67 108.558 168.533 108.345C168.396 108.132 168.172 107.973 167.907 107.901C165.513 107.041 162.875 106.866 160.363 107.4C160.23 107.433 160.104 107.488 159.995 107.564C159.886 107.639 159.794 107.733 159.726 107.839C159.658 107.946 159.614 108.063 159.597 108.185C159.58 108.307 159.59 108.43 159.627 108.548C159.663 108.666 159.726 108.777 159.811 108.874C159.897 108.97 160.002 109.051 160.123 109.112C160.243 109.172 160.376 109.211 160.514 109.226C160.651 109.241 160.791 109.232 160.924 109.2Z" fill="#211715"/>
<path d="M143.162 63.4591C143.322 64.7499 143.736 66.0061 144.386 67.1707C144.97 68.0131 145.776 68.718 146.735 69.2254C148.862 70.4697 151.32 71.2474 153.663 72.1029C153.933 72.1671 154.22 72.1347 154.463 72.0127C154.706 71.8907 154.885 71.6889 154.961 71.4511C155.028 71.2127 154.989 70.9604 154.852 70.7466C154.715 70.5328 154.49 70.3739 154.224 70.3029C152.123 69.5357 149.956 68.821 148.026 67.7434C147.652 67.5436 147.299 67.3141 146.971 67.0579C146.674 66.8495 146.428 66.5901 146.248 66.2954C145.596 65.2937 145.396 64.0894 145.195 62.9641C145.119 62.7263 144.94 62.5246 144.698 62.4026C144.455 62.2807 144.167 62.2482 143.898 62.3124C143.632 62.3833 143.407 62.5421 143.269 62.7558C143.132 62.9695 143.093 63.2218 143.161 63.4602L143.162 63.4591Z" fill="#211715"/>
<path d="M120.469 70.3204C122.29 69.8538 124.068 69.2655 125.788 68.5604C126.572 68.2105 127.49 67.7963 127.752 67.0008C127.865 66.5803 127.953 66.1548 128.015 65.7261L128.301 64.3095C128.368 64.0711 128.328 63.8192 128.191 63.6056C128.054 63.3921 127.83 63.2332 127.564 63.1616C127.294 63.0979 127.007 63.1305 126.764 63.2525C126.522 63.3744 126.343 63.5758 126.266 63.8133C126.1 64.6393 125.945 65.4683 125.767 66.2923C125.763 66.309 125.723 66.5057 125.716 66.5046C125.709 66.5034 125.795 66.3731 125.804 66.3906C125.804 66.3906 125.433 66.594 125.392 66.617C125.119 66.767 124.837 66.9033 124.546 67.0253C124.195 67.1761 123.996 67.2496 123.73 67.3441C123.344 67.481 122.954 67.6085 122.563 67.733C121.683 68.0102 120.794 68.2653 119.906 68.5216C119.64 68.592 119.414 68.7507 119.277 68.9646C119.14 69.1785 119.101 69.431 119.169 69.6694C119.246 69.9067 119.425 70.1078 119.668 70.2297C119.91 70.3517 120.197 70.3846 120.467 70.3215L120.469 70.3204Z" fill="#211715"/>
<path d="M120.048 73.2215C122.282 74.1891 124.608 74.9795 127 75.5834C129.182 76.0911 131.42 76.3891 133.675 76.4723C136.225 76.5784 138.78 76.5148 141.319 76.2818C143.074 76.1483 144.809 75.8542 146.496 75.4042C147.854 74.9995 149.165 74.4797 150.411 73.8519C151.601 73.2729 150.537 71.6603 149.346 72.2405C148.852 72.4808 148.356 72.7164 147.848 72.9322C147.608 73.0341 147.367 73.1317 147.123 73.2235C147.33 73.1457 146.912 73.297 146.859 73.3145C146.71 73.3663 146.56 73.4157 146.408 73.4626C144.96 73.9034 143.461 74.2022 141.939 74.3539C137.481 74.8318 132.74 74.8893 128.35 73.9615C125.852 73.3997 123.426 72.6117 121.111 71.6097C120.867 71.4915 120.582 71.4603 120.314 71.5226C120.045 71.5849 119.814 71.7359 119.668 71.9445C119.529 72.1588 119.491 72.4127 119.561 72.6516C119.632 72.8904 119.806 73.0951 120.046 73.2215H120.048Z" fill="#211715"/>
<path d="M112.306 109.802C113.201 112.882 114.272 115.92 115.514 118.904C115.595 119.139 115.775 119.337 116.016 119.459C116.258 119.58 116.543 119.615 116.812 119.556C117.081 119.488 117.308 119.33 117.446 119.115C117.584 118.9 117.621 118.646 117.549 118.408C116.307 115.424 115.236 112.386 114.34 109.306C114.002 108.144 111.966 108.636 112.306 109.802Z" fill="#211715"/>
<path d="M133.955 39.0722C133.849 39.3892 133.861 39.7282 133.991 40.0384C134.12 40.3486 134.36 40.6134 134.674 40.7929C135.281 41.0515 135.959 41.1521 136.628 41.083C138.227 41.0214 139.78 40.5882 141.129 39.827C143.302 38.5827 144.76 36.3472 145.569 34.219C146.036 32.8502 146.282 31.4297 146.299 29.9999C146.353 28.7992 144.243 28.8011 144.189 29.9999C144.086 32.2584 143.58 34.3749 142.15 36.241C141.371 37.3513 140.234 38.2295 138.885 38.7619C138.232 39.0032 137.54 39.1531 136.835 39.2064C136.538 39.2288 136.24 39.2299 135.944 39.2095C135.924 39.2095 135.724 39.2021 135.742 39.1846C135.799 39.1349 136.017 39.4697 135.99 39.5684C136.31 38.4019 134.276 37.9034 133.955 39.0722Z" fill="#211715"/>
<path d="M124.793 39.2682C124.747 39.6169 124.823 39.9697 125.012 40.2787C125.2 40.5878 125.491 40.8382 125.845 40.9959C126.573 41.2275 127.351 41.3105 128.12 41.2389C129.611 41.2103 131.077 40.9005 132.422 40.3302C135.13 39.2126 137.125 36.6979 138.109 34.2641C138.617 32.8544 138.941 31.3981 139.076 29.9234C139.074 29.6763 138.963 29.4397 138.765 29.265C138.568 29.0903 138.3 28.9915 138.021 28.9901C137.743 28.9958 137.479 29.0959 137.282 29.2697C137.086 29.4435 136.972 29.6776 136.966 29.9234C136.835 31.2308 136.536 32.5207 136.074 33.7679C135.552 34.9908 134.775 36.116 133.783 37.0852C132.773 38.1093 131.434 38.8357 129.944 39.1671C129.325 39.3048 128.688 39.3745 128.05 39.3748C127.729 39.3779 127.403 39.3833 127.083 39.3612C126.982 39.3613 126.881 39.3531 126.782 39.3367C126.908 39.3721 126.882 39.514 126.903 39.2694C126.901 39.0226 126.789 38.7864 126.592 38.6119C126.394 38.4373 126.127 38.3383 125.848 38.3362C125.57 38.3408 125.305 38.4405 125.108 38.6146C124.911 38.7886 124.799 39.0233 124.793 39.2694V39.2682Z" fill="#211715"/>
<path d="M120.044 42.5661C122.358 41.1992 125.185 40.6996 127.4 39.2114C129.641 37.7058 130.74 35.4123 131.395 33.0555C131.718 31.889 129.684 31.3916 129.361 32.5593C128.792 34.6101 127.908 36.6326 125.885 37.8909C124.807 38.5617 123.586 38.9322 122.385 39.3911C121.198 39.82 120.058 40.3433 118.979 40.9543C117.855 41.6176 118.91 43.2353 120.044 42.5661Z" fill="#211715"/>
<path d="M163.175 126.291L162.454 125.653C161.629 126.73 160.578 127.657 159.36 128.385C159.032 128.617 158.624 128.742 158.204 128.741C157.834 128.726 157.478 128.614 157.181 128.42C156.916 128.199 156.705 127.933 156.56 127.638C156.414 127.343 156.338 127.025 156.335 126.703C155.451 127.51 154.928 127.935 153.666 127.76C153.244 127.658 152.864 127.449 152.573 127.158C152.21 126.687 152.068 126.109 152.177 125.547C152.177 125.547 152.288 125.245 152.45 124.803C152.112 124.966 151.727 125.035 151.345 125.003C150.962 124.971 150.599 124.838 150.302 124.622C150.096 124.417 149.95 124.17 149.88 123.903C149.809 123.636 149.815 123.357 149.897 123.093C150.069 122.566 150.34 122.068 150.7 121.622L152.482 119.119L152.853 118.601L151.509 119.371C150.066 120.198 148.648 118.706 149.201 117.424C149.525 116.593 149.968 115.801 150.52 115.07C151.395 114.039 153.462 112.655 155.064 113.624L158.045 113.44C159.634 113.246 160.751 114.066 162.001 114.568C163.233 115.142 164.286 115.976 165.068 116.995C166.079 118.211 166.695 119.367 166.643 120.481C166.578 121.614 166.235 122.721 165.637 123.724C165.038 124.728 164.199 125.603 163.179 126.29" fill="white"/>
<path d="M155.594 112.818C153.675 111.709 151.277 112.832 149.962 114.2C149.252 115.002 148.697 115.902 148.32 116.865C148.101 117.285 148.006 117.748 148.046 118.209C148.085 118.67 148.257 119.115 148.544 119.501C148.912 119.995 149.483 120.343 150.137 120.469C150.791 120.595 151.474 120.49 152.041 120.177C152.283 120.052 152.458 119.847 152.529 119.608C152.6 119.368 152.561 119.114 152.42 118.9C152.279 118.686 152.047 118.531 151.777 118.468C151.506 118.405 151.218 118.44 150.976 118.565C150.923 118.596 150.867 118.624 150.81 118.65C150.924 118.613 150.925 118.611 150.814 118.648C150.761 118.663 150.707 118.676 150.652 118.687C150.798 118.673 150.812 118.67 150.692 118.677C150.641 118.678 150.589 118.677 150.537 118.673C150.691 118.693 150.71 118.692 150.593 118.67C150.545 118.659 150.497 118.645 150.45 118.629C150.585 118.68 150.602 118.683 150.498 118.636C150.454 118.613 150.41 118.589 150.37 118.563C150.482 118.641 150.494 118.646 150.407 118.578C150.369 118.547 150.333 118.514 150.3 118.479C150.381 118.579 150.387 118.587 150.321 118.503C150.266 118.421 150.211 118.343 150.165 118.256C150.274 118.461 150.178 118.263 150.162 118.209C150.148 118.162 150.136 118.115 150.126 118.067C150.143 118.195 150.146 118.205 150.136 118.097C150.136 118.04 150.18 117.737 150.125 117.972C150.182 117.763 150.259 117.56 150.354 117.363C150.404 117.252 150.453 117.142 150.505 117.033C150.435 117.181 150.593 116.858 150.608 116.829C150.718 116.614 150.835 116.401 150.964 116.194C151.088 115.993 151.227 115.805 151.371 115.613C151.453 115.515 151.448 115.52 151.355 115.627C151.388 115.592 151.421 115.556 151.454 115.522C151.525 115.448 151.598 115.376 151.674 115.307C151.836 115.156 152.012 115.021 152.187 114.882C152.281 114.816 152.281 114.815 152.187 114.878C152.236 114.845 152.286 114.812 152.336 114.781C152.424 114.726 152.511 114.673 152.605 114.622C152.699 114.572 152.79 114.523 152.885 114.478C152.924 114.46 153.272 114.319 153.048 114.401C153.268 114.321 153.498 114.263 153.733 114.227C153.465 114.268 153.827 114.23 153.885 114.231C153.943 114.232 154 114.234 154.058 114.238C153.92 114.22 153.913 114.22 154.034 114.238C154.078 114.25 154.425 114.355 154.203 114.268C154.316 114.314 154.425 114.369 154.529 114.431C154.771 114.554 155.058 114.588 155.328 114.525C155.598 114.463 155.829 114.308 155.972 114.096C156.107 113.881 156.143 113.628 156.073 113.39C156.002 113.153 155.831 112.948 155.594 112.819L155.594 112.818Z" fill="#211715"/>
<path d="M153.1 116.504L150.524 120.118C149.754 121.198 148.657 122.395 148.798 123.751C148.82 124.066 148.915 124.374 149.075 124.656C149.236 124.938 149.46 125.188 149.733 125.391C150.006 125.594 150.323 125.746 150.664 125.838C151.005 125.929 151.364 125.959 151.719 125.924C153.126 125.801 154.19 124.903 155.089 124.006C156.113 122.917 157.056 121.771 157.913 120.575C158.055 120.361 158.094 120.107 158.023 119.867C157.952 119.628 157.777 119.423 157.535 119.298C157.294 119.173 157.006 119.138 156.735 119.201C156.464 119.264 156.233 119.419 156.092 119.633C155.335 120.697 154.502 121.717 153.597 122.686C153.187 123.124 152.719 123.516 152.202 123.853C152.018 123.971 151.804 124.046 151.578 124.07C151.419 124.093 151.255 124.069 151.113 124.002C150.969 123.924 150.954 123.876 150.913 123.718C150.867 123.502 150.897 123.278 150.998 123.077C151.313 122.455 151.703 121.864 152.162 121.317L154.922 117.444C155.648 116.426 153.823 115.488 153.1 116.503V116.504Z" fill="#211715"/>
<path d="M151.16 125.299C151.009 125.809 151.027 126.347 151.212 126.849C151.397 127.35 151.741 127.794 152.204 128.127C152.666 128.461 153.227 128.669 153.82 128.728C154.413 128.787 155.012 128.694 155.547 128.46C156.278 128.09 156.924 127.602 157.451 127.021C158.017 126.489 158.572 125.949 159.116 125.399C159.961 124.551 160.782 123.686 161.551 122.783C161.69 122.569 161.729 122.315 161.658 122.076C161.587 121.837 161.413 121.632 161.172 121.506C160.929 121.387 160.644 121.355 160.375 121.418C160.106 121.48 159.875 121.632 159.729 121.841C158.53 123.209 157.249 124.519 155.891 125.765C155.6 126.037 155.31 126.313 154.993 126.561C154.984 126.568 154.729 126.74 154.889 126.641C154.786 126.705 154.678 126.762 154.566 126.814C154.753 126.727 154.514 126.826 154.471 126.837C154.409 126.852 154.346 126.864 154.283 126.873C154.398 126.859 154.39 126.856 154.257 126.866C154.144 126.859 154.031 126.869 153.917 126.855C154.038 126.87 153.653 126.767 153.804 126.827C153.69 126.773 153.58 126.714 153.475 126.647C153.321 126.563 153.467 126.664 153.375 126.55C153.266 126.415 153.375 126.612 153.307 126.431C153.266 126.32 153.232 126.208 153.205 126.094C153.192 126.027 153.19 126.029 153.201 126.101C153.193 126.04 153.189 125.979 153.187 125.918C153.185 125.857 153.187 125.807 153.191 125.752C153.168 125.876 153.169 125.891 153.195 125.795C153.546 124.633 151.51 124.137 151.16 125.299Z" fill="#211715"/>
<path d="M155.488 127.753C155.636 128.212 155.921 128.627 156.312 128.956C156.704 129.284 157.188 129.513 157.714 129.619C158.825 129.8 159.682 129.361 160.531 128.786C162.126 127.675 163.434 126.276 164.368 124.682C164.509 124.469 164.548 124.214 164.477 123.974C164.406 123.735 164.23 123.53 163.989 123.405C163.747 123.281 163.459 123.246 163.189 123.309C162.918 123.371 162.687 123.527 162.546 123.74C161.854 124.95 160.913 126.035 159.771 126.94C159.535 127.133 159.281 127.309 159.014 127.468C158.869 127.556 158.72 127.639 158.571 127.721C158.497 127.762 158.4 127.799 158.538 127.751C158.462 127.778 158.384 127.798 158.304 127.813C158.232 127.826 158.237 127.825 158.32 127.808H158.204C157.97 127.723 158.424 127.872 158.134 127.794C158.054 127.773 157.973 127.755 157.893 127.731C157.78 127.695 158.018 127.734 157.842 127.701C157.939 127.773 157.954 127.781 157.886 127.724C157.846 127.689 157.808 127.653 157.771 127.617C157.733 127.582 157.67 127.508 157.738 127.59C157.677 127.518 157.63 127.441 157.577 127.365C157.465 127.206 157.601 127.454 157.521 127.257C157.441 127.022 157.261 126.823 157.019 126.701C156.778 126.58 156.493 126.546 156.223 126.605C155.955 126.673 155.727 126.831 155.589 127.046C155.451 127.26 155.415 127.514 155.486 127.753H155.488Z" fill="#211715"/>
<path d="M158.043 114.373C158.737 114.308 159.436 114.432 160.048 114.729C160.678 115.008 161.335 115.281 161.942 115.595C163.312 116.39 164.408 117.502 165.11 118.811C166.401 121.057 164.774 124.085 162.642 125.485C162.407 125.615 162.237 125.82 162.167 126.057C162.096 126.294 162.131 126.546 162.264 126.762C162.406 126.974 162.638 127.128 162.908 127.191C163.178 127.254 163.465 127.22 163.707 127.097C166.68 125.145 168.721 121.33 167.092 118.161C166.24 116.499 164.878 115.081 163.162 114.067C162.41 113.666 161.631 113.308 160.827 112.994C159.969 112.606 159.005 112.437 158.044 112.507C157.767 112.514 157.503 112.614 157.307 112.788C157.111 112.962 156.997 113.195 156.989 113.44C156.991 113.687 157.103 113.924 157.3 114.098C157.498 114.273 157.765 114.372 158.044 114.373H158.043Z" fill="#211715"/>
<path d="M70.2021 73.1707C68.8746 72.069 67.2161 71.2532 65.4521 71.4492C63.067 71.7144 61.3395 73.9126 61.4199 76.0377C61.5179 78.6453 63.8586 80.9458 66.4974 81.9299C68.8417 81.319 71.0809 80.4279 73.1529 79.2815L74.076 77.894C74.696 76.9533 74.9045 75.8442 74.662 74.7766C74.4791 73.9853 73.8809 73.1434 72.9692 73.1011C72.2386 73.068 71.6281 73.5595 71.1111 74.0172C70.826 73.7204 70.5226 73.4378 70.2021 73.1707Z" fill="white"/>
<path d="M106.907 86.4542C106.079 83.5192 104.768 80.7016 102.643 78.3556C99.7224 75.132 95.4898 73.189 90.8716 73.803C89.1133 74.0363 86.9893 74.4154 85.4135 75.1418C82.0758 76.6801 79.0836 78.4151 76.9605 81.7254C76.3341 80.5388 75.5843 79.4063 74.7209 78.3424C72.06 80.0602 69.0635 81.3287 65.882 82.0839C65.6209 85.2749 67.8161 92.5269 68.6552 95.0416C69.2091 96.7024 70.0126 98.4445 71.7191 99.4092C72.6366 99.8921 73.6669 100.183 74.731 100.259L74.4765 100.981C70.2628 101.366 67.2104 105.786 68.7462 109.278L71.1256 114.413L90.5231 116.896C97.0643 116.367 102.733 112.101 105.547 106.851C108.36 101.6 108.64 95.5215 107.651 89.777C107.458 88.6653 107.217 87.55 106.907 86.4542Z" fill="#7ABEE6"/>
<path d="M82.6763 97.106C80.9225 98.501 78.6692 99.3048 76.3121 99.3762C75.0891 99.4578 73.8619 99.2758 72.7358 98.8458C71.7544 98.3847 70.9717 97.6508 70.5085 96.7572C69.7441 95.4382 69.3726 93.9143 68.9458 92.4873C68.4284 90.7572 67.955 89.0156 67.566 87.2591C67.1893 85.5602 66.806 83.826 66.9356 82.0835L66.1611 82.9833C69.4286 82.2012 72.5088 80.9017 75.2523 79.1477L73.8088 78.8129C75.0548 80.3491 76.0593 82.0278 76.7948 83.803C76.8753 84.0382 77.0549 84.2369 77.2964 84.3582C77.5379 84.4795 77.8229 84.5141 78.0924 84.4547C78.361 84.3873 78.5888 84.2291 78.7267 84.0143C78.8646 83.7996 78.9016 83.5455 78.8296 83.3069C78.0466 81.3751 76.9705 79.5465 75.6308 77.8711C75.3262 77.4923 74.6809 77.2186 74.1873 77.5363C71.599 79.2032 68.6892 80.439 65.6002 81.1833C65.38 81.2415 65.1864 81.36 65.0472 81.5218C64.908 81.6836 64.8304 81.8803 64.8257 82.0835C64.6969 83.8182 65.0727 85.6026 65.4323 87.3004C65.8376 89.2112 66.3493 91.1045 66.9115 92.9834C67.4139 94.664 67.875 96.4306 68.8425 97.9568C69.4552 98.9702 70.378 99.8104 71.5054 100.381C72.8322 100.97 74.2999 101.268 75.7842 101.248C78.8812 101.276 81.8756 100.268 84.1682 98.4258C85.1721 97.6131 83.6767 96.2961 82.6763 97.106Z" fill="#211715"/>
<path d="M74.4752 100.047C73.2805 100.194 72.1365 100.57 71.1233 101.149C70.1101 101.727 69.2521 102.495 68.6094 103.398C67.9667 104.301 67.5548 105.317 67.4025 106.376C67.2502 107.434 67.3612 108.509 67.7278 109.526C67.8086 109.76 67.9883 109.959 68.2297 110.08C68.4711 110.201 68.7559 110.236 69.0254 110.177C69.294 110.11 69.5219 109.952 69.6597 109.737C69.7976 109.522 69.8343 109.268 69.7621 109.029C69.4533 108.284 69.3443 107.485 69.4434 106.695C69.5426 105.906 69.8472 105.147 70.3335 104.48C70.7747 103.826 71.3563 103.255 72.0457 102.798C72.7611 102.331 73.5955 102.027 74.4752 101.913C74.7524 101.906 75.0161 101.805 75.2122 101.632C75.4083 101.458 75.5221 101.225 75.5301 100.98C75.5284 100.733 75.4167 100.496 75.2192 100.322C75.0218 100.147 74.7544 100.048 74.4752 100.047V100.047Z" fill="#211715"/>
<path d="M83.6354 74.7758C83.094 74.8386 82.5438 74.8024 82.0188 74.6697C81.4938 74.5369 81.0051 74.3103 80.583 74.0039C79.5556 73.3646 78.7124 72.5207 78.1214 71.5402C76.8999 69.391 77.4278 66.8222 77.5856 64.528C77.6687 63.3179 77.6458 62.0985 77.7931 60.893C77.9217 59.8732 78.1773 58.869 78.5553 57.8989C79.2749 56.0405 80.561 54.2907 82.4675 53.2326C84.7994 51.9401 87.6105 51.5765 90.3178 51.5995C92.469 51.606 94.6056 51.9112 96.6498 52.5039C100.496 53.6444 103.667 56.1024 104.705 59.6514C105.433 62.1436 105.232 64.9433 104.573 67.4284C103.988 70.066 102.28 72.4039 99.8015 73.9588C99.5664 74.0889 99.3963 74.2936 99.3259 74.5309C99.2556 74.7682 99.2903 75.0204 99.4231 75.2358C99.5656 75.4483 99.797 75.6025 100.067 75.6652C100.337 75.7278 100.625 75.6939 100.867 75.5706C103.391 73.9824 105.274 71.7201 106.239 69.1157C107.173 66.4697 107.467 63.6796 107.104 60.9265C106.827 58.7087 105.854 56.6039 104.293 54.851C102.829 53.2791 100.954 52.0463 98.8301 51.2592C96.5488 50.403 94.1176 49.9014 91.6435 49.7765C88.618 49.6011 85.5036 49.8854 82.7202 50.9979C80.2121 52.0311 78.2178 53.8403 77.1135 56.0845C75.9622 58.3453 75.6629 60.6729 75.5552 63.1227C75.4348 65.8812 74.7477 68.8369 75.8326 71.511C76.3529 72.7539 77.2089 73.8655 78.3258 74.749C79.3448 75.5877 80.5646 76.3557 81.9602 76.5844C82.7004 76.701 83.4585 76.6971 84.1972 76.5727C84.4657 76.5052 84.6935 76.347 84.8314 76.1323C84.9692 75.9175 85.006 75.6634 84.9339 75.4248C84.8542 75.1892 84.6748 74.9899 84.433 74.8684C84.1913 74.747 83.9058 74.7129 83.6363 74.7731L83.6354 74.7758Z" fill="#211715"/>
<path d="M87.7696 64.2885C87.4097 64.2997 87.0495 64.2854 86.6922 64.2457L86.9726 64.2787C86.828 64.2616 86.6847 64.2399 86.5423 64.2134C86.2677 64.153 85.9774 64.1866 85.7295 64.3075C85.6099 64.3694 85.5052 64.4515 85.4214 64.5491C85.3376 64.6468 85.2764 64.7581 85.2412 64.8767C85.2061 64.9952 85.1977 65.1188 85.2165 65.2403C85.2354 65.3617 85.2811 65.4787 85.3511 65.5845C85.4901 65.7943 85.7163 65.9478 85.9814 66.0123C86.569 66.1223 87.1693 66.1698 87.7696 66.1538C88.0486 66.1499 88.3156 66.0526 88.5169 65.8816C88.7044 65.7003 88.8134 65.4661 88.8246 65.2206C88.8246 65.098 88.7973 64.9766 88.7443 64.8634C88.6912 64.7502 88.6135 64.6473 88.5156 64.5606C88.4176 64.474 88.3013 64.4052 88.1733 64.3583C88.0453 64.3114 87.9081 64.2873 87.7696 64.2873V64.2885Z" fill="#211715"/>
<path d="M79.8037 63.8949C79.4256 63.9245 79.0449 63.9171 78.6687 63.8728L78.9491 63.9062C78.8753 63.8978 78.8019 63.8862 78.7293 63.8712C78.4548 63.809 78.1638 63.8427 77.9166 63.9653C77.6872 64.096 77.5163 64.2931 77.4331 64.5229C77.3962 64.6411 77.386 64.7645 77.4031 64.8862C77.4202 65.0078 77.4642 65.1253 77.5326 65.2319C77.601 65.3385 77.6925 65.4321 77.8018 65.5074C77.9112 65.5827 78.0362 65.6382 78.1698 65.6708C78.3466 65.7044 78.5255 65.7285 78.7056 65.7431C78.8225 65.756 78.9403 65.7641 79.0573 65.7696C79.3063 65.7828 79.556 65.7801 79.8045 65.7614C79.9457 65.7669 80.0861 65.7391 80.2111 65.6809C80.3997 65.608 80.5608 65.4891 80.6756 65.338C80.7905 65.187 80.8543 65.0101 80.8595 64.8282C80.8592 64.5806 80.7486 64.3431 80.5518 64.1671C80.4545 64.0795 80.3381 64.0102 80.2096 63.9634C80.0812 63.9167 79.9434 63.8934 79.8045 63.8949H79.8037Z" fill="#211715"/>
<path d="M82.2547 70.3702C81.8294 70.3006 81.3992 70.2561 80.9672 70.2368C80.7596 70.2341 80.556 70.2876 80.3837 70.3901C80.2114 70.4926 80.0787 70.6392 80.0032 70.8104C79.9374 70.921 79.906 71.0451 79.9122 71.17L79.95 71.4181C79.9988 71.5738 80.0922 71.7157 80.2213 71.8299L80.4349 71.9757C80.5963 72.0595 80.7801 72.1036 80.9672 72.1033C81.2182 72.1184 81.4692 72.1359 81.7184 72.1655L81.438 72.1321C81.5259 72.1426 81.609 72.1546 81.6938 72.1709C81.8299 72.2096 81.9751 72.2154 82.1145 72.1877C82.3175 72.1612 82.5078 72.0843 82.6634 71.966C82.819 71.8477 82.9335 71.6928 82.9936 71.5192L83.0314 71.2711C83.0315 71.1055 82.9818 70.9428 82.8873 70.7998L82.7224 70.6113C82.5933 70.497 82.4329 70.4143 82.2569 70.3713L82.2547 70.3702Z" fill="#211715"/>
<path d="M97.281 67.2348C97.2982 67.2251 97.5615 67.1007 97.3738 67.1707C97.4683 67.1386 97.5657 67.1132 97.6648 67.0948C97.8494 67.056 97.6305 67.0879 97.7435 67.0894C97.7839 67.0894 98.0595 67.1038 97.9672 67.0894C97.8481 67.0727 98.107 67.1244 98.1312 67.1283C98.3778 67.1878 98.038 67.0591 98.2516 67.1746C98.2956 67.1979 98.4995 67.3476 98.354 67.2267C98.3756 67.2446 98.5329 67.4087 98.4569 67.313C98.3729 67.2068 98.5189 67.4211 98.4604 67.3091C98.4705 67.3282 98.5382 67.598 98.5127 67.4429C98.5365 67.6404 98.5439 67.8393 98.5351 68.0378C98.5351 68.2042 98.529 68.3707 98.5153 68.5367C98.5074 68.6351 98.4991 68.7346 98.4833 68.8326C98.5083 68.6771 98.449 68.9757 98.4494 68.9742C98.4084 69.1517 98.3538 69.3266 98.2859 69.4976C98.2358 69.6285 98.1682 69.7537 98.0846 69.8705C98.0283 69.9568 97.9672 70.0404 97.9039 70.1224C97.8907 70.1392 97.7378 70.3243 97.8094 70.2426C97.8661 70.1777 97.6942 70.3593 97.6701 70.383C97.6138 70.4366 97.5562 70.4895 97.4942 70.5385C97.4907 70.5412 97.2525 70.7221 97.3936 70.6256C97.307 70.6842 97.2164 70.7381 97.1223 70.787C97.0626 70.8185 97.0015 70.8469 96.939 70.8741C96.8766 70.9013 96.7518 70.9402 96.8867 70.8959C96.6931 70.9601 96.4957 71.0152 96.2955 71.0611C96.1975 71.0829 96.0981 71.1 95.9997 71.1191C95.7711 71.1661 96.1509 71.1105 95.9188 71.1284C95.639 71.1284 95.3707 71.2267 95.1728 71.4017C94.975 71.5768 94.8638 71.8141 94.8638 72.0616C94.8638 72.3092 94.975 72.5465 95.1728 72.7216C95.3707 72.8966 95.639 72.9949 95.9188 72.9949C97.0921 72.9355 98.2039 72.5111 99.0578 71.7968C99.9115 71.0176 100.446 70.0084 100.577 68.9295C100.724 67.9091 100.766 66.6624 99.8446 65.9057C99.3548 65.519 98.7371 65.2821 98.0832 65.2304C97.4292 65.1786 96.7738 65.3147 96.2142 65.6184C95.9726 65.7433 95.797 65.9481 95.726 66.1875C95.655 66.427 95.6945 66.6816 95.8357 66.8954C95.977 67.1091 96.2084 67.2645 96.4791 67.3272C96.7498 67.39 97.0377 67.3551 97.2793 67.2302L97.281 67.2348Z" fill="#211715"/>
<path d="M74.9868 78.3649C75.9148 76.9071 76.211 74.8788 75.1675 73.3973C74.9456 73.0469 74.6284 72.7509 74.2446 72.5363C73.8609 72.3216 73.4227 72.1949 72.9696 72.1677C71.9103 72.1518 71.0795 72.7312 70.3656 73.3572H71.8575C69.7744 71.2228 66.2635 69.4446 63.2112 71.2088C60.5148 72.767 59.7473 75.842 60.9715 78.389C61.7358 79.8927 62.9765 81.168 64.5435 82.0605C65.6732 82.7328 66.7304 81.1168 65.6086 80.4487C63.2287 79.0321 61.4669 76.2402 63.1676 73.8453C63.4959 73.3404 63.9848 72.9321 64.5734 72.6713C65.1621 72.4105 65.8244 72.3087 66.478 72.3785C68.0631 72.5963 69.3577 73.6442 70.3656 74.677C70.5649 74.8496 70.8327 74.9462 71.1116 74.9462C71.3905 74.9462 71.6582 74.8496 71.8575 74.677C72.1059 74.4596 72.5639 73.9576 72.9696 74.0342C73.2202 74.0813 73.4303 74.4301 73.5253 74.6385C73.6953 75.0981 73.7513 75.5848 73.6892 76.0653C73.6271 76.5458 73.4486 77.0088 73.1657 77.4227C72.4984 78.4706 74.32 79.4128 74.9868 78.3649Z" fill="#211715"/>
<path d="M78.237 81.6519C79.6117 79.7928 81.4505 78.2376 83.6117 77.1062C84.6165 76.5192 85.6828 76.019 86.7959 75.6126C88.1005 75.2069 89.4476 74.9174 90.8171 74.7482C95.8427 74.0432 100.301 76.6536 102.92 80.2994C105.875 84.4131 106.902 89.5844 107.09 94.3872C107.281 99.2575 106.332 104.301 103.329 108.464C100.511 112.371 95.8463 115.504 90.5217 115.96C90.2442 115.967 89.9801 116.067 89.7838 116.241C89.5875 116.414 89.474 116.648 89.4668 116.894C89.4687 117.14 89.5805 117.377 89.7779 117.551C89.9753 117.726 90.2425 117.825 90.5217 117.827C95.8907 117.367 100.635 114.692 103.904 110.961C107.588 106.758 109.115 101.443 109.218 96.1887C109.256 93.46 108.976 90.7351 108.383 88.057C107.859 85.4191 106.884 82.8672 105.491 80.4892C102.876 76.1862 98.0762 72.6414 92.3108 72.758C89.1183 72.8605 86.0062 73.6716 83.2609 75.1168C80.4984 76.4595 78.1486 78.3789 76.4159 80.7081C75.6862 81.7254 77.5113 82.6629 78.2375 81.6503L78.237 81.6519Z" fill="#211715"/>
<path d="M82.8134 56.3937C82.5208 56.7478 82.1796 57.0683 81.7976 57.3479L82.0112 57.2021C81.8142 57.3342 81.6026 57.4482 81.3795 57.5423C81.1431 57.6661 80.9699 57.8659 80.896 58.0999C80.8591 58.2182 80.8489 58.3417 80.866 58.4634C80.883 58.5851 80.9271 58.7026 80.9955 58.8093C81.064 58.9159 81.1556 59.0096 81.265 59.0849C81.3744 59.1602 81.4995 59.2157 81.6332 59.2482L81.9136 59.2813C82.1007 59.2817 82.2845 59.2378 82.4459 59.1541C82.8498 58.977 83.2218 58.7478 83.5497 58.474C83.8242 58.2384 84.0774 57.9841 84.3071 57.7134C84.4948 57.5322 84.6038 57.298 84.6148 57.0524C84.6134 56.805 84.503 56.5678 84.3071 56.3913C84.1083 56.217 83.8397 56.1191 83.5598 56.1191L83.2789 56.1526C83.1029 56.1956 82.9425 56.2782 82.8134 56.3925V56.3937Z" fill="#211715"/>
<path d="M86.6874 57.9409C86.5906 58.0743 86.4865 58.2026 86.377 58.3298L86.5423 58.1408C86.1434 58.5989 85.6818 59.0115 85.1682 59.3692L85.3818 59.2233C85.3027 59.2766 85.2223 59.3283 85.1383 59.3762C84.9051 59.5033 84.733 59.702 84.6548 59.9342C84.582 60.1769 84.6203 60.4352 84.7611 60.6532C84.8311 60.759 84.9239 60.8516 85.0343 60.9258C85.1446 60.9999 85.2705 61.054 85.4045 61.0851C85.5386 61.1162 85.6782 61.1236 85.8155 61.107C85.9528 61.0903 86.0851 61.0499 86.2047 60.988C86.6361 60.733 87.035 60.4373 87.3942 60.106C87.8128 59.7338 88.1869 59.3243 88.5107 58.8843C88.6519 58.6706 88.6913 58.416 88.6203 58.1766C88.5494 57.9372 88.3738 57.7326 88.1322 57.6077C88.0105 57.5453 87.876 57.5048 87.7365 57.4887C87.597 57.4725 87.4552 57.481 87.3195 57.5136C87.058 57.5845 86.8341 57.7364 86.6887 57.9413L86.6874 57.9409Z" fill="#211715"/>
<path d="M109.968 103.02C110.281 102.739 110.586 102.439 110.883 102.123C113.356 99.4807 113.223 96.5562 112.426 93.6429C111.747 92.0015 109.805 90.1331 108.56 89.871C106.874 89.516 105.977 89.6408 104.399 89.9935C102.444 90.4715 100.413 90.6581 98.3883 90.5457C97.0961 90.482 95.8001 90.5749 94.5364 90.8218C93.2176 91.0671 92.6493 91.7589 92.8031 92.8457C92.9763 94.0726 94.5363 94.9619 96.263 95.1054L98.6367 95.3029C97.6231 95.7656 96.5697 96.1564 95.4863 96.4718C94.008 96.8995 92.56 97.2674 91.0791 97.8133C90.6974 97.9542 90.3724 98.1935 90.1466 98.5001C89.9207 98.8066 89.8044 99.1662 89.8127 99.532C89.8085 99.8272 89.8804 100.119 90.0228 100.386C90.1653 100.653 90.3746 100.888 90.6349 101.073C90.8952 101.258 91.1996 101.388 91.5251 101.453C91.8506 101.518 92.1886 101.517 92.5134 101.449L94.2717 101.189L93.9886 102.221C93.8845 102.559 93.8886 102.916 94.0006 103.252C94.1125 103.588 94.3278 103.89 94.6225 104.124C95.641 106.646 98.9132 106.99 101.623 106.641C104.787 106.303 107.729 105.027 109.968 103.02Z" fill="white"/>
<path d="M96.263 94.1717C95.1557 94.064 93.5504 93.368 93.862 92.2745C93.8935 92.1717 93.9521 92.0769 94.033 91.998C94.321 91.831 94.6489 91.7254 94.9909 91.6897C95.9061 91.5227 96.8389 91.4433 97.7734 91.4529C98.7844 91.4665 99.7716 91.5481 100.784 91.4777C101.889 91.3978 102.985 91.2462 104.064 91.0243C104.891 90.8079 105.739 90.6637 106.597 90.5939C107.312 90.5541 108.027 90.6674 108.681 90.9244C111.484 92.3674 112.33 95.7707 111.748 98.409C111.102 101.344 108.196 103.673 105.19 104.821C103.581 105.439 101.852 105.778 100.098 105.82C98.5795 105.845 96.8102 105.587 95.9219 104.372C95.1882 103.366 93.3609 104.3 94.0998 105.314C96.3531 108.404 101.388 107.958 104.805 106.937C108.685 105.78 112.551 103.04 113.646 99.4243C114.207 97.5714 114.009 95.6283 113.542 93.7782C113.118 92.0952 111.641 90.4792 110.069 89.5008C108.344 88.4253 106.041 88.6757 104.117 89.0945C102.922 89.3716 101.701 89.5515 100.469 89.6319C99.2885 89.6937 98.1171 89.5463 96.9382 89.6035C94.8282 89.7061 91.8901 89.997 91.7266 92.3554C91.5706 94.6107 94.0519 95.8247 96.2599 96.0394C96.5392 96.0379 96.8066 95.9392 97.0041 95.7644C97.2016 95.5897 97.3133 95.3532 97.3149 95.1061C97.3086 94.8603 97.1955 94.6262 96.999 94.4524C96.8024 94.2785 96.5377 94.1784 96.2599 94.1729L96.263 94.1717Z" fill="#211715"/>
<path d="M99.7308 93.6939C98.25 94.4945 96.6702 95.1421 95.0225 95.6241C94.1671 95.8703 93.306 96.1016 92.4554 96.363C91.6328 96.5557 90.8442 96.8482 90.1121 97.232C89.4784 97.6337 89.0311 98.2252 88.8532 98.8966C88.6753 99.568 88.779 100.274 89.145 100.883C89.8417 102.136 91.3226 102.536 92.7934 102.35C93.0623 102.283 93.2905 102.125 93.4285 101.91C93.5665 101.695 93.6032 101.441 93.5306 101.202C93.45 100.967 93.2703 100.768 93.0287 100.647C92.7872 100.526 92.5021 100.491 92.2326 100.55C92.0742 100.58 91.9105 100.579 91.7528 100.547C91.595 100.515 91.4468 100.454 91.3183 100.367C91.1899 100.28 91.0841 100.169 91.0083 100.043C90.9325 99.9163 90.8885 99.7769 90.8791 99.634C90.7068 98.7007 92.1209 98.4371 92.9231 98.1909C94.2484 97.7834 95.6089 97.4618 96.9149 97.0065C98.2592 96.5368 99.5568 95.9683 100.794 95.3072C101.956 94.6882 100.897 93.0737 99.729 93.6958L99.7308 93.6939Z" fill="#211715"/>
<path d="M92.5148 102.382C94.0629 102.251 95.5866 101.95 97.0503 101.485C98.4932 101.061 99.909 100.568 101.291 100.007C101.531 99.881 101.705 99.6763 101.776 99.4374C101.847 99.1985 101.809 98.9445 101.67 98.7303C101.524 98.521 101.293 98.3694 101.024 98.307C100.755 98.2447 100.469 98.2763 100.226 98.3955C99.9595 98.5036 99.6912 98.6087 99.4213 98.7108C99.2626 98.7711 99.4244 98.7108 99.3259 98.7466L99.1202 98.8217C98.9608 98.8797 98.8006 98.9369 98.6398 98.9932C97.9303 99.2418 97.2135 99.4727 96.4894 99.6861C95.7786 99.8945 95.0603 100.084 94.3328 100.24C93.9952 100.312 93.6559 100.377 93.3143 100.43C93.2422 100.442 93.1702 100.452 93.0981 100.462C93.0343 100.472 92.8563 100.492 93.0102 100.475C92.8449 100.493 92.6793 100.507 92.5134 100.517C92.2356 100.522 91.971 100.622 91.7745 100.796C91.578 100.97 91.4648 101.204 91.4585 101.45C91.4609 101.697 91.5728 101.933 91.7701 102.107C91.9675 102.282 92.2344 102.381 92.5134 102.383L92.5148 102.382Z" fill="#211715"/>
<path d="M75.8036 111.581C76.3561 111.175 77.1614 110.906 78.397 110.636C80.582 110.129 82.7289 109.501 84.8249 108.756C85.886 108.349 86.7779 107.603 87.9063 107.378C89.0347 107.154 90.4145 107.479 90.8875 108.413C91.0178 108.715 91.0705 109.04 91.0417 109.362C91.013 109.685 90.9035 109.998 90.7213 110.279C89.9422 111.292 89.0718 112.248 88.1186 113.137L87.9656 113.272L88.3335 113.676C89.3371 114.827 91.0642 115.326 92.7134 115.375C94.1311 115.488 95.5596 115.33 96.9026 114.913C97.8696 114.616 99.1004 114.403 99.8424 114.616C100.584 114.829 101.325 115.439 101.354 116.127C101.37 116.493 100.89 117.145 100.682 117.464C100.223 118.169 98.8732 118.811 97.1377 119.356C96.7949 120.146 96.5944 120.61 96.5944 120.61C95.3197 123.553 91.927 125.824 87.8658 126.44C84.1005 126.964 78.5847 127.07 76.9807 126.644C76.5319 126.525 75.4053 126.028 74.9477 125.939C74.0686 125.766 71.9995 125.734 69.9326 125.608C69.9326 125.608 69.5568 125.585 68.9273 125.547C69.3634 121.41 69.803 116.039 69.5397 113.001C69.9792 113.047 70.7164 113.122 70.7164 113.122C71.6435 113.216 72.9622 113.469 73.7103 113.406L74.1938 113.365C74.6156 112.724 75.1375 112.139 75.7442 111.626C75.7653 111.61 75.7847 111.595 75.8036 111.581Z" fill="white"/>
<path d="M92.9715 101.973C92.6893 103.139 93.0875 104.49 94.3579 105.078C95.4319 105.518 96.6515 105.593 97.7839 105.288C99.679 104.764 101.518 104.092 103.279 103.281C103.518 103.154 103.692 102.949 103.763 102.711C103.834 102.472 103.796 102.218 103.657 102.004C103.512 101.794 103.28 101.642 103.011 101.579C102.742 101.517 102.456 101.549 102.213 101.669C100.785 102.299 99.3145 102.852 97.8103 103.325C97.1986 103.553 96.5311 103.64 95.8709 103.577C95.8647 103.577 95.6871 103.541 95.6322 103.528C95.5633 103.503 95.4926 103.483 95.4208 103.467C95.3891 103.453 95.1684 103.311 95.2449 103.371C95.1522 103.3 95.1917 103.33 95.1504 103.275C94.9852 103.033 94.9326 102.744 95.0036 102.469C95.0715 102.23 95.0327 101.978 94.8955 101.764C94.7583 101.55 94.5331 101.391 94.2669 101.321C93.9972 101.258 93.7102 101.29 93.4676 101.412C93.225 101.534 93.046 101.735 92.9693 101.973H92.9715Z" fill="#211715"/>
<path d="M69.9335 126.539C71.2285 126.617 72.527 126.649 73.8215 126.743C74.5157 126.804 75.1931 126.969 75.8242 127.232C77.3188 127.796 78.9043 127.834 80.5127 127.839C82.6631 127.847 84.8118 127.73 86.9449 127.489C89.1511 127.29 91.2762 126.646 93.1574 125.607C95.1673 124.475 96.7254 122.814 97.6125 120.857C97.6848 120.618 97.6481 120.364 97.5102 120.149C97.3724 119.935 97.1444 119.776 96.8757 119.709C96.6062 119.649 96.3209 119.683 96.0792 119.805C95.8375 119.926 95.658 120.125 95.5781 120.361C94.1715 123.524 90.411 125.236 86.7867 125.64C84.7562 125.864 82.7119 125.976 80.6657 125.974C79.8358 125.974 79.0023 125.958 78.1755 125.887C78.1082 125.881 77.684 125.832 77.8924 125.86C77.7641 125.843 77.6357 125.824 77.5087 125.799C77.2525 125.743 77.0025 125.668 76.7614 125.573C76.304 125.381 75.8343 125.212 75.3548 125.068C74.9011 124.969 74.4377 124.909 73.971 124.888C72.6272 124.782 71.276 124.753 69.9304 124.673C69.6506 124.673 69.3823 124.771 69.1845 124.946C68.9866 125.121 68.8755 125.358 68.8755 125.606C68.8755 125.853 68.9866 126.091 69.1845 126.266C69.3823 126.441 69.6506 126.539 69.9304 126.539H69.9335Z" fill="#211715"/>
<path d="M87.5885 114.334C88.872 115.745 90.9468 116.26 92.917 116.312C93.9281 116.358 94.9418 116.295 95.9359 116.126C96.8982 115.944 97.8103 115.539 98.7993 115.472C99.1504 115.417 99.5121 115.473 99.8209 115.631C99.9648 115.706 100.09 115.806 100.19 115.925C100.22 115.964 100.315 116.2 100.313 116.064C100.318 116.31 99.9976 116.654 99.8547 116.867C99.8292 116.906 99.6525 117.149 99.7206 117.07C99.8064 116.97 99.6925 117.097 99.6679 117.119C99.6138 117.165 99.5628 117.213 99.5083 117.259C99.5198 117.25 99.2859 117.429 99.3923 117.352C99.4846 117.287 99.3127 117.404 99.2929 117.416C99.1703 117.49 99.0468 117.562 98.9193 117.629C98.5944 117.8 98.2583 117.953 97.9127 118.088C97.1667 118.372 96.4005 118.613 95.619 118.809C93.5926 119.339 91.5225 119.728 89.4276 119.972C89.1506 119.979 88.8874 120.08 88.6914 120.254C88.4954 120.427 88.3815 120.66 88.3727 120.905C88.3727 121.357 88.8588 121.906 89.4276 121.838C91.5749 121.597 93.6998 121.22 95.786 120.71C97.4239 120.299 99.1905 119.809 100.566 118.891C101.165 118.476 101.649 117.946 101.98 117.34C102.28 116.915 102.412 116.413 102.356 115.915C102.299 115.416 102.057 114.949 101.668 114.585C101.285 114.221 100.81 113.943 100.281 113.775C99.7525 113.607 99.1861 113.553 98.6292 113.619C97.4678 113.72 96.4256 114.138 95.2928 114.34C94.1795 114.525 93.038 114.537 91.92 114.375C90.8133 114.255 89.799 113.769 89.0804 113.014C88.8816 112.841 88.6136 112.744 88.3344 112.744C88.0552 112.744 87.7872 112.841 87.5885 113.014C87.3964 113.192 87.2893 113.428 87.2893 113.674C87.2893 113.92 87.3964 114.157 87.5885 114.334Z" fill="#211715"/>
<path d="M74.8699 114.165C75.2919 113.497 75.8148 112.883 76.4242 112.34C76.6225 112.198 76.8396 112.077 77.0708 111.982C77.4062 111.855 77.7523 111.751 78.106 111.671C79.9487 111.211 81.8028 110.768 83.6007 110.187C84.5016 109.92 85.3722 109.579 86.2012 109.168C86.8605 108.82 87.5423 108.345 88.3278 108.254C88.5857 108.213 88.8507 108.224 89.1032 108.286C89.3556 108.348 89.5889 108.46 89.7854 108.613C90.1749 108.996 89.9758 109.582 89.7011 109.971C89.0276 110.877 88.2466 111.717 87.3713 112.477C86.417 113.332 87.908 114.654 88.8632 113.797C89.8352 112.934 90.7101 111.989 91.4756 110.977C92.6497 109.394 92.0972 107.309 90.0562 106.608C89.1675 106.317 88.1932 106.301 87.2926 106.562C86.3133 106.848 85.5137 107.412 84.6047 107.82C82.6266 108.708 80.3408 109.186 78.2137 109.713C77.2247 109.958 76.1917 110.174 75.3482 110.722C74.3561 111.368 73.6954 112.318 73.0461 113.225C72.3169 114.242 74.142 115.18 74.8677 114.167L74.8699 114.165Z" fill="#211715"/>
<path d="M70.7173 114.053C70.7876 114.061 70.8579 114.068 70.9278 114.077L70.6474 114.043C71.1467 114.103 71.6435 114.178 72.1419 114.238C72.659 114.321 73.185 114.355 73.7103 114.337C73.9888 114.33 74.2548 114.233 74.4576 114.065C74.5559 113.978 74.634 113.875 74.6872 113.761C74.7405 113.648 74.7679 113.526 74.7679 113.404C74.7679 113.281 74.7405 113.159 74.6872 113.046C74.634 112.932 74.5559 112.829 74.4576 112.742C74.3601 112.655 74.2437 112.586 74.1153 112.539C73.9869 112.492 73.8492 112.469 73.7103 112.47C73.2796 112.49 72.8477 112.468 72.4224 112.405L72.7028 112.438C72.0399 112.36 71.381 112.255 70.7164 112.186C70.5777 112.186 70.4403 112.21 70.312 112.256C70.1838 112.303 70.0672 112.372 69.9691 112.459C69.7713 112.634 69.6602 112.871 69.6602 113.118C69.6602 113.366 69.7713 113.603 69.9691 113.778L70.1828 113.924C70.3443 114.008 70.528 114.052 70.7151 114.052L70.7173 114.053Z" fill="#211715"/>
<path d="M46.1325 109.024C50.1045 109.83 54.1709 110.117 58.197 110.63C61.5403 111.055 64.9013 111.197 68.2588 111.499C68.538 111.498 68.8052 111.399 69.0026 111.224C69.2 111.049 69.3118 110.813 69.3137 110.566C69.3077 110.32 69.1946 110.086 68.998 109.912C68.8015 109.738 68.5367 109.638 68.2588 109.633C65.0253 109.342 61.7847 109.215 58.5649 108.805C54.6026 108.3 50.602 108.018 46.6934 107.224C45.3716 106.956 44.8072 108.755 46.1325 109.024Z" fill="#211715"/>
<path d="M68.2961 111.498C68.0148 111.318 68.1313 111.387 68.2082 111.456C67.9911 111.265 68.093 111.333 68.1678 111.436C68.2886 111.602 68.1629 111.417 68.162 111.413C68.1805 111.485 68.2192 111.558 68.2429 111.629C68.2951 111.793 68.3376 111.96 68.3704 112.128C68.3889 112.218 68.4043 112.309 68.4201 112.4C68.4434 112.535 68.3972 112.23 68.4152 112.371C68.4236 112.435 68.4324 112.498 68.4399 112.562C68.5541 113.662 68.5938 114.768 68.5585 115.872C68.5146 118.709 68.2733 121.545 67.9928 124.37C67.8548 125.758 67.7028 127.145 67.537 128.53C67.5387 128.777 67.6504 129.014 67.8479 129.188C68.0454 129.363 68.3127 129.462 68.592 129.464C68.8698 129.458 69.1347 129.358 69.3312 129.184C69.5278 129.01 69.6409 128.776 69.6469 128.53C69.9757 125.761 70.2623 122.986 70.4628 120.209C70.6456 117.648 70.8698 115.006 70.5353 112.447C70.4149 111.525 70.2738 110.472 69.3599 109.888C69.1178 109.765 68.8308 109.731 68.5608 109.793C68.2907 109.856 68.0594 110.01 67.9168 110.222C67.7815 110.437 67.7454 110.69 67.8159 110.928C67.8865 111.166 68.0582 111.371 68.2952 111.499L68.2961 111.498Z" fill="#211715"/>
</g>
<defs>
<clipPath id="clip0_43_236">
<rect width="156" height="138" fill="white" transform="translate(22)"/>
</clipPath>
</defs>
</svg>
