<svg width="250" height="250" viewBox="0 0 250 250" fill="none" xmlns="http://www.w3.org/2000/svg">
<g clip-path="url(#clip0_41_136)">
<g clip-path="url(#clip1_41_136)">
<path d="M125 249.999C194.035 249.999 249.999 194.034 249.999 124.999C249.999 55.9641 194.035 0 125 0C55.9646 0 0.000488281 55.9641 0.000488281 124.999C0.000488281 194.034 55.9646 249.999 125 249.999Z" fill="#E0F3FE"/>
<path d="M111.595 116.517L108.199 133.586L96.8182 137.5L103.553 243.747L146.854 243.501L148.877 135.493L141.609 133.207L137.905 115.795L111.596 116.519L111.595 116.517Z" fill="#F0BA7D"/>
<path d="M94.2352 167.143C113.181 176.328 132.67 178.256 153.186 167.663L152.486 246.961C143.641 248.944 134.444 250 125 250C114.133 250 103.591 248.611 93.5389 246.004L94.2342 167.144L94.2352 167.143Z" fill="#21D0C3"/>
<path d="M145.263 134.507L178.267 143.509C186.825 146.15 194.471 151.212 194.716 160.305L196.526 227.517C189.005 232.775 180.878 237.222 172.272 240.741L170.166 203.571L164.385 243.661C152.004 247.773 138.762 250.001 125 250.001C124.64 250.001 124.284 249.99 123.925 249.986L123.911 215.911L145.261 134.508L145.263 134.507Z" fill="#EEF3F7"/>
<path d="M106.652 134.167L73.4945 142.584C64.89 145.075 57.1561 150.001 56.7504 159.088L53.6928 227.669C61.1478 232.856 69.1957 237.251 77.7127 240.735L80.5345 202.78L85.6986 243.689C97.7327 247.674 110.579 249.872 123.925 249.985L123.911 215.91L106.651 134.167H106.652V134.167Z" fill="white"/>
<path d="M89.1492 75.5857C88.5945 81.1789 89.7156 93.5993 96.5003 93.1267C96.5003 93.1267 106.267 121.591 125.069 124.815C141.302 121.849 151.177 96.0676 151.926 93.6154C154.162 94.3786 160.421 83.9694 155.623 75.4524C154.248 73.0095 150.352 74.9875 150.352 74.9875C154.031 26.2352 89.0345 30.3997 95.2269 75.4949C95.2269 75.4949 93.3909 74.3552 91.3524 74.3108C90.7396 74.2971 89.9515 74.8308 89.1492 75.5857Z" fill="#FED298"/>
<path d="M170.179 204.546C165.301 203.704 162.029 199.066 162.871 194.189C163.713 189.312 168.351 186.038 173.228 186.88C178.106 187.722 181.377 192.361 180.536 197.239C179.694 202.115 175.056 205.388 170.178 204.546H170.179Z" fill="#FEFEFE"/>
<path d="M170.268 204.033C165.674 203.239 162.592 198.874 163.386 194.279C164.18 189.685 168.547 186.603 173.141 187.396C177.735 188.189 180.816 192.557 180.023 197.151C179.229 201.746 174.862 204.825 170.268 204.032V204.033Z" fill="#0F7986"/>
<path d="M170.909 200.317C168.368 199.879 166.663 197.461 167.101 194.919C167.539 192.377 169.957 190.673 172.498 191.111C175.04 191.55 176.745 193.966 176.306 196.508C175.868 199.049 173.45 200.754 170.909 200.316V200.317H170.909Z" fill="#EBECEC"/>
<path d="M171.458 191.612L173.51 191.967L174.614 185.575L172.562 185.221L171.458 191.612Z" fill="#FEFEFE"/>
<path d="M102.721 206.32L106.567 205.557C108.201 205.232 109.554 204.271 110.418 202.98C111.279 201.689 111.654 200.071 111.328 198.436L106.805 175.649C105.098 167.05 98.3714 162.666 90.6849 161.694C87.7396 161.321 84.6517 161.457 81.66 162.049C78.6659 162.641 75.7635 163.694 73.1849 165.163C66.4691 168.988 61.9432 175.601 63.6527 184.214L68.1756 207.002C68.5008 208.636 69.4642 209.988 70.7543 210.852L70.7577 210.851C72.0487 211.715 73.6644 212.087 75.2987 211.763L79.1424 211L78.828 209.415L74.9833 210.178C73.785 210.416 72.598 210.141 71.6522 209.51L71.6532 209.509C70.7069 208.876 69.9999 207.884 69.7621 206.687L65.2391 183.899C63.6879 176.084 67.8348 170.06 73.9798 166.562C76.4085 165.178 79.1473 164.185 81.9745 163.624C84.8016 163.064 87.7127 162.938 90.4871 163.288C97.5228 164.177 103.675 168.162 105.222 175.962L109.746 198.75C109.983 199.947 109.709 201.133 109.077 202.081C108.443 203.026 107.451 203.733 106.253 203.97L102.407 204.733L102.721 206.318L102.721 206.32Z" fill="#21D0C3"/>
<path d="M108.025 179.025L107.334 175.545C105.575 166.68 98.6541 162.161 90.7513 161.161C87.7488 160.781 84.6043 160.918 81.5565 161.523C78.5086 162.126 75.5501 163.2 72.9227 164.695C66.0155 168.628 61.3632 175.438 63.1258 184.319L63.8177 187.799L66.4574 187.274L65.7665 183.793C64.2689 176.246 68.2899 170.418 74.2435 167.028C76.6234 165.673 79.307 164.701 82.0789 164.151C84.8499 163.601 87.7039 163.478 90.4227 163.821C97.2396 164.682 103.199 168.533 104.696 176.068L105.387 179.548L108.028 179.024L108.025 179.025Z" fill="#4D4D4D"/>
<path d="M76.0916 211.953L78.1493 211.544C78.6659 212.124 79.4652 212.421 80.2796 212.26C81.5037 212.017 82.2991 210.828 82.056 209.603C81.8138 208.38 80.6243 207.585 79.4002 207.828C78.5838 207.989 77.9598 208.57 77.7049 209.303L75.6488 209.71L76.0931 211.952L76.0916 211.953Z" fill="#076673"/>
<path d="M104.355 206.343L102.3 206.752C102.044 207.484 101.42 208.065 100.605 208.227C99.3811 208.469 98.1927 207.675 97.9495 206.45C97.7073 205.227 98.5018 204.037 99.7249 203.795C100.54 203.634 101.34 203.933 101.854 204.511L103.91 204.102L104.355 206.343Z" fill="#076673"/>
<path d="M82.8075 161.317L82.0228 157.364L80.4627 157.674L78.9046 157.983L79.6981 161.975C80.2923 161.802 80.8939 161.655 81.5013 161.534C81.9339 161.447 82.369 161.376 82.8075 161.317Z" fill="#666666"/>
<path d="M79.4417 209.754C79.8119 209.68 80.0526 209.319 79.9788 208.95C79.9056 208.58 79.5472 208.339 79.1756 208.412C78.805 208.485 78.5648 208.845 78.6385 209.215C78.7118 209.585 79.0711 209.827 79.4417 209.752V209.754Z" fill="#0F7986"/>
<path d="M99.7806 205.709C100.15 205.636 100.39 205.276 100.317 204.907C100.243 204.536 99.885 204.295 99.5135 204.368C99.1433 204.442 98.9026 204.802 98.9764 205.173C99.0486 205.542 99.409 205.782 99.7806 205.709Z" fill="#0F7986"/>
<path d="M170.659 200.274C168.256 199.86 166.644 197.574 167.058 195.169C167.472 192.766 169.756 191.153 172.161 191.569C174.565 191.983 176.177 194.269 175.762 196.672C175.347 199.076 173.061 200.689 170.658 200.274H170.659Z" fill="#FEFEFE"/>
<path d="M101.837 136.016C101.768 136.017 77.4911 136.219 81.5916 157.458L79.3338 157.889C74.7113 133.945 101.733 133.724 101.81 133.723L101.837 136.016Z" fill="#4D4D4D"/>
<path d="M150.281 133.833C154.242 133.94 161.898 135.019 167.792 142.188C173.559 149.203 177.602 162.087 174.579 185.708L172.303 185.421C175.229 162.558 171.448 150.249 166.021 143.646C160.719 137.195 153.805 136.223 150.229 136.127L150.282 133.833H150.281Z" fill="#4D4D4D"/>
<path d="M125 125C113.234 123.152 103.25 107.435 103.174 106.078L102.479 93.7302L120.245 92.9602C122.579 91.6379 124.302 91.6379 126.637 92.9602L144.403 93.7302L144.739 108.298C141.616 112.874 137.036 121.647 125.002 125H125Z" fill="#FEFEFE"/>
<path d="M123.441 92.0163L124.88 96.7922L124.116 100.127L125.692 108.163L124.035 115.849L125.001 124.999C133.814 122.388 138.436 118.292 144.739 108.342L144.403 93.7297L126.636 92.9597C126.636 92.9597 124.522 91.7639 123.44 92.0158L123.441 92.0163Z" fill="#EEF3F7"/>
<path d="M95.1761 73.7622L103.794 94.1665L102.782 94.5336L94.1639 74.1294L95.1761 73.7622Z" fill="#21D0C3"/>
<path d="M152.384 74.4199L144.273 94.832L143.227 94.5532L151.34 74.1411L152.385 74.4199H152.384Z" fill="#21D0C3"/>
<path d="M104.974 68.5156C93.9075 72.7475 92.7733 82.916 94.5042 88.0278C96.2366 93.1386 98.3807 96.8388 98.3807 96.8388L101.771 104.488C101.771 104.488 89.7454 102.113 88.4139 98.8783C82.1082 83.5595 79.4134 62.4512 90.8802 48.5581C108.854 26.7799 141.688 26.3653 158.644 48.5581C169.581 62.8716 165.531 83.56 159.227 98.8783C157.895 102.112 145.87 104.488 145.87 104.488L149.26 96.8388C149.26 96.8388 151.608 92.331 153.34 87.2207C155.072 82.1098 150.469 70.895 144 68.4214C128.339 62.4336 116.042 64.2852 104.976 68.5161L104.974 68.5156Z" fill="#21D0C3"/>
<path d="M105.554 115.636C98.845 122.966 101.83 135.391 101.83 135.391L108.198 133.585L111.465 117.175C111.465 117.175 104.72 109.926 103.292 107.058C101.866 104.19 101.136 102.787 101.136 102.787C100.03 111.731 105.464 110.338 105.554 115.636Z" fill="#666666"/>
<path d="M144.101 115.636C150.81 122.966 147.825 135.391 147.825 135.391L141.457 133.585L138.191 117.175C138.191 117.175 144.935 109.926 146.363 107.058C147.789 104.19 148.519 102.787 148.519 102.787C149.626 111.731 144.192 110.338 144.101 115.636Z" fill="#666666"/>
<path d="M126.041 32.0767C126.483 32.2036 146.466 39.543 153.251 46.226C160.035 52.9091 159.723 57.0761 161.245 59.6455C162.769 62.2153 164.293 77.8246 161.057 85.6288C157.82 93.433 159.381 96.2118 153.823 99.1444C148.266 102.077 145.866 104.487 145.866 104.487C145.866 104.487 157.893 102.112 159.223 98.8773C165.529 83.5595 169.578 62.871 158.641 48.5571C150.365 37.7241 138.306 32.2803 126.04 32.0757L126.041 32.0767Z" fill="#15BDB2"/>
</g>
</g>
<defs>
<clipPath id="clip0_41_136">
<rect width="250" height="250" fill="white"/>
</clipPath>
<clipPath id="clip1_41_136">
<rect width="250" height="250" fill="white"/>
</clipPath>
</defs>
</svg>
