<svg width="65" height="64" viewBox="0 0 65 64" fill="none" xmlns="http://www.w3.org/2000/svg">
<g clip-path="url(#clip0_1_58)">
<path d="M36.1675 32.875H35.7925C35.7925 32.875 35.855 32.875 35.98 32.875C36.105 32.875 36.1675 32.875 36.1675 32.875ZM32.48 0C28.0633 0 23.8966 0.833333 19.98 2.5C16.105 4.16667 12.7196 6.44792 9.82372 9.34375C6.92789 12.2396 4.64664 15.6458 2.97997 19.5625C1.31331 23.4375 0.479973 27.5833 0.479973 32C0.479973 36.4167 1.31331 40.5625 2.97997 44.4375C4.64664 48.3542 6.92789 51.7604 9.82372 54.6562C12.7196 57.5521 16.105 59.8333 19.98 61.5C23.8966 63.1667 28.0633 64 32.48 64C36.8966 64 41.0425 63.1667 44.9175 61.5C48.7925 59.8333 52.1779 57.5521 55.0737 54.6562C57.9696 51.7604 60.2508 48.3542 61.9175 44.4375C63.6258 40.5625 64.48 36.4167 64.48 32C64.48 27.5833 63.6258 23.4375 61.9175 19.5625C60.2508 15.6458 57.9696 12.2396 55.0737 9.34375C52.1779 6.44792 48.7925 4.16667 44.9175 2.5C41.0425 0.833333 36.8966 0 32.48 0ZM54.105 53.625C52.6883 55 51.1675 56.25 49.5425 57.375C47.9175 58.4583 46.1883 59.3854 44.355 60.1562C42.5216 60.9271 40.605 61.5208 38.605 61.9375C36.605 62.3542 34.5633 62.5625 32.48 62.5625C30.355 62.5625 28.2925 62.3542 26.2925 61.9375C24.2925 61.5208 22.3758 60.9271 20.5425 60.1562C18.7091 59.3854 16.98 58.4583 15.355 57.375C13.73 56.25 12.23 55 10.855 53.625C9.47997 52.25 8.22997 50.75 7.10497 49.125C5.97997 47.4583 5.03206 45.7188 4.26122 43.9062C3.49039 42.0938 2.89664 40.1875 2.47997 38.1875C2.06331 36.1875 1.85497 34.125 1.85497 32C1.85497 29.875 2.06331 27.8125 2.47997 25.8125C2.89664 23.8125 3.49039 21.9062 4.26122 20.0938C5.03206 18.2812 5.97997 16.5417 7.10497 14.875C8.22997 13.25 9.47997 11.75 10.855 10.375C12.23 9 13.73 7.75 15.355 6.625C16.98 5.54167 18.7091 4.61458 20.5425 3.84375C22.3758 3.07292 24.2925 2.47917 26.2925 2.0625C28.2925 1.64583 30.355 1.4375 32.48 1.4375C34.5633 1.4375 36.605 1.64583 38.605 2.0625C40.605 2.47917 42.5216 3.07292 44.355 3.84375C46.1883 4.61458 47.9175 5.54167 49.5425 6.625C51.1675 7.75 52.6883 9 54.105 10.375C55.48 11.75 56.7091 13.25 57.7925 14.875C58.9175 16.5417 59.8654 18.2812 60.6362 20.0938C61.4071 21.9062 62.0008 23.8125 62.4175 25.8125C62.8341 27.8125 63.0425 29.875 63.0425 32C63.0425 34.125 62.8341 36.1875 62.4175 38.1875C62.0008 40.1875 61.4071 42.0938 60.6362 43.9062C59.8654 45.7188 58.9175 47.4583 57.7925 49.125C56.7091 50.75 55.48 52.25 54.105 53.625ZM27.355 37.3125C27.48 37.2292 27.5737 37.1354 27.6362 37.0312C27.6987 36.9271 27.73 36.8125 27.73 36.6875C27.73 36.6458 27.73 36.6042 27.73 36.5625C27.73 36.5208 27.73 36.4792 27.73 36.4375C27.5633 36.0208 27.3341 35.6458 27.0425 35.3125C26.7508 34.9792 26.4383 34.6667 26.105 34.375C25.605 33.9583 25.0633 33.5625 24.48 33.1875C23.8966 32.8125 23.3341 32.5 22.7925 32.25C22.7091 32.1667 22.6258 32.1042 22.5425 32.0625C22.4591 32.0208 22.355 31.9792 22.23 31.9375L28.9175 33.25L28.98 33.3125C29.0633 33.3125 29.1466 33.2917 29.23 33.25C29.3133 33.2083 29.3758 33.1667 29.4175 33.125C29.5008 33.0833 29.5633 33.0104 29.605 32.9062C29.6466 32.8021 29.6675 32.7083 29.6675 32.625V31.375V31.3125C29.6675 31.2708 29.6675 31.2396 29.6675 31.2188C29.6675 31.1979 29.6675 31.1667 29.6675 31.125C29.6675 31.125 29.6571 31.125 29.6362 31.125C29.6154 31.125 29.605 31.125 29.605 31.125C29.605 31.0833 29.5946 31.0417 29.5737 31C29.5529 30.9583 29.5216 30.9375 29.48 30.9375C29.48 30.9375 29.48 30.9271 29.48 30.9062C29.48 30.8854 29.48 30.875 29.48 30.875C29.48 30.875 29.4696 30.875 29.4487 30.875C29.4279 30.875 29.4175 30.875 29.4175 30.875L27.6675 29.375L29.4175 28.25L29.48 28.1875C29.5216 28.1458 29.5529 28.1042 29.5737 28.0625C29.5946 28.0208 29.6258 28 29.6675 28C29.6675 28 29.6675 27.9896 29.6675 27.9688C29.6675 27.9479 29.6675 27.9375 29.6675 27.9375C29.6675 27.8958 29.6675 27.8542 29.6675 27.8125C29.6675 27.7708 29.6675 27.75 29.6675 27.75C29.6675 27.75 29.6779 27.125 29.6987 25.875C29.7196 24.625 29.73 24 29.73 24C29.73 23.875 29.7091 23.7708 29.6675 23.6875C29.6258 23.6042 29.5633 23.5208 29.48 23.4375L28.4175 22.625L29.4175 21.875C29.5008 21.8333 29.5737 21.7604 29.6362 21.6562C29.6987 21.5521 29.73 21.4375 29.73 21.3125V20.0625V20C29.6883 19.9167 29.6571 19.8333 29.6362 19.75C29.6154 19.6667 29.5633 19.6042 29.48 19.5625C29.3966 19.5208 29.3237 19.4792 29.2612 19.4375C29.1987 19.3958 29.1258 19.375 29.0425 19.375L28.9175 19.4375C28.9175 19.4375 27.9487 19.6042 26.0112 19.9375C24.0737 20.2708 23.105 20.4375 23.105 20.4375C23.1883 20.3958 23.2821 20.3542 23.3862 20.3125C23.4904 20.2708 23.5841 20.2083 23.6675 20.125C24.4175 19.7917 25.1779 19.3333 25.9487 18.75C26.7196 18.1667 27.355 17.4583 27.855 16.625C27.8966 16.5833 27.9279 16.5312 27.9487 16.4688C27.9696 16.4062 27.98 16.3542 27.98 16.3125C27.98 16.1875 27.9487 16.0729 27.8862 15.9688C27.8237 15.8646 27.7508 15.7708 27.6675 15.6875C27.5841 15.6875 27.5216 15.6771 27.48 15.6562C27.4383 15.6354 27.3758 15.625 27.2925 15.625C27.1675 15.625 27.0529 15.6458 26.9487 15.6875C26.8446 15.7292 26.7716 15.8125 26.73 15.9375C26.355 16.5625 25.8237 17.1354 25.1362 17.6562C24.4487 18.1771 23.7508 18.6042 23.0425 18.9375C22.7508 19.1042 22.4696 19.25 22.1987 19.375C21.9279 19.5 21.6675 19.6042 21.4175 19.6875V18.875C21.4175 18.0833 21.1466 17.4167 20.605 16.875C20.0633 16.3333 19.3966 16.0625 18.605 16.0625C17.855 16.0625 17.2091 16.3333 16.6675 16.875C16.1258 17.4167 15.855 18.0833 15.855 18.875L15.7925 48.5C15.7925 48.7083 15.855 48.875 15.98 49C16.105 49.125 16.2716 49.1875 16.48 49.1875C16.6466 49.1875 16.7925 49.125 16.9175 49C17.0425 48.875 17.105 48.7083 17.105 48.5V48.4375C17.105 48.4375 17.105 48.4271 17.105 48.4062C17.105 48.3854 17.105 48.375 17.105 48.375L17.1675 18.875C17.1675 18.6667 17.2091 18.4688 17.2925 18.2812C17.3758 18.0938 17.48 17.9375 17.605 17.8125C17.73 17.6875 17.8862 17.5833 18.0737 17.5C18.2612 17.4167 18.4591 17.375 18.6675 17.375C18.8341 17.375 19.0112 17.4167 19.1987 17.5C19.3862 17.5833 19.5425 17.6875 19.6675 17.8125C19.7925 17.9375 19.8966 18.0938 19.98 18.2812C20.0633 18.4688 20.105 18.6667 20.105 18.875V21.5V21.5625V30.9375C20.105 30.9375 20.105 31.8542 20.105 33.6875C20.105 35.5208 20.105 37.5312 20.105 39.7188C20.105 41.9062 20.0841 43.8958 20.0425 45.6875C20.0425 47.5208 20.0425 48.4375 20.0425 48.4375C20.0425 48.6042 20.1154 48.7604 20.2612 48.9062C20.4071 49.0521 20.5633 49.125 20.73 49.125C20.9383 49.125 21.105 49.0521 21.23 48.9062C21.355 48.7604 21.4175 48.6042 21.4175 48.4375V33.0625C21.7091 33.1875 22.0321 33.3438 22.3862 33.5312C22.7404 33.7188 23.105 33.9375 23.48 34.1875C23.8133 34.3542 24.1466 34.5521 24.48 34.7812C24.8133 35.0104 25.105 35.25 25.355 35.5C25.605 35.75 25.8341 36 26.0425 36.25C26.2508 36.5 26.3966 36.7292 26.48 36.9375C26.5216 37.0625 26.605 37.1562 26.73 37.2188C26.855 37.2812 26.98 37.3125 27.105 37.3125C27.1466 37.3125 27.1883 37.3125 27.23 37.3125C27.2716 37.3125 27.3133 37.3125 27.355 37.3125ZM21.48 22.0625L28.355 20.875V21C28.355 21 28.1362 21.1562 27.6987 21.4688C27.2612 21.7812 27.0425 21.9375 27.0425 21.9375L24.7925 22.4375C24.6258 22.4792 24.4904 22.5625 24.3862 22.6875C24.2821 22.8125 24.23 22.9375 24.23 23.0625C24.23 23.1042 24.23 23.1354 24.23 23.1562C24.23 23.1771 24.2508 23.2083 24.2925 23.25C24.2925 23.4167 24.355 23.5417 24.48 23.625C24.605 23.7083 24.7508 23.75 24.9175 23.75C24.9591 23.75 24.9904 23.75 25.0112 23.75C25.0321 23.75 25.0633 23.75 25.105 23.75L27.1675 23.25L28.355 24.25V27.3125C28.355 27.3125 28.0216 27.5312 27.355 27.9688C26.6883 28.4062 26.355 28.625 26.355 28.625L22.855 28.375H22.7925C22.6258 28.375 22.48 28.4271 22.355 28.5312C22.23 28.6354 22.1466 28.7708 22.105 28.9375C22.105 28.9375 22.105 28.9479 22.105 28.9688C22.105 28.9896 22.105 29 22.105 29C22.105 29.1667 22.1675 29.3229 22.2925 29.4688C22.4175 29.6146 22.5633 29.6875 22.73 29.6875L26.23 30L28.355 31.6875V31.8125C28.355 31.8125 27.2091 31.5729 24.9175 31.0938C22.6258 30.6146 21.48 30.375 21.48 30.375V22.0625ZM35.0425 27.8125H34.73C33.73 27.8958 32.8966 28.3021 32.23 29.0312C31.5633 29.7604 31.23 30.625 31.23 31.625C31.23 32.6667 31.5946 33.5625 32.3237 34.3125C33.0529 35.0625 33.9591 35.4375 35.0425 35.4375C36.0841 35.4375 36.98 35.0625 37.73 34.3125C38.48 33.5625 38.855 32.6667 38.855 31.625C38.855 30.625 38.5112 29.7604 37.8237 29.0312C37.1362 28.3021 36.2925 27.8958 35.2925 27.8125H35.0425ZM36.7925 29.875C37.0008 30.0833 37.1675 30.3438 37.2925 30.6562C37.4175 30.9688 37.48 31.2917 37.48 31.625C37.48 31.9583 37.4175 32.2708 37.2925 32.5625C37.1675 32.8542 37.0008 33.125 36.7925 33.375C36.5425 33.5833 36.2716 33.75 35.98 33.875C35.6883 34 35.3758 34.0625 35.0425 34.0625C34.6675 34.0625 34.3341 34 34.0425 33.875C33.7508 33.75 33.5008 33.5833 33.2925 33.375C33.0425 33.125 32.855 32.8542 32.73 32.5625C32.605 32.2708 32.5425 31.9583 32.5425 31.625C32.5425 31.2917 32.605 30.9688 32.73 30.6562C32.855 30.3438 33.0425 30.0833 33.2925 29.875C33.5008 29.6667 33.7508 29.4896 34.0425 29.3438C34.3341 29.1979 34.6675 29.125 35.0425 29.125C35.3758 29.125 35.6883 29.1979 35.98 29.3438C36.2716 29.4896 36.5425 29.6667 36.7925 29.875ZM47.98 19.625C47.355 18.5833 46.5216 17.7604 45.48 17.1562C44.4383 16.5521 43.3341 16.2292 42.1675 16.1875C42.1675 16.1875 42.1258 16.1875 42.0425 16.1875C41.9591 16.1875 41.9175 16.1875 41.9175 16.1875H41.855H41.7925C41.7925 16.1875 41.7716 16.1875 41.73 16.1875C41.6883 16.1875 41.6675 16.1875 41.6675 16.1875H41.605C41.4383 16.2292 41.2821 16.25 41.1362 16.25C40.9904 16.25 40.8341 16.2708 40.6675 16.3125C40.6675 16.3125 39.9487 16.4375 38.5112 16.6875C37.0737 16.9375 36.355 17.0625 36.355 17.0625C36.105 17.1042 35.8654 17.1354 35.6362 17.1562C35.4071 17.1771 35.1466 17.1875 34.855 17.1875C34.605 17.1875 34.3341 17.1771 34.0425 17.1562C33.7508 17.1354 33.4591 17.0833 33.1675 17L30.48 16.5H30.355C30.23 16.5 30.105 16.5417 29.98 16.625C29.855 16.7083 29.7716 16.8333 29.73 17C29.73 17 29.73 17.0208 29.73 17.0625C29.73 17.1042 29.73 17.125 29.73 17.125C29.73 17.2917 29.7716 17.4375 29.855 17.5625C29.9383 17.6875 30.0633 17.7708 30.23 17.8125L32.9175 18.375C33.2508 18.4167 33.5841 18.4583 33.9175 18.5C34.2508 18.5417 34.5841 18.5625 34.9175 18.5625C35.2091 18.5625 35.4904 18.5521 35.7612 18.5312C36.0321 18.5104 36.3133 18.4583 36.605 18.375L40.855 17.625C41.0216 17.625 41.1883 17.6146 41.355 17.5938C41.5216 17.5729 41.6883 17.5625 41.855 17.5625H41.9175C42.9175 17.5625 43.855 17.8125 44.73 18.3125C45.605 18.8125 46.2925 19.4792 46.7925 20.3125C47.1675 21.0208 47.4591 21.7604 47.6675 22.5312C47.8758 23.3021 47.98 24.1042 47.98 24.9375C47.98 24.9792 47.98 25.0104 47.98 25.0312C47.98 25.0521 47.98 25.0833 47.98 25.125C47.98 25.125 47.98 25.1354 47.98 25.1562C47.98 25.1771 47.98 25.1875 47.98 25.1875C47.98 26.0625 47.8654 26.9271 47.6362 27.7812C47.4071 28.6354 47.0841 29.4583 46.6675 30.25L45.105 33C44.7716 33.625 44.5008 34.2708 44.2925 34.9375C44.0841 35.6042 43.9591 36.2708 43.9175 36.9375C43.7925 38.5208 43.4904 40.0521 43.0112 41.5312C42.5321 43.0104 41.9175 44.4167 41.1675 45.75L40.23 47.4375C40.1466 47.5625 40.0529 47.6562 39.9487 47.7188C39.8446 47.7812 39.73 47.8125 39.605 47.8125C39.3966 47.8125 39.2196 47.7396 39.0737 47.5938C38.9279 47.4479 38.855 47.2708 38.855 47.0625V44.5625V44.25V44.0625C38.855 44.0625 38.855 44.0521 38.855 44.0312C38.855 44.0104 38.855 44 38.855 44C38.8133 43.4167 38.7508 42.8438 38.6675 42.2812C38.5841 41.7188 38.4591 41.1875 38.2925 40.6875C38.2925 40.6875 38.2196 40.4583 38.0737 40C37.9279 39.5417 37.855 39.3125 37.855 39.3125C37.73 38.8958 37.5112 38.5625 37.1987 38.3125C36.8862 38.0625 36.5216 37.9167 36.105 37.875C36.105 37.875 36.0529 37.875 35.9487 37.875C35.8446 37.875 35.7925 37.875 35.7925 37.875C35.7925 37.875 35.7612 37.875 35.6987 37.875C35.6362 37.875 35.605 37.875 35.605 37.875H35.5425C35.1675 37.9167 34.8341 38.0312 34.5425 38.2188C34.2508 38.4062 34.0216 38.6667 33.855 39L33.355 40.25C33.105 40.9167 32.9175 41.6042 32.7925 42.3125C32.6675 43.0208 32.605 43.7292 32.605 44.4375C32.605 44.4375 32.605 44.875 32.605 45.75C32.605 46.625 32.605 47.0625 32.605 47.0625C32.605 47.2708 32.5425 47.4375 32.4175 47.5625C32.2925 47.6875 32.1258 47.7708 31.9175 47.8125C31.7925 47.7708 31.6779 47.7188 31.5737 47.6562C31.4696 47.5938 31.3758 47.5208 31.2925 47.4375L30.355 45.75C29.8966 45 29.5008 44.2188 29.1675 43.4062C28.8341 42.5938 28.5425 41.7708 28.2925 40.9375C28.2508 40.7708 28.1675 40.6458 28.0425 40.5625C27.9175 40.4792 27.7716 40.4375 27.605 40.4375C27.605 40.4375 27.5841 40.4375 27.5425 40.4375C27.5008 40.4375 27.4591 40.4583 27.4175 40.5C27.3341 40.5 27.2612 40.5312 27.1987 40.5938C27.1362 40.6562 27.0841 40.7083 27.0425 40.75C27.0425 40.75 27.0321 40.8333 27.0112 41C26.9904 41.1667 26.98 41.25 26.98 41.25V41.3125C27.23 42.1875 27.5425 43.0521 27.9175 43.9062C28.2925 44.7604 28.7091 45.6042 29.1675 46.4375C29.1675 46.4375 29.3237 46.7083 29.6362 47.25C29.9487 47.7917 30.105 48.0625 30.105 48.0625C30.3133 48.3958 30.5737 48.6562 30.8862 48.8438C31.1987 49.0312 31.5425 49.125 31.9175 49.125C32.5008 49.125 32.9904 48.9271 33.3862 48.5312C33.7821 48.1354 33.98 47.6458 33.98 47.0625C33.98 47.0625 33.98 46.625 33.98 45.75C33.98 44.875 33.98 44.4375 33.98 44.4375C33.98 43.8125 34.0321 43.1875 34.1362 42.5625C34.2404 41.9375 34.3966 41.3333 34.605 40.75L35.0425 39.75C35.0425 39.75 35.0425 39.7396 35.0425 39.7188C35.0425 39.6979 35.0425 39.6875 35.0425 39.6875C35.0841 39.5625 35.1779 39.4479 35.3237 39.3438C35.4696 39.2396 35.6258 39.1875 35.7925 39.1875C36.0008 39.1875 36.1675 39.2396 36.2925 39.3438C36.4175 39.4479 36.5216 39.5833 36.605 39.75L36.9175 40.8125C37.0841 41.3542 37.2196 41.9167 37.3237 42.5C37.4279 43.0833 37.48 43.6667 37.48 44.25V44.3125C37.48 44.3125 37.48 44.7708 37.48 45.6875C37.48 46.6042 37.48 47.0625 37.48 47.0625C37.48 47.6458 37.6883 48.1458 38.105 48.5625C38.5216 48.9792 39.0216 49.1875 39.605 49.1875C39.9383 49.1875 40.2716 49.0938 40.605 48.9062C40.9383 48.7188 41.1883 48.4583 41.355 48.125L42.2925 46.4375C43.1258 45.0208 43.7925 43.5208 44.2925 41.9375C44.7925 40.3542 45.105 38.7292 45.23 37.0625C45.3133 36.4375 45.4487 35.8125 45.6362 35.1875C45.8237 34.5625 46.0633 33.9792 46.355 33.4375C46.355 33.4375 46.5946 33.0104 47.0737 32.1562C47.5529 31.3021 47.7925 30.875 47.7925 30.875C48.2925 30.0417 48.6675 29.1667 48.9175 28.25C49.1675 27.3333 49.2925 26.3958 49.2925 25.4375C49.2925 25.4375 49.2925 25.4062 49.2925 25.3438C49.2925 25.2812 49.2925 25.25 49.2925 25.25V25.1875C49.2925 25.1458 49.2925 25.1042 49.2925 25.0625C49.2925 25.0208 49.2925 24.9792 49.2925 24.9375C49.2925 24.0208 49.1779 23.1146 48.9487 22.2188C48.7196 21.3229 48.3758 20.4792 47.9175 19.6875L47.98 19.625ZM30.9175 34.375C30.2091 34.375 29.605 34.6146 29.105 35.0938C28.605 35.5729 28.355 36.1667 28.355 36.875C28.355 37.5833 28.605 38.1771 29.105 38.6562C29.605 39.1354 30.2091 39.375 30.9175 39.375C31.5425 39.375 32.0946 39.1562 32.5737 38.7188C33.0529 38.2812 33.3133 37.75 33.355 37.125H33.4175C33.4175 37.125 33.4175 37.0833 33.4175 37C33.4175 36.9167 33.4175 36.875 33.4175 36.875V36.625H33.355C33.3133 35.9583 33.0529 35.4167 32.5737 35C32.0946 34.5833 31.5425 34.375 30.9175 34.375ZM32.0425 36.875C32.0425 37.0417 32.0112 37.1979 31.9487 37.3438C31.8862 37.4896 31.8133 37.6042 31.73 37.6875C31.605 37.8125 31.4696 37.9062 31.3237 37.9688C31.1779 38.0312 31.0425 38.0625 30.9175 38.0625C30.7508 38.0625 30.5946 38.0312 30.4487 37.9688C30.3029 37.9062 30.1675 37.8125 30.0425 37.6875C29.9591 37.6042 29.8862 37.4896 29.8237 37.3438C29.7612 37.1979 29.73 37.0417 29.73 36.875C29.73 36.7083 29.7612 36.5521 29.8237 36.4062C29.8862 36.2604 29.9591 36.1458 30.0425 36.0625C30.1675 35.9375 30.3029 35.8438 30.4487 35.7812C30.5946 35.7188 30.7508 35.6875 30.9175 35.6875C31.2091 35.6875 31.4696 35.8021 31.6987 36.0312C31.9279 36.2604 32.0425 36.5417 32.0425 36.875ZM39.855 19.4375C39.855 19.4375 39.3446 19.5625 38.3237 19.8125C37.3029 20.0625 36.7925 20.1875 36.7925 20.1875C36.6258 20.2292 36.5008 20.3021 36.4175 20.4062C36.3341 20.5104 36.2925 20.6458 36.2925 20.8125C36.2925 20.8542 36.2925 20.8854 36.2925 20.9062C36.2925 20.9271 36.2925 20.9583 36.2925 21C36.3341 21.125 36.4175 21.2396 36.5425 21.3438C36.6675 21.4479 36.7925 21.5 36.9175 21.5C36.9591 21.5 36.9904 21.5 37.0112 21.5C37.0321 21.5 37.0633 21.5 37.105 21.5L37.5425 21.375C37.5425 21.375 37.98 21.2708 38.855 21.0625C39.73 20.8542 40.1675 20.75 40.1675 20.75C40.2925 20.75 40.4071 20.7396 40.5112 20.7188C40.6154 20.6979 40.73 20.6875 40.855 20.6875C41.3133 20.6875 41.7404 20.7812 42.1362 20.9688C42.5321 21.1562 42.8758 21.4167 43.1675 21.75C43.1675 21.7917 43.1883 21.8229 43.23 21.8438C43.2716 21.8646 43.2925 21.875 43.2925 21.875C43.2925 21.875 43.2925 21.8854 43.2925 21.9062C43.2925 21.9271 43.2925 21.9375 43.2925 21.9375C43.5008 22.2292 43.6571 22.5417 43.7612 22.875C43.8654 23.2083 43.9175 23.5625 43.9175 23.9375V24.0625C43.9175 24.2292 43.98 24.3854 44.105 24.5312C44.23 24.6771 44.3966 24.75 44.605 24.75C44.7716 24.75 44.9279 24.6875 45.0737 24.5625C45.2196 24.4375 45.2925 24.2708 45.2925 24.0625C45.2925 24.0625 45.2925 24.0417 45.2925 24C45.2925 23.9583 45.2925 23.9375 45.2925 23.9375C45.2925 23.4792 45.23 23.0312 45.105 22.5938C44.98 22.1562 44.7925 21.75 44.5425 21.375C44.5425 21.375 44.5216 21.3333 44.48 21.25C44.4383 21.1667 44.4175 21.125 44.4175 21.125L44.355 21.0625C44.355 21.0625 44.3446 21.0521 44.3237 21.0312C44.3029 21.0104 44.2925 21 44.2925 21V20.9375H44.23C44.23 20.9375 44.2196 20.9271 44.1987 20.9062C44.1779 20.8854 44.1675 20.875 44.1675 20.875L44.0425 20.6875L43.98 20.625C43.5633 20.2083 43.0841 19.8958 42.5425 19.6875C42.0008 19.4792 41.4383 19.375 40.855 19.375C40.6883 19.375 40.5321 19.3854 40.3862 19.4062C40.2404 19.4271 40.0841 19.4375 39.9175 19.4375C39.9175 19.4375 39.9071 19.4479 39.8862 19.4688C39.8654 19.4896 39.855 19.5 39.855 19.5V19.4375Z" fill="#009CDE"/>
</g>
<defs>
<clipPath id="clip0_1_58">
<rect width="64" height="64" fill="white" transform="matrix(1 0 0 -1 0.479973 64)"/>
</clipPath>
</defs>
</svg>
