<svg width="32" height="32" viewBox="0 0 32 32" fill="none" xmlns="http://www.w3.org/2000/svg">
<g clip-path="url(#clip0_100_225)">
<g clip-path="url(#clip1_100_225)">
<path d="M16 31.625C7.385 31.625 0.375 24.615 0.375 16C0.375 7.384 7.385 0.375 16 0.375C24.615 0.375 31.625 7.384 31.625 16C31.625 24.615 24.615 31.625 16 31.625Z" fill="white"/>
<path d="M16 0.75C24.409 0.75 31.25 7.591 31.25 16C31.25 24.409 24.409 31.25 16 31.25C7.591 31.25 0.75 24.409 0.75 16C0.75 7.591 7.591 0.75 16 0.75ZM16 0C7.163 0 0 7.163 0 16C0 24.836 7.163 32 16 32C24.837 32 32 24.836 32 16C32 7.163 24.837 0 16 0Z" fill="#E5E5E5"/>
<path d="M12.202 23.565C7.955 23.565 4.5 20.172 4.5 16.001C4.5 11.83 7.955 8.43604 12.202 8.43604C14.059 8.43604 15.854 9.09504 17.254 10.291L15.295 12.502C14.438 11.77 13.339 11.366 12.201 11.366C9.599 11.366 7.482 13.445 7.482 16C7.482 18.555 9.599 20.634 12.201 20.634C14.402 20.634 15.843 19.579 16.311 17.687H12.237V14.757H19.46V16.222C19.461 20.613 16.544 23.565 12.202 23.565Z" fill="#023047"/>
<path d="M27.501 14.7579H25.267V12.5249H23.481V14.7579H21.248V16.5439H23.481V18.7769H25.267V16.5439H27.501V14.7579Z" fill="#023047"/>
</g>
</g>
<defs>
<clipPath id="clip0_100_225">
<rect width="32" height="32" fill="white"/>
</clipPath>
<clipPath id="clip1_100_225">
<rect width="32" height="32" fill="white"/>
</clipPath>
</defs>
</svg>
