<svg width="132" height="150" viewBox="0 0 132 150" fill="none" xmlns="http://www.w3.org/2000/svg">
<path d="M121.098 70.2586C121.098 70.2586 119.835 72.0164 117.338 74.8547C114.84 77.693 68.9164 129.877 68.9164 129.877C68.1099 130.793 67.056 131.25 66 131.25C64.944 131.25 63.8901 130.793 63.0836 129.877C63.0836 129.877 17.16 77.6906 14.6623 74.8523C12.1646 72.0141 10.9024 70.2562 10.9024 70.2562C6.69281 64.5586 4.125 57.2438 4.125 49.2188C4.125 31.0969 17.0528 16.4062 33 16.4062C40.9736 16.4062 48.1924 20.0766 53.4167 26.018L53.4353 25.9969L63.0836 36.9586C64.6944 38.7891 67.3056 38.7891 68.9164 36.9586L78.5647 25.9969L78.5833 26.018C83.8076 20.0766 91.0264 16.4062 99 16.4062C114.947 16.4062 127.875 31.0969 127.875 49.2188C127.875 57.2438 125.307 64.5586 121.098 70.2586Z" fill="#F76D57"/>
<path d="M121.098 70.2586C121.098 70.2586 119.835 72.0164 117.338 74.8547C114.84 77.693 68.9164 129.877 68.9164 129.877C68.1099 130.793 67.056 131.25 66 131.25C64.944 131.25 63.8901 130.793 63.0836 129.877C63.0836 129.877 17.16 77.6906 14.6623 74.8523C12.1646 72.0141 10.9024 70.2562 10.9024 70.2562C6.69281 64.5586 4.125 57.2438 4.125 49.2188C4.125 31.0969 17.0528 16.4062 33 16.4062C40.9736 16.4062 48.1924 20.0766 53.4167 26.018L53.4353 25.9969L63.0836 36.9586C64.6944 38.7891 67.3056 38.7891 68.9164 36.9586L78.5647 25.9969L78.5833 26.018C83.8076 20.0766 91.0264 16.4062 99 16.4062C114.947 16.4062 127.875 31.0969 127.875 49.2188C127.875 57.2438 125.307 64.5586 121.098 70.2586Z" fill="#F76D57"/>
<path d="M99 11.7188C89.8879 11.7188 81.6379 15.9164 75.6669 22.7039L67.4603 31.9875C66.6538 32.9039 65.3503 32.9039 64.5439 31.9875C64.5439 31.9875 56.3537 22.6828 56.3372 22.7039C50.3621 15.9164 42.1121 11.7188 33 11.7188C14.7737 11.7188 0 28.507 0 49.2188C0 57.0422 2.112 64.3031 5.71931 70.3125C5.71931 70.3125 7.23319 73.0406 9.02344 75.0727C10.8137 77.1047 60.1673 133.191 60.1673 133.191C61.7781 135.021 63.8901 135.938 66 135.938C68.1099 135.938 70.2219 135.021 71.8327 133.191C71.8327 133.191 121.188 77.1047 122.977 75.0727C124.765 73.0406 126.281 70.3125 126.281 70.3125C129.888 64.3031 132 57.0422 132 49.2188C132 28.507 117.226 11.7188 99 11.7188ZM121.098 70.2586C121.098 70.2586 119.835 72.0164 117.338 74.8547C114.84 77.693 68.9164 129.877 68.9164 129.877C68.1099 130.793 67.056 131.25 66 131.25C64.944 131.25 63.8901 130.793 63.0836 129.877C63.0836 129.877 17.16 77.6906 14.6623 74.8523C12.1646 72.0141 10.9024 70.2562 10.9024 70.2562C6.69281 64.5586 4.125 57.2438 4.125 49.2188C4.125 31.0969 17.0528 16.4062 33 16.4062C40.9736 16.4062 48.1924 20.0766 53.4167 26.018L53.4353 25.9969L63.0836 36.9586C64.6944 38.7891 67.3056 38.7891 68.9164 36.9586L78.5647 25.9969L78.5833 26.018C83.8076 20.0766 91.0264 16.4062 99 16.4062C114.947 16.4062 127.875 31.0969 127.875 49.2188C127.875 57.2438 125.307 64.5586 121.098 70.2586Z" fill="#394240"/>
<path d="M99 25.7812C97.8594 25.7812 96.9375 26.8289 96.9375 28.125C96.9375 29.4211 97.8594 30.4688 99 30.4688C108.112 30.4688 115.5 38.8641 115.5 49.2188C115.5 50.5148 116.422 51.5625 117.562 51.5625C118.703 51.5625 119.625 50.5148 119.625 49.2188C119.625 36.2766 110.389 25.7812 99 25.7812Z" fill="#394240"/>
</svg>
