<svg width="20" height="21" viewBox="0 0 20 21" fill="none" xmlns="http://www.w3.org/2000/svg">
<path fill-rule="evenodd" clip-rule="evenodd" d="M18.8665 8.9434L18.1395 8.29215V19.0104H19.3023C19.6876 19.0104 20 19.3602 20 19.7916C20 20.2232 19.6876 20.5729 19.3023 20.5729H0.6977C0.312379 20.5729 2.65261e-05 20.2232 2.65261e-05 19.7916C2.65261e-05 19.3602 0.312379 19.0104 0.6977 19.0104H1.86049V8.29215L1.13353 8.9434C0.832648 9.21298 0.393607 9.15829 0.15291 8.82142C-0.0877966 8.48444 -0.0390153 7.99277 0.261868 7.72329L7.82084 0.951687C9.09486 -0.189625 10.9052 -0.189625 12.1791 0.951687L19.7381 7.72329C20.039 7.99277 20.0878 8.48444 19.8471 8.82142C19.6064 9.15829 19.1674 9.21298 18.8665 8.9434ZM9.99998 3.90625C8.58714 3.90625 7.44187 5.18877 7.44187 6.77083C7.44187 8.35287 8.58714 9.63537 9.99998 9.63537C11.4128 9.63537 12.5581 8.35287 12.5581 6.77083C12.5581 5.18877 11.4128 3.90625 9.99998 3.90625ZM11.6241 10.7412C11.1973 10.677 10.6644 10.677 10.0459 10.677H9.95412C9.33561 10.677 8.80268 10.677 8.37598 10.7412C7.91863 10.8101 7.48025 10.9654 7.12467 11.3636C6.76909 11.7617 6.63043 12.2527 6.56894 12.7647C6.51158 13.2426 6.5116 13.8393 6.51164 14.5319V19.0104H7.90699H12.093H13.4883V14.5319V14.4032C13.4882 13.7652 13.4848 13.2128 13.431 12.7647C13.3696 12.2527 13.2309 11.7617 12.8753 11.3636C12.5198 10.9654 12.0814 10.8101 11.6241 10.7412Z" fill="white"/>
<path fill-rule="evenodd" clip-rule="evenodd" d="M8.83728 6.77083C8.83728 6.05171 9.35783 5.46875 10.0001 5.46875C10.6423 5.46875 11.1629 6.05171 11.1629 6.77083C11.1629 7.49 10.6423 8.07292 10.0001 8.07292C9.35783 8.07292 8.83728 7.49 8.83728 6.77083Z" fill="#D3D3D3"/>
<path opacity="0.5" d="M10.046 10.6772C10.6644 10.6772 11.1973 10.6771 11.624 10.7414C12.0814 10.8103 12.5198 10.9656 12.8754 11.3637C13.2309 11.7619 13.3696 12.2528 13.4311 12.765C13.4849 13.2129 13.4882 13.7654 13.4884 14.4033V19.0106H6.51168V14.532C6.51165 13.8395 6.51162 13.2428 6.56899 12.765C6.63048 12.2528 6.76914 11.7619 7.12471 11.3637C7.48029 10.9656 7.91867 10.8103 8.37605 10.7414C8.80275 10.6771 9.33568 10.6772 9.95409 10.6772H10.046Z" fill="#D3D3D3"/>
<path opacity="0.5" d="M13.721 0H16.0466C16.3034 0 16.5117 0.233187 16.5117 0.520833V4.83286L13.2559 1.9162V0.520833C13.2559 0.233187 13.4641 0 13.721 0Z" fill="#D3D3D3"/>
</svg>
