<svg width="32" height="32" viewBox="0 0 32 32" fill="none" xmlns="http://www.w3.org/2000/svg">
<g clip-path="url(#clip0_100_206)">
<path d="M16 31.6201C7.385 31.6201 0.375 24.6101 0.375 15.9951C0.375 7.38012 7.385 0.370117 16 0.370117C24.615 0.370117 31.625 7.38012 31.625 15.9951C31.625 24.6101 24.615 31.6201 16 31.6201Z" fill="white"/>
<path d="M16 0.745117C24.409 0.745117 31.25 7.58612 31.25 15.9951C31.25 24.4041 24.409 31.2451 16 31.2451C7.591 31.2451 0.75 24.4041 0.75 15.9951C0.75 7.58612 7.591 0.745117 16 0.745117ZM16 -0.00488281C7.163 -0.00488281 0 7.15812 0 15.9951C0 24.8311 7.163 31.9951 16 31.9951C24.837 31.9951 32 24.8311 32 15.9951C32 7.15812 24.837 -0.00488281 16 -0.00488281Z" fill="#E5E5E5"/>
<path d="M22.057 7.92432H9.94301C8.80301 7.92432 7.92401 8.80332 7.92401 9.94332V22.0563C7.92401 23.1963 8.80301 24.0753 9.94301 24.0753H22.056C23.196 24.0753 24.075 23.1963 24.075 22.0563V9.94332C24.076 8.80332 23.196 7.92432 22.057 7.92432ZM16.012 12.8273C17.803 12.8273 19.255 14.2343 19.255 15.9693C19.255 17.7043 17.803 19.1113 16.012 19.1113C14.222 19.1113 12.77 17.7033 12.77 15.9693C12.77 14.2343 14.222 12.8273 16.012 12.8273ZM22.057 21.5523C22.057 21.9063 21.906 22.0573 21.552 22.0573H10.448C10.095 22.0573 9.94301 21.9063 9.94301 21.5523V14.4863L11.201 14.7603C11.066 15.1993 10.993 15.6633 10.993 16.1453C10.993 18.8293 13.241 21.0083 16.011 21.0083C18.783 21.0083 21.03 18.8303 21.03 16.1453C21.03 15.6633 20.957 15.1993 20.822 14.7603L22.056 14.4863L22.057 21.5523ZM22.057 12.4673C22.057 12.7463 21.831 12.9723 21.552 12.9723H19.533C19.254 12.9723 19.028 12.7463 19.028 12.4673V10.4483C19.028 10.1693 19.254 9.94332 19.533 9.94332H21.552C21.831 9.94332 22.057 10.1693 22.057 10.4483V12.4673Z" fill="#023047"/>
</g>
<defs>
<clipPath id="clip0_100_206">
<rect width="32" height="32" fill="white"/>
</clipPath>
</defs>
</svg>
