<svg width="65" height="64" viewBox="0 0 65 64" fill="none" xmlns="http://www.w3.org/2000/svg">
<g clip-path="url(#clip0_1_3624)">
<path d="M50.0498 27.0625L40.7998 17.875C40.8415 17.75 40.8727 17.625 40.8936 17.5C40.9144 17.375 40.9248 17.25 40.9248 17.125C40.9248 16.7083 40.8519 16.3125 40.7061 15.9375C40.5602 15.5625 40.3415 15.2292 40.0498 14.9375L39.0498 14C38.7581 13.7083 38.4352 13.5 38.0811 13.375C37.7269 13.25 37.3623 13.1875 36.9873 13.1875C36.6123 13.1875 36.2269 13.2604 35.8311 13.4062C35.4352 13.5521 35.0915 13.7708 34.7998 14.0625L11.9873 37.625C11.6956 37.9167 11.4873 38.2396 11.3623 38.5938C11.2373 38.9479 11.1748 39.3125 11.1748 39.6875C11.1748 40.0625 11.2477 40.4479 11.3936 40.8438C11.5394 41.2396 11.7581 41.5833 12.0498 41.875L13.0498 42.8125C13.3415 43.0625 13.6644 43.2604 14.0186 43.4062C14.3727 43.5521 14.7373 43.625 15.1123 43.625C15.4873 43.625 15.8623 43.5521 16.2373 43.4062C16.6123 43.2604 16.9456 43.0417 17.2373 42.75L23.4248 36.4375L32.0498 45.0625C32.3831 45.3958 32.7581 45.6458 33.1748 45.8125C33.5915 45.9792 34.0081 46.0625 34.4248 46.0625C34.8831 46.0625 35.3206 45.9792 35.7373 45.8125C36.154 45.6458 36.529 45.3958 36.8623 45.0625C37.154 44.7292 37.3831 44.3646 37.5498 43.9688C37.7165 43.5729 37.7998 43.1667 37.7998 42.75C38.2165 42.75 38.6331 42.6667 39.0498 42.5C39.4665 42.3333 39.8415 42.0833 40.1748 41.75C40.4665 41.4167 40.6956 41.0521 40.8623 40.6562C41.029 40.2604 41.1123 39.8542 41.1123 39.4375C41.529 39.4375 41.9456 39.3542 42.3623 39.1875C42.779 39.0208 43.1331 38.7708 43.4248 38.4375C43.7581 38.1042 44.0081 37.7396 44.1748 37.3438C44.3415 36.9479 44.4248 36.5417 44.4248 36.125C44.8415 36.125 45.2581 36.0417 45.6748 35.875C46.0915 35.7083 46.4456 35.4583 46.7373 35.125C47.0706 34.7917 47.3206 34.4271 47.4873 34.0312C47.654 33.6354 47.7373 33.2292 47.7373 32.8125C48.154 32.8125 48.5706 32.7292 48.9873 32.5625C49.404 32.3958 49.7581 32.1458 50.0498 31.8125C50.3831 31.4792 50.6331 31.1042 50.7998 30.6875C50.9665 30.2708 51.0498 29.8542 51.0498 29.4375C51.0498 29.0208 50.9665 28.5938 50.7998 28.1562C50.6331 27.7188 50.3831 27.3542 50.0498 27.0625ZM22.9248 35L22.6123 35.375L16.2998 41.8125C16.1331 41.9792 15.9456 42.1042 15.7373 42.1875C15.529 42.2708 15.3206 42.3125 15.1123 42.3125C14.904 42.3125 14.6956 42.2812 14.4873 42.2188C14.279 42.1562 14.0915 42.0417 13.9248 41.875L12.9873 40.9375C12.8206 40.7708 12.6852 40.5833 12.5811 40.375C12.4769 40.1667 12.4248 39.9583 12.4248 39.75C12.4248 39.5 12.4665 39.2812 12.5498 39.0938C12.6331 38.9062 12.7581 38.7292 12.9248 38.5625L35.7998 15C35.9665 14.8333 36.154 14.7083 36.3623 14.625C36.5706 14.5417 36.779 14.5 36.9873 14.5C37.1956 14.5 37.404 14.5312 37.6123 14.5938C37.8206 14.6562 38.0081 14.7708 38.1748 14.9375L39.1123 15.875C39.279 16.0417 39.404 16.2292 39.4873 16.4375C39.5706 16.6458 39.6123 16.8542 39.6123 17.0625C39.6123 17.1875 39.6019 17.3021 39.5811 17.4062C39.5602 17.5104 39.529 17.6042 39.4873 17.6875L22.9248 35ZM49.1123 30.9375C48.904 31.1458 48.6748 31.2917 48.4248 31.375C48.1748 31.4583 47.9248 31.5 47.6748 31.5C47.5915 31.5 47.4977 31.5 47.3936 31.5C47.2894 31.5 47.1956 31.4792 47.1123 31.4375L46.3623 31.25L46.1748 31.3125L46.1123 31.4375L46.2998 32.25C46.3415 32.3333 46.3727 32.4167 46.3936 32.5C46.4144 32.5833 46.4248 32.6875 46.4248 32.8125C46.4248 33.0625 46.3727 33.3125 46.2686 33.5625C46.1644 33.8125 46.0081 34.0417 45.7998 34.25C45.5915 34.4167 45.3623 34.5521 45.1123 34.6562C44.8623 34.7604 44.6123 34.8125 44.3623 34.8125C44.279 34.8125 44.1956 34.8021 44.1123 34.7812C44.029 34.7604 43.9456 34.75 43.8623 34.75L43.0498 34.5625H42.8623V34.75L43.0498 35.5625C43.0498 35.6458 43.0602 35.7292 43.0811 35.8125C43.1019 35.8958 43.1123 35.9792 43.1123 36.0625C43.1123 36.3542 43.0602 36.625 42.9561 36.875C42.8519 37.125 42.7165 37.3333 42.5498 37.5C42.3415 37.7083 42.1123 37.8646 41.8623 37.9688C41.6123 38.0729 41.3415 38.125 41.0498 38.125C40.9665 38.125 40.8831 38.1146 40.7998 38.0938C40.7165 38.0729 40.6331 38.0625 40.5498 38.0625L39.7373 37.8125L39.6123 37.875L39.5498 38.0625L39.7373 38.8125C39.779 38.9375 39.7998 39.0417 39.7998 39.125C39.7998 39.2083 39.7998 39.2917 39.7998 39.375C39.7998 39.625 39.7581 39.875 39.6748 40.125C39.5915 40.375 39.4456 40.6042 39.2373 40.8125C39.029 41.0208 38.7998 41.1667 38.5498 41.25C38.2998 41.3333 38.0498 41.375 37.7998 41.375C37.7165 41.375 37.6331 41.375 37.5498 41.375C37.4665 41.375 37.3623 41.3542 37.2373 41.3125L36.4873 41.125L36.2998 41.1875L36.2373 41.3125L36.4873 42.125C36.4873 42.2083 36.4977 42.2917 36.5186 42.375C36.5394 42.4583 36.5498 42.5625 36.5498 42.6875C36.5498 42.9375 36.4977 43.1875 36.3936 43.4375C36.2894 43.6875 36.1331 43.9167 35.9248 44.125C35.7165 44.2917 35.4873 44.4271 35.2373 44.5312C34.9873 44.6354 34.7373 44.6875 34.4873 44.6875C34.2373 44.6875 33.9873 44.6354 33.7373 44.5312C33.4873 44.4271 33.2581 44.2917 33.0498 44.125L24.3623 35.4375L40.1748 19.1875L40.2373 19.0625L49.1123 28C49.3206 28.2083 49.4769 28.4375 49.5811 28.6875C49.6852 28.9375 49.7373 29.1875 49.7373 29.4375C49.7373 29.7292 49.6852 30 49.5811 30.25C49.4769 30.5 49.3206 30.7083 49.1123 30.875V30.9375ZM32.6748 0C28.2581 0 24.1123 0.833332 20.2373 2.5C16.3206 4.16667 12.9144 6.44792 10.0186 9.34375C7.12272 12.2396 4.84147 15.6458 3.1748 19.5625C1.50814 23.4375 0.674805 27.5833 0.674805 32C0.674805 36.4167 1.50814 40.5625 3.1748 44.4375C4.84147 48.3542 7.12272 51.7604 10.0186 54.6562C12.9144 57.5521 16.3206 59.8333 20.2373 61.5C24.1123 63.1667 28.2581 64 32.6748 64C37.0915 64 41.2373 63.1667 45.1123 61.5C49.029 59.8333 52.4352 57.5521 55.3311 54.6562C58.2269 51.7604 60.5081 48.3542 62.1748 44.4375C63.8415 40.5625 64.6748 36.4167 64.6748 32C64.6748 27.5833 63.8415 23.4375 62.1748 19.5625C60.5081 15.6458 58.2269 12.2396 55.3311 9.34375C52.4352 6.44792 49.029 4.16667 45.1123 2.5C41.2373 0.833332 37.0915 0 32.6748 0ZM54.2998 53.625C52.9248 55 51.4248 56.25 49.7998 57.375C48.1331 58.4583 46.3936 59.3854 44.5811 60.1562C42.7686 60.9271 40.8623 61.5208 38.8623 61.9375C36.8623 62.3542 34.7998 62.5625 32.6748 62.5625C30.5498 62.5625 28.4873 62.3542 26.4873 61.9375C24.4873 61.5208 22.5811 60.9271 20.7686 60.1562C18.9561 59.3854 17.2165 58.4583 15.5498 57.375C13.9248 56.25 12.4248 55 11.0498 53.625C9.6748 52.25 8.4248 50.75 7.2998 49.125C6.21647 47.4583 5.28939 45.7188 4.51855 43.9062C3.74772 42.0938 3.15397 40.1875 2.7373 38.1875C2.32064 36.1875 2.1123 34.125 2.1123 32C2.1123 29.875 2.32064 27.8125 2.7373 25.8125C3.15397 23.8125 3.74772 21.9062 4.51855 20.0938C5.28939 18.2812 6.21647 16.5417 7.2998 14.875C8.4248 13.25 9.6748 11.75 11.0498 10.375C12.4248 9 13.9248 7.75 15.5498 6.625C17.2165 5.54167 18.9561 4.61458 20.7686 3.84375C22.5811 3.07292 24.4873 2.47917 26.4873 2.0625C28.4873 1.64583 30.5498 1.4375 32.6748 1.4375C34.7998 1.4375 36.8623 1.64583 38.8623 2.0625C40.8623 2.47917 42.7686 3.07292 44.5811 3.84375C46.3936 4.61458 48.1331 5.54167 49.7998 6.625C51.4248 7.75 52.9248 9 54.2998 10.375C55.6748 11.75 56.9248 13.25 58.0498 14.875C59.1331 16.5417 60.0602 18.2812 60.8311 20.0938C61.6019 21.9062 62.1956 23.8125 62.6123 25.8125C63.029 27.8125 63.2373 29.875 63.2373 32C63.2373 34.125 63.029 36.1875 62.6123 38.1875C62.1956 40.1875 61.6019 42.0938 60.8311 43.9062C60.0602 45.7188 59.1331 47.4583 58.0498 49.125C56.9248 50.75 55.6748 52.25 54.2998 53.625Z" fill="#009CDE"/>
</g>
<defs>
<clipPath id="clip0_1_3624">
<rect width="64" height="64" fill="white" transform="matrix(1 0 0 -1 0.674805 64)"/>
</clipPath>
</defs>
</svg>
