<svg width="16" height="25" viewBox="0 0 16 25" fill="none" xmlns="http://www.w3.org/2000/svg">
<g clip-path="url(#clip0_1_1961)">
<path d="M11.29 9.488C11.19 5.104 8.93005 1.664 6.21005 1.664H5.87005C3.16005 1.664 0.910049 5.104 0.800049 9.488V9.52C0.800049 11.072 1.12005 12.768 1.58005 14.48C2.96005 19.6 5.65005 24.896 5.66005 24.928C5.75005 25.12 5.89005 25.216 6.04005 25.216C6.19005 25.216 6.33005 25.104 6.42005 24.928C6.42005 24.928 7.63005 22.544 8.83005 19.456C9.43005 17.904 10.04 16.192 10.5 14.48C10.96 12.768 11.28 11.072 11.28 9.52V9.488H11.29ZM7.14005 20.72C6.73005 21.68 6.36005 22.496 6.09005 23.056C6.07005 23.088 6.06005 23.12 6.04005 23.152C5.51005 22.048 4.53005 19.888 3.64005 17.472C3.14005 16.096 2.66005 14.64 2.32005 13.264C1.98005 11.888 1.77005 10.576 1.77005 9.536C1.86005 6 3.68005 3.232 5.87005 3.232H6.20005C8.39005 3.232 10.21 6 10.3 9.536C10.3 10.736 10.03 12.272 9.60005 13.856C8.95005 16.256 7.96005 18.8 7.14005 20.72Z" fill="#0170A3"/>
<path d="M6.05001 6.8C4.92001 6.8 4.01001 8.256 4.01001 10.064C4.01001 11.872 4.92001 13.328 6.05001 13.328C7.18001 13.328 8.09001 11.872 8.09001 10.064C8.09001 8.256 7.18001 6.8 6.05001 6.8ZM7.11001 10.064C7.11001 10.992 6.64001 11.76 6.05001 11.76C5.47001 11.76 4.99001 11.008 4.99001 10.064C4.99001 9.136 5.46001 8.368 6.05001 8.368C6.63001 8.368 7.11001 9.12 7.11001 10.064Z" fill="#0170A3"/>
</g>
<defs>
<clipPath id="clip0_1_1961">
<rect width="15" height="24" fill="white" transform="translate(0.48999 0.800003)"/>
</clipPath>
</defs>
</svg>
