<svg width="22" height="25" viewBox="0 0 22 25" fill="none" xmlns="http://www.w3.org/2000/svg">
<path d="M21 10.375C21 17.6667 11 23.9167 11 23.9167C11 23.9167 1 17.6667 1 10.375C1 7.8886 2.05357 5.50403 3.92893 3.74587C5.8043 1.98772 8.34784 1 11 1C13.6522 1 16.1957 1.98772 18.0711 3.74587C19.9464 5.50403 21 7.8886 21 10.375Z" stroke="white" stroke-width="2" stroke-linecap="round" stroke-linejoin="round"/>
<path d="M10.9999 13.5C12.8408 13.5 14.3332 12.1009 14.3332 10.375C14.3332 8.64911 12.8408 7.25 10.9999 7.25C9.15894 7.25 7.66656 8.64911 7.66656 10.375C7.66656 12.1009 9.15894 13.5 10.9999 13.5Z" stroke="white" stroke-width="2" stroke-linecap="round" stroke-linejoin="round"/>
</svg>
