<svg width="23" height="22" viewBox="0 0 23 22" fill="none" xmlns="http://www.w3.org/2000/svg">
<path d="M22.4836 1.94166H0.816895V0.274994H22.4836V1.94166Z" fill="#004C74"/>
<path d="M22.4836 6.94166H0.816895V5.27499H22.4836V6.94166Z" fill="#004C74"/>
<path d="M22.4836 11.9417H0.816895V10.275H22.4836V11.9417Z" fill="#004C74"/>
<path d="M6.4834 21.3583V16.275H4.9834L3.7334 19.4416L2.4834 16.275H0.983398V21.3583H2.06673V17.6916L3.4834 21.3583H3.9834L5.40007 17.6916V21.3583H6.4834ZM11.2334 21.3583V20.4416H8.7334V19.275H11.2334V18.3583H8.7334V17.275H11.2334V16.3583H7.65006V21.4416H11.2334V21.3583ZM16.7334 21.3583V16.275H15.6501V19.6083L13.3167 16.275H12.2334V21.3583H13.3167V17.9416L15.7334 21.3583H16.7334ZM17.8167 19.3583C17.8167 20.6083 18.5667 21.525 20.1501 21.525C21.2334 21.6916 22.2334 20.9416 22.4001 19.8583V16.3583H21.3167V19.275C21.4001 19.8583 20.9834 20.4416 20.3167 20.4416H20.0667C19.4834 20.525 18.9001 20.025 18.9001 19.4416V16.1917H17.8167V19.3583Z" fill="#004C74"/>
</svg>
