<svg width="600" height="527" viewBox="0 0 600 527" fill="none" xmlns="http://www.w3.org/2000/svg">
<path d="M490.397 377.922H29.4363C18.3668 377.922 9.3949 370.041 9.3949 360.319V96.2681C9.3949 86.5453 18.3668 78.665 29.4363 78.665H490.397C501.466 78.665 510.438 86.5453 510.438 96.2681V360.318C510.438 370.04 501.466 377.922 490.397 377.922Z" fill="#FFDC64"/>
<path d="M159.708 210.69H79.541C74.0074 210.69 69.5203 206.749 69.5203 201.889V149.078C69.5203 144.218 74.0074 140.277 79.541 140.277H159.708C165.241 140.277 169.729 144.218 169.729 149.078V201.889C169.729 206.749 165.241 210.69 159.708 210.69Z" fill="#FFC850"/>
<path d="M470.355 210.69C387.341 210.69 320.043 269.799 320.043 342.715C320.043 354.927 322.08 366.697 325.613 377.922H490.397C501.465 377.922 510.438 370.04 510.438 360.319V215.584C497.66 212.48 484.259 210.69 470.355 210.69Z" fill="#FFC850"/>
<path d="M345.094 210.69C369.998 210.69 390.187 192.957 390.187 171.082C390.187 149.208 369.998 131.475 345.094 131.475C320.189 131.475 300 149.208 300 171.082C300 192.957 320.189 210.69 345.094 210.69Z" fill="#FF507D"/>
<path d="M405.219 210.69C430.124 210.69 450.313 192.957 450.313 171.082C450.313 149.208 430.124 131.475 405.219 131.475C380.315 131.475 360.125 149.208 360.125 171.082C360.125 192.957 380.315 210.69 405.219 210.69Z" fill="#FFC850"/>
<path d="M360.125 171.083C360.125 182.767 365.994 193.162 375.157 200.41C384.32 193.161 390.189 182.766 390.189 171.083C390.189 159.398 384.32 149.003 375.157 141.755C365.994 149.003 360.125 159.398 360.125 171.083Z" fill="#FF8C66"/>
<path d="M470.355 448.335C536.768 448.335 590.606 401.047 590.606 342.715C590.606 284.382 536.768 237.094 470.355 237.094C403.943 237.094 350.105 284.382 350.105 342.715C350.105 401.047 403.943 448.335 470.355 448.335Z" fill="#B4E66E"/>
<path d="M530.48 427.211C464.067 427.211 410.229 379.923 410.229 321.591C410.229 287.345 428.868 256.996 457.63 237.698C397.203 243.283 350.104 288.159 350.104 342.715C350.104 401.047 403.942 448.335 470.354 448.335C497.777 448.335 522.973 440.181 543.204 426.609C539.02 426.996 534.779 427.211 530.48 427.211Z" fill="#A0D755"/>
<path d="M320.041 369.67H29.4363C23.5652 369.67 18.7887 365.474 18.7887 360.318V96.268C18.7887 91.1112 23.5652 86.9158 29.4363 86.9158H490.397C496.268 86.9158 501.044 91.1112 501.044 96.268V210.692C501.044 215.249 505.25 218.944 510.439 218.944C515.627 218.944 519.834 215.25 519.834 210.692V96.268C519.834 82.0112 506.63 70.4131 490.398 70.4131H29.4363C13.2047 70.4131 0 82.0112 0 96.268V360.318C0 374.574 13.2047 386.173 29.4363 386.173H320.041C325.229 386.173 329.436 382.478 329.436 377.921C329.436 373.365 325.23 369.67 320.041 369.67Z" fill="black"/>
<path d="M470.355 228.844C398.869 228.844 340.711 279.927 340.711 342.715C340.711 405.503 398.87 456.586 470.355 456.586C541.841 456.586 600 405.504 600 342.715C600 279.926 541.841 228.844 470.355 228.844ZM470.355 440.083C409.229 440.083 359.5 396.404 359.5 342.715C359.5 289.026 409.229 245.346 470.355 245.346C531.482 245.346 581.211 289.026 581.211 342.715C581.211 396.404 531.48 440.083 470.355 440.083Z" fill="black"/>
<path d="M79.541 218.942H159.708C170.414 218.942 179.123 211.292 179.123 201.888V149.078C179.123 139.675 170.414 132.025 159.708 132.025H79.541C68.8347 132.025 60.1254 139.675 60.1254 149.078V201.888C60.1254 211.292 68.8347 218.942 79.541 218.942ZM160.334 149.078V201.888C160.334 202.192 160.053 202.438 159.708 202.438H118.998V183.735H129.646C134.834 183.735 139.041 180.041 139.041 175.483C139.041 170.925 134.835 167.231 129.646 167.231H118.998V148.528H159.708C160.053 148.529 160.334 148.775 160.334 149.078ZM78.914 149.078C78.914 148.775 79.1941 148.529 79.5398 148.529H100.208V202.439H79.541C79.1953 202.439 78.9152 202.193 78.9152 201.889V149.078H78.914Z" fill="black"/>
<path d="M375.182 131.179C366.309 126.015 355.859 123.223 345.094 123.223C315.049 123.223 290.605 144.692 290.605 171.082C290.605 197.472 315.048 218.942 345.094 218.942C356.191 218.942 366.52 216.005 375.142 210.98C384.015 216.14 394.477 218.942 405.219 218.942C435.264 218.942 459.708 197.472 459.708 171.082C459.708 144.692 435.265 123.223 405.219 123.223C394.125 123.223 383.8 126.158 375.182 131.179ZM309.395 171.082C309.395 153.792 325.41 139.727 345.094 139.727C350.697 139.727 356.166 140.887 361.092 143.056C354.582 150.94 350.73 160.621 350.73 171.082C350.73 181.257 354.416 191.028 361.071 199.11C356.259 201.235 350.835 202.438 345.094 202.438C325.41 202.438 309.395 188.372 309.395 171.082ZM440.919 171.082C440.919 188.372 424.904 202.438 405.22 202.438C399.627 202.438 394.153 201.276 389.224 199.106C395.733 191.222 399.584 181.542 399.584 171.081C399.584 166.525 395.378 162.829 390.189 162.829C385.001 162.829 380.794 166.524 380.794 171.081C380.794 177.295 378.717 183.089 375.152 187.966C371.517 182.975 369.52 177.138 369.52 171.081C369.52 153.791 385.535 139.726 405.219 139.726C424.904 139.726 440.919 153.792 440.919 171.082Z" fill="black"/>
<path d="M69.5203 280.554H149.687C154.875 280.554 159.082 276.859 159.082 272.302C159.082 267.745 154.876 264.05 149.687 264.05H69.5203C64.3324 264.05 60.1254 267.744 60.1254 272.302C60.1254 276.859 64.3312 280.554 69.5203 280.554Z" fill="black"/>
<path d="M69.5203 333.364H310.022C315.21 333.364 319.417 329.669 319.417 325.112C319.417 320.555 315.211 316.86 310.022 316.86H69.5203C64.3324 316.86 60.1254 320.554 60.1254 325.112C60.1254 329.668 64.3312 333.364 69.5203 333.364Z" fill="black"/>
<path d="M269.938 280.554C275.126 280.554 279.333 276.859 279.333 272.302C279.333 267.745 275.127 264.05 269.938 264.05H189.771C184.583 264.05 180.376 267.744 180.376 272.302C180.376 276.858 184.582 280.554 189.771 280.554H269.938Z" fill="black"/>
<path d="M330.062 264.05H310.021C304.833 264.05 300.626 267.744 300.626 272.302C300.626 276.858 304.832 280.554 310.021 280.554H330.062C335.25 280.554 339.457 276.859 339.457 272.302C339.457 267.745 335.251 264.05 330.062 264.05Z" fill="black"/>
<path d="M547.144 301.673C543.475 298.451 537.526 298.451 533.858 301.673L450.313 375.053L406.852 336.879C403.182 333.657 397.234 333.657 393.566 336.879C389.897 340.102 389.897 345.326 393.566 348.549L443.671 392.557C445.505 394.169 447.909 394.974 450.313 394.974C452.716 394.974 455.121 394.169 456.955 392.557L547.143 313.343C550.813 310.12 550.813 304.896 547.144 301.673Z" fill="black"/>
</svg>
