<svg width="65" height="64" viewBox="0 0 65 64" fill="none" xmlns="http://www.w3.org/2000/svg">
<g clip-path="url(#clip0_1_137)">
<path d="M32.5 0C28.0833 0 23.9375 0.833333 20.0625 2.5C16.1458 4.16667 12.7396 6.44792 9.84375 9.34375C6.94792 12.2396 4.66667 15.6458 3 19.5625C1.33333 23.4375 0.5 27.5833 0.5 32C0.5 36.4167 1.33333 40.5625 3 44.4375C4.66667 48.3542 6.94792 51.7604 9.84375 54.6562C12.7396 57.5521 16.1458 59.8333 20.0625 61.5C23.9375 63.1667 28.0833 64 32.5 64C36.9167 64 41.0625 63.1667 44.9375 61.5C48.8542 59.8333 52.2604 57.5521 55.1562 54.6562C58.0521 51.7604 60.3333 48.3542 62 44.4375C63.6667 40.5625 64.5 36.4167 64.5 32C64.5 27.5833 63.6667 23.4375 62 19.5625C60.3333 15.6458 58.0521 12.2396 55.1562 9.34375C52.2604 6.44792 48.8542 4.16667 44.9375 2.5C41.0625 0.833333 36.9167 0 32.5 0ZM54.125 53.625C52.75 55 51.25 56.25 49.625 57.375C47.9583 58.4583 46.2188 59.3854 44.4062 60.1562C42.5938 60.9271 40.6875 61.5208 38.6875 61.9375C36.6875 62.3542 34.625 62.5625 32.5 62.5625C30.375 62.5625 28.3125 62.3542 26.3125 61.9375C24.3125 61.5208 22.4062 60.9271 20.5938 60.1562C18.7812 59.3854 17.0417 58.4583 15.375 57.375C13.75 56.25 12.25 55 10.875 53.625C9.5 52.25 8.25 50.75 7.125 49.125C6.04167 47.4583 5.11458 45.7188 4.34375 43.9062C3.57292 42.0938 2.97917 40.1875 2.5625 38.1875C2.14583 36.1875 1.9375 34.125 1.9375 32C1.9375 29.875 2.14583 27.8125 2.5625 25.8125C2.97917 23.8125 3.57292 21.9062 4.34375 20.0938C5.11458 18.2812 6.04167 16.5417 7.125 14.875C8.25 13.25 9.5 11.75 10.875 10.375C12.25 9 13.75 7.75 15.375 6.625C17.0417 5.54167 18.7812 4.61458 20.5938 3.84375C22.4062 3.07292 24.3125 2.47917 26.3125 2.0625C28.3125 1.64583 30.375 1.4375 32.5 1.4375C34.625 1.4375 36.6875 1.64583 38.6875 2.0625C40.6875 2.47917 42.5938 3.07292 44.4062 3.84375C46.2188 4.61458 47.9583 5.54167 49.625 6.625C51.25 7.75 52.75 9 54.125 10.375C55.5 11.75 56.75 13.25 57.875 14.875C58.9583 16.5417 59.8854 18.2812 60.6562 20.0938C61.4271 21.9062 62.0208 23.8125 62.4375 25.8125C62.8542 27.8125 63.0625 29.875 63.0625 32C63.0625 34.125 62.8542 36.1875 62.4375 38.1875C62.0208 40.1875 61.4271 42.0938 60.6562 43.9062C59.8854 45.7188 58.9583 47.4583 57.875 49.125C56.75 50.75 55.5 52.25 54.125 53.625ZM45.375 21.125C45.5833 21.2083 45.7917 21.2083 46 21.125C46.2083 21.0417 46.3542 20.8958 46.4375 20.6875C46.5625 20.3542 46.8229 19.6979 47.2188 18.7188C47.6146 17.7396 47.8958 17.1042 48.0625 16.8125C48.1458 16.6042 48.1354 16.3958 48.0312 16.1875C47.9271 15.9792 47.7917 15.8333 47.625 15.75C47.4167 15.6667 47.2083 15.6667 47 15.75C46.7917 15.8333 46.6458 15.9792 46.5625 16.1875C46.4375 16.4792 46.1667 17.1146 45.75 18.0938C45.3333 19.0729 45.0625 19.7292 44.9375 20.0625C44.8542 20.2708 44.8542 20.4792 44.9375 20.6875C45.0208 20.8958 45.1667 21.0417 45.375 21.125ZM39.8125 19.3125C39.8125 19.4792 39.8229 19.6146 39.8438 19.7188C39.8646 19.8229 39.875 19.9375 39.875 20.0625C39.875 20.1458 39.875 20.2292 39.875 20.3125C39.875 20.3958 39.8958 20.4583 39.9375 20.5C39.9375 20.7083 40.0312 20.8854 40.2188 21.0312C40.4062 21.1771 40.6042 21.2292 40.8125 21.1875C41.0208 21.1458 41.1979 21.0417 41.3438 20.875C41.4896 20.7083 41.5417 20.5208 41.5 20.3125C41.5 20.2708 41.5 20.2188 41.5 20.1562C41.5 20.0938 41.5 20 41.5 19.875C41.4583 19.5417 41.4167 19.1042 41.375 18.5625C41.3333 18.0208 41.2917 17.4583 41.25 16.875C41.2083 16.2917 41.1667 15.7396 41.125 15.2188C41.0833 14.6979 41.0625 14.3125 41.0625 14.0625C41.0208 13.8542 40.9167 13.6771 40.75 13.5312C40.5833 13.3854 40.3958 13.3333 40.1875 13.375C39.9375 13.375 39.7396 13.4583 39.5938 13.625C39.4479 13.7917 39.3958 14 39.4375 14.25C39.4375 14.5 39.4688 14.9271 39.5312 15.5312C39.5938 16.1354 39.6458 16.7917 39.6875 17.5C39.6875 17.8333 39.6979 18.1562 39.7188 18.4688C39.7396 18.7812 39.7708 19.0625 39.8125 19.3125ZM33.3125 18.5C33.7708 19.2083 34.25 19.9167 34.75 20.625C35.25 21.3333 35.6667 21.9583 36 22.5C36.125 22.7083 36.2917 22.8333 36.5 22.875C36.7083 22.9167 36.9167 22.875 37.125 22.75C37.3333 22.6667 37.4583 22.5104 37.5 22.2812C37.5417 22.0521 37.5 21.8542 37.375 21.6875C37 21.1042 36.5729 20.4583 36.0938 19.75C35.6146 19.0417 35.1458 18.3333 34.6875 17.625C34.5625 17.4167 34.3854 17.2917 34.1562 17.25C33.9271 17.2083 33.7292 17.25 33.5625 17.375C33.3542 17.5 33.2292 17.6667 33.1875 17.875C33.1458 18.0833 33.1875 18.2917 33.3125 18.5ZM52.375 23.9375C51.7083 23.8125 51.0417 23.7188 50.375 23.6562C49.7083 23.5938 49.0417 23.5625 48.375 23.5625C46.9167 23.5625 45.4792 23.7083 44.0625 24C42.6458 24.2917 41.2708 24.7292 39.9375 25.3125C39.3125 25.5625 38.6979 25.8438 38.0938 26.1562C37.4896 26.4688 36.9167 26.7708 36.375 27.0625C35.7917 27.3125 35.2083 27.5417 34.625 27.75C34.0417 27.9583 33.4583 28.1042 32.875 28.1875C32.625 28.2292 32.3438 28.2604 32.0312 28.2812C31.7188 28.3021 31.3958 28.3333 31.0625 28.375C31.3542 27.7083 31.6042 27.0312 31.8125 26.3438C32.0208 25.6562 32.1667 24.9375 32.25 24.1875C32.2917 24.0208 32.3125 23.8438 32.3125 23.6562C32.3125 23.4688 32.3125 23.2917 32.3125 23.125C32.3125 22.4167 32.2292 21.7188 32.0625 21.0312C31.8958 20.3438 31.6042 19.7083 31.1875 19.125C30.9792 18.7917 30.7292 18.4896 30.4375 18.2188C30.1458 17.9479 29.8333 17.7292 29.5 17.5625C29.125 17.3542 28.75 17.1979 28.375 17.0938C28 16.9896 27.6042 16.9375 27.1875 16.9375C27.0625 16.9375 26.9271 16.9375 26.7812 16.9375C26.6354 16.9375 26.5 16.9583 26.375 17C25.875 17.125 25.4167 17.2917 25 17.5C24.5833 17.7083 24.2083 17.9167 23.875 18.125C23.6667 18.25 23.4792 18.3542 23.3125 18.4375C23.1458 18.5208 23 18.5833 22.875 18.625C22.7083 18.7083 22.5521 18.7604 22.4062 18.7812C22.2604 18.8021 22.125 18.8125 22 18.8125H21.875C21.7083 18.8125 21.5417 18.7917 21.375 18.75C21.2083 18.7083 21.0417 18.6458 20.875 18.5625C20.5833 18.4375 20.2917 18.3021 20 18.1562C19.7083 18.0104 19.4167 17.8542 19.125 17.6875C18.7917 17.5208 18.4479 17.375 18.0938 17.25C17.7396 17.125 17.3542 17.0625 16.9375 17.0625C16.8958 17.0625 16.8542 17.0625 16.8125 17.0625C16.7708 17.0625 16.7292 17.0625 16.6875 17.0625C16.1875 17.0625 15.7083 17.1458 15.25 17.3125C14.7917 17.4792 14.375 17.7083 14 18C13.625 18.2917 13.2917 18.625 13 19C12.7083 19.375 12.4583 19.7708 12.25 20.1875C12.0833 20.6458 11.9583 21.1146 11.875 21.5938C11.7917 22.0729 11.75 22.5417 11.75 23C11.75 23.4583 11.7812 23.9062 11.8438 24.3438C11.9062 24.7812 12 25.2083 12.125 25.625C12.2083 25.9583 12.3021 26.2917 12.4062 26.625C12.5104 26.9583 12.625 27.2708 12.75 27.5625C12.375 27.4792 12.0104 27.4167 11.6562 27.375C11.3021 27.3333 10.9375 27.3125 10.5625 27.3125C10.3542 27.3125 10.1458 27.3125 9.9375 27.3125C9.72917 27.3125 9.52083 27.3333 9.3125 27.375C9.10417 27.4167 8.9375 27.5312 8.8125 27.7188C8.6875 27.9062 8.64583 28.1042 8.6875 28.3125C8.72917 28.5208 8.83333 28.6875 9 28.8125C9.16667 28.9375 9.35417 29 9.5625 29C9.72917 28.9583 9.89583 28.9271 10.0625 28.9062C10.2292 28.8854 10.3958 28.875 10.5625 28.875C11.0625 28.875 11.5625 28.9375 12.0625 29.0625C12.5625 29.1875 13.0417 29.3542 13.5 29.5625C13.5417 29.7292 13.5938 29.875 13.6562 30C13.7188 30.125 13.7708 30.2708 13.8125 30.4375C14.1875 31.4375 14.4896 32.4688 14.7188 33.5312C14.9479 34.5938 15.1458 35.6667 15.3125 36.75C15.3542 37 15.3854 37.2396 15.4062 37.4688C15.4271 37.6979 15.4792 37.9375 15.5625 38.1875C15.6042 38.4375 15.6875 38.6875 15.8125 38.9375C15.9375 39.1875 16.0833 39.4167 16.25 39.625C16.375 39.7917 16.5104 39.9375 16.6562 40.0625C16.8021 40.1875 16.9792 40.3125 17.1875 40.4375C17.3542 40.5208 17.5417 40.5833 17.75 40.625C17.9583 40.6667 18.1667 40.6875 18.375 40.6875C18.5833 40.6875 18.8125 40.6458 19.0625 40.5625C19.3125 40.4792 19.5208 40.3542 19.6875 40.1875C19.8958 40.0208 20.0521 39.8438 20.1562 39.6562C20.2604 39.4688 20.3333 39.2917 20.375 39.125C20.4167 38.9167 20.4479 38.7292 20.4688 38.5625C20.4896 38.3958 20.5 38.2292 20.5 38.0625C20.5 37.8958 20.5 37.75 20.5 37.625C20.5 37.5 20.4792 37.375 20.4375 37.25C20.4375 37.2083 20.4375 37.1562 20.4375 37.0938C20.4375 37.0312 20.4375 36.9792 20.4375 36.9375C20.4375 36.3542 20.5104 35.7604 20.6562 35.1562C20.8021 34.5521 21 34 21.25 33.5C21.2917 33.3333 21.3542 33.1875 21.4375 33.0625C21.5208 32.9375 21.6042 32.8333 21.6875 32.75C21.7292 32.7083 21.7708 32.6771 21.8125 32.6562C21.8542 32.6354 21.8958 32.6042 21.9375 32.5625C21.9792 32.5625 22.0104 32.5625 22.0312 32.5625C22.0521 32.5625 22.0625 32.5625 22.0625 32.5625H22.125C22.125 32.5625 22.1354 32.5729 22.1562 32.5938C22.1771 32.6146 22.1875 32.625 22.1875 32.625C22.2292 32.625 22.2708 32.6458 22.3125 32.6875C22.3542 32.7292 22.3958 32.7917 22.4375 32.875C22.4792 32.9167 22.5208 32.9792 22.5625 33.0625C22.6042 33.1458 22.6458 33.2292 22.6875 33.3125C22.9375 33.8958 23.1354 34.5104 23.2812 35.1562C23.4271 35.8021 23.5 36.4375 23.5 37.0625V37.125C23.5 37.25 23.4896 37.3646 23.4688 37.4688C23.4479 37.5729 23.4375 37.6875 23.4375 37.8125C23.4375 37.9792 23.4479 38.1667 23.4688 38.375C23.4896 38.5833 23.5208 38.7917 23.5625 39C23.6042 39.1667 23.6667 39.3438 23.75 39.5312C23.8333 39.7188 23.9583 39.8958 24.125 40.0625C24.25 40.1875 24.3958 40.3229 24.5625 40.4688C24.7292 40.6146 24.9375 40.7083 25.1875 40.75C25.2708 40.7917 25.3542 40.8125 25.4375 40.8125C25.5208 40.8125 25.6042 40.8125 25.6875 40.8125C25.8542 40.8125 26.0104 40.7917 26.1562 40.75C26.3021 40.7083 26.4375 40.6667 26.5625 40.625C26.7292 40.5417 26.8958 40.4271 27.0625 40.2812C27.2292 40.1354 27.375 40 27.5 39.875C27.625 39.7083 27.7396 39.5521 27.8438 39.4062C27.9479 39.2604 28.0417 39.1042 28.125 38.9375C28.3333 38.4375 28.4896 37.9375 28.5938 37.4375C28.6979 36.9375 28.7917 36.4375 28.875 35.9375C28.9583 35.4375 29.0312 34.9583 29.0938 34.5C29.1562 34.0417 29.2292 33.6042 29.3125 33.1875C29.4375 32.6458 29.5833 32.125 29.75 31.625C29.9167 31.125 30.1042 30.625 30.3125 30.125C30.3958 30.125 30.4688 30.1146 30.5312 30.0938C30.5938 30.0729 30.6667 30.0625 30.75 30.0625C31.0833 29.9792 31.4479 29.9271 31.8438 29.9062C32.2396 29.8854 32.6667 29.8333 33.125 29.75C33.8333 29.6667 34.5104 29.5104 35.1562 29.2812C35.8021 29.0521 36.4375 28.7917 37.0625 28.5C37.6458 28.2083 38.2292 27.9062 38.8125 27.5938C39.3958 27.2812 39.9792 27 40.5625 26.75C41.7708 26.2083 43.0417 25.8021 44.375 25.5312C45.7083 25.2604 47.0417 25.125 48.375 25.125C49 25.125 49.625 25.1562 50.25 25.2188C50.875 25.2812 51.4792 25.375 52.0625 25.5C52.2708 25.5417 52.4688 25.5 52.6562 25.375C52.8438 25.25 52.9583 25.0833 53 24.875C53.0417 24.6667 53 24.4688 52.875 24.2812C52.75 24.0938 52.5833 23.9792 52.375 23.9375ZM30.6875 24C30.6042 24.7083 30.4375 25.4167 30.1875 26.125C29.9375 26.8333 29.6667 27.5417 29.375 28.25C29.0833 29 28.7917 29.75 28.5 30.5C28.2083 31.25 27.9583 32.0208 27.75 32.8125C27.6667 33.3125 27.5938 33.8021 27.5312 34.2812C27.4688 34.7604 27.3958 35.25 27.3125 35.75C27.2292 36.2083 27.1354 36.6458 27.0312 37.0625C26.9271 37.4792 26.7917 37.875 26.625 38.25C26.5833 38.375 26.5104 38.5104 26.4062 38.6562C26.3021 38.8021 26.2083 38.9167 26.125 39C26.0833 39.0417 26.0417 39.0729 26 39.0938C25.9583 39.1146 25.9167 39.1458 25.875 39.1875C25.8333 39.1875 25.7917 39.1979 25.75 39.2188C25.7083 39.2396 25.6875 39.25 25.6875 39.25L25.625 39.1875C25.5833 39.1875 25.5417 39.1771 25.5 39.1562C25.4583 39.1354 25.4167 39.1042 25.375 39.0625C25.3333 38.9792 25.2917 38.9062 25.25 38.8438C25.2083 38.7812 25.1667 38.7083 25.125 38.625C25.125 38.5 25.1146 38.375 25.0938 38.25C25.0729 38.125 25.0625 37.9792 25.0625 37.8125C25.0625 37.7292 25.0625 37.625 25.0625 37.5C25.0625 37.375 25.0625 37.25 25.0625 37.125C25.0625 36.3333 24.9896 35.5625 24.8438 34.8125C24.6979 34.0625 24.4792 33.3542 24.1875 32.6875C24.1042 32.5208 24.0208 32.3542 23.9375 32.1875C23.8542 32.0208 23.75 31.8542 23.625 31.6875C23.5417 31.6458 23.4583 31.5833 23.375 31.5C23.2917 31.4167 23.2083 31.3333 23.125 31.25C23.0417 31.2083 22.9479 31.1562 22.8438 31.0938C22.7396 31.0312 22.625 31 22.5 31C22.4167 30.9583 22.3438 30.9375 22.2812 30.9375C22.2188 30.9375 22.1458 30.9375 22.0625 30.9375C21.8958 30.9375 21.75 30.9583 21.625 31C21.5 31.0417 21.375 31.0833 21.25 31.125C21.0417 31.25 20.8646 31.375 20.7188 31.5C20.5729 31.625 20.4375 31.75 20.3125 31.875C20.1875 32.0417 20.0833 32.1979 20 32.3438C19.9167 32.4896 19.8333 32.6458 19.75 32.8125C19.4583 33.4375 19.2396 34.1042 19.0938 34.8125C18.9479 35.5208 18.875 36.2292 18.875 36.9375C18.875 37.0208 18.875 37.0938 18.875 37.1562C18.875 37.2188 18.875 37.2708 18.875 37.3125C18.875 37.4375 18.875 37.5625 18.875 37.6875C18.875 37.8125 18.875 37.9375 18.875 38.0625C18.875 38.1875 18.875 38.3021 18.875 38.4062C18.875 38.5104 18.8542 38.6042 18.8125 38.6875C18.8125 38.7708 18.7917 38.8333 18.75 38.875C18.7083 38.9167 18.6667 38.9583 18.625 39C18.625 39.0417 18.6042 39.0625 18.5625 39.0625C18.5208 39.0625 18.4583 39.0833 18.375 39.125C18.2917 39.125 18.2188 39.1146 18.1562 39.0938C18.0938 39.0729 18.0208 39.0417 17.9375 39C17.8542 38.9583 17.7812 38.9062 17.7188 38.8438C17.6562 38.7812 17.5833 38.7292 17.5 38.6875C17.4167 38.5625 17.3438 38.4271 17.2812 38.2812C17.2188 38.1354 17.1667 37.9583 17.125 37.75C17.0833 37.5833 17.0417 37.3958 17 37.1875C16.9583 36.9792 16.9375 36.7708 16.9375 36.5625C16.7708 35.4375 16.5625 34.3125 16.3125 33.1875C16.0625 32.0625 15.7292 30.9583 15.3125 29.875C15.0625 29.0833 14.7812 28.3021 14.4688 27.5312C14.1562 26.7604 13.8958 26 13.6875 25.25C13.6042 24.875 13.5312 24.5 13.4688 24.125C13.4062 23.75 13.375 23.375 13.375 23C13.375 22.5833 13.4062 22.1979 13.4688 21.8438C13.5312 21.4896 13.625 21.1458 13.75 20.8125C13.9167 20.5208 14.1042 20.2396 14.3125 19.9688C14.5208 19.6979 14.75 19.4583 15 19.25C15.25 19.0417 15.5208 18.8854 15.8125 18.7812C16.1042 18.6771 16.3958 18.625 16.6875 18.625C16.7292 18.625 16.7604 18.625 16.7812 18.625C16.8021 18.625 16.8125 18.625 16.8125 18.625C16.9792 18.6667 17.1562 18.7083 17.3438 18.75C17.5312 18.7917 17.7083 18.8333 17.875 18.875C18.125 19 18.3958 19.1354 18.6875 19.2812C18.9792 19.4271 19.2917 19.5833 19.625 19.75C19.9167 19.9167 20.2396 20.0625 20.5938 20.1875C20.9479 20.3125 21.3333 20.3958 21.75 20.4375C21.7917 20.4375 21.8333 20.4375 21.875 20.4375C21.9167 20.4375 21.9583 20.4375 22 20.4375C22.2917 20.4375 22.5521 20.4062 22.7812 20.3438C23.0104 20.2812 23.2292 20.2083 23.4375 20.125C23.7708 20 24.0833 19.8542 24.375 19.6875C24.6667 19.5208 24.9375 19.375 25.1875 19.25C25.4792 19.0833 25.75 18.9375 26 18.8125C26.25 18.6875 26.4792 18.6042 26.6875 18.5625C26.7708 18.5625 26.8542 18.5521 26.9375 18.5312C27.0208 18.5104 27.1042 18.5 27.1875 18.5C27.4375 18.5 27.6875 18.5417 27.9375 18.625C28.1875 18.7083 28.4375 18.8125 28.6875 18.9375C28.9375 19.0625 29.1667 19.2188 29.375 19.4062C29.5833 19.5938 29.75 19.8125 29.875 20.0625C30.1667 20.4792 30.3854 20.9479 30.5312 21.4688C30.6771 21.9896 30.75 22.5417 30.75 23.125C30.75 23.25 30.7396 23.3854 30.7188 23.5312C30.6979 23.6771 30.6875 23.8333 30.6875 24ZM15.125 23.125C15.3333 23.1667 15.5312 23.125 15.7188 23C15.9062 22.875 16.0208 22.6875 16.0625 22.4375C16.1042 22.2708 16.1667 22.1042 16.25 21.9375C16.3333 21.7708 16.4583 21.6042 16.625 21.4375C16.75 21.3125 16.8229 21.1354 16.8438 20.9062C16.8646 20.6771 16.7917 20.4792 16.625 20.3125C16.4583 20.1458 16.2604 20.0625 16.0312 20.0625C15.8021 20.0625 15.625 20.1458 15.5 20.3125C15.2083 20.5625 14.9792 20.8438 14.8125 21.1562C14.6458 21.4688 14.5417 21.8125 14.5 22.1875C14.4583 22.3958 14.5 22.5938 14.625 22.7812C14.75 22.9688 14.9167 23.0833 15.125 23.125ZM51.625 34.625C51.625 34.2917 51.6146 33.9792 51.5938 33.6875C51.5729 33.3958 51.5208 33.1042 51.4375 32.8125C51.3125 31.9375 51.0625 31.0938 50.6875 30.2812C50.3125 29.4688 49.7917 28.7708 49.125 28.1875C48.6667 27.8125 48.1458 27.5208 47.5625 27.3125C46.9792 27.1042 46.3958 27 45.8125 27C45.4792 27 45.1458 27.0312 44.8125 27.0938C44.4792 27.1562 44.1667 27.2708 43.875 27.4375C43.375 27.6875 42.9583 27.9792 42.625 28.3125C42.2917 28.6458 41.9792 28.9583 41.6875 29.25C41.5208 29.4167 41.375 29.5625 41.25 29.6875C41.125 29.8125 40.9792 29.9167 40.8125 30C40.6875 30.0833 40.5625 30.1562 40.4375 30.2188C40.3125 30.2812 40.1667 30.3333 40 30.375C39.9167 30.4167 39.8333 30.4375 39.75 30.4375C39.6667 30.4375 39.5833 30.4375 39.5 30.4375C39.2083 30.4375 38.9271 30.4167 38.6562 30.375C38.3854 30.3333 38.0833 30.2708 37.75 30.1875C37.4583 30.1042 37.1354 30.0312 36.7812 29.9688C36.4271 29.9062 36.0625 29.875 35.6875 29.875C35.5625 29.875 35.4167 29.8854 35.25 29.9062C35.0833 29.9271 34.9167 29.9583 34.75 30C34.25 30.0833 33.7917 30.2708 33.375 30.5625C32.9583 30.8542 32.6042 31.1875 32.3125 31.5625C31.9792 31.9375 31.7188 32.3646 31.5312 32.8438C31.3438 33.3229 31.2083 33.7917 31.125 34.25C31.125 34.4167 31.1146 34.5625 31.0938 34.6875C31.0729 34.8125 31.0625 34.9583 31.0625 35.125C31.0625 35.9167 31.1979 36.6875 31.4688 37.4375C31.7396 38.1875 32.0625 38.8958 32.4375 39.5625C32.8542 40.3125 33.3229 41.0208 33.8438 41.6875C34.3646 42.3542 34.8542 43.0208 35.3125 43.6875C35.9375 44.6042 36.5104 45.5417 37.0312 46.5C37.5521 47.4583 38.0208 48.4375 38.4375 49.4375C38.5625 49.6458 38.6667 49.8542 38.75 50.0625C38.8333 50.2708 38.9375 50.5 39.0625 50.75C39.1875 50.9583 39.3438 51.1667 39.5312 51.375C39.7188 51.5833 39.9167 51.7708 40.125 51.9375C40.375 52.1458 40.6458 52.2917 40.9375 52.375C41.2292 52.4583 41.5208 52.5 41.8125 52.5C41.9792 52.5 42.1458 52.4792 42.3125 52.4375C42.4792 52.3958 42.6458 52.3542 42.8125 52.3125C42.9792 52.2292 43.1354 52.125 43.2812 52C43.4271 51.875 43.5417 51.7292 43.625 51.5625C43.75 51.3542 43.8438 51.1458 43.9062 50.9375C43.9688 50.7292 43.9792 50.5417 43.9375 50.375C43.9375 50.1667 43.9271 49.9792 43.9062 49.8125C43.8854 49.6458 43.8542 49.5 43.8125 49.375C43.7708 49.2083 43.7292 49.0521 43.6875 48.9062C43.6458 48.7604 43.6042 48.6458 43.5625 48.5625C43.4375 48.1458 43.3438 47.7292 43.2812 47.3125C43.2188 46.8958 43.1875 46.4583 43.1875 46C43.1875 45.7917 43.1979 45.5729 43.2188 45.3438C43.2396 45.1146 43.2708 44.8958 43.3125 44.6875C43.3125 44.5208 43.3438 44.3542 43.4062 44.1875C43.4688 44.0208 43.5417 43.8958 43.625 43.8125C43.625 43.7708 43.6458 43.7292 43.6875 43.6875C43.7292 43.6458 43.7708 43.625 43.8125 43.625C43.8125 43.5833 43.8229 43.5625 43.8438 43.5625C43.8646 43.5625 43.875 43.5625 43.875 43.5625C43.875 43.5625 43.8854 43.5625 43.9062 43.5625C43.9271 43.5625 43.9375 43.5625 43.9375 43.5625C43.9375 43.5625 43.9583 43.5729 44 43.5938C44.0417 43.6146 44.1042 43.6458 44.1875 43.6875C44.2708 43.7292 44.3542 43.7917 44.4375 43.875C44.5208 43.9583 44.5833 44.0417 44.625 44.125C45.0417 44.625 45.4062 45.1771 45.7188 45.7812C46.0312 46.3854 46.2708 47 46.4375 47.625C46.5208 47.875 46.5938 48.1458 46.6562 48.4375C46.7188 48.7292 46.8333 49.0417 47 49.375C47.125 49.5417 47.25 49.6979 47.375 49.8438C47.5 49.9896 47.6458 50.125 47.8125 50.25C47.9792 50.375 48.1667 50.4792 48.375 50.5625C48.5833 50.6458 48.7917 50.6875 49 50.6875H49.0625C49.2292 50.6875 49.3958 50.6562 49.5625 50.5938C49.7292 50.5312 49.8958 50.4583 50.0625 50.375C50.2708 50.25 50.4479 50.0938 50.5938 49.9062C50.7396 49.7188 50.875 49.5208 51 49.3125C51.0833 49.1458 51.1562 48.9583 51.2188 48.75C51.2812 48.5417 51.3333 48.3333 51.375 48.125C51.4167 47.875 51.4375 47.6458 51.4375 47.4375C51.4375 47.2292 51.4375 47.0208 51.4375 46.8125C51.4375 45.9792 51.375 45.1875 51.25 44.4375C51.125 43.6875 51.0417 42.9583 51 42.25C51 42.125 51 42.0208 51 41.9375C51 41.8542 51 41.75 51 41.625C51 41 51.0417 40.3542 51.125 39.6875C51.2083 39.0208 51.2917 38.3542 51.375 37.6875C51.4167 37.1875 51.4688 36.6771 51.5312 36.1562C51.5938 35.6354 51.625 35.125 51.625 34.625ZM49.4375 42.3125C49.4792 43.1042 49.5625 43.875 49.6875 44.625C49.8125 45.375 49.875 46.1042 49.875 46.8125C49.875 46.9792 49.8646 47.1458 49.8438 47.3125C49.8229 47.4792 49.7917 47.6667 49.75 47.875C49.75 48.0417 49.7188 48.2083 49.6562 48.375C49.5938 48.5417 49.5208 48.6667 49.4375 48.75C49.3958 48.8333 49.3542 48.8854 49.3125 48.9062C49.2708 48.9271 49.2292 48.9583 49.1875 49C49.1458 49 49.1146 49.0104 49.0938 49.0312C49.0729 49.0521 49.0417 49.0625 49 49.0625C49 49.0625 48.9688 49.0521 48.9062 49.0312C48.8438 49.0104 48.7917 48.9792 48.75 48.9375C48.7083 48.8958 48.6562 48.8438 48.5938 48.7812C48.5312 48.7188 48.4792 48.6458 48.4375 48.5625C48.3542 48.3958 48.2812 48.1979 48.2188 47.9688C48.1562 47.7396 48.0833 47.4792 48 47.1875C47.7917 46.4375 47.5104 45.7188 47.1562 45.0312C46.8021 44.3438 46.3958 43.7083 45.9375 43.125C45.8125 43 45.6875 42.875 45.5625 42.75C45.4375 42.625 45.2917 42.5 45.125 42.375C45 42.25 44.8333 42.1458 44.625 42.0625C44.4167 41.9792 44.1875 41.9375 43.9375 41.9375H43.8125C43.6458 41.9375 43.4792 41.9688 43.3125 42.0312C43.1458 42.0938 43 42.1667 42.875 42.25C42.6667 42.4167 42.5 42.5833 42.375 42.75C42.25 42.9167 42.1458 43.1042 42.0625 43.3125C41.9792 43.4792 41.9062 43.6562 41.8438 43.8438C41.7812 44.0312 41.7292 44.2292 41.6875 44.4375C41.6458 44.6875 41.6146 44.9479 41.5938 45.2188C41.5729 45.4896 41.5625 45.75 41.5625 46C41.5625 46.5 41.6042 47.0104 41.6875 47.5312C41.7708 48.0521 41.8958 48.5417 42.0625 49C42.1042 49.125 42.1354 49.25 42.1562 49.375C42.1771 49.5 42.2083 49.625 42.25 49.75C42.2917 49.875 42.3229 49.9896 42.3438 50.0938C42.3646 50.1979 42.375 50.2917 42.375 50.375C42.375 50.4583 42.3646 50.5208 42.3438 50.5625C42.3229 50.6042 42.2917 50.6458 42.25 50.6875C42.25 50.7292 42.2396 50.7604 42.2188 50.7812C42.1979 50.8021 42.1667 50.8125 42.125 50.8125C42.0833 50.8542 42.0312 50.875 41.9688 50.875C41.9062 50.875 41.8542 50.875 41.8125 50.875C41.6875 50.875 41.5625 50.8542 41.4375 50.8125C41.3125 50.7708 41.2083 50.7292 41.125 50.6875C41 50.5625 40.8854 50.4375 40.7812 50.3125C40.6771 50.1875 40.5833 50.0417 40.5 49.875C40.375 49.75 40.2708 49.5938 40.1875 49.4062C40.1042 49.2188 40.0208 49.0208 39.9375 48.8125C39.4792 47.7708 38.9792 46.7396 38.4375 45.7188C37.8958 44.6979 37.3125 43.7083 36.6875 42.75C36.1875 42.0833 35.6771 41.4167 35.1562 40.75C34.6354 40.0833 34.1875 39.4167 33.8125 38.75C33.4792 38.1667 33.2083 37.5625 33 36.9375C32.7917 36.3125 32.6875 35.6875 32.6875 35.0625C32.6875 34.9792 32.6979 34.8854 32.7188 34.7812C32.7396 34.6771 32.75 34.5833 32.75 34.5C32.7917 34.125 32.8854 33.7812 33.0312 33.4688C33.1771 33.1562 33.3542 32.8542 33.5625 32.5625C33.7708 32.3125 34.0104 32.0938 34.2812 31.9062C34.5521 31.7188 34.8333 31.6042 35.125 31.5625C35.2083 31.5208 35.3021 31.5 35.4062 31.5C35.5104 31.5 35.6042 31.5 35.6875 31.5C35.9375 31.5 36.2083 31.5208 36.5 31.5625C36.7917 31.6042 37.1042 31.6667 37.4375 31.75C37.7292 31.8333 38.0521 31.9062 38.4062 31.9688C38.7604 32.0312 39.125 32.0625 39.5 32.0625C39.625 32.0625 39.7604 32.0521 39.9062 32.0312C40.0521 32.0104 40.1875 31.9792 40.3125 31.9375C40.6042 31.8958 40.8646 31.8229 41.0938 31.7188C41.3229 31.6146 41.5417 31.4792 41.75 31.3125C42.0833 31.1042 42.3646 30.875 42.5938 30.625C42.8229 30.375 43.0625 30.1458 43.3125 29.9375C43.5208 29.6875 43.7292 29.4792 43.9375 29.3125C44.1458 29.1458 44.3542 29 44.5625 28.875C44.7708 28.7917 44.9792 28.7188 45.1875 28.6562C45.3958 28.5938 45.6042 28.5625 45.8125 28.5625C46.1875 28.5625 46.5833 28.6458 47 28.8125C47.4167 28.9792 47.7708 29.1875 48.0625 29.4375C48.5625 29.8542 48.9688 30.3854 49.2812 31.0312C49.5938 31.6771 49.7917 32.3333 49.875 33C49.9167 33.2917 49.9479 33.5625 49.9688 33.8125C49.9896 34.0625 50 34.3333 50 34.625C50 35.0833 49.9792 35.5521 49.9375 36.0312C49.8958 36.5104 49.8333 37 49.75 37.5C49.6667 38.1667 49.5833 38.8438 49.5 39.5312C49.4167 40.2188 49.375 40.9167 49.375 41.625C49.375 41.75 49.3854 41.8646 49.4062 41.9688C49.4271 42.0729 49.4375 42.1875 49.4375 42.3125Z" fill="#009CDE"/>
</g>
<defs>
<clipPath id="clip0_1_137">
<rect width="64" height="64" fill="white" transform="matrix(1 0 0 -1 0.5 64)"/>
</clipPath>
</defs>
</svg>
