<svg width="84" height="83" viewBox="0 0 84 83" fill="none" xmlns="http://www.w3.org/2000/svg">
<rect width="84" height="83" fill="#F5F5F5"/>
<rect width="1920" height="3591" transform="translate(-918 -1838.5)" fill="#E5E5E5"/>
<rect width="1440" height="3591" transform="translate(-678 -1838.5)" fill="white"/>
<g clip-path="url(#clip0_0_1)">
<path d="M57.2183 40.5273C56.1916 40.4733 55.3 40.3382 54.5435 40.1221C53.7869 39.9059 53.0845 39.6628 52.436 39.3926C51.9497 39.2305 51.4499 39.0684 50.9365 38.9062C50.4232 38.7441 49.8693 38.6631 49.2749 38.6631C48.8967 38.6631 48.5184 38.7036 48.1401 38.7847C47.7619 38.8657 47.3566 39.0143 46.9243 39.2305C45.6815 39.8789 44.5737 40.2707 43.6011 40.4058C42.6284 40.5409 41.6287 40.6084 40.6021 40.6084C40.4399 40.6084 40.2643 40.6084 40.0752 40.6084C39.8861 40.6084 39.6834 40.6084 39.4673 40.6084C39.2511 40.6084 39.035 40.6084 38.8189 40.6084C38.6027 40.6084 38.3595 40.6084 38.0894 40.6084C36.1981 40.6084 34.4284 41.0137 32.7803 41.8242C31.1322 42.6348 29.7677 43.4453 28.687 44.2559C28.4168 44.472 28.2007 44.7422 28.0386 45.0664C27.8765 45.3906 27.7954 45.7148 27.7954 46.0391C27.7954 46.1471 27.7954 46.2687 27.7954 46.4038C27.7954 46.5389 27.8224 46.6605 27.8765 46.7686C28.687 49.0921 29.2274 51.078 29.4976 52.7261C29.7677 54.3742 29.9569 55.8737 30.0649 57.2246C30.119 57.9811 30.1865 58.6971 30.2676 59.3726C30.3486 60.048 30.4702 60.6829 30.6323 61.2773C30.7944 61.8177 31.0376 62.3175 31.3618 62.7769C31.686 63.2362 32.0913 63.6279 32.5776 63.9521C32.8478 64.1143 33.1045 64.2358 33.3477 64.3169C33.5908 64.3979 33.8475 64.4385 34.1177 64.4385C34.3338 64.4385 34.5365 64.425 34.7256 64.3979C34.9147 64.3709 35.0903 64.3034 35.2524 64.1953C35.6847 64.0332 36.063 63.763 36.3872 63.3848C36.7114 63.0065 36.9006 62.6012 36.9546 62.1689C37.1707 60.2777 37.495 58.4674 37.9272 56.7383C38.3595 55.0091 38.8189 53.4961 39.3052 52.1992C39.5213 51.5508 39.7645 50.9699 40.0347 50.4565C40.3049 49.9432 40.548 49.5244 40.7642 49.2002C40.8722 48.9841 40.9938 48.8084 41.1289 48.6733C41.264 48.5382 41.3856 48.4437 41.4937 48.3896C41.6017 48.2816 41.6963 48.214 41.7773 48.187C41.8584 48.16 41.9259 48.1465 41.98 48.1465C42.034 48.1465 42.1016 48.16 42.1826 48.187C42.2637 48.214 42.3582 48.2816 42.4663 48.3896C42.6825 48.4977 42.8986 48.7004 43.1147 48.9976C43.3309 49.2948 43.547 49.6595 43.7632 50.0918C44.4116 51.3346 45.0466 53.0368 45.668 55.1982C46.2894 57.3597 46.7352 59.6833 47.0054 62.1689C47.1134 62.6012 47.3161 63.0065 47.6133 63.3848C47.9105 63.763 48.2752 64.0332 48.7075 64.1953C48.9237 64.3034 49.1128 64.3709 49.2749 64.3979C49.437 64.425 49.6261 64.4385 49.8423 64.4385C50.1125 64.4385 50.3827 64.3979 50.6528 64.3169C50.923 64.2358 51.1662 64.1143 51.3823 63.9521C51.9227 63.6279 52.355 63.2362 52.6792 62.7769C53.0034 62.3175 53.2466 61.8177 53.4087 61.2773C53.5708 60.737 53.6789 60.1426 53.7329 59.4941C53.7869 58.8457 53.841 58.1432 53.895 57.3867C54.0031 55.8737 54.2057 54.1986 54.5029 52.3613C54.8001 50.5241 55.4891 48.2005 56.5698 45.3906C56.6239 45.2826 56.7184 45.0934 56.8535 44.8232C56.9886 44.5531 57.1372 44.2559 57.2993 43.9316C57.4614 43.6074 57.6235 43.2967 57.7856 42.9995C57.9478 42.7023 58.1099 42.4456 58.272 42.2295C58.326 42.1755 58.3665 42.0944 58.3936 41.9863C58.4206 41.8783 58.4341 41.7702 58.4341 41.6621C58.4341 41.554 58.4206 41.4595 58.3936 41.3784C58.3665 41.2974 58.326 41.2028 58.272 41.0947C58.1639 40.9326 58.0153 40.7975 57.8262 40.6895C57.637 40.5814 57.4344 40.5273 57.2183 40.5273ZM55.354 43.4453C55.1919 43.7155 55.0568 43.9722 54.9487 44.2153C54.8407 44.4585 54.7596 44.6341 54.7056 44.7422C53.5708 47.6602 52.8548 50.0918 52.5576 52.0371C52.2604 53.9824 52.0578 55.7116 51.9497 57.2246C51.8957 57.9271 51.8416 58.5485 51.7876 59.0889C51.7336 59.6292 51.6525 60.1156 51.5444 60.5479C51.3823 60.9801 51.2067 61.3449 51.0176 61.6421C50.8285 61.9393 50.5718 62.196 50.2476 62.4121C50.1935 62.4661 50.126 62.5067 50.0449 62.5337C49.9639 62.5607 49.8963 62.5742 49.8423 62.5742C49.7883 62.5742 49.7342 62.5742 49.6802 62.5742C49.6261 62.5742 49.5721 62.5472 49.5181 62.4932C49.356 62.4391 49.2344 62.3581 49.1533 62.25C49.0723 62.1419 49.0317 62.0339 49.0317 61.9258C49.0317 61.8717 48.9912 61.6151 48.9102 61.1558C48.8291 60.6965 48.7075 60.1156 48.5454 59.4131C48.3293 58.3324 48.0321 57.049 47.6538 55.563C47.2756 54.077 46.8433 52.6585 46.3569 51.3076C46.0868 50.6051 45.7896 49.9567 45.4653 49.3623C45.1411 48.7679 44.8169 48.2546 44.4927 47.8223C44.3306 47.6061 44.155 47.4035 43.9658 47.2144C43.7767 47.0252 43.5741 46.8496 43.3579 46.6875C43.1418 46.5794 42.9256 46.4849 42.7095 46.4038C42.4933 46.3228 42.2502 46.2822 41.98 46.2822C41.6558 46.2822 41.3451 46.3498 41.0479 46.4849C40.7507 46.62 40.494 46.7956 40.2778 47.0117C39.7915 47.39 39.3592 47.8898 38.981 48.5112C38.6027 49.1326 38.2515 49.8486 37.9272 50.6592C36.9546 52.9287 36.2251 55.3468 35.7388 57.9136C35.2524 60.4803 35.0093 61.8177 35.0093 61.9258C34.9552 62.0339 34.8877 62.1419 34.8066 62.25C34.7256 62.3581 34.604 62.4391 34.4419 62.4932C34.3879 62.5472 34.3338 62.5742 34.2798 62.5742C34.2258 62.5742 34.1717 62.5742 34.1177 62.5742C34.0636 62.5742 33.9961 62.5607 33.915 62.5337C33.834 62.5067 33.7664 62.4661 33.7124 62.4121C33.3882 62.25 33.1315 62.0068 32.9424 61.6826C32.7533 61.3584 32.6047 60.9801 32.4966 60.5479C32.3885 60.1156 32.3075 59.6022 32.2534 59.0078C32.1994 58.4134 32.1183 57.765 32.0103 57.0625C31.9022 55.6576 31.7131 54.104 31.4429 52.4019C31.1727 50.6997 30.6053 48.6058 29.7407 46.1201C29.7407 46.1201 29.7407 46.1066 29.7407 46.0796C29.7407 46.0526 29.7407 46.0391 29.7407 46.0391C29.7407 45.985 29.7542 45.931 29.7813 45.877C29.8083 45.8229 29.8488 45.7689 29.9028 45.7148C30.8755 44.9583 32.0913 44.2288 33.5503 43.5264C35.0093 42.8239 36.5493 42.4727 38.1704 42.4727C38.3866 42.4727 38.6027 42.4727 38.8189 42.4727C39.035 42.4727 39.2511 42.4727 39.4673 42.4727C39.6834 42.4727 39.8861 42.4727 40.0752 42.4727C40.2643 42.4727 40.467 42.4727 40.6831 42.4727C41.8179 42.4727 42.9526 42.3781 44.0874 42.189C45.2222 41.9998 46.492 41.554 47.897 40.8516C48.1672 40.7435 48.4103 40.6624 48.6265 40.6084C48.8426 40.5544 49.0858 40.5273 49.356 40.5273C49.6802 40.5273 50.0314 40.5814 50.4097 40.6895C50.7879 40.7975 51.2472 40.9326 51.7876 41.0947C52.328 41.3109 52.9359 41.527 53.6113 41.7432C54.2868 41.9593 55.0838 42.1214 56.0024 42.2295C55.8944 42.4456 55.7863 42.6483 55.6782 42.8374C55.5702 43.0265 55.4621 43.2292 55.354 43.4453ZM28.3628 30.3955C28.3628 30.0713 28.3898 29.7606 28.4439 29.4634C28.4979 29.1662 28.5519 28.9095 28.606 28.6934C28.66 28.5853 28.7005 28.4907 28.7275 28.4097C28.7546 28.3286 28.7951 28.2611 28.8491 28.207C28.8491 28.153 28.8491 28.126 28.8491 28.126C28.8491 28.126 28.8491 28.099 28.8491 28.0449C29.0112 27.8288 29.0518 27.5991 28.9707 27.356C28.8897 27.1128 28.7411 26.9372 28.5249 26.8291C28.3088 26.667 28.0791 26.6265 27.8359 26.7075C27.5928 26.7886 27.3901 26.9372 27.228 27.1533C27.228 27.2074 27.1064 27.5316 26.8633 28.126C26.6201 28.7204 26.4985 29.4769 26.4985 30.3955C26.4985 30.8278 26.5526 31.2871 26.6606 31.7734C26.7687 32.2598 26.9849 32.7461 27.3091 33.2324C27.4172 33.4486 27.6063 33.5837 27.8765 33.6377C28.1467 33.6917 28.3898 33.6377 28.606 33.4756C28.8221 33.3675 28.9572 33.1784 29.0112 32.9082C29.0653 32.638 29.0112 32.3949 28.8491 32.1787C28.633 31.9085 28.4979 31.6113 28.4439 31.2871C28.3898 30.9629 28.3628 30.6657 28.3628 30.3955ZM41.98 0C36.2521 0 30.8755 1.08073 25.8501 3.24219C20.7707 5.40365 16.3532 8.36214 12.5977 12.1177C8.84213 15.8732 5.88363 20.2907 3.72217 25.3701C1.56071 30.3955 0.479984 35.7721 0.479984 41.5C0.479984 47.2279 1.56071 52.6045 3.72217 57.6299C5.88363 62.7093 8.84213 67.1268 12.5977 70.8823C16.3532 74.6379 20.7707 77.5964 25.8501 79.7578C30.8755 81.9193 36.2521 83 41.98 83C47.7078 83 53.0845 81.9193 58.1099 79.7578C63.1893 77.5964 67.6068 74.6379 71.3623 70.8823C75.1178 67.1268 78.0763 62.7093 80.2378 57.6299C82.3993 52.6045 83.48 47.2279 83.48 41.5C83.48 35.7721 82.3993 30.3955 80.2378 25.3701C78.0763 20.2907 75.1178 15.8732 71.3623 12.1177C67.6068 8.36214 63.1893 5.40365 58.1099 3.24219C53.0845 1.08073 47.7078 0 41.98 0ZM70.0249 69.5449C68.2417 71.3281 66.2964 72.9492 64.189 74.4082C62.0275 75.8132 59.7715 77.0155 57.4209 78.0151C55.0703 79.0148 52.5981 79.7848 50.0044 80.3252C47.4106 80.8656 44.7358 81.1357 41.98 81.1357C39.2241 81.1357 36.5493 80.8656 33.9556 80.3252C31.3618 79.7848 28.8897 79.0148 26.5391 78.0151C24.1885 77.0155 21.9325 75.8132 19.771 74.4082C17.6636 72.9492 15.7183 71.3281 13.9351 69.5449C12.1519 67.7617 10.5308 65.8164 9.07178 63.709C7.66683 61.5475 6.46452 59.2915 5.46485 56.9409C4.46517 54.5903 3.69515 52.1182 3.15479 49.5244C2.61442 46.9307 2.34424 44.2559 2.34424 41.5C2.34424 38.7441 2.61442 36.0693 3.15479 33.4756C3.69515 30.8818 4.46517 28.4097 5.46485 26.0591C6.46452 23.7085 7.66683 21.4525 9.07178 19.291C10.5308 17.1836 12.1519 15.2383 13.9351 13.4551C15.7183 11.6719 17.6636 10.0508 19.771 8.5918C21.9325 7.18685 24.1885 5.98454 26.5391 4.98486C28.8897 3.98519 31.3618 3.21517 33.9556 2.6748C36.5493 2.13444 39.2241 1.86426 41.98 1.86426C44.7358 1.86426 47.4106 2.13444 50.0044 2.6748C52.5981 3.21517 55.0703 3.98519 57.4209 4.98486C59.7715 5.98454 62.0275 7.18685 64.189 8.5918C66.2964 10.0508 68.2417 11.6719 70.0249 13.4551C71.8081 15.2383 73.4292 17.1836 74.8882 19.291C76.2931 21.4525 77.4954 23.7085 78.4951 26.0591C79.4948 28.4097 80.2648 30.8818 80.8052 33.4756C81.3455 36.0693 81.6157 38.7441 81.6157 41.5C81.6157 44.2559 81.3455 46.9307 80.8052 49.5244C80.2648 52.1182 79.4948 54.5903 78.4951 56.9409C77.4954 59.2915 76.2931 61.5475 74.8882 63.709C73.4292 65.8164 71.8081 67.7617 70.0249 69.5449ZM56.6509 20.3447C55.7323 19.8584 54.665 19.4396 53.4492 19.0884C52.2334 18.7371 50.7879 18.5615 49.1128 18.5615H49.0317C47.5187 18.5615 46.2894 18.8047 45.3438 19.291C44.3981 19.7773 43.52 20.2907 42.7095 20.8311C42.6014 20.9391 42.4798 21.0337 42.3447 21.1147C42.2096 21.1958 42.0881 21.2633 41.98 21.3174C41.8719 21.2633 41.7503 21.1958 41.6152 21.1147C41.4801 21.0337 41.3586 20.9391 41.2505 20.8311C40.4399 20.2907 39.5754 19.7773 38.6567 19.291C37.7381 18.8047 36.4953 18.5615 34.9282 18.5615H34.8472C33.172 18.5615 31.7266 18.7371 30.5107 19.0884C29.2949 19.4396 28.2277 19.8584 27.3091 20.3447C26.4445 20.8851 25.715 21.4795 25.1206 22.1279C24.5262 22.7764 24.0669 23.4248 23.7427 24.0732C23.2023 24.9378 22.8241 25.8564 22.6079 26.8291C22.3918 27.8018 22.2837 28.7744 22.2837 29.7471C22.2837 30.9899 22.4458 32.1517 22.77 33.2324C23.0942 34.3132 23.5536 35.2318 24.148 35.9883C24.202 36.0423 24.283 36.1234 24.3911 36.2314C24.4992 36.3395 24.6073 36.4746 24.7153 36.6367C25.0396 36.9609 25.4043 37.3662 25.8096 37.8525C26.2148 38.3389 26.4985 38.7982 26.6606 39.2305C26.7687 39.5007 26.8768 39.7708 26.9849 40.041C27.0929 40.3112 27.201 40.5814 27.3091 40.8516C27.4172 41.0677 27.5658 41.2568 27.7549 41.4189C27.944 41.5811 28.1467 41.6891 28.3628 41.7432C28.4709 41.7432 28.5519 41.7432 28.606 41.7432C28.66 41.7432 28.714 41.7432 28.7681 41.7432C28.9842 41.7432 29.1733 41.7161 29.3355 41.6621C29.4976 41.6081 29.6597 41.527 29.8218 41.4189C30.7944 40.6624 32.0103 39.9194 33.4692 39.1899C34.9282 38.4604 36.4953 38.0957 38.1704 38.0957C38.3866 38.0957 38.6027 38.0957 38.8189 38.0957C39.035 38.0957 39.2511 38.0957 39.4673 38.0957C39.6834 38.0957 39.8996 38.0957 40.1157 38.0957C40.3319 38.0957 40.521 38.0957 40.6831 38.0957C41.8179 38.0957 42.9526 38.0011 44.0874 37.812C45.2222 37.6229 46.492 37.1771 47.897 36.4746C48.1672 36.3665 48.4103 36.2855 48.6265 36.2314C48.8426 36.1774 49.0858 36.1504 49.356 36.1504C49.6802 36.1504 50.0314 36.2044 50.4097 36.3125C50.7879 36.4206 51.2472 36.5557 51.7876 36.7178C52.382 36.9339 53.0845 37.1771 53.895 37.4473C54.7056 37.7174 55.6782 37.8796 56.813 37.9336H56.9751C57.2993 37.9336 57.637 37.866 57.9883 37.731C58.3395 37.5959 58.6232 37.3932 58.8394 37.123L59.3257 36.6367C59.4338 36.4746 59.5283 36.3395 59.6094 36.2314C59.6904 36.1234 59.758 36.0423 59.812 35.9883C60.4064 35.2318 60.8657 34.3132 61.1899 33.2324C61.5142 32.1517 61.6763 30.9899 61.6763 29.7471C61.6763 28.7744 61.5682 27.8018 61.3521 26.8291C61.1359 25.8564 60.7847 24.9378 60.2983 24.0732C59.9201 23.4248 59.4473 22.7764 58.8799 22.1279C58.3125 21.4795 57.5695 20.8851 56.6509 20.3447ZM58.272 34.8535C58.2179 34.9076 58.1504 34.9886 58.0693 35.0967C57.9883 35.2048 57.8937 35.3128 57.7856 35.4209C57.7856 35.4209 57.7046 35.502 57.5425 35.6641C57.3804 35.8262 57.2993 35.9072 57.2993 35.9072C57.2453 35.9613 57.1912 36.0018 57.1372 36.0288C57.0832 36.0558 57.0291 36.0693 56.9751 36.0693C56.0024 36.0153 55.1649 35.8802 54.4624 35.6641C53.7599 35.4479 53.0845 35.2318 52.436 35.0156C51.9497 34.8535 51.4499 34.6914 50.9365 34.5293C50.4232 34.3672 49.8963 34.2861 49.356 34.2861C48.9777 34.2861 48.5859 34.3267 48.1807 34.4077C47.7754 34.4888 47.3836 34.6374 47.0054 34.8535C45.7085 35.4479 44.5872 35.8262 43.6416 35.9883C42.696 36.1504 41.6828 36.2314 40.6021 36.2314C40.4399 36.2314 40.2643 36.2314 40.0752 36.2314C39.8861 36.2314 39.6834 36.2314 39.4673 36.2314C39.2511 36.2314 39.035 36.2314 38.8189 36.2314C38.6027 36.2314 38.3866 36.2314 38.1704 36.2314C36.3332 36.2314 34.6175 36.5962 33.0234 37.3257C31.4294 38.0552 30.092 38.8252 29.0112 39.6357C28.9032 39.4736 28.8086 39.298 28.7275 39.1089C28.6465 38.9198 28.5789 38.7171 28.5249 38.501C28.2547 37.9606 27.89 37.4067 27.4307 36.8394C26.9714 36.272 26.5796 35.7992 26.2554 35.4209C26.1473 35.3128 26.0527 35.2048 25.9717 35.0967C25.8906 34.9886 25.8231 34.9076 25.769 34.8535C25.3368 34.3672 24.972 33.6647 24.6748 32.7461C24.3776 31.8275 24.256 30.8008 24.3101 29.666C24.3101 28.9095 24.3911 28.1125 24.5532 27.2749C24.7153 26.4373 25.0125 25.6403 25.4448 24.8838C25.8771 24.1813 26.3905 23.5464 26.9849 22.979C27.5793 22.4116 28.2817 21.9388 29.0923 21.5605C29.8488 21.1823 30.7134 20.8986 31.686 20.7095C32.6587 20.5203 33.7124 20.4258 34.8472 20.4258H34.9282C35.5767 20.4258 36.1305 20.4798 36.5898 20.5879C37.0492 20.696 37.4679 20.8311 37.8462 20.9932C38.2244 21.1553 38.6027 21.3444 38.981 21.5605C39.3592 21.7767 39.7375 22.0199 40.1157 22.29C40.2778 22.4521 40.4535 22.6007 40.6426 22.7358C40.8317 22.8709 41.0343 22.9925 41.2505 23.1006C41.2505 23.1006 41.264 23.1141 41.291 23.1411C41.318 23.1681 41.3315 23.1816 41.3315 23.1816C41.3856 23.2357 41.6693 23.4788 42.1826 23.9111C42.696 24.3434 43.1688 24.8568 43.6011 25.4512C43.7632 25.6133 43.9793 25.7078 44.2495 25.7349C44.5197 25.7619 44.7358 25.6943 44.898 25.5322C45.1141 25.3701 45.2357 25.1675 45.2627 24.9243C45.2897 24.6812 45.2222 24.4515 45.0601 24.2354C44.7899 23.9111 44.5197 23.6139 44.2495 23.3438C43.9793 23.0736 43.7362 22.8304 43.52 22.6143C43.5741 22.5602 43.6416 22.5062 43.7227 22.4521C43.8037 22.3981 43.8713 22.3441 43.9253 22.29C44.3036 22.0199 44.6683 21.7767 45.0195 21.5605C45.3708 21.3444 45.7625 21.1553 46.1948 20.9932C46.5731 20.8311 46.9919 20.696 47.4512 20.5879C47.9105 20.4798 48.4644 20.4258 49.1128 20.4258H49.1939C50.3286 20.4258 51.3688 20.5203 52.3145 20.7095C53.2601 20.8986 54.1382 21.1823 54.9487 21.5605C55.7052 21.9388 56.3942 22.4116 57.0156 22.979C57.637 23.5464 58.1369 24.2083 58.5151 24.9648C58.9474 25.6673 59.2581 26.4373 59.4473 27.2749C59.6364 28.1125 59.731 28.9365 59.731 29.7471C59.731 30.8278 59.5824 31.8275 59.2852 32.7461C58.988 33.6647 58.6502 34.3672 58.272 34.8535Z" fill="#009CDE"/>
</g>
<defs>
<clipPath id="clip0_0_1">
<rect width="83" height="83" fill="white" transform="matrix(1 0 0 -1 0.479984 83)"/>
</clipPath>
</defs>
</svg>
