<svg width="20" height="20" viewBox="0 0 20 20" fill="none" xmlns="http://www.w3.org/2000/svg">
<path d="M20 1.4V18.6C19.9983 18.971 19.7393 19.3265 19.2796 19.5889C18.82 19.8512 18.1971 19.999 17.5471 20H2.45291C1.80289 19.999 1.17999 19.8512 0.720357 19.5889C0.260722 19.3265 0.00173417 18.971 0 18.6V1.4C0.00173417 1.029 0.260722 0.67348 0.720357 0.411144C1.17999 0.148807 1.80289 0.000989775 2.45291 0H17.5471C18.1971 0.000989775 18.82 0.148807 19.2796 0.411144C19.7393 0.67348 19.9983 1.029 20 1.4ZM17.5471 3.705H2.45291V16.5125H17.5471V3.705ZM5.91765 1.9325C5.91765 2.11815 6.04687 2.2962 6.27687 2.42747C6.50688 2.55875 6.81883 2.6325 7.14411 2.6325H12.8603C13.1855 2.6325 13.4975 2.55875 13.7275 2.42747C13.9575 2.2962 14.0867 2.11815 14.0867 1.9325C14.0867 1.74685 13.9575 1.5688 13.7275 1.43753C13.4975 1.30625 13.1855 1.2325 12.8603 1.2325H7.14411C6.81883 1.2325 6.50688 1.30625 6.27687 1.43753C6.04687 1.5688 5.91765 1.74685 5.91765 1.9325ZM11.2243 18.2562C11.2243 18.1184 11.1526 17.9835 11.0185 17.8689C10.8843 17.7542 10.6935 17.6648 10.4704 17.612C10.2472 17.5591 10.0016 17.5452 9.76458 17.5721C9.52758 17.5989 9.30982 17.6652 9.13883 17.7626C8.96783 17.86 8.85126 17.9842 8.80386 18.1194C8.75646 18.2546 8.78035 18.3948 8.87251 18.5223C8.96467 18.6498 9.12097 18.7588 9.32165 18.8356C9.52233 18.9124 9.75839 18.9535 10 18.9538C10.1607 18.9539 10.3198 18.936 10.4683 18.901C10.6169 18.866 10.7518 18.8147 10.8656 18.7499C10.9793 18.6851 11.0695 18.6082 11.131 18.5235C11.1926 18.4388 11.2243 18.348 11.2243 18.2562Z" fill="white"/>
</svg>
