<svg width="16" height="25" viewBox="0 0 16 25" fill="none" xmlns="http://www.w3.org/2000/svg">
<g clip-path="url(#clip0_1_1952)">
<path d="M12.665 18.176L10.345 15.552C10.155 15.248 9.95502 15.088 9.66502 15.088C9.47502 15.088 9.18502 15.248 8.98502 15.552L7.82502 16.944C6.57502 15.248 5.70502 13.088 5.21502 10.464L6.46502 9.376C6.85502 9.072 7.04502 8.448 7.04502 7.824V7.52L6.56502 3.04C6.46502 2.112 5.98502 1.64799 5.50502 1.64799H2.89502C2.41502 1.64799 1.92502 2.272 1.83502 3.04C1.73502 4.272 1.64502 5.664 1.64502 6.896C1.64502 15.392 5.31502 23.12 10.715 24.96H10.905C11.295 24.96 11.675 24.656 11.875 24.032L12.935 20.32C13.035 20.16 13.035 19.856 13.035 19.552C13.135 18.928 12.935 18.464 12.645 18.16L12.665 18.176ZM12.085 19.568L11.025 23.28H10.925C6.00502 21.584 2.62502 14.624 2.62502 6.912C2.62502 5.824 2.72502 4.59199 2.81502 3.35999H5.42502L5.52502 3.52L6.10502 8V8.15999L4.07502 9.712L4.17502 10.336C4.65502 13.728 5.91502 16.672 7.55502 18.832L7.84502 19.136L9.67502 16.816L12.085 19.6V19.568Z" fill="#0170A3"/>
</g>
<defs>
<clipPath id="clip0_1_1952">
<rect width="15" height="24" fill="white" transform="translate(0.125 0.800003)"/>
</clipPath>
</defs>
</svg>
