<svg width="65" height="64" viewBox="0 0 65 64" fill="none" xmlns="http://www.w3.org/2000/svg">
<g clip-path="url(#clip0_1_116)">
<path d="M51.0275 31.5625H50.965C50.715 31.5625 50.4546 31.6042 50.1838 31.6875C49.9129 31.7708 49.6525 31.9167 49.4025 32.125C49.3192 32.0417 49.215 31.9688 49.09 31.9062C48.965 31.8438 48.84 31.8125 48.715 31.8125H48.0275L47.7775 30.75C47.7359 30.5833 47.6629 30.4062 47.5588 30.2188C47.4546 30.0312 47.3192 29.8958 47.1525 29.8125C46.9859 29.6875 46.7984 29.5938 46.59 29.5312C46.3817 29.4688 46.1734 29.4375 45.965 29.4375H42.34C42.1317 29.4375 41.9234 29.4688 41.715 29.5312C41.5067 29.5938 41.3192 29.6875 41.1525 29.8125C40.9859 29.8958 40.8504 30.0312 40.7463 30.2188C40.6421 30.4062 40.5692 30.5833 40.5275 30.75L40.2775 31.8125C40.2359 31.8125 40.2046 31.8125 40.1838 31.8125C40.1629 31.8125 40.1525 31.8125 40.1525 31.8125C40.0275 31.8125 39.9129 31.8229 39.8088 31.8438C39.7046 31.8646 39.6109 31.875 39.5275 31.875C38.9442 31.875 38.2775 31.9479 37.5275 32.0938C36.7775 32.2396 36.1317 32.5833 35.59 33.125C35.2984 33.4167 35.0275 33.6771 34.7775 33.9062C34.5275 34.1354 34.2984 34.3125 34.09 34.4375C33.84 34.6042 33.59 34.7292 33.34 34.8125C33.09 34.8958 32.7567 34.9375 32.34 34.9375C31.965 34.9375 31.6421 34.8958 31.3713 34.8125C31.1004 34.7292 30.8609 34.6042 30.6525 34.4375C30.4025 34.3125 30.1629 34.1354 29.9338 33.9062C29.7046 33.6771 29.4234 33.4167 29.09 33.125C28.59 32.5833 27.9546 32.2396 27.1838 32.0938C26.4129 31.9479 25.7359 31.875 25.1525 31.875C25.0692 31.875 24.965 31.8646 24.84 31.8438C24.715 31.8229 24.59 31.8125 24.465 31.8125L24.1525 30.75C24.1109 30.5833 24.0379 30.4167 23.9338 30.25C23.8296 30.0833 23.6942 29.9375 23.5275 29.8125C23.3609 29.6875 23.1734 29.5938 22.965 29.5312C22.7567 29.4688 22.5484 29.4375 22.34 29.4375H18.7775C18.5692 29.4375 18.3609 29.4688 18.1525 29.5312C17.9442 29.5938 17.7567 29.6875 17.59 29.8125C17.4234 29.9375 17.2879 30.0833 17.1838 30.25C17.0796 30.4167 17.0067 30.5833 16.965 30.75L16.6525 31.8125H16.0275C15.9025 31.8125 15.7671 31.8438 15.6213 31.9062C15.4754 31.9688 15.3609 32.0417 15.2775 32.125C15.0275 31.9583 14.7671 31.8229 14.4963 31.7188C14.2254 31.6146 13.965 31.5625 13.715 31.5625H13.6525C13.4025 31.5625 13.1629 31.6042 12.9338 31.6875C12.7046 31.7708 12.5067 31.8958 12.34 32.0625C12.1317 32.2292 11.9754 32.4375 11.8713 32.6875C11.7671 32.9375 11.715 33.2083 11.715 33.5V42.6875C11.715 43.0208 11.7463 43.375 11.8088 43.75C11.8713 44.125 12.0067 44.5 12.215 44.875C12.465 45.2083 12.7984 45.4896 13.215 45.7188C13.6317 45.9479 14.1525 46.0625 14.7775 46.0625H49.9025C50.5275 46.0625 51.0484 45.9479 51.465 45.7188C51.8817 45.4896 52.215 45.2083 52.465 44.875C52.6734 44.5 52.8088 44.125 52.8713 43.75C52.9338 43.375 52.965 43.0208 52.965 42.6875V33.5C52.965 33.2083 52.9129 32.9375 52.8088 32.6875C52.7046 32.4375 52.5484 32.2292 52.34 32.0625C52.1734 31.8958 51.9754 31.7708 51.7463 31.6875C51.5171 31.6042 51.2775 31.5625 51.0275 31.5625ZM41.715 31.0625C41.715 30.9792 41.7359 30.9167 41.7775 30.875C41.8192 30.8333 41.8609 30.7917 41.9025 30.75C41.9442 30.7083 41.9963 30.6771 42.0588 30.6562C42.1213 30.6354 42.215 30.625 42.34 30.625H45.965C46.09 30.625 46.1838 30.6354 46.2463 30.6562C46.3088 30.6771 46.3609 30.7083 46.4025 30.75C46.4442 30.7917 46.4754 30.8333 46.4963 30.875C46.5171 30.9167 46.5484 30.9792 46.59 31.0625L46.7775 31.8125H41.5275L41.715 31.0625ZM41.59 33.0625C42.0067 33.0625 42.4338 33.0625 42.8713 33.0625C43.3088 33.0625 43.7359 33.0625 44.1525 33.0625H44.215C44.215 33.0625 44.9442 33.0625 46.4025 33.0625C47.8609 33.0625 48.59 33.0625 48.59 33.0625C48.465 33.2708 48.34 33.5625 48.215 33.9375C48.09 34.3125 48.0067 34.6458 47.965 34.9375C47.7984 35.7292 47.6942 36.3854 47.6525 36.9062C47.6109 37.4271 47.3817 38.1042 46.965 38.9375C46.7984 39.2708 46.6421 39.4792 46.4963 39.5625C46.3504 39.6458 46.2359 39.6875 46.1525 39.6875C46.1109 39.6875 46.0692 39.6771 46.0275 39.6562C45.9859 39.6354 45.965 39.625 45.965 39.625C45.9234 39.5833 45.8921 39.5312 45.8713 39.4688C45.8504 39.4062 45.84 39.3333 45.84 39.25V37.625C45.84 37.3333 45.8192 37.0625 45.7775 36.8125C45.7359 36.5625 45.6317 36.3333 45.465 36.125C45.34 35.9583 45.1525 35.8125 44.9025 35.6875C44.6525 35.5625 44.4025 35.5 44.1525 35.5C43.9025 35.5 43.6525 35.5625 43.4025 35.6875C43.1525 35.8125 42.965 35.9583 42.84 36.125C42.6734 36.3333 42.5692 36.5625 42.5275 36.8125C42.4859 37.0625 42.465 37.3333 42.465 37.625V39.25C42.465 39.3333 42.4546 39.4062 42.4338 39.4688C42.4129 39.5312 42.4025 39.5833 42.4025 39.625C42.3609 39.625 42.3192 39.6354 42.2775 39.6562C42.2359 39.6771 42.1942 39.6875 42.1525 39.6875C42.0692 39.6875 41.9546 39.6458 41.8088 39.5625C41.6629 39.4792 41.5067 39.2708 41.34 38.9375C40.9234 38.1042 40.6942 37.4375 40.6525 36.9375C40.6109 36.4375 40.5067 35.7708 40.34 34.9375C40.2984 34.6042 40.2254 34.2708 40.1213 33.9375C40.0171 33.6042 39.8817 33.3125 39.715 33.0625C40.0484 33.0625 40.3609 33.0625 40.6525 33.0625C40.9442 33.0625 41.2567 33.0625 41.59 33.0625ZM18.1525 31.0625C18.1525 30.9792 18.1734 30.9167 18.215 30.875C18.2567 30.8333 18.2775 30.7917 18.2775 30.75C18.3192 30.7083 18.3817 30.6771 18.465 30.6562C18.5484 30.6354 18.6525 30.625 18.7775 30.625H22.34C22.465 30.625 22.5692 30.6354 22.6525 30.6562C22.7359 30.6771 22.7984 30.7083 22.84 30.75C22.8817 30.7917 22.9129 30.8333 22.9338 30.875C22.9546 30.9167 22.9859 30.9792 23.0275 31.0625L23.215 31.8125H17.9025L18.1525 31.0625ZM20.59 33.0625C20.6734 33.0625 20.7567 33.0625 20.84 33.0625C20.9234 33.0625 21.0067 33.0625 21.09 33.0625C21.465 33.0625 21.84 33.0625 22.215 33.0625C22.59 33.0625 22.965 33.0625 23.34 33.0625C23.6317 33.0625 23.9129 33.0625 24.1838 33.0625C24.4546 33.0625 24.715 33.0625 24.965 33.0625C24.84 33.3542 24.715 33.6771 24.59 34.0312C24.465 34.3854 24.3817 34.6875 24.34 34.9375C24.215 35.7292 24.1317 36.3854 24.09 36.9062C24.0484 37.4271 23.8192 38.1042 23.4025 38.9375C23.2359 39.2708 23.0796 39.4792 22.9338 39.5625C22.7879 39.6458 22.6734 39.6875 22.59 39.6875H22.5275C22.4859 39.6875 22.4546 39.6771 22.4338 39.6562C22.4129 39.6354 22.3817 39.625 22.34 39.625C22.34 39.5833 22.3296 39.5312 22.3088 39.4688C22.2879 39.4062 22.2775 39.3333 22.2775 39.25V37.625C22.2775 37.3333 22.2463 37.0625 22.1838 36.8125C22.1213 36.5625 22.0275 36.3333 21.9025 36.125C21.7359 35.9583 21.5379 35.8125 21.3088 35.6875C21.0796 35.5625 20.84 35.5 20.59 35.5C20.2984 35.5 20.0379 35.5521 19.8088 35.6562C19.5796 35.7604 19.3817 35.9167 19.215 36.125C19.09 36.3333 19.0067 36.5625 18.965 36.8125C18.9234 37.0625 18.9025 37.3333 18.9025 37.625V39.25C18.9025 39.3333 18.8921 39.4062 18.8713 39.4688C18.8504 39.5312 18.8192 39.5833 18.7775 39.625C18.7359 39.625 18.7046 39.6354 18.6838 39.6562C18.6629 39.6771 18.6317 39.6875 18.59 39.6875H18.5275C18.4442 39.6875 18.3296 39.6458 18.1838 39.5625C18.0379 39.4792 17.8817 39.2708 17.715 38.9375C17.2984 38.1042 17.0692 37.4375 17.0275 36.9375C16.9859 36.4375 16.9025 35.7708 16.7775 34.9375C16.6942 34.6042 16.6004 34.2708 16.4963 33.9375C16.3921 33.6042 16.2775 33.3125 16.1525 33.0625H20.59ZM51.715 42.6875C51.715 42.9792 51.6942 43.2604 51.6525 43.5312C51.6109 43.8021 51.5275 44.0208 51.4025 44.1875C51.3192 44.3542 51.1629 44.5 50.9338 44.625C50.7046 44.75 50.3609 44.8125 49.9025 44.8125H14.7775C14.3192 44.8125 13.9754 44.75 13.7463 44.625C13.5171 44.5 13.3609 44.3542 13.2775 44.1875C13.1525 44.0208 13.0692 43.8021 13.0275 43.5312C12.9859 43.2604 12.965 42.9792 12.965 42.6875V33.5C12.965 33.375 12.9754 33.2708 12.9963 33.1875C13.0171 33.1042 13.0692 33.0208 13.1525 32.9375C13.1942 32.8958 13.2671 32.8646 13.3713 32.8438C13.4754 32.8229 13.5692 32.8125 13.6525 32.8125C13.6525 32.8125 13.6734 32.8021 13.715 32.7812C13.7567 32.7604 13.7775 32.75 13.7775 32.75C13.9859 32.75 14.215 32.8333 14.465 33C14.715 33.1667 14.9025 33.375 15.0275 33.625C15.1942 33.9167 15.3088 34.1562 15.3713 34.3438C15.4338 34.5312 15.5067 34.8125 15.59 35.1875C15.715 35.8958 15.8088 36.5625 15.8713 37.1875C15.9338 37.8125 16.1942 38.5833 16.6525 39.5C16.8609 39.9583 17.1317 40.3125 17.465 40.5625C17.7984 40.8125 18.1525 40.9375 18.5275 40.9375C18.5692 40.9375 18.6004 40.9375 18.6213 40.9375C18.6421 40.9375 18.6734 40.9167 18.715 40.875C19.09 40.8333 19.4129 40.6562 19.6838 40.3438C19.9546 40.0312 20.09 39.6667 20.09 39.25V37.625C20.09 37.4167 20.1004 37.25 20.1213 37.125C20.1421 37 20.1734 36.9167 20.215 36.875C20.2984 36.7917 20.3609 36.7396 20.4025 36.7188C20.4442 36.6979 20.5067 36.6875 20.59 36.6875C20.6317 36.6875 20.6838 36.7083 20.7463 36.75C20.8088 36.7917 20.8609 36.8333 20.9025 36.875C20.9442 36.9167 20.9754 37 20.9963 37.125C21.0171 37.25 21.0275 37.4167 21.0275 37.625V39.25C21.0275 39.6667 21.1629 40.0312 21.4338 40.3438C21.7046 40.6562 22.0275 40.8333 22.4025 40.875C22.4442 40.9167 22.4754 40.9375 22.4963 40.9375C22.5171 40.9375 22.5484 40.9375 22.59 40.9375C22.965 40.9375 23.3192 40.8125 23.6525 40.5625C23.9859 40.3125 24.2567 39.9583 24.465 39.5C24.9234 38.5833 25.1838 37.8125 25.2463 37.1875C25.3088 36.5625 25.4025 35.8958 25.5275 35.1875C25.6109 34.8125 25.6838 34.5312 25.7463 34.3438C25.8088 34.1562 25.9025 33.9375 26.0275 33.6875C26.0692 33.6042 26.1109 33.5208 26.1525 33.4375C26.1942 33.3542 26.215 33.2708 26.215 33.1875C26.6317 33.2292 27.0275 33.3229 27.4025 33.4688C27.7775 33.6146 28.0692 33.7708 28.2775 33.9375C28.5692 34.2292 28.8504 34.5104 29.1213 34.7812C29.3921 35.0521 29.6734 35.2917 29.965 35.5C30.2984 35.6667 30.6629 35.8125 31.0588 35.9375C31.4546 36.0625 31.8817 36.125 32.34 36.125C32.84 36.125 33.2879 36.0625 33.6838 35.9375C34.0796 35.8125 34.4234 35.6667 34.715 35.5C35.0484 35.2917 35.3504 35.0521 35.6213 34.7812C35.8921 34.5104 36.1734 34.2292 36.465 33.9375C36.6317 33.7708 36.9129 33.6146 37.3088 33.4688C37.7046 33.3229 38.09 33.2292 38.465 33.1875C38.5067 33.2708 38.5379 33.3542 38.5588 33.4375C38.5796 33.5208 38.6109 33.6042 38.6525 33.6875C38.7775 33.9375 38.8817 34.1562 38.965 34.3438C39.0484 34.5312 39.1109 34.8125 39.1525 35.1875C39.2775 35.8958 39.3713 36.5625 39.4338 37.1875C39.4963 37.8125 39.7567 38.5833 40.215 39.5C40.465 39.9583 40.7567 40.3125 41.09 40.5625C41.4234 40.8125 41.7775 40.9375 42.1525 40.9375C42.1525 40.9375 42.1734 40.9375 42.215 40.9375C42.2567 40.9375 42.2775 40.9167 42.2775 40.875C42.6942 40.8333 43.0275 40.6562 43.2775 40.3438C43.5275 40.0312 43.6525 39.6667 43.6525 39.25V37.625C43.6525 37.4167 43.6629 37.25 43.6838 37.125C43.7046 37 43.7359 36.9167 43.7775 36.875C43.8609 36.7917 43.9338 36.7396 43.9963 36.7188C44.0588 36.6979 44.1109 36.6875 44.1525 36.6875C44.1942 36.6875 44.2463 36.7083 44.3088 36.75C44.3713 36.7917 44.4234 36.8333 44.465 36.875C44.5067 36.9167 44.5484 37 44.59 37.125C44.6317 37.25 44.6525 37.4167 44.6525 37.625V39.25C44.6525 39.6667 44.7775 40.0312 45.0275 40.3438C45.2775 40.6562 45.6109 40.8333 46.0275 40.875C46.0275 40.9167 46.0379 40.9375 46.0588 40.9375C46.0796 40.9375 46.1109 40.9375 46.1525 40.9375C46.5275 40.9375 46.8817 40.8125 47.215 40.5625C47.5484 40.3125 47.8192 39.9583 48.0275 39.5C48.5275 38.5833 48.8088 37.8125 48.8713 37.1875C48.9338 36.5625 49.0275 35.8958 49.1525 35.1875C49.1942 34.8125 49.2567 34.5208 49.34 34.3125C49.4234 34.1042 49.5484 33.8542 49.715 33.5625C49.8817 33.3125 50.0796 33.125 50.3088 33C50.5379 32.875 50.7567 32.8125 50.965 32.8125H51.0275C51.1525 32.8125 51.2567 32.8333 51.34 32.875C51.4234 32.9167 51.5067 32.9583 51.59 33C51.6317 33.0833 51.6629 33.1667 51.6838 33.25C51.7046 33.3333 51.715 33.4167 51.715 33.5V42.6875ZM15.465 26.25C15.7567 26.7917 16.1421 27.1667 16.6213 27.375C17.1004 27.5833 17.5692 27.6875 18.0275 27.6875H23.09C23.5484 27.6875 24.0275 27.5833 24.5275 27.375C25.0275 27.1667 25.4234 26.7917 25.715 26.25C25.84 25.9583 25.965 25.6979 26.09 25.4688C26.215 25.2396 26.34 25 26.465 24.75C26.59 25 26.7254 25.25 26.8713 25.5C27.0171 25.75 27.1525 26 27.2775 26.25C27.5692 26.7917 27.9546 27.1667 28.4338 27.375C28.9129 27.5833 29.3817 27.6875 29.84 27.6875H34.9025C35.3609 27.6875 35.84 27.5833 36.34 27.375C36.84 27.1667 37.2359 26.7917 37.5275 26.25C37.6525 25.9583 37.7775 25.6979 37.9025 25.4688C38.0275 25.2396 38.1525 25.0208 38.2775 24.8125C38.4025 25.0625 38.5275 25.3021 38.6525 25.5312C38.7775 25.7604 38.9025 26 39.0275 26.25C39.3192 26.7917 39.715 27.1667 40.215 27.375C40.715 27.5833 41.1734 27.6875 41.59 27.6875H46.715C47.1317 27.6875 47.59 27.5833 48.09 27.375C48.59 27.1667 48.9859 26.7917 49.2775 26.25C49.4025 26.0417 49.5275 25.8229 49.6525 25.5938C49.7775 25.3646 49.9025 25.1042 50.0275 24.8125C50.2359 24.4375 50.3817 24.0417 50.465 23.625C50.5484 23.2083 50.59 22.7917 50.59 22.375C50.59 22 50.5588 21.6458 50.4963 21.3125C50.4338 20.9792 50.34 20.6458 50.215 20.3125C49.965 19.6875 49.5692 19.1354 49.0275 18.6562C48.4859 18.1771 47.84 17.9375 47.09 17.9375C46.715 17.9375 46.3713 17.9792 46.0588 18.0625C45.7463 18.1458 45.465 18.25 45.215 18.375C44.965 18.4583 44.7567 18.5312 44.59 18.5938C44.4234 18.6562 44.2775 18.6875 44.1525 18.6875C44.0275 18.6875 43.8817 18.6562 43.715 18.5938C43.5484 18.5312 43.34 18.4583 43.09 18.375C42.84 18.25 42.5588 18.1458 42.2463 18.0625C41.9338 17.9792 41.59 17.9375 41.215 17.9375C40.5484 17.9375 39.965 18.1354 39.465 18.5312C38.965 18.9271 38.5692 19.4167 38.2775 20C37.9859 19.4167 37.5796 18.9271 37.0588 18.5312C36.5379 18.1354 35.965 17.9375 35.34 17.9375C34.965 17.9375 34.6213 17.9792 34.3088 18.0625C33.9963 18.1458 33.6942 18.25 33.4025 18.375C33.1942 18.4583 32.9963 18.5312 32.8088 18.5938C32.6213 18.6562 32.4859 18.6875 32.4025 18.6875C32.2775 18.6875 32.1317 18.6562 31.965 18.5938C31.7984 18.5312 31.59 18.4583 31.34 18.375C31.09 18.25 30.7984 18.1458 30.465 18.0625C30.1317 17.9792 29.7984 17.9375 29.465 17.9375C28.7984 17.9375 28.2046 18.1354 27.6838 18.5312C27.1629 18.9271 26.7567 19.4167 26.465 20C26.1734 19.4167 25.7775 18.9271 25.2775 18.5312C24.7775 18.1354 24.1942 17.9375 23.5275 17.9375C23.1525 17.9375 22.8088 17.9792 22.4963 18.0625C22.1838 18.1458 21.9025 18.25 21.6525 18.375C21.4025 18.4583 21.1838 18.5312 20.9963 18.5938C20.8088 18.6562 20.6734 18.6875 20.59 18.6875C20.465 18.6875 20.3192 18.6562 20.1525 18.5938C19.9859 18.5312 19.7775 18.4583 19.5275 18.375C19.2775 18.25 18.9859 18.1458 18.6525 18.0625C18.3192 17.9792 17.9859 17.9375 17.6525 17.9375C16.9025 17.9375 16.2567 18.1771 15.715 18.6562C15.1734 19.1354 14.7775 19.6875 14.5275 20.3125C14.3609 20.6458 14.2463 20.9792 14.1838 21.3125C14.1213 21.6458 14.09 22 14.09 22.375C14.09 22.7917 14.1421 23.2083 14.2463 23.625C14.3504 24.0417 14.5067 24.4375 14.715 24.8125C14.84 25.1042 14.965 25.3646 15.09 25.5938C15.215 25.8229 15.34 26.0417 15.465 26.25ZM39.215 20.8125C39.4234 20.3125 39.7046 19.9167 40.0588 19.625C40.4129 19.3333 40.7984 19.1875 41.215 19.1875C41.465 19.1875 41.715 19.2188 41.965 19.2812C42.215 19.3438 42.4442 19.4167 42.6525 19.5C42.9025 19.5833 43.1421 19.6667 43.3713 19.75C43.6004 19.8333 43.8609 19.875 44.1525 19.875C44.4442 19.875 44.7046 19.8333 44.9338 19.75C45.1629 19.6667 45.4025 19.5833 45.6525 19.5C45.8609 19.4167 46.09 19.3438 46.34 19.2812C46.59 19.2188 46.84 19.1875 47.09 19.1875C47.5067 19.1875 47.8921 19.3333 48.2463 19.625C48.6004 19.9167 48.8817 20.3125 49.09 20.8125C49.1734 21.0208 49.2463 21.2604 49.3088 21.5312C49.3713 21.8021 49.4025 22.0833 49.4025 22.375C49.4025 22.7083 49.3609 23.0312 49.2775 23.3438C49.1942 23.6562 49.09 23.9583 48.965 24.25C48.7984 24.5417 48.6629 24.7917 48.5588 25C48.4546 25.2083 48.34 25.4167 48.215 25.625C48.0067 26 47.7775 26.2396 47.5275 26.3438C47.2775 26.4479 47.0067 26.5 46.715 26.5H41.59C41.2984 26.5 41.0171 26.4479 40.7463 26.3438C40.4754 26.2396 40.2567 26 40.09 25.625C39.965 25.4167 39.84 25.2083 39.715 25C39.59 24.7917 39.465 24.5417 39.34 24.25C39.1734 23.9583 39.0588 23.6458 38.9963 23.3125C38.9338 22.9792 38.9025 22.6667 38.9025 22.375C38.9025 22.0833 38.9234 21.8021 38.965 21.5312C39.0067 21.2604 39.09 21.0208 39.215 20.8125ZM27.4025 20.8125C27.6109 20.3125 27.8921 19.9167 28.2463 19.625C28.6004 19.3333 28.9859 19.1875 29.4025 19.1875C29.6942 19.1875 29.9546 19.2188 30.1838 19.2812C30.4129 19.3438 30.6525 19.4167 30.9025 19.5C31.1525 19.5833 31.3921 19.6667 31.6213 19.75C31.8504 19.8333 32.1109 19.875 32.4025 19.875C32.6525 19.875 32.9025 19.8333 33.1525 19.75C33.4025 19.6667 33.6317 19.5833 33.84 19.5C34.09 19.4167 34.3296 19.3438 34.5588 19.2812C34.7879 19.2188 35.0484 19.1875 35.34 19.1875C35.7567 19.1875 36.1421 19.3333 36.4963 19.625C36.8504 19.9167 37.1317 20.3125 37.34 20.8125C37.4234 21.0208 37.4859 21.2604 37.5275 21.5312C37.5692 21.8021 37.59 22.0833 37.59 22.375C37.59 22.6667 37.5588 22.9792 37.4963 23.3125C37.4338 23.6458 37.3192 23.9583 37.1525 24.25C37.0275 24.5417 36.9025 24.7917 36.7775 25C36.6525 25.2083 36.5275 25.4167 36.4025 25.625C36.2359 26 36.0171 26.2396 35.7463 26.3438C35.4754 26.4479 35.1942 26.5 34.9025 26.5H29.84C29.5484 26.5 29.2671 26.4479 28.9963 26.3438C28.7254 26.2396 28.5067 26 28.34 25.625C28.215 25.4167 28.09 25.2083 27.965 25C27.84 24.7917 27.715 24.5417 27.59 24.25C27.4234 23.9583 27.3088 23.6562 27.2463 23.3438C27.1838 23.0312 27.1525 22.7083 27.1525 22.375C27.1525 22.0833 27.1734 21.8021 27.215 21.5312C27.2567 21.2604 27.3192 21.0208 27.4025 20.8125ZM15.59 20.8125C15.7984 20.3125 16.0796 19.9167 16.4338 19.625C16.7879 19.3333 17.1942 19.1875 17.6525 19.1875C17.9025 19.1875 18.1525 19.2188 18.4025 19.2812C18.6525 19.3438 18.8817 19.4167 19.09 19.5C19.34 19.5833 19.5796 19.6667 19.8088 19.75C20.0379 19.8333 20.2984 19.875 20.59 19.875C20.8817 19.875 21.1421 19.8333 21.3713 19.75C21.6004 19.6667 21.8192 19.5833 22.0275 19.5C22.2775 19.4167 22.5275 19.3438 22.7775 19.2812C23.0275 19.2188 23.2775 19.1875 23.5275 19.1875C23.9442 19.1875 24.3296 19.3333 24.6838 19.625C25.0379 19.9167 25.3192 20.3125 25.5275 20.8125C25.6109 21.0208 25.6838 21.2604 25.7463 21.5312C25.8088 21.8021 25.84 22.0833 25.84 22.375C25.84 22.7083 25.7984 23.0312 25.715 23.3438C25.6317 23.6562 25.5067 23.9583 25.34 24.25C25.215 24.5417 25.09 24.7917 24.965 25C24.84 25.2083 24.7359 25.4167 24.6525 25.625C24.4442 25.9583 24.2046 26.1875 23.9338 26.3125C23.6629 26.4375 23.3817 26.5 23.09 26.5H18.0275C17.7359 26.5 17.4546 26.4375 17.1838 26.3125C16.9129 26.1875 16.6942 25.9583 16.5275 25.625C16.4025 25.4167 16.2775 25.2083 16.1525 25C16.0275 24.7917 15.9025 24.5417 15.7775 24.25C15.6109 23.9583 15.4963 23.6458 15.4338 23.3125C15.3713 22.9792 15.34 22.6667 15.34 22.375C15.34 22.0833 15.3609 21.8021 15.4025 21.5312C15.4442 21.2604 15.5275 21.0208 15.6525 20.8125H15.59ZM32.34 0C27.9234 0 23.7775 0.833333 19.9025 2.5C15.9859 4.16667 12.5796 6.44792 9.68378 9.34375C6.78794 12.2396 4.50669 15.6458 2.84003 19.5625C1.17336 23.4375 0.340027 27.5833 0.340027 32C0.340027 36.4167 1.17336 40.5625 2.84003 44.4375C4.50669 48.3542 6.78794 51.7604 9.68378 54.6562C12.5796 57.5521 15.9859 59.8333 19.9025 61.5C23.7775 63.1667 27.9234 64 32.34 64C36.7567 64 40.9025 63.1667 44.7775 61.5C48.6942 59.8333 52.1004 57.5521 54.9963 54.6562C57.8921 51.7604 60.1734 48.3542 61.84 44.4375C63.5067 40.5625 64.34 36.4167 64.34 32C64.34 27.5833 63.5067 23.4375 61.84 19.5625C60.1734 15.6458 57.8921 12.2396 54.9963 9.34375C52.1004 6.44792 48.6942 4.16667 44.7775 2.5C40.9025 0.833333 36.7567 0 32.34 0ZM53.965 53.625C52.59 55 51.09 56.25 49.465 57.375C47.7984 58.4583 46.0588 59.3854 44.2463 60.1562C42.4338 60.9271 40.5275 61.5208 38.5275 61.9375C36.5275 62.3542 34.465 62.5625 32.34 62.5625C30.215 62.5625 28.1525 62.3542 26.1525 61.9375C24.1525 61.5208 22.2463 60.9271 20.4338 60.1562C18.6213 59.3854 16.8817 58.4583 15.215 57.375C13.59 56.25 12.09 55 10.715 53.625C9.34003 52.25 8.09003 50.75 6.96503 49.125C5.88169 47.4583 4.95461 45.7188 4.18378 43.9062C3.41294 42.0938 2.81919 40.1875 2.40253 38.1875C1.98586 36.1875 1.77753 34.125 1.77753 32C1.77753 29.875 1.98586 27.8125 2.40253 25.8125C2.81919 23.8125 3.41294 21.9062 4.18378 20.0938C4.95461 18.2812 5.88169 16.5417 6.96503 14.875C8.09003 13.25 9.34003 11.75 10.715 10.375C12.09 9 13.59 7.75 15.215 6.625C16.8817 5.54167 18.6213 4.61458 20.4338 3.84375C22.2463 3.07292 24.1525 2.47917 26.1525 2.0625C28.1525 1.64583 30.215 1.4375 32.34 1.4375C34.465 1.4375 36.5275 1.64583 38.5275 2.0625C40.5275 2.47917 42.4338 3.07292 44.2463 3.84375C46.0588 4.61458 47.7984 5.54167 49.465 6.625C51.09 7.75 52.59 9 53.965 10.375C55.34 11.75 56.59 13.25 57.715 14.875C58.7984 16.5417 59.7254 18.2812 60.4963 20.0938C61.2671 21.9062 61.8609 23.8125 62.2775 25.8125C62.6942 27.8125 62.9025 29.875 62.9025 32C62.9025 34.125 62.6942 36.1875 62.2775 38.1875C61.8609 40.1875 61.2671 42.0938 60.4963 43.9062C59.7254 45.7188 58.7984 47.4583 57.715 49.125C56.59 50.75 55.34 52.25 53.965 53.625ZM32.0275 33.3125C32.0275 33.3542 32.0379 33.3854 32.0588 33.4062C32.0796 33.4271 32.1109 33.4375 32.1525 33.4375H32.215C32.215 33.4792 32.2359 33.5 32.2775 33.5C32.3192 33.5 32.3609 33.5 32.4025 33.5C32.4025 33.5 32.4234 33.5 32.465 33.5C32.5067 33.5 32.5484 33.4792 32.59 33.4375C32.6317 33.4375 32.6629 33.4271 32.6838 33.4062C32.7046 33.3854 32.715 33.375 32.715 33.375C32.715 33.375 32.9025 33.1562 33.2775 32.7188C33.6525 32.2812 33.84 32.0625 33.84 32.0625C33.965 31.9792 34.0171 31.875 33.9963 31.75C33.9754 31.625 33.9234 31.5208 33.84 31.4375C33.7567 31.3542 33.6421 31.3125 33.4963 31.3125C33.3504 31.3125 33.2359 31.3542 33.1525 31.4375L32.84 31.8125V29.4375C32.84 29.2708 32.7984 29.1458 32.715 29.0625C32.6317 28.9792 32.5275 28.9375 32.4025 28.9375C32.2359 28.9375 32.1109 28.9792 32.0275 29.0625C31.9442 29.1458 31.9025 29.2708 31.9025 29.4375V31.8125L31.59 31.4375C31.5067 31.3542 31.4025 31.3125 31.2775 31.3125C31.1525 31.3125 31.0275 31.3542 30.9025 31.4375C30.8192 31.5208 30.7775 31.625 30.7775 31.75C30.7775 31.875 30.8192 31.9792 30.9025 32.0625C30.9025 32.0625 31.09 32.2812 31.465 32.7188C31.84 33.1562 32.0275 33.375 32.0275 33.375V33.3125Z" fill="#009CDE"/>
</g>
<defs>
<clipPath id="clip0_1_116">
<rect width="64" height="64" fill="white" transform="matrix(1 0 0 -1 0.340027 64)"/>
</clipPath>
</defs>
</svg>
