<svg width="84" height="83" viewBox="0 0 84 83" fill="none" xmlns="http://www.w3.org/2000/svg">
<g clip-path="url(#clip0_1_116)">
<path d="M66.0754 40.9326H65.9943C65.6701 40.9326 65.3324 40.9867 64.9811 41.0947C64.6299 41.2028 64.2922 41.3919 63.968 41.6621C63.8599 41.554 63.7248 41.4595 63.5627 41.3784C63.4006 41.2974 63.2385 41.2568 63.0764 41.2568H62.1848L61.8605 39.8789C61.8065 39.6628 61.7119 39.4331 61.5768 39.1899C61.4418 38.9468 61.2661 38.7712 61.05 38.6631C60.8338 38.501 60.5907 38.3794 60.3205 38.2983C60.0503 38.2173 59.7801 38.1768 59.5099 38.1768H54.8088C54.5386 38.1768 54.2684 38.2173 53.9982 38.2983C53.728 38.3794 53.4849 38.501 53.2687 38.6631C53.0526 38.7712 52.877 38.9468 52.7419 39.1899C52.6068 39.4331 52.5122 39.6628 52.4582 39.8789L52.134 41.2568C52.0799 41.2568 52.0394 41.2568 52.0124 41.2568C51.9854 41.2568 51.9719 41.2568 51.9719 41.2568C51.8098 41.2568 51.6612 41.2703 51.5261 41.2974C51.391 41.3244 51.2694 41.3379 51.1613 41.3379C50.4048 41.3379 49.5402 41.4325 48.5676 41.6216C47.5949 41.8107 46.7573 42.2565 46.0549 42.959C45.6766 43.3372 45.3254 43.675 45.0012 43.9722C44.6769 44.2694 44.3797 44.499 44.1096 44.6611C43.7853 44.8773 43.4611 45.0394 43.1369 45.1475C42.8127 45.2555 42.3804 45.3096 41.84 45.3096C41.3537 45.3096 40.9349 45.2555 40.5837 45.1475C40.2324 45.0394 39.9217 44.8773 39.6516 44.6611C39.3273 44.499 39.0166 44.2694 38.7194 43.9722C38.4222 43.675 38.0575 43.3372 37.6252 42.959C36.9767 42.2565 36.1527 41.8107 35.153 41.6216C34.1533 41.4325 33.2752 41.3379 32.5187 41.3379C32.4107 41.3379 32.2756 41.3244 32.1135 41.2974C31.9514 41.2703 31.7892 41.2568 31.6271 41.2568L31.2219 39.8789C31.1678 39.6628 31.0733 39.4466 30.9382 39.2305C30.8031 39.0143 30.6275 38.8252 30.4113 38.6631C30.1952 38.501 29.952 38.3794 29.6818 38.2983C29.4116 38.2173 29.1415 38.1768 28.8713 38.1768H24.2512C23.981 38.1768 23.7108 38.2173 23.4406 38.2983C23.1704 38.3794 22.9273 38.501 22.7111 38.6631C22.495 38.8252 22.3194 39.0143 22.1843 39.2305C22.0492 39.4466 21.9546 39.6628 21.9006 39.8789L21.4953 41.2568H20.6848C20.5226 41.2568 20.347 41.2974 20.1579 41.3784C19.9688 41.4595 19.8202 41.554 19.7121 41.6621C19.3879 41.446 19.0501 41.2703 18.6989 41.1353C18.3477 41.0002 18.0099 40.9326 17.6857 40.9326H17.6047C17.2805 40.9326 16.9697 40.9867 16.6725 41.0947C16.3753 41.2028 16.1187 41.3649 15.9025 41.5811C15.6323 41.7972 15.4297 42.0674 15.2946 42.3916C15.1595 42.7158 15.092 43.0671 15.092 43.4453V55.3604C15.092 55.7926 15.1325 56.252 15.2136 56.7383C15.2946 57.2246 15.4702 57.7109 15.7404 58.1973C16.0646 58.6296 16.4969 58.9943 17.0373 59.2915C17.5777 59.5887 18.2531 59.7373 19.0637 59.7373H64.6164C65.4269 59.7373 66.1024 59.5887 66.6428 59.2915C67.1831 58.9943 67.6154 58.6296 67.9396 58.1973C68.2098 57.7109 68.3854 57.2246 68.4665 56.7383C68.5475 56.252 68.5881 55.7926 68.5881 55.3604V43.4453C68.5881 43.0671 68.5205 42.7158 68.3854 42.3916C68.2503 42.0674 68.0477 41.7972 67.7775 41.5811C67.5614 41.3649 67.3047 41.2028 67.0075 41.0947C66.7103 40.9867 66.3996 40.9326 66.0754 40.9326ZM53.9982 40.2842C53.9982 40.1761 54.0252 40.0951 54.0793 40.041C54.1333 39.987 54.1874 39.9329 54.2414 39.8789C54.2954 39.8249 54.363 39.7843 54.444 39.7573C54.5251 39.7303 54.6467 39.7168 54.8088 39.7168H59.5099C59.6721 39.7168 59.7936 39.7303 59.8747 39.7573C59.9557 39.7843 60.0233 39.8249 60.0773 39.8789C60.1314 39.9329 60.1719 39.987 60.1989 40.041C60.2259 40.0951 60.2665 40.1761 60.3205 40.2842L60.5637 41.2568H53.7551L53.9982 40.2842ZM53.8361 42.8779C54.3765 42.8779 54.9304 42.8779 55.4977 42.8779C56.0651 42.8779 56.619 42.8779 57.1594 42.8779H57.2404C57.2404 42.8779 58.1861 42.8779 60.0773 42.8779C61.9686 42.8779 62.9142 42.8779 62.9142 42.8779C62.7521 43.1481 62.59 43.5264 62.4279 44.0127C62.2658 44.499 62.1577 44.9313 62.1037 45.3096C61.8876 46.3363 61.7525 47.1873 61.6984 47.8628C61.6444 48.5382 61.3472 49.4163 60.8068 50.4971C60.5907 50.9294 60.388 51.1995 60.1989 51.3076C60.0098 51.4157 59.8612 51.4697 59.7531 51.4697C59.6991 51.4697 59.645 51.4562 59.591 51.4292C59.537 51.4022 59.5099 51.3887 59.5099 51.3887C59.4559 51.3346 59.4154 51.2671 59.3884 51.186C59.3613 51.105 59.3478 51.0104 59.3478 50.9023V48.7949C59.3478 48.4167 59.3208 48.0654 59.2668 47.7412C59.2127 47.417 59.0777 47.1198 58.8615 46.8496C58.6994 46.6335 58.4562 46.4443 58.132 46.2822C57.8078 46.1201 57.4836 46.0391 57.1594 46.0391C56.8351 46.0391 56.5109 46.1201 56.1867 46.2822C55.8625 46.4443 55.6193 46.6335 55.4572 46.8496C55.2411 47.1198 55.106 47.417 55.0519 47.7412C54.9979 48.0654 54.9709 48.4167 54.9709 48.7949V50.9023C54.9709 51.0104 54.9574 51.105 54.9304 51.186C54.9033 51.2671 54.8898 51.3346 54.8898 51.3887C54.8358 51.3887 54.7818 51.4022 54.7277 51.4292C54.6737 51.4562 54.6196 51.4697 54.5656 51.4697C54.4575 51.4697 54.3089 51.4157 54.1198 51.3076C53.9307 51.1995 53.728 50.9294 53.5119 50.4971C52.9715 49.4163 52.6743 48.5518 52.6203 47.9033C52.5663 47.2549 52.4312 46.3903 52.215 45.3096C52.161 44.8773 52.0664 44.445 51.9313 44.0127C51.7962 43.5804 51.6206 43.2021 51.4045 42.8779C51.8368 42.8779 52.242 42.8779 52.6203 42.8779C52.9986 42.8779 53.4038 42.8779 53.8361 42.8779ZM23.4406 40.2842C23.4406 40.1761 23.4676 40.0951 23.5217 40.041C23.5757 39.987 23.6027 39.9329 23.6027 39.8789C23.6568 39.8249 23.7378 39.7843 23.8459 39.7573C23.954 39.7303 24.0891 39.7168 24.2512 39.7168H28.8713C29.0334 39.7168 29.1685 39.7303 29.2766 39.7573C29.3846 39.7843 29.4657 39.8249 29.5197 39.8789C29.5738 39.9329 29.6143 39.987 29.6413 40.041C29.6683 40.0951 29.7088 40.1761 29.7629 40.2842L30.006 41.2568H23.1164L23.4406 40.2842ZM26.6017 42.8779C26.7098 42.8779 26.8179 42.8779 26.926 42.8779C27.034 42.8779 27.1421 42.8779 27.2502 42.8779C27.7365 42.8779 28.2228 42.8779 28.7092 42.8779C29.1955 42.8779 29.6818 42.8779 30.1682 42.8779C30.5464 42.8779 30.9112 42.8779 31.2624 42.8779C31.6136 42.8779 31.9514 42.8779 32.2756 42.8779C32.1135 43.2562 31.9514 43.675 31.7892 44.1343C31.6271 44.5936 31.5191 44.9854 31.465 45.3096C31.3029 46.3363 31.1948 47.1873 31.1408 47.8628C31.0868 48.5382 30.7896 49.4163 30.2492 50.4971C30.0331 50.9294 29.8304 51.1995 29.6413 51.3076C29.4522 51.4157 29.3036 51.4697 29.1955 51.4697H29.1144C29.0604 51.4697 29.0199 51.4562 28.9929 51.4292C28.9658 51.4022 28.9253 51.3887 28.8713 51.3887C28.8713 51.3346 28.8578 51.2671 28.8307 51.186C28.8037 51.105 28.7902 51.0104 28.7902 50.9023V48.7949C28.7902 48.4167 28.7497 48.0654 28.6686 47.7412C28.5876 47.417 28.466 47.1198 28.3039 46.8496C28.0877 46.6335 27.8311 46.4443 27.5339 46.2822C27.2367 46.1201 26.926 46.0391 26.6017 46.0391C26.2235 46.0391 25.8858 46.1066 25.5886 46.2417C25.2914 46.3768 25.0347 46.5794 24.8185 46.8496C24.6564 47.1198 24.5484 47.417 24.4943 47.7412C24.4403 48.0654 24.4133 48.4167 24.4133 48.7949V50.9023C24.4133 51.0104 24.3998 51.105 24.3727 51.186C24.3457 51.2671 24.3052 51.3346 24.2512 51.3887C24.1971 51.3887 24.1566 51.4022 24.1296 51.4292C24.1026 51.4562 24.062 51.4697 24.008 51.4697H23.9269C23.8189 51.4697 23.6703 51.4157 23.4811 51.3076C23.292 51.1995 23.0894 50.9294 22.8732 50.4971C22.3329 49.4163 22.0357 48.5518 21.9816 47.9033C21.9276 47.2549 21.8195 46.3903 21.6574 45.3096C21.5493 44.8773 21.4278 44.445 21.2927 44.0127C21.1576 43.5804 21.009 43.2021 20.8469 42.8779H26.6017ZM66.967 55.3604C66.967 55.7386 66.94 56.1034 66.8859 56.4546C66.8319 56.8058 66.7238 57.0895 66.5617 57.3057C66.4536 57.5218 66.251 57.7109 65.9538 57.873C65.6566 58.0352 65.2108 58.1162 64.6164 58.1162H19.0637C18.4693 58.1162 18.0235 58.0352 17.7263 57.873C17.4291 57.7109 17.2264 57.5218 17.1183 57.3057C16.9562 57.0895 16.8482 56.8058 16.7941 56.4546C16.7401 56.1034 16.7131 55.7386 16.7131 55.3604V43.4453C16.7131 43.2832 16.7266 43.1481 16.7536 43.04C16.7806 42.932 16.8482 42.8239 16.9562 42.7158C17.0103 42.6618 17.1048 42.6213 17.2399 42.5942C17.375 42.5672 17.4966 42.5537 17.6047 42.5537C17.6047 42.5537 17.6317 42.5402 17.6857 42.5132C17.7398 42.4862 17.7668 42.4727 17.7668 42.4727C18.037 42.4727 18.3342 42.5807 18.6584 42.7969C18.9826 43.013 19.2258 43.2832 19.3879 43.6074C19.604 43.9857 19.7526 44.2964 19.8337 44.5396C19.9147 44.7827 20.0093 45.1475 20.1174 45.6338C20.2795 46.5524 20.4011 47.417 20.4821 48.2275C20.5632 49.0381 20.9009 50.0378 21.4953 51.2266C21.7655 51.821 22.1167 52.2803 22.549 52.6045C22.9813 52.9287 23.4406 53.0908 23.9269 53.0908C23.981 53.0908 24.0215 53.0908 24.0485 53.0908C24.0755 53.0908 24.1161 53.0638 24.1701 53.0098C24.6564 52.9557 25.0752 52.7261 25.4265 52.3208C25.7777 51.9155 25.9533 51.4427 25.9533 50.9023V48.7949C25.9533 48.5247 25.9668 48.3086 25.9938 48.1465C26.0209 47.9844 26.0614 47.8763 26.1154 47.8223C26.2235 47.7142 26.3045 47.6466 26.3586 47.6196C26.4126 47.5926 26.4937 47.5791 26.6017 47.5791C26.6558 47.5791 26.7233 47.6061 26.8044 47.6602C26.8854 47.7142 26.953 47.7682 27.007 47.8223C27.0611 47.8763 27.1016 47.9844 27.1286 48.1465C27.1556 48.3086 27.1691 48.5247 27.1691 48.7949V50.9023C27.1691 51.4427 27.3447 51.9155 27.696 52.3208C28.0472 52.7261 28.466 52.9557 28.9523 53.0098C29.0064 53.0638 29.0469 53.0908 29.0739 53.0908C29.1009 53.0908 29.1415 53.0908 29.1955 53.0908C29.6818 53.0908 30.1411 52.9287 30.5734 52.6045C31.0057 52.2803 31.357 51.821 31.6271 51.2266C32.2215 50.0378 32.5593 49.0381 32.6403 48.2275C32.7214 47.417 32.843 46.5524 33.0051 45.6338C33.1131 45.1475 33.2077 44.7827 33.2888 44.5396C33.3698 44.2964 33.4914 44.0127 33.6535 43.6885C33.7075 43.5804 33.7616 43.4723 33.8156 43.3643C33.8696 43.2562 33.8967 43.1481 33.8967 43.04C34.437 43.0941 34.9504 43.2157 35.4367 43.4048C35.923 43.5939 36.3013 43.7966 36.5715 44.0127C36.9497 44.3909 37.3145 44.7557 37.6657 45.1069C38.0169 45.4582 38.3817 45.7689 38.7599 46.0391C39.1922 46.2552 39.6651 46.4443 40.1784 46.6064C40.6918 46.7686 41.2456 46.8496 41.84 46.8496C42.4885 46.8496 43.0694 46.7686 43.5827 46.6064C44.0961 46.4443 44.5419 46.2552 44.9201 46.0391C45.3524 45.7689 45.7442 45.4582 46.0954 45.1069C46.4466 44.7557 46.8114 44.3909 47.1896 44.0127C47.4058 43.7966 47.7705 43.5939 48.2839 43.4048C48.7972 43.2157 49.2971 43.0941 49.7834 43.04C49.8374 43.1481 49.8779 43.2562 49.905 43.3643C49.932 43.4723 49.9725 43.5804 50.0266 43.6885C50.1887 44.0127 50.3237 44.2964 50.4318 44.5396C50.5399 44.7827 50.621 45.1475 50.675 45.6338C50.8371 46.5524 50.9587 47.417 51.0397 48.2275C51.1208 49.0381 51.4585 50.0378 52.0529 51.2266C52.3771 51.821 52.7554 52.2803 53.1877 52.6045C53.62 52.9287 54.0793 53.0908 54.5656 53.0908C54.5656 53.0908 54.5926 53.0908 54.6467 53.0908C54.7007 53.0908 54.7277 53.0638 54.7277 53.0098C55.2681 52.9557 55.7004 52.7261 56.0246 52.3208C56.3488 51.9155 56.5109 51.4427 56.5109 50.9023V48.7949C56.5109 48.5247 56.5244 48.3086 56.5515 48.1465C56.5785 47.9844 56.619 47.8763 56.673 47.8223C56.7811 47.7142 56.8757 47.6466 56.9567 47.6196C57.0378 47.5926 57.1053 47.5791 57.1594 47.5791C57.2134 47.5791 57.2809 47.6061 57.362 47.6602C57.4431 47.7142 57.5106 47.7682 57.5646 47.8223C57.6187 47.8763 57.6727 47.9844 57.7267 48.1465C57.7808 48.3086 57.8078 48.5247 57.8078 48.7949V50.9023C57.8078 51.4427 57.9699 51.9155 58.2941 52.3208C58.6183 52.7261 59.0506 52.9557 59.591 53.0098C59.591 53.0638 59.6045 53.0908 59.6315 53.0908C59.6586 53.0908 59.6991 53.0908 59.7531 53.0908C60.2394 53.0908 60.6987 52.9287 61.131 52.6045C61.5633 52.2803 61.9146 51.821 62.1848 51.2266C62.8332 50.0378 63.1979 49.0381 63.279 48.2275C63.36 47.417 63.4816 46.5524 63.6437 45.6338C63.6978 45.1475 63.7788 44.7692 63.8869 44.499C63.995 44.2288 64.1571 43.9046 64.3732 43.5264C64.5894 43.2021 64.846 42.959 65.1432 42.7969C65.4405 42.6348 65.7241 42.5537 65.9943 42.5537H66.0754C66.2375 42.5537 66.3726 42.5807 66.4807 42.6348C66.5887 42.6888 66.6968 42.7428 66.8049 42.7969C66.8589 42.9049 66.8994 43.013 66.9265 43.1211C66.9535 43.2292 66.967 43.3372 66.967 43.4453V55.3604ZM19.9553 34.043C20.3335 34.7454 20.8334 35.2318 21.4548 35.502C22.0762 35.7721 22.6841 35.9072 23.2785 35.9072H29.8439C30.4383 35.9072 31.0598 35.7721 31.7082 35.502C32.3566 35.2318 32.87 34.7454 33.2482 34.043C33.4103 33.6647 33.5724 33.327 33.7346 33.0298C33.8967 32.7326 34.0588 32.4219 34.2209 32.0977C34.383 32.4219 34.5586 32.7461 34.7477 33.0703C34.9369 33.3945 35.1125 33.7188 35.2746 34.043C35.6529 34.7454 36.1527 35.2318 36.7741 35.502C37.3955 35.7721 38.0034 35.9072 38.5978 35.9072H45.1633C45.7577 35.9072 46.3791 35.7721 47.0275 35.502C47.676 35.2318 48.1893 34.7454 48.5676 34.043C48.7297 33.6647 48.8918 33.327 49.0539 33.0298C49.216 32.7326 49.3781 32.4489 49.5402 32.1787C49.7023 32.5029 49.8644 32.8136 50.0266 33.1108C50.1887 33.408 50.3508 33.7188 50.5129 34.043C50.8911 34.7454 51.4045 35.2318 52.0529 35.502C52.7014 35.7721 53.2958 35.9072 53.8361 35.9072H60.4826C61.023 35.9072 61.6174 35.7721 62.2658 35.502C62.9142 35.2318 63.4276 34.7454 63.8058 34.043C63.968 33.7728 64.1301 33.4891 64.2922 33.1919C64.4543 32.8947 64.6164 32.557 64.7785 32.1787C65.0487 31.6924 65.2378 31.179 65.3459 30.6387C65.454 30.0983 65.508 29.5579 65.508 29.0176C65.508 28.5312 65.4675 28.0719 65.3864 27.6396C65.3054 27.2074 65.1838 26.7751 65.0217 26.3428C64.6974 25.5322 64.1841 24.8162 63.4816 24.1948C62.7792 23.5734 61.9416 23.2627 60.9689 23.2627C60.4826 23.2627 60.0368 23.3167 59.6315 23.4248C59.2263 23.5329 58.8615 23.668 58.5373 23.8301C58.2131 23.9382 57.9429 24.0327 57.7267 24.1138C57.5106 24.1948 57.3215 24.2354 57.1594 24.2354C56.9973 24.2354 56.8081 24.1948 56.592 24.1138C56.3758 24.0327 56.1057 23.9382 55.7814 23.8301C55.4572 23.668 55.0925 23.5329 54.6872 23.4248C54.2819 23.3167 53.8361 23.2627 53.3498 23.2627C52.4852 23.2627 51.7287 23.5194 51.0803 24.0327C50.4318 24.5461 49.9185 25.181 49.5402 25.9375C49.162 25.181 48.6351 24.5461 47.9597 24.0327C47.2842 23.5194 46.5412 23.2627 45.7307 23.2627C45.2443 23.2627 44.7985 23.3167 44.3932 23.4248C43.988 23.5329 43.5962 23.668 43.218 23.8301C42.9478 23.9382 42.6911 24.0327 42.4479 24.1138C42.2048 24.1948 42.0292 24.2354 41.9211 24.2354C41.759 24.2354 41.5698 24.1948 41.3537 24.1138C41.1376 24.0327 40.8674 23.9382 40.5432 23.8301C40.2189 23.668 39.8407 23.5329 39.4084 23.4248C38.9761 23.3167 38.5438 23.2627 38.1115 23.2627C37.2469 23.2627 36.4769 23.5194 35.8015 24.0327C35.126 24.5461 34.5991 25.181 34.2209 25.9375C33.8426 25.181 33.3293 24.5461 32.6808 24.0327C32.0324 23.5194 31.2759 23.2627 30.4113 23.2627C29.925 23.2627 29.4792 23.3167 29.0739 23.4248C28.6686 23.5329 28.3039 23.668 27.9797 23.8301C27.6555 23.9382 27.3718 24.0327 27.1286 24.1138C26.8854 24.1948 26.7098 24.2354 26.6017 24.2354C26.4396 24.2354 26.2505 24.1948 26.0344 24.1138C25.8182 24.0327 25.548 23.9382 25.2238 23.8301C24.8996 23.668 24.5213 23.5329 24.0891 23.4248C23.6568 23.3167 23.2245 23.2627 22.7922 23.2627C21.8195 23.2627 20.982 23.5734 20.2795 24.1948C19.577 24.8162 19.0637 25.5322 18.7394 26.3428C18.5233 26.7751 18.3747 27.2074 18.2936 27.6396C18.2126 28.0719 18.1721 28.5312 18.1721 29.0176C18.1721 29.5579 18.2396 30.0983 18.3747 30.6387C18.5098 31.179 18.7124 31.6924 18.9826 32.1787C19.1447 32.557 19.3068 32.8947 19.4689 33.1919C19.631 33.4891 19.7932 33.7728 19.9553 34.043ZM50.756 26.9912C51.0262 26.3428 51.391 25.8294 51.8503 25.4512C52.3096 25.0729 52.8094 24.8838 53.3498 24.8838C53.674 24.8838 53.9982 24.9243 54.3224 25.0054C54.6467 25.0864 54.9439 25.181 55.2141 25.2891C55.5383 25.3971 55.849 25.5052 56.1462 25.6133C56.4434 25.7214 56.7811 25.7754 57.1594 25.7754C57.5376 25.7754 57.8753 25.7214 58.1725 25.6133C58.4697 25.5052 58.7805 25.3971 59.1047 25.2891C59.3749 25.181 59.6721 25.0864 59.9963 25.0054C60.3205 24.9243 60.6447 24.8838 60.9689 24.8838C61.5093 24.8838 62.0091 25.0729 62.4684 25.4512C62.9278 25.8294 63.2925 26.3428 63.5627 26.9912C63.6708 27.2614 63.7653 27.5721 63.8464 27.9233C63.9274 28.2746 63.968 28.6393 63.968 29.0176C63.968 29.4499 63.9139 29.8687 63.8058 30.2739C63.6978 30.6792 63.5627 31.071 63.4006 31.4492C63.1844 31.8275 63.0088 32.1517 62.8737 32.4219C62.7386 32.6921 62.59 32.9622 62.4279 33.2324C62.1577 33.7188 61.8605 34.0295 61.5363 34.1646C61.2121 34.2996 60.8609 34.3672 60.4826 34.3672H53.8361C53.4579 34.3672 53.0931 34.2996 52.7419 34.1646C52.3906 34.0295 52.107 33.7188 51.8908 33.2324C51.7287 32.9622 51.5666 32.6921 51.4045 32.4219C51.2424 32.1517 51.0803 31.8275 50.9182 31.4492C50.702 31.071 50.5534 30.6657 50.4724 30.2334C50.3913 29.8011 50.3508 29.3958 50.3508 29.0176C50.3508 28.6393 50.3778 28.2746 50.4318 27.9233C50.4859 27.5721 50.5939 27.2614 50.756 26.9912ZM35.4367 26.9912C35.7069 26.3428 36.0716 25.8294 36.5309 25.4512C36.9903 25.0729 37.4901 24.8838 38.0305 24.8838C38.4087 24.8838 38.7464 24.9243 39.0436 25.0054C39.3408 25.0864 39.6516 25.181 39.9758 25.2891C40.3 25.3971 40.6107 25.5052 40.9079 25.6133C41.2051 25.7214 41.5428 25.7754 41.9211 25.7754C42.2453 25.7754 42.5695 25.7214 42.8937 25.6133C43.218 25.5052 43.5152 25.3971 43.7853 25.2891C44.1096 25.181 44.4203 25.0864 44.7175 25.0054C45.0147 24.9243 45.3524 24.8838 45.7307 24.8838C46.271 24.8838 46.7709 25.0729 47.2302 25.4512C47.6895 25.8294 48.0542 26.3428 48.3244 26.9912C48.4325 27.2614 48.5135 27.5721 48.5676 27.9233C48.6216 28.2746 48.6486 28.6393 48.6486 29.0176C48.6486 29.3958 48.6081 29.8011 48.527 30.2334C48.446 30.6657 48.2974 31.071 48.0812 31.4492C47.9191 31.8275 47.757 32.1517 47.5949 32.4219C47.4328 32.6921 47.2707 32.9622 47.1086 33.2324C46.8924 33.7188 46.6087 34.0295 46.2575 34.1646C45.9063 34.2996 45.5415 34.3672 45.1633 34.3672H38.5978C38.2196 34.3672 37.8548 34.2996 37.5036 34.1646C37.1524 34.0295 36.8687 33.7188 36.6525 33.2324C36.4904 32.9622 36.3283 32.6921 36.1662 32.4219C36.0041 32.1517 35.842 31.8275 35.6799 31.4492C35.4637 31.071 35.3151 30.6792 35.2341 30.2739C35.153 29.8687 35.1125 29.4499 35.1125 29.0176C35.1125 28.6393 35.1395 28.2746 35.1935 27.9233C35.2476 27.5721 35.3286 27.2614 35.4367 26.9912ZM20.1174 26.9912C20.3876 26.3428 20.7523 25.8294 21.2116 25.4512C21.6709 25.0729 22.1978 24.8838 22.7922 24.8838C23.1164 24.8838 23.4406 24.9243 23.7648 25.0054C24.0891 25.0864 24.3863 25.181 24.6564 25.2891C24.9807 25.3971 25.2914 25.5052 25.5886 25.6133C25.8858 25.7214 26.2235 25.7754 26.6017 25.7754C26.98 25.7754 27.3177 25.7214 27.6149 25.6133C27.9121 25.5052 28.1958 25.3971 28.466 25.2891C28.7902 25.181 29.1144 25.0864 29.4387 25.0054C29.7629 24.9243 30.0871 24.8838 30.4113 24.8838C30.9517 24.8838 31.4515 25.0729 31.9108 25.4512C32.3701 25.8294 32.7349 26.3428 33.0051 26.9912C33.1131 27.2614 33.2077 27.5721 33.2888 27.9233C33.3698 28.2746 33.4103 28.6393 33.4103 29.0176C33.4103 29.4499 33.3563 29.8687 33.2482 30.2739C33.1402 30.6792 32.978 31.071 32.7619 31.4492C32.5998 31.8275 32.4377 32.1517 32.2756 32.4219C32.1135 32.6921 31.9784 32.9622 31.8703 33.2324C31.6001 33.6647 31.2894 33.9619 30.9382 34.124C30.5869 34.2861 30.2222 34.3672 29.8439 34.3672H23.2785C22.9002 34.3672 22.5355 34.2861 22.1843 34.124C21.833 33.9619 21.5493 33.6647 21.3332 33.2324C21.1711 32.9622 21.009 32.6921 20.8469 32.4219C20.6848 32.1517 20.5226 31.8275 20.3605 31.4492C20.1444 31.071 19.9958 30.6657 19.9147 30.2334C19.8337 29.8011 19.7932 29.3958 19.7932 29.0176C19.7932 28.6393 19.8202 28.2746 19.8742 27.9233C19.9282 27.5721 20.0363 27.2614 20.1984 26.9912H20.1174ZM41.84 0C36.1122 0 30.7355 1.08073 25.7101 3.24219C20.6307 5.40365 16.2132 8.36214 12.4577 12.1177C8.70217 15.8732 5.74367 20.2907 3.58221 25.3701C1.42076 30.3955 0.340027 35.7721 0.340027 41.5C0.340027 47.2279 1.42076 52.6045 3.58221 57.6299C5.74367 62.7093 8.70217 67.1268 12.4577 70.8823C16.2132 74.6379 20.6307 77.5964 25.7101 79.7578C30.7355 81.9193 36.1122 83 41.84 83C47.5679 83 52.9445 81.9193 57.9699 79.7578C63.0493 77.5964 67.4668 74.6379 71.2224 70.8823C74.9779 67.1268 77.9364 62.7093 80.0978 57.6299C82.2593 52.6045 83.34 47.2279 83.34 41.5C83.34 35.7721 82.2593 30.3955 80.0978 25.3701C77.9364 20.2907 74.9779 15.8732 71.2224 12.1177C67.4668 8.36214 63.0493 5.40365 57.9699 3.24219C52.9445 1.08073 47.5679 0 41.84 0ZM69.8849 69.5449C68.1017 71.3281 66.1564 72.9492 64.049 74.4082C61.8876 75.8132 59.6315 77.0155 57.2809 78.0151C54.9304 79.0148 52.4582 79.7848 49.8644 80.3252C47.2707 80.8656 44.5959 81.1357 41.84 81.1357C39.0842 81.1357 36.4094 80.8656 33.8156 80.3252C31.2219 79.7848 28.7497 79.0148 26.3991 78.0151C24.0485 77.0155 21.7925 75.8132 19.631 74.4082C17.5236 72.9492 15.5783 71.3281 13.7951 69.5449C12.0119 67.7617 10.3908 65.8164 8.93182 63.709C7.52688 61.5475 6.32456 59.2915 5.32489 56.9409C4.32522 54.5903 3.5552 52.1182 3.01483 49.5244C2.47447 46.9307 2.20428 44.2559 2.20428 41.5C2.20428 38.7441 2.47447 36.0693 3.01483 33.4756C3.5552 30.8818 4.32522 28.4097 5.32489 26.0591C6.32456 23.7085 7.52688 21.4525 8.93182 19.291C10.3908 17.1836 12.0119 15.2383 13.7951 13.4551C15.5783 11.6719 17.5236 10.0508 19.631 8.5918C21.7925 7.18685 24.0485 5.98454 26.3991 4.98486C28.7497 3.98519 31.2219 3.21517 33.8156 2.6748C36.4094 2.13444 39.0842 1.86426 41.84 1.86426C44.5959 1.86426 47.2707 2.13444 49.8644 2.6748C52.4582 3.21517 54.9304 3.98519 57.2809 4.98486C59.6315 5.98454 61.8876 7.18685 64.049 8.5918C66.1564 10.0508 68.1017 11.6719 69.8849 13.4551C71.6682 15.2383 73.2892 17.1836 74.7482 19.291C76.1532 21.4525 77.3555 23.7085 78.3552 26.0591C79.3548 28.4097 80.1249 30.8818 80.6652 33.4756C81.2056 36.0693 81.4758 38.7441 81.4758 41.5C81.4758 44.2559 81.2056 46.9307 80.6652 49.5244C80.1249 52.1182 79.3548 54.5903 78.3552 56.9409C77.3555 59.2915 76.1532 61.5475 74.7482 63.709C73.2892 65.8164 71.6682 67.7617 69.8849 69.5449ZM41.4348 43.2021C41.4348 43.2562 41.4483 43.2967 41.4753 43.3237C41.5023 43.3507 41.5428 43.3643 41.5969 43.3643H41.6779C41.6779 43.4183 41.7049 43.4453 41.759 43.4453C41.813 43.4453 41.867 43.4453 41.9211 43.4453C41.9211 43.4453 41.9481 43.4453 42.0021 43.4453C42.0562 43.4453 42.1102 43.4183 42.1642 43.3643C42.2183 43.3643 42.2588 43.3507 42.2858 43.3237C42.3128 43.2967 42.3264 43.2832 42.3264 43.2832C42.3264 43.2832 42.5695 42.9995 43.0558 42.4321C43.5422 41.8647 43.7853 41.5811 43.7853 41.5811C43.9474 41.473 44.015 41.3379 43.988 41.1758C43.961 41.0137 43.8934 40.8786 43.7853 40.7705C43.6773 40.6624 43.5287 40.6084 43.3395 40.6084C43.1504 40.6084 43.0018 40.6624 42.8937 40.7705L42.4885 41.2568V38.1768C42.4885 37.9606 42.4344 37.7985 42.3264 37.6904C42.2183 37.5824 42.0832 37.5283 41.9211 37.5283C41.7049 37.5283 41.5428 37.5824 41.4348 37.6904C41.3267 37.7985 41.2726 37.9606 41.2726 38.1768V41.2568L40.8674 40.7705C40.7593 40.6624 40.6242 40.6084 40.4621 40.6084C40.3 40.6084 40.1379 40.6624 39.9758 40.7705C39.8677 40.8786 39.8137 41.0137 39.8137 41.1758C39.8137 41.3379 39.8677 41.473 39.9758 41.5811C39.9758 41.5811 40.2189 41.8647 40.7053 42.4321C41.1916 42.9995 41.4348 43.2832 41.4348 43.2832V43.2021Z" fill="#009CDE"/>
</g>
<defs>
<clipPath id="clip0_1_116">
<rect width="83" height="83" fill="white" transform="matrix(1 0 0 -1 0.340027 83)"/>
</clipPath>
</defs>
</svg>
