<svg width="65" height="64" viewBox="0 0 65 64" fill="none" xmlns="http://www.w3.org/2000/svg">
<g clip-path="url(#clip0_1_3652)">
<path d="M32.9746 0C28.5579 0 24.4121 0.833332 20.5371 2.5C16.6204 4.16667 13.2142 6.44792 10.3184 9.34375C7.42253 12.2396 5.14128 15.6458 3.47461 19.5625C1.80794 23.4375 0.974609 27.5833 0.974609 32C0.974609 36.4167 1.80794 40.5625 3.47461 44.4375C5.14128 48.3542 7.42253 51.7604 10.3184 54.6562C13.2142 57.5521 16.6204 59.8333 20.5371 61.5C24.4121 63.1667 28.5579 64 32.9746 64C37.3913 64 41.5371 63.1667 45.4121 61.5C49.3288 59.8333 52.735 57.5521 55.6309 54.6562C58.5267 51.7604 60.8079 48.3542 62.4746 44.4375C64.1413 40.5625 64.9746 36.4167 64.9746 32C64.9746 27.5833 64.1413 23.4375 62.4746 19.5625C60.8079 15.6458 58.5267 12.2396 55.6309 9.34375C52.735 6.44792 49.3288 4.16667 45.4121 2.5C41.5371 0.833332 37.3913 0 32.9746 0ZM54.5996 53.625C53.2246 55 51.7246 56.25 50.0996 57.375C48.4329 58.4583 46.6934 59.3854 44.8809 60.1562C43.0684 60.9271 41.1621 61.5208 39.1621 61.9375C37.1621 62.3542 35.0996 62.5625 32.9746 62.5625C30.8496 62.5625 28.7871 62.3542 26.7871 61.9375C24.7871 61.5208 22.8809 60.9271 21.0684 60.1562C19.2559 59.3854 17.5163 58.4583 15.8496 57.375C14.2246 56.25 12.7246 55 11.3496 53.625C9.97461 52.25 8.72461 50.75 7.59961 49.125C6.51628 47.4583 5.58919 45.7188 4.81836 43.9062C4.04753 42.0938 3.45378 40.1875 3.03711 38.1875C2.62044 36.1875 2.41211 34.125 2.41211 32C2.41211 29.875 2.62044 27.8125 3.03711 25.8125C3.45378 23.8125 4.04753 21.9062 4.81836 20.0938C5.58919 18.2812 6.51628 16.5417 7.59961 14.875C8.72461 13.25 9.97461 11.75 11.3496 10.375C12.7246 9 14.2246 7.75 15.8496 6.625C17.5163 5.54167 19.2559 4.61458 21.0684 3.84375C22.8809 3.07292 24.7871 2.47917 26.7871 2.0625C28.7871 1.64583 30.8496 1.4375 32.9746 1.4375C35.0996 1.4375 37.1621 1.64583 39.1621 2.0625C41.1621 2.47917 43.0684 3.07292 44.8809 3.84375C46.6934 4.61458 48.4329 5.54167 50.0996 6.625C51.7246 7.75 53.2246 9 54.5996 10.375C55.9746 11.75 57.2246 13.25 58.3496 14.875C59.4329 16.5417 60.36 18.2812 61.1309 20.0938C61.9017 21.9062 62.4954 23.8125 62.9121 25.8125C63.3288 27.8125 63.5371 29.875 63.5371 32C63.5371 34.125 63.3288 36.1875 62.9121 38.1875C62.4954 40.1875 61.9017 42.0938 61.1309 43.9062C60.36 45.7188 59.4329 47.4583 58.3496 49.125C57.2246 50.75 55.9746 52.25 54.5996 53.625ZM18.0996 21.4375H26.1621C26.3288 21.4375 26.4746 21.3854 26.5996 21.2812C26.7246 21.1771 26.7871 21.0208 26.7871 20.8125C26.7871 20.6458 26.7246 20.5104 26.5996 20.4062C26.4746 20.3021 26.3288 20.25 26.1621 20.25H18.0996C17.9329 20.25 17.7871 20.3021 17.6621 20.4062C17.5371 20.5104 17.4746 20.6458 17.4746 20.8125C17.4746 21.0208 17.5371 21.1771 17.6621 21.2812C17.7871 21.3854 17.9329 21.4375 18.0996 21.4375ZM16.5996 27C16.8079 27.125 17.0475 27.2188 17.3184 27.2812C17.5892 27.3438 17.8496 27.375 18.0996 27.375C18.3913 27.375 18.6829 27.3333 18.9746 27.25C19.2663 27.1667 19.5371 27.0417 19.7871 26.875C20.0371 26.7083 20.2975 26.5938 20.5684 26.5312C20.8392 26.4688 21.0996 26.4375 21.3496 26.4375C21.8079 26.4375 22.2454 26.5208 22.6621 26.6875C23.0788 26.8542 23.4538 27.0833 23.7871 27.375C24.0788 27.7083 24.2975 28.0833 24.4434 28.5C24.5892 28.9167 24.6413 29.3542 24.5996 29.8125C24.5579 30.4792 24.4225 31.2188 24.1934 32.0312C23.9642 32.8438 23.6829 33.6875 23.3496 34.5625C22.9746 35.5625 22.6621 36.5729 22.4121 37.5938C22.1621 38.6146 21.9538 39.6458 21.7871 40.6875C21.7871 40.8958 21.7454 41.0208 21.6621 41.0625C21.5788 41.1042 21.5371 41.125 21.5371 41.125C21.3288 41.125 21.1517 41.0625 21.0059 40.9375C20.86 40.8125 20.7454 40.6458 20.6621 40.4375C20.6621 40.3125 20.6517 40.1875 20.6309 40.0625C20.61 39.9375 20.5996 39.8125 20.5996 39.6875C20.5579 38.9792 20.4017 38.125 20.1309 37.125C19.86 36.125 19.1829 35.625 18.0996 35.625C17.7246 35.625 17.3809 35.7083 17.0684 35.875C16.7559 36.0417 16.5163 36.2708 16.3496 36.5625C16.2663 36.7292 16.235 36.8958 16.2559 37.0625C16.2767 37.2292 16.3704 37.3542 16.5371 37.4375C16.6621 37.5208 16.8079 37.5417 16.9746 37.5C17.1413 37.4583 17.2663 37.375 17.3496 37.25C17.4329 37.125 17.5371 37.0208 17.6621 36.9375C17.7871 36.8542 17.9329 36.8333 18.0996 36.875C18.5163 36.875 18.8184 37.125 19.0059 37.625C19.1934 38.125 19.3079 38.8333 19.3496 39.75C19.3496 39.9167 19.36 40.0938 19.3809 40.2812C19.4017 40.4688 19.4329 40.6458 19.4746 40.8125C19.5579 41.0208 19.6621 41.2188 19.7871 41.4062C19.9121 41.5938 20.0579 41.7708 20.2246 41.9375C20.3913 42.0625 20.5788 42.1667 20.7871 42.25C20.9954 42.3333 21.2246 42.375 21.4746 42.375C21.4746 42.375 21.4954 42.375 21.5371 42.375C21.5788 42.375 21.5996 42.375 21.5996 42.375C21.8079 42.375 22.0059 42.3229 22.1934 42.2188C22.3809 42.1146 22.5371 42 22.6621 41.875C22.7871 41.7083 22.8809 41.5417 22.9434 41.375C23.0059 41.2083 23.0371 41.0208 23.0371 40.8125C23.1621 39.8125 23.3496 38.8229 23.5996 37.8438C23.8496 36.8646 24.1621 35.8958 24.5371 34.9375C24.7454 34.3958 24.9329 33.8646 25.0996 33.3438C25.2663 32.8229 25.4121 32.3125 25.5371 31.8125C25.6621 32.3125 25.8079 32.8229 25.9746 33.3438C26.1413 33.8646 26.3288 34.3958 26.5371 34.9375C26.9121 35.8958 27.2246 36.8646 27.4746 37.8438C27.7246 38.8229 27.9121 39.8125 28.0371 40.8125C28.0371 41.0208 28.0684 41.2083 28.1309 41.375C28.1934 41.5417 28.2871 41.7083 28.4121 41.875C28.5371 42 28.6934 42.1146 28.8809 42.2188C29.0684 42.3229 29.2454 42.375 29.4121 42.375C29.4538 42.375 29.485 42.375 29.5059 42.375C29.5267 42.375 29.5579 42.375 29.5996 42.375C29.8079 42.375 30.0267 42.3333 30.2559 42.25C30.485 42.1667 30.6829 42.0625 30.8496 41.9375C31.0163 41.7708 31.1621 41.5938 31.2871 41.4062C31.4121 41.2188 31.5163 41.0208 31.5996 40.8125C31.6413 40.6458 31.6725 40.4688 31.6934 40.2812C31.7142 40.0938 31.7246 39.9167 31.7246 39.75C31.7663 38.8333 31.8704 38.125 32.0371 37.625C32.2038 37.125 32.5163 36.875 32.9746 36.875C33.4329 36.875 33.7454 37.125 33.9121 37.625C34.0788 38.125 34.1829 38.8333 34.2246 39.75C34.2246 39.9167 34.235 40.0938 34.2559 40.2812C34.2767 40.4688 34.3079 40.6458 34.3496 40.8125C34.4329 41.0208 34.5371 41.2188 34.6621 41.4062C34.7871 41.5938 34.9329 41.7708 35.0996 41.9375C35.2663 42.0625 35.4538 42.1667 35.6621 42.25C35.8704 42.3333 36.0996 42.375 36.3496 42.375C36.3913 42.375 36.4225 42.375 36.4434 42.375C36.4642 42.375 36.4954 42.375 36.5371 42.375C36.7038 42.375 36.8809 42.3229 37.0684 42.2188C37.2559 42.1146 37.4121 42 37.5371 41.875C37.6621 41.7083 37.7559 41.5417 37.8184 41.375C37.8809 41.2083 37.9121 41.0208 37.9121 40.8125C38.0371 39.8125 38.2246 38.8229 38.4746 37.8438C38.7246 36.8646 39.0371 35.8958 39.4121 34.9375C39.6204 34.3958 39.8079 33.8646 39.9746 33.3438C40.1413 32.8229 40.2871 32.3125 40.4121 31.8125C40.5371 32.3125 40.6829 32.8229 40.8496 33.3438C41.0163 33.8646 41.2038 34.3958 41.4121 34.9375C41.7871 35.8958 42.0996 36.8646 42.3496 37.8438C42.5996 38.8229 42.7871 39.8125 42.9121 40.8125C42.9121 41.0208 42.9434 41.2083 43.0059 41.375C43.0684 41.5417 43.1621 41.7083 43.2871 41.875C43.4121 42 43.5684 42.1146 43.7559 42.2188C43.9434 42.3229 44.1204 42.375 44.2871 42.375C44.3288 42.375 44.36 42.375 44.3809 42.375C44.4017 42.375 44.4329 42.375 44.4746 42.375C44.7246 42.375 44.9538 42.3333 45.1621 42.25C45.3704 42.1667 45.5579 42.0625 45.7246 41.9375C45.8913 41.7708 46.0371 41.5938 46.1621 41.4062C46.2871 41.2188 46.3913 41.0208 46.4746 40.8125C46.5163 40.6458 46.5475 40.4688 46.5684 40.2812C46.5892 40.0938 46.5996 39.9167 46.5996 39.75C46.6413 38.8333 46.7454 38.125 46.9121 37.625C47.0788 37.125 47.3913 36.875 47.8496 36.875C48.0163 36.8333 48.1621 36.8542 48.2871 36.9375C48.4121 37.0208 48.4954 37.125 48.5371 37.25C48.6621 37.375 48.8079 37.4583 48.9746 37.5C49.1413 37.5417 49.2871 37.5208 49.4121 37.4375C49.5788 37.3542 49.6725 37.2292 49.6934 37.0625C49.7142 36.8958 49.6829 36.7292 49.5996 36.5625C49.4329 36.2708 49.1934 36.0417 48.8809 35.875C48.5684 35.7083 48.2246 35.625 47.8496 35.625C46.7663 35.625 46.0892 36.1146 45.8184 37.0938C45.5475 38.0729 45.3913 38.9167 45.3496 39.625C45.3496 39.7917 45.3392 39.9375 45.3184 40.0625C45.2975 40.1875 45.2663 40.3125 45.2246 40.4375C45.1829 40.6458 45.0892 40.8125 44.9434 40.9375C44.7975 41.0625 44.6204 41.125 44.4121 41.125C44.3704 41.125 44.3184 41.1042 44.2559 41.0625C44.1934 41.0208 44.1413 40.8958 44.0996 40.6875C43.9746 39.6458 43.7871 38.6146 43.5371 37.5938C43.2871 36.5729 42.9538 35.5625 42.5371 34.5625C42.2454 33.6875 41.985 32.8438 41.7559 32.0312C41.5267 31.2188 41.3913 30.4792 41.3496 29.8125C41.3079 29.3542 41.36 28.9167 41.5059 28.5C41.6517 28.0833 41.8704 27.7083 42.1621 27.375C42.4954 27.0417 42.8704 26.8021 43.2871 26.6562C43.7038 26.5104 44.1413 26.4375 44.5996 26.4375C44.8496 26.4375 45.11 26.4688 45.3809 26.5312C45.6517 26.5938 45.9121 26.7083 46.1621 26.875C46.4121 27.0417 46.6829 27.1667 46.9746 27.25C47.2663 27.3333 47.5579 27.375 47.8496 27.375C48.0996 27.375 48.36 27.3438 48.6309 27.2812C48.9017 27.2188 49.1413 27.1042 49.3496 26.9375C49.4329 26.9375 49.5059 26.9062 49.5684 26.8438C49.6309 26.7812 49.6621 26.7083 49.6621 26.625C49.7038 26.5417 49.7246 26.4583 49.7246 26.375C49.7246 26.2917 49.7038 26.2083 49.6621 26.125C49.6204 26.0417 49.5684 25.9792 49.5059 25.9375C49.4434 25.8958 49.3704 25.8542 49.2871 25.8125C49.2038 25.7708 49.1204 25.7604 49.0371 25.7812C48.9538 25.8021 48.8704 25.8333 48.7871 25.875C48.6621 25.9583 48.5163 26.0208 48.3496 26.0625C48.1829 26.1042 48.0163 26.125 47.8496 26.125C47.6413 26.125 47.4434 26.0938 47.2559 26.0312C47.0684 25.9688 46.8913 25.875 46.7246 25.75C46.3913 25.5833 46.0475 25.4479 45.6934 25.3438C45.3392 25.2396 44.9746 25.1875 44.5996 25.1875C43.9746 25.1875 43.3809 25.3021 42.8184 25.5312C42.2559 25.7604 41.7454 26.0833 41.2871 26.5C41.0788 26.7083 40.9017 26.9271 40.7559 27.1562C40.61 27.3854 40.4954 27.6458 40.4121 27.9375C40.3288 27.6458 40.2142 27.3854 40.0684 27.1562C39.9225 26.9271 39.7454 26.7083 39.5371 26.5C39.0788 26.0833 38.5684 25.7604 38.0059 25.5312C37.4434 25.3021 36.8496 25.1875 36.2246 25.1875C35.8496 25.1875 35.485 25.2396 35.1309 25.3438C34.7767 25.4479 34.4329 25.5833 34.0996 25.75C33.9329 25.875 33.7559 25.9688 33.5684 26.0312C33.3809 26.0938 33.1829 26.125 32.9746 26.125C32.7663 26.125 32.5684 26.0938 32.3809 26.0312C32.1934 25.9688 32.0163 25.875 31.8496 25.75C31.5163 25.5833 31.1725 25.4479 30.8184 25.3438C30.4642 25.2396 30.0996 25.1875 29.7246 25.1875C29.0996 25.1875 28.5059 25.3021 27.9434 25.5312C27.3809 25.7604 26.8704 26.0833 26.4121 26.5C26.2038 26.7083 26.0267 26.9271 25.8809 27.1562C25.735 27.3854 25.6204 27.6458 25.5371 27.9375C25.4538 27.6458 25.3392 27.3854 25.1934 27.1562C25.0475 26.9271 24.8704 26.7083 24.6621 26.5C24.2038 26.0833 23.6934 25.7604 23.1309 25.5312C22.5684 25.3021 21.9746 25.1875 21.3496 25.1875C20.9746 25.1875 20.61 25.2396 20.2559 25.3438C19.9017 25.4479 19.5579 25.5833 19.2246 25.75C19.0579 25.875 18.8809 25.9688 18.6934 26.0312C18.5059 26.0938 18.3079 26.125 18.0996 26.125C17.9329 26.125 17.7663 26.1042 17.5996 26.0625C17.4329 26.0208 17.2663 25.9583 17.0996 25.875C17.0579 25.8333 16.9954 25.8021 16.9121 25.7812C16.8288 25.7604 16.7454 25.7708 16.6621 25.8125C16.5788 25.8542 16.5059 25.8958 16.4434 25.9375C16.3809 25.9792 16.3288 26.0417 16.2871 26.125C16.2454 26.2083 16.2246 26.2917 16.2246 26.375C16.2246 26.4583 16.2454 26.5417 16.2871 26.625C16.2871 26.7083 16.3184 26.7812 16.3809 26.8438C16.4434 26.9062 16.5163 26.9375 16.5996 26.9375V27ZM27.2871 27.375C27.6204 27.0833 27.9954 26.8542 28.4121 26.6875C28.8288 26.5208 29.2663 26.4375 29.7246 26.4375C29.9746 26.4375 30.235 26.4688 30.5059 26.5312C30.7767 26.5938 31.0371 26.7083 31.2871 26.875C31.5371 27.0417 31.8079 27.1667 32.0996 27.25C32.3913 27.3333 32.6829 27.375 32.9746 27.375C33.2663 27.375 33.5579 27.3333 33.8496 27.25C34.1413 27.1667 34.4121 27.0417 34.6621 26.875C34.9121 26.7083 35.1725 26.5938 35.4434 26.5312C35.7142 26.4688 35.9746 26.4375 36.2246 26.4375C36.6829 26.4375 37.1204 26.5208 37.5371 26.6875C37.9538 26.8542 38.3288 27.0833 38.6621 27.375C38.9538 27.7083 39.1725 28.0833 39.3184 28.5C39.4642 28.9167 39.5163 29.3542 39.4746 29.8125C39.4329 30.4792 39.2975 31.2188 39.0684 32.0312C38.8392 32.8438 38.5579 33.6875 38.2246 34.5625C37.8496 35.5625 37.5371 36.5729 37.2871 37.5938C37.0371 38.6146 36.8288 39.6458 36.6621 40.6875C36.6621 40.8958 36.6204 41.0208 36.5371 41.0625C36.4538 41.1042 36.4121 41.125 36.4121 41.125C36.2038 41.125 36.0267 41.0625 35.8809 40.9375C35.735 40.8125 35.6204 40.6458 35.5371 40.4375C35.5371 40.3125 35.5267 40.1875 35.5059 40.0625C35.485 39.9375 35.4746 39.8125 35.4746 39.6875C35.4329 38.9792 35.2767 38.125 35.0059 37.125C34.735 36.125 34.0579 35.625 32.9746 35.625C31.8913 35.625 31.2142 36.125 30.9434 37.125C30.6725 38.125 30.5163 38.9792 30.4746 39.6875C30.4746 39.8125 30.4642 39.9375 30.4434 40.0625C30.4225 40.1875 30.4121 40.3125 30.4121 40.4375C30.3288 40.6458 30.2142 40.8125 30.0684 40.9375C29.9225 41.0625 29.7454 41.125 29.5371 41.125C29.5371 41.125 29.4954 41.1042 29.4121 41.0625C29.3288 41.0208 29.2871 40.8958 29.2871 40.6875C29.1204 39.6458 28.9121 38.6146 28.6621 37.5938C28.4121 36.5729 28.0996 35.5625 27.7246 34.5625C27.3913 33.6875 27.11 32.8438 26.8809 32.0312C26.6517 31.2188 26.5163 30.4792 26.4746 29.8125C26.4329 29.3542 26.485 28.9167 26.6309 28.5C26.7767 28.0833 26.9954 27.7083 27.2871 27.375ZM51.5996 16.5C51.5996 16.5 49.6621 16.5 45.7871 16.5C41.9121 16.5 37.6413 16.5 32.9746 16.5C28.3079 16.5 24.0371 16.5 20.1621 16.5C16.2871 16.5 14.3496 16.5 14.3496 16.5C14.1829 16.5 14.0371 16.5625 13.9121 16.6875C13.7871 16.8125 13.7246 16.9583 13.7246 17.125V46.875C13.7246 46.9583 13.7454 47.0417 13.7871 47.125C13.8288 47.2083 13.8704 47.2708 13.9121 47.3125C13.9954 47.3542 14.0684 47.3958 14.1309 47.4375C14.1934 47.4792 14.2663 47.5 14.3496 47.5H49.0996C49.5163 47.5 49.9121 47.4167 50.2871 47.25C50.6621 47.0833 50.9954 46.8542 51.2871 46.5625C51.5788 46.2708 51.8079 45.9375 51.9746 45.5625C52.1413 45.1875 52.2246 44.7917 52.2246 44.375V17.125C52.2246 17.0417 52.2038 16.9583 52.1621 16.875C52.1204 16.7917 52.0788 16.7292 52.0371 16.6875C51.9538 16.6042 51.8809 16.5521 51.8184 16.5312C51.7559 16.5104 51.6829 16.5 51.5996 16.5ZM50.9746 44.375C50.9746 44.625 50.9225 44.8646 50.8184 45.0938C50.7142 45.3229 50.5788 45.5208 50.4121 45.6875C50.2454 45.8958 50.0475 46.0417 49.8184 46.125C49.5892 46.2083 49.3496 46.25 49.0996 46.25H14.9746V17.75H50.9746V44.375Z" fill="#009CDE"/>
</g>
<defs>
<clipPath id="clip0_1_3652">
<rect width="64" height="64" fill="white" transform="matrix(1 0 0 -1 0.974609 64)"/>
</clipPath>
</defs>
</svg>
