<svg width="65" height="64" viewBox="0 0 65 64" fill="none" xmlns="http://www.w3.org/2000/svg">
<g clip-path="url(#clip0_1_36)">
<path d="M32.5 0C28.0833 0 23.9375 0.833333 20.0625 2.5C16.1458 4.16667 12.7396 6.44792 9.84375 9.34375C6.94792 12.2396 4.66667 15.6458 3 19.5625C1.33333 23.4375 0.5 27.5833 0.5 32C0.5 36.4167 1.33333 40.5625 3 44.4375C4.66667 48.3542 6.94792 51.7604 9.84375 54.6562C12.7396 57.5521 16.1458 59.8333 20.0625 61.5C23.9375 63.1667 28.0833 64 32.5 64C36.9167 64 41.0625 63.1667 44.9375 61.5C48.8542 59.8333 52.2604 57.5521 55.1562 54.6562C58.0521 51.7604 60.3333 48.3542 62 44.4375C63.6667 40.5625 64.5 36.4167 64.5 32C64.5 27.5833 63.6667 23.4375 62 19.5625C60.3333 15.6458 58.0521 12.2396 55.1562 9.34375C52.2604 6.44792 48.8542 4.16667 44.9375 2.5C41.0625 0.833333 36.9167 0 32.5 0ZM54.125 53.625C52.75 55 51.25 56.25 49.625 57.375C47.9583 58.4583 46.2188 59.3854 44.4062 60.1562C42.5938 60.9271 40.6875 61.5208 38.6875 61.9375C36.6875 62.3542 34.625 62.5625 32.5 62.5625C30.375 62.5625 28.3125 62.3542 26.3125 61.9375C24.3125 61.5208 22.4062 60.9271 20.5938 60.1562C18.7812 59.3854 17.0417 58.4583 15.375 57.375C13.75 56.25 12.25 55 10.875 53.625C9.5 52.25 8.25 50.75 7.125 49.125C6.04167 47.4583 5.11458 45.7188 4.34375 43.9062C3.57292 42.0938 2.97917 40.1875 2.5625 38.1875C2.14583 36.1875 1.9375 34.125 1.9375 32C1.9375 29.875 2.14583 27.8125 2.5625 25.8125C2.97917 23.8125 3.57292 21.9062 4.34375 20.0938C5.11458 18.2812 6.04167 16.5417 7.125 14.875C8.25 13.25 9.5 11.75 10.875 10.375C12.25 9 13.75 7.75 15.375 6.625C17.0417 5.54167 18.7812 4.61458 20.5938 3.84375C22.4062 3.07292 24.3125 2.47917 26.3125 2.0625C28.3125 1.64583 30.375 1.4375 32.5 1.4375C34.625 1.4375 36.6875 1.64583 38.6875 2.0625C40.6875 2.47917 42.5938 3.07292 44.4062 3.84375C46.2188 4.61458 47.9583 5.54167 49.625 6.625C51.25 7.75 52.75 9 54.125 10.375C55.5 11.75 56.75 13.25 57.875 14.875C58.9583 16.5417 59.8854 18.2812 60.6562 20.0938C61.4271 21.9062 62.0208 23.8125 62.4375 25.8125C62.8542 27.8125 63.0625 29.875 63.0625 32C63.0625 34.125 62.8542 36.1875 62.4375 38.1875C62.0208 40.1875 61.4271 42.0938 60.6562 43.9062C59.8854 45.7188 58.9583 47.4583 57.875 49.125C56.75 50.75 55.5 52.25 54.125 53.625ZM17.625 21.4375H25.6875C25.8542 21.4375 26 21.3854 26.125 21.2812C26.25 21.1771 26.3125 21.0208 26.3125 20.8125C26.3125 20.6458 26.25 20.5104 26.125 20.4062C26 20.3021 25.8542 20.25 25.6875 20.25H17.625C17.4583 20.25 17.3125 20.3021 17.1875 20.4062C17.0625 20.5104 17 20.6458 17 20.8125C17 21.0208 17.0625 21.1771 17.1875 21.2812C17.3125 21.3854 17.4583 21.4375 17.625 21.4375ZM16.125 27C16.3333 27.125 16.5729 27.2188 16.8438 27.2812C17.1146 27.3438 17.375 27.375 17.625 27.375C17.9167 27.375 18.2083 27.3333 18.5 27.25C18.7917 27.1667 19.0625 27.0417 19.3125 26.875C19.5625 26.7083 19.8229 26.5938 20.0938 26.5312C20.3646 26.4688 20.625 26.4375 20.875 26.4375C21.3333 26.4375 21.7708 26.5208 22.1875 26.6875C22.6042 26.8542 22.9792 27.0833 23.3125 27.375C23.6042 27.7083 23.8229 28.0833 23.9688 28.5C24.1146 28.9167 24.1667 29.3542 24.125 29.8125C24.0833 30.4792 23.9479 31.2188 23.7188 32.0312C23.4896 32.8438 23.2083 33.6875 22.875 34.5625C22.5 35.5625 22.1875 36.5729 21.9375 37.5938C21.6875 38.6146 21.4792 39.6458 21.3125 40.6875C21.3125 40.8958 21.2708 41.0208 21.1875 41.0625C21.1042 41.1042 21.0625 41.125 21.0625 41.125C20.8542 41.125 20.6771 41.0625 20.5312 40.9375C20.3854 40.8125 20.2708 40.6458 20.1875 40.4375C20.1875 40.3125 20.1771 40.1875 20.1562 40.0625C20.1354 39.9375 20.125 39.8125 20.125 39.6875C20.0833 38.9792 19.9271 38.125 19.6562 37.125C19.3854 36.125 18.7083 35.625 17.625 35.625C17.25 35.625 16.9062 35.7083 16.5938 35.875C16.2812 36.0417 16.0417 36.2708 15.875 36.5625C15.7917 36.7292 15.7604 36.8958 15.7812 37.0625C15.8021 37.2292 15.8958 37.3542 16.0625 37.4375C16.1875 37.5208 16.3333 37.5417 16.5 37.5C16.6667 37.4583 16.7917 37.375 16.875 37.25C16.9583 37.125 17.0625 37.0208 17.1875 36.9375C17.3125 36.8542 17.4583 36.8333 17.625 36.875C18.0417 36.875 18.3438 37.125 18.5312 37.625C18.7188 38.125 18.8333 38.8333 18.875 39.75C18.875 39.9167 18.8854 40.0938 18.9062 40.2812C18.9271 40.4688 18.9583 40.6458 19 40.8125C19.0833 41.0208 19.1875 41.2188 19.3125 41.4062C19.4375 41.5938 19.5833 41.7708 19.75 41.9375C19.9167 42.0625 20.1042 42.1667 20.3125 42.25C20.5208 42.3333 20.75 42.375 21 42.375C21 42.375 21.0208 42.375 21.0625 42.375C21.1042 42.375 21.125 42.375 21.125 42.375C21.3333 42.375 21.5312 42.3229 21.7188 42.2188C21.9062 42.1146 22.0625 42 22.1875 41.875C22.3125 41.7083 22.4062 41.5417 22.4688 41.375C22.5312 41.2083 22.5625 41.0208 22.5625 40.8125C22.6875 39.8125 22.875 38.8229 23.125 37.8438C23.375 36.8646 23.6875 35.8958 24.0625 34.9375C24.2708 34.3958 24.4583 33.8646 24.625 33.3438C24.7917 32.8229 24.9375 32.3125 25.0625 31.8125C25.1875 32.3125 25.3333 32.8229 25.5 33.3438C25.6667 33.8646 25.8542 34.3958 26.0625 34.9375C26.4375 35.8958 26.75 36.8646 27 37.8438C27.25 38.8229 27.4375 39.8125 27.5625 40.8125C27.5625 41.0208 27.5938 41.2083 27.6562 41.375C27.7188 41.5417 27.8125 41.7083 27.9375 41.875C28.0625 42 28.2188 42.1146 28.4062 42.2188C28.5938 42.3229 28.7708 42.375 28.9375 42.375C28.9792 42.375 29.0104 42.375 29.0312 42.375C29.0521 42.375 29.0833 42.375 29.125 42.375C29.3333 42.375 29.5521 42.3333 29.7812 42.25C30.0104 42.1667 30.2083 42.0625 30.375 41.9375C30.5417 41.7708 30.6875 41.5938 30.8125 41.4062C30.9375 41.2188 31.0417 41.0208 31.125 40.8125C31.1667 40.6458 31.1979 40.4688 31.2188 40.2812C31.2396 40.0938 31.25 39.9167 31.25 39.75C31.2917 38.8333 31.3958 38.125 31.5625 37.625C31.7292 37.125 32.0417 36.875 32.5 36.875C32.9583 36.875 33.2708 37.125 33.4375 37.625C33.6042 38.125 33.7083 38.8333 33.75 39.75C33.75 39.9167 33.7604 40.0938 33.7812 40.2812C33.8021 40.4688 33.8333 40.6458 33.875 40.8125C33.9583 41.0208 34.0625 41.2188 34.1875 41.4062C34.3125 41.5938 34.4583 41.7708 34.625 41.9375C34.7917 42.0625 34.9792 42.1667 35.1875 42.25C35.3958 42.3333 35.625 42.375 35.875 42.375C35.9167 42.375 35.9479 42.375 35.9688 42.375C35.9896 42.375 36.0208 42.375 36.0625 42.375C36.2292 42.375 36.4062 42.3229 36.5938 42.2188C36.7812 42.1146 36.9375 42 37.0625 41.875C37.1875 41.7083 37.2812 41.5417 37.3438 41.375C37.4062 41.2083 37.4375 41.0208 37.4375 40.8125C37.5625 39.8125 37.75 38.8229 38 37.8438C38.25 36.8646 38.5625 35.8958 38.9375 34.9375C39.1458 34.3958 39.3333 33.8646 39.5 33.3438C39.6667 32.8229 39.8125 32.3125 39.9375 31.8125C40.0625 32.3125 40.2083 32.8229 40.375 33.3438C40.5417 33.8646 40.7292 34.3958 40.9375 34.9375C41.3125 35.8958 41.625 36.8646 41.875 37.8438C42.125 38.8229 42.3125 39.8125 42.4375 40.8125C42.4375 41.0208 42.4688 41.2083 42.5312 41.375C42.5938 41.5417 42.6875 41.7083 42.8125 41.875C42.9375 42 43.0938 42.1146 43.2812 42.2188C43.4688 42.3229 43.6458 42.375 43.8125 42.375C43.8542 42.375 43.8854 42.375 43.9062 42.375C43.9271 42.375 43.9583 42.375 44 42.375C44.25 42.375 44.4792 42.3333 44.6875 42.25C44.8958 42.1667 45.0833 42.0625 45.25 41.9375C45.4167 41.7708 45.5625 41.5938 45.6875 41.4062C45.8125 41.2188 45.9167 41.0208 46 40.8125C46.0417 40.6458 46.0729 40.4688 46.0938 40.2812C46.1146 40.0938 46.125 39.9167 46.125 39.75C46.1667 38.8333 46.2708 38.125 46.4375 37.625C46.6042 37.125 46.9167 36.875 47.375 36.875C47.5417 36.8333 47.6875 36.8542 47.8125 36.9375C47.9375 37.0208 48.0208 37.125 48.0625 37.25C48.1875 37.375 48.3333 37.4583 48.5 37.5C48.6667 37.5417 48.8125 37.5208 48.9375 37.4375C49.1042 37.3542 49.1979 37.2292 49.2188 37.0625C49.2396 36.8958 49.2083 36.7292 49.125 36.5625C48.9583 36.2708 48.7188 36.0417 48.4062 35.875C48.0938 35.7083 47.75 35.625 47.375 35.625C46.2917 35.625 45.6146 36.1146 45.3438 37.0938C45.0729 38.0729 44.9167 38.9167 44.875 39.625C44.875 39.7917 44.8646 39.9375 44.8438 40.0625C44.8229 40.1875 44.7917 40.3125 44.75 40.4375C44.7083 40.6458 44.6146 40.8125 44.4688 40.9375C44.3229 41.0625 44.1458 41.125 43.9375 41.125C43.8958 41.125 43.8438 41.1042 43.7812 41.0625C43.7188 41.0208 43.6667 40.8958 43.625 40.6875C43.5 39.6458 43.3125 38.6146 43.0625 37.5938C42.8125 36.5729 42.4792 35.5625 42.0625 34.5625C41.7708 33.6875 41.5104 32.8438 41.2812 32.0312C41.0521 31.2188 40.9167 30.4792 40.875 29.8125C40.8333 29.3542 40.8854 28.9167 41.0312 28.5C41.1771 28.0833 41.3958 27.7083 41.6875 27.375C42.0208 27.0417 42.3958 26.8021 42.8125 26.6562C43.2292 26.5104 43.6667 26.4375 44.125 26.4375C44.375 26.4375 44.6354 26.4688 44.9062 26.5312C45.1771 26.5938 45.4375 26.7083 45.6875 26.875C45.9375 27.0417 46.2083 27.1667 46.5 27.25C46.7917 27.3333 47.0833 27.375 47.375 27.375C47.625 27.375 47.8854 27.3438 48.1562 27.2812C48.4271 27.2188 48.6667 27.1042 48.875 26.9375C48.9583 26.9375 49.0312 26.9062 49.0938 26.8438C49.1562 26.7812 49.1875 26.7083 49.1875 26.625C49.2292 26.5417 49.25 26.4583 49.25 26.375C49.25 26.2917 49.2292 26.2083 49.1875 26.125C49.1458 26.0417 49.0938 25.9792 49.0312 25.9375C48.9688 25.8958 48.8958 25.8542 48.8125 25.8125C48.7292 25.7708 48.6458 25.7604 48.5625 25.7812C48.4792 25.8021 48.3958 25.8333 48.3125 25.875C48.1875 25.9583 48.0417 26.0208 47.875 26.0625C47.7083 26.1042 47.5417 26.125 47.375 26.125C47.1667 26.125 46.9688 26.0938 46.7812 26.0312C46.5938 25.9688 46.4167 25.875 46.25 25.75C45.9167 25.5833 45.5729 25.4479 45.2188 25.3438C44.8646 25.2396 44.5 25.1875 44.125 25.1875C43.5 25.1875 42.9062 25.3021 42.3438 25.5312C41.7812 25.7604 41.2708 26.0833 40.8125 26.5C40.6042 26.7083 40.4271 26.9271 40.2812 27.1562C40.1354 27.3854 40.0208 27.6458 39.9375 27.9375C39.8542 27.6458 39.7396 27.3854 39.5938 27.1562C39.4479 26.9271 39.2708 26.7083 39.0625 26.5C38.6042 26.0833 38.0938 25.7604 37.5312 25.5312C36.9688 25.3021 36.375 25.1875 35.75 25.1875C35.375 25.1875 35.0104 25.2396 34.6562 25.3438C34.3021 25.4479 33.9583 25.5833 33.625 25.75C33.4583 25.875 33.2812 25.9688 33.0938 26.0312C32.9062 26.0938 32.7083 26.125 32.5 26.125C32.2917 26.125 32.0938 26.0938 31.9062 26.0312C31.7188 25.9688 31.5417 25.875 31.375 25.75C31.0417 25.5833 30.6979 25.4479 30.3438 25.3438C29.9896 25.2396 29.625 25.1875 29.25 25.1875C28.625 25.1875 28.0312 25.3021 27.4688 25.5312C26.9062 25.7604 26.3958 26.0833 25.9375 26.5C25.7292 26.7083 25.5521 26.9271 25.4062 27.1562C25.2604 27.3854 25.1458 27.6458 25.0625 27.9375C24.9792 27.6458 24.8646 27.3854 24.7188 27.1562C24.5729 26.9271 24.3958 26.7083 24.1875 26.5C23.7292 26.0833 23.2188 25.7604 22.6562 25.5312C22.0938 25.3021 21.5 25.1875 20.875 25.1875C20.5 25.1875 20.1354 25.2396 19.7812 25.3438C19.4271 25.4479 19.0833 25.5833 18.75 25.75C18.5833 25.875 18.4062 25.9688 18.2188 26.0312C18.0312 26.0938 17.8333 26.125 17.625 26.125C17.4583 26.125 17.2917 26.1042 17.125 26.0625C16.9583 26.0208 16.7917 25.9583 16.625 25.875C16.5833 25.8333 16.5208 25.8021 16.4375 25.7812C16.3542 25.7604 16.2708 25.7708 16.1875 25.8125C16.1042 25.8542 16.0312 25.8958 15.9688 25.9375C15.9062 25.9792 15.8542 26.0417 15.8125 26.125C15.7708 26.2083 15.75 26.2917 15.75 26.375C15.75 26.4583 15.7708 26.5417 15.8125 26.625C15.8125 26.7083 15.8438 26.7812 15.9062 26.8438C15.9688 26.9062 16.0417 26.9375 16.125 26.9375V27ZM26.8125 27.375C27.1458 27.0833 27.5208 26.8542 27.9375 26.6875C28.3542 26.5208 28.7917 26.4375 29.25 26.4375C29.5 26.4375 29.7604 26.4688 30.0312 26.5312C30.3021 26.5938 30.5625 26.7083 30.8125 26.875C31.0625 27.0417 31.3333 27.1667 31.625 27.25C31.9167 27.3333 32.2083 27.375 32.5 27.375C32.7917 27.375 33.0833 27.3333 33.375 27.25C33.6667 27.1667 33.9375 27.0417 34.1875 26.875C34.4375 26.7083 34.6979 26.5938 34.9688 26.5312C35.2396 26.4688 35.5 26.4375 35.75 26.4375C36.2083 26.4375 36.6458 26.5208 37.0625 26.6875C37.4792 26.8542 37.8542 27.0833 38.1875 27.375C38.4792 27.7083 38.6979 28.0833 38.8438 28.5C38.9896 28.9167 39.0417 29.3542 39 29.8125C38.9583 30.4792 38.8229 31.2188 38.5938 32.0312C38.3646 32.8438 38.0833 33.6875 37.75 34.5625C37.375 35.5625 37.0625 36.5729 36.8125 37.5938C36.5625 38.6146 36.3542 39.6458 36.1875 40.6875C36.1875 40.8958 36.1458 41.0208 36.0625 41.0625C35.9792 41.1042 35.9375 41.125 35.9375 41.125C35.7292 41.125 35.5521 41.0625 35.4062 40.9375C35.2604 40.8125 35.1458 40.6458 35.0625 40.4375C35.0625 40.3125 35.0521 40.1875 35.0312 40.0625C35.0104 39.9375 35 39.8125 35 39.6875C34.9583 38.9792 34.8021 38.125 34.5312 37.125C34.2604 36.125 33.5833 35.625 32.5 35.625C31.4167 35.625 30.7396 36.125 30.4688 37.125C30.1979 38.125 30.0417 38.9792 30 39.6875C30 39.8125 29.9896 39.9375 29.9688 40.0625C29.9479 40.1875 29.9375 40.3125 29.9375 40.4375C29.8542 40.6458 29.7396 40.8125 29.5938 40.9375C29.4479 41.0625 29.2708 41.125 29.0625 41.125C29.0625 41.125 29.0208 41.1042 28.9375 41.0625C28.8542 41.0208 28.8125 40.8958 28.8125 40.6875C28.6458 39.6458 28.4375 38.6146 28.1875 37.5938C27.9375 36.5729 27.625 35.5625 27.25 34.5625C26.9167 33.6875 26.6354 32.8438 26.4062 32.0312C26.1771 31.2188 26.0417 30.4792 26 29.8125C25.9583 29.3542 26.0104 28.9167 26.1562 28.5C26.3021 28.0833 26.5208 27.7083 26.8125 27.375ZM51.125 16.5C51.125 16.5 49.1875 16.5 45.3125 16.5C41.4375 16.5 37.1667 16.5 32.5 16.5C27.8333 16.5 23.5625 16.5 19.6875 16.5C15.8125 16.5 13.875 16.5 13.875 16.5C13.7083 16.5 13.5625 16.5625 13.4375 16.6875C13.3125 16.8125 13.25 16.9583 13.25 17.125V46.875C13.25 46.9583 13.2708 47.0417 13.3125 47.125C13.3542 47.2083 13.3958 47.2708 13.4375 47.3125C13.5208 47.3542 13.5938 47.3958 13.6562 47.4375C13.7188 47.4792 13.7917 47.5 13.875 47.5H48.625C49.0417 47.5 49.4375 47.4167 49.8125 47.25C50.1875 47.0833 50.5208 46.8542 50.8125 46.5625C51.1042 46.2708 51.3333 45.9375 51.5 45.5625C51.6667 45.1875 51.75 44.7917 51.75 44.375V17.125C51.75 17.0417 51.7292 16.9583 51.6875 16.875C51.6458 16.7917 51.6042 16.7292 51.5625 16.6875C51.4792 16.6042 51.4062 16.5521 51.3438 16.5312C51.2812 16.5104 51.2083 16.5 51.125 16.5ZM50.5 44.375C50.5 44.625 50.4479 44.8646 50.3438 45.0938C50.2396 45.3229 50.1042 45.5208 49.9375 45.6875C49.7708 45.8958 49.5729 46.0417 49.3438 46.125C49.1146 46.2083 48.875 46.25 48.625 46.25H14.5V17.75H50.5V44.375Z" fill="#009CDE"/>
</g>
<defs>
<clipPath id="clip0_1_36">
<rect width="64" height="64" fill="white" transform="matrix(1 0 0 -1 0.5 64)"/>
</clipPath>
</defs>
</svg>
