<svg width="64" height="64" viewBox="0 0 64 64" fill="none" xmlns="http://www.w3.org/2000/svg">
<g clip-path="url(#clip0_1_3671)">
<path d="M32 0C27.5833 0 23.4375 0.833332 19.5625 2.5C15.6458 4.16667 12.2396 6.44792 9.34375 9.34375C6.44792 12.2396 4.16667 15.6458 2.5 19.5625C0.833333 23.4375 0 27.5833 0 32C0 36.4167 0.833333 40.5625 2.5 44.4375C4.16667 48.3542 6.44792 51.7604 9.34375 54.6562C12.2396 57.5521 15.6458 59.8333 19.5625 61.5C23.4375 63.1667 27.5833 64 32 64C36.4167 64 40.5625 63.1667 44.4375 61.5C48.3542 59.8333 51.7604 57.5521 54.6562 54.6562C57.5521 51.7604 59.8333 48.3542 61.5 44.4375C63.1667 40.5625 64 36.4167 64 32C64 27.5833 63.1667 23.4375 61.5 19.5625C59.8333 15.6458 57.5521 12.2396 54.6562 9.34375C51.7604 6.44792 48.3542 4.16667 44.4375 2.5C40.5625 0.833332 36.4167 0 32 0ZM53.625 53.625C52.25 55 50.75 56.25 49.125 57.375C47.4583 58.4583 45.7188 59.3854 43.9062 60.1562C42.0938 60.9271 40.1875 61.5208 38.1875 61.9375C36.1875 62.3542 34.125 62.5625 32 62.5625C29.875 62.5625 27.8125 62.3542 25.8125 61.9375C23.8125 61.5208 21.9062 60.9271 20.0938 60.1562C18.2812 59.3854 16.5417 58.4583 14.875 57.375C13.25 56.25 11.75 55 10.375 53.625C9 52.25 7.75 50.75 6.625 49.125C5.54167 47.4583 4.61458 45.7188 3.84375 43.9062C3.07292 42.0938 2.47917 40.1875 2.0625 38.1875C1.64583 36.1875 1.4375 34.125 1.4375 32C1.4375 29.875 1.64583 27.8125 2.0625 25.8125C2.47917 23.8125 3.07292 21.9062 3.84375 20.0938C4.61458 18.2812 5.54167 16.5417 6.625 14.875C7.75 13.25 9 11.75 10.375 10.375C11.75 9 13.25 7.75 14.875 6.625C16.5417 5.54167 18.2812 4.61458 20.0938 3.84375C21.9062 3.07292 23.8125 2.47917 25.8125 2.0625C27.8125 1.64583 29.875 1.4375 32 1.4375C34.125 1.4375 36.1875 1.64583 38.1875 2.0625C40.1875 2.47917 42.0938 3.07292 43.9062 3.84375C45.7188 4.61458 47.4583 5.54167 49.125 6.625C50.75 7.75 52.25 9 53.625 10.375C55 11.75 56.25 13.25 57.375 14.875C58.4583 16.5417 59.3854 18.2812 60.1562 20.0938C60.9271 21.9062 61.5208 23.8125 61.9375 25.8125C62.3542 27.8125 62.5625 29.875 62.5625 32C62.5625 34.125 62.3542 36.1875 61.9375 38.1875C61.5208 40.1875 60.9271 42.0938 60.1562 43.9062C59.3854 45.7188 58.4583 47.4583 57.375 49.125C56.25 50.75 55 52.25 53.625 53.625ZM39.125 31.75C38.3333 31.75 37.6562 31.6771 37.0938 31.5312C36.5312 31.3854 36.0417 31.1667 35.625 30.875C35.2917 30.7083 35.0104 30.5104 34.7812 30.2812C34.5521 30.0521 34.3333 29.8125 34.125 29.5625C33.875 29.1875 33.6667 28.8021 33.5 28.4062C33.3333 28.0104 33.2083 27.6667 33.125 27.375C33.0833 27.2083 33.0521 27.0625 33.0312 26.9375C33.0104 26.8125 32.9792 26.7083 32.9375 26.625C32.9375 26.5417 32.9375 26.4896 32.9375 26.4688C32.9375 26.4479 32.9375 26.4167 32.9375 26.375V26.3125C32.9375 26.1458 32.8646 26 32.7188 25.875C32.5729 25.75 32.4167 25.6875 32.25 25.6875C32.0833 25.6875 31.9375 25.75 31.8125 25.875C31.6875 26 31.625 26.1667 31.625 26.375C31.625 27 31.5312 27.5625 31.3438 28.0625C31.1562 28.5625 30.9375 28.9792 30.6875 29.3125C30.2708 29.8958 29.7604 30.3438 29.1562 30.6562C28.5521 30.9688 27.9583 31.2292 27.375 31.4375C27.0833 31.5208 26.8125 31.5833 26.5625 31.625C26.3125 31.6667 26.1042 31.7083 25.9375 31.75C25.8542 31.75 25.7708 31.75 25.6875 31.75C25.6042 31.75 25.5417 31.75 25.5 31.75C25.4583 31.75 25.4271 31.7604 25.4062 31.7812C25.3854 31.8021 25.375 31.8125 25.375 31.8125C25.1667 31.8125 25.0104 31.875 24.9062 32C24.8021 32.125 24.75 32.2708 24.75 32.4375C24.75 32.6458 24.8125 32.8125 24.9375 32.9375C25.0625 33.0625 25.2083 33.125 25.375 33.125C26.1667 33.125 26.8438 33.1979 27.4062 33.3438C27.9688 33.4896 28.4583 33.6875 28.875 33.9375C29.2083 34.1042 29.5 34.3021 29.75 34.5312C30 34.7604 30.2083 35 30.375 35.25C30.6667 35.5833 30.8958 35.9375 31.0625 36.3125C31.2292 36.6875 31.3542 37.0208 31.4375 37.3125C31.4375 37.4792 31.4583 37.6146 31.5 37.7188C31.5417 37.8229 31.5625 37.9375 31.5625 38.0625C31.5625 38.1042 31.5625 38.1354 31.5625 38.1562C31.5625 38.1771 31.5625 38.2083 31.5625 38.25V38.3125C31.6042 38.4792 31.6875 38.625 31.8125 38.75C31.9375 38.875 32.0833 38.9375 32.25 38.9375C32.4583 38.9375 32.625 38.8646 32.75 38.7188C32.875 38.5729 32.9375 38.4167 32.9375 38.25C32.9375 37.625 33.0208 37.0833 33.1875 36.625C33.3542 36.1667 33.5625 35.7708 33.8125 35.4375C34.2292 34.8958 34.7396 34.4688 35.3438 34.1562C35.9479 33.8438 36.5417 33.6042 37.125 33.4375C37.4167 33.3542 37.6875 33.2917 37.9375 33.25C38.1875 33.2083 38.3958 33.1667 38.5625 33.125C38.6458 33.125 38.7292 33.125 38.8125 33.125C38.8958 33.125 38.9583 33.125 39 33.125C39.0417 33.125 39.0625 33.1146 39.0625 33.0938C39.0625 33.0729 39.0833 33.0625 39.125 33.0625C39.2917 33.0625 39.4375 33 39.5625 32.875C39.6875 32.75 39.75 32.6042 39.75 32.4375C39.75 32.2292 39.6875 32.0625 39.5625 31.9375C39.4375 31.8125 39.2917 31.75 39.125 31.75ZM35.375 32.6875C34.9167 32.8542 34.4583 33.1042 34 33.4375C33.5417 33.7708 33.1458 34.1667 32.8125 34.625C32.6875 34.75 32.5729 34.8958 32.4688 35.0625C32.3646 35.2292 32.2708 35.4167 32.1875 35.625C32.1042 35.5 32.0417 35.3958 32 35.3125C31.9583 35.2292 31.8958 35.125 31.8125 35C31.5625 34.625 31.25 34.2396 30.875 33.8438C30.5 33.4479 30.0625 33.1042 29.5625 32.8125C29.3958 32.7292 29.2396 32.6458 29.0938 32.5625C28.9479 32.4792 28.7917 32.4167 28.625 32.375C28.7083 32.3333 28.7917 32.3021 28.875 32.2812C28.9583 32.2604 29.0417 32.2292 29.125 32.1875C29.5833 31.9792 30.0417 31.7083 30.5 31.375C30.9583 31.0417 31.3542 30.625 31.6875 30.125C31.8125 30 31.9271 29.8438 32.0312 29.6562C32.1354 29.4688 32.2292 29.2917 32.3125 29.125C32.3958 29.2083 32.4583 29.3021 32.5 29.4062C32.5417 29.5104 32.6042 29.625 32.6875 29.75C32.8958 30.1667 33.1875 30.5729 33.5625 30.9688C33.9375 31.3646 34.3958 31.7292 34.9375 32.0625C35.0625 32.1458 35.1979 32.2188 35.3438 32.2812C35.4896 32.3438 35.6458 32.4167 35.8125 32.5C35.7292 32.5 35.6562 32.5208 35.5938 32.5625C35.5312 32.6042 35.4583 32.6458 35.375 32.6875ZM49.375 32.75C49.3333 32.625 49.2917 32.5208 49.25 32.4375C49.2083 32.3542 49.1875 32.2708 49.1875 32.1875C49.1875 32.1458 49.1771 32.1146 49.1562 32.0938C49.1354 32.0729 49.125 32.0625 49.125 32.0625V32C49.125 32 49.1354 31.9688 49.1562 31.9062C49.1771 31.8438 49.1875 31.7708 49.1875 31.6875C49.2708 31.5625 49.3542 31.4062 49.4375 31.2188C49.5208 31.0312 49.6042 30.8333 49.6875 30.625C49.8542 30.25 50.0208 29.8646 50.1875 29.4688C50.3542 29.0729 50.5208 28.6458 50.6875 28.1875C50.8125 27.7292 50.9271 27.2604 51.0312 26.7812C51.1354 26.3021 51.1875 25.8333 51.1875 25.375C51.1875 24.9167 51.1354 24.4688 51.0312 24.0312C50.9271 23.5938 50.75 23.1875 50.5 22.8125C50.3333 22.5625 50.1771 22.3125 50.0312 22.0625C49.8854 21.8125 49.7083 21.5833 49.5 21.375C49.25 21.0417 48.9479 20.7188 48.5938 20.4062C48.2396 20.0938 47.8333 19.8333 47.375 19.625C46.875 19.4167 46.3229 19.2604 45.7188 19.1562C45.1146 19.0521 44.3958 19 43.5625 19C42.3542 19 40.8646 19.1354 39.0938 19.4062C37.3229 19.6771 35.1458 20.125 32.5625 20.75C32.5625 20.75 32.5312 20.7604 32.4688 20.7812C32.4062 20.8021 32.3542 20.7917 32.3125 20.75C29.9375 20.125 27.8854 19.6771 26.1562 19.4062C24.4271 19.1354 22.9375 19 21.6875 19C21.1458 19 20.6458 19.0208 20.1875 19.0625C19.7292 19.1042 19.2917 19.1667 18.875 19.25C18.2917 19.4167 17.7708 19.625 17.3125 19.875C16.8542 20.125 16.4375 20.3958 16.0625 20.6875C15.7292 21.0208 15.4271 21.3646 15.1562 21.7188C14.8854 22.0729 14.6458 22.4375 14.4375 22.8125C14.1875 23.1875 14.0104 23.5938 13.9062 24.0312C13.8021 24.4688 13.75 24.9167 13.75 25.375C13.75 26.125 13.8646 26.8646 14.0938 27.5938C14.3229 28.3229 14.5417 29 14.75 29.625C14.875 29.9583 15 30.2604 15.125 30.5312C15.25 30.8021 15.3542 31.0417 15.4375 31.25C15.4792 31.3333 15.5521 31.5 15.6562 31.75C15.7604 32 15.7917 32.1667 15.75 32.25C15.75 32.2917 15.75 32.3125 15.75 32.3125C15.7083 32.4375 15.6458 32.5938 15.5625 32.7812C15.4792 32.9688 15.375 33.1667 15.25 33.375C15.125 33.75 14.9688 34.1354 14.7812 34.5312C14.5938 34.9271 14.4375 35.3542 14.3125 35.8125C14.1458 36.2708 14.0104 36.7292 13.9062 37.1875C13.8021 37.6458 13.75 38.125 13.75 38.625C13.75 39.0833 13.8021 39.5312 13.9062 39.9688C14.0104 40.4062 14.2083 40.8125 14.5 41.1875C14.625 41.4375 14.7708 41.6875 14.9375 41.9375C15.1042 42.1875 15.2917 42.4167 15.5 42.625C15.7917 42.9583 16.125 43.2812 16.5 43.5938C16.875 43.9062 17.3125 44.1667 17.8125 44.375C18.3125 44.5833 18.8854 44.7396 19.5312 44.8438C20.1771 44.9479 20.9167 45 21.75 45C23.0417 45 24.5729 44.8646 26.3438 44.5938C28.1146 44.3229 30.25 43.875 32.75 43.25C35.25 43.875 37.375 44.3229 39.125 44.5938C40.875 44.8646 42.3542 45 43.5625 45C44.1042 45 44.6042 44.9792 45.0625 44.9375C45.5208 44.8958 45.9375 44.8125 46.3125 44.6875C46.8958 44.5625 47.3958 44.375 47.8125 44.125C48.2292 43.875 48.6042 43.5833 48.9375 43.25C49.2708 42.9583 49.5521 42.6354 49.7812 42.2812C50.0104 41.9271 50.25 41.5625 50.5 41.1875C50.75 40.8125 50.9271 40.4062 51.0312 39.9688C51.1354 39.5312 51.1875 39.0833 51.1875 38.625C51.1875 37.875 51.0729 37.125 50.8438 36.375C50.6146 35.625 50.375 34.9375 50.125 34.3125C50 34.0208 49.875 33.7396 49.75 33.4688C49.625 33.1979 49.5 32.9583 49.375 32.75ZM49.375 40.5C49.2083 40.75 49.0521 40.9792 48.9062 41.1875C48.7604 41.3958 48.625 41.6042 48.5 41.8125C48.25 42.1042 48 42.3542 47.75 42.5625C47.5 42.7708 47.1875 42.9583 46.8125 43.125C46.4375 43.2917 45.9896 43.4271 45.4688 43.5312C44.9479 43.6354 44.3333 43.6875 43.625 43.6875C42.5 43.6875 41.0833 43.5521 39.375 43.2812C37.6667 43.0104 35.5625 42.5833 33.0625 42C33.0208 41.9583 32.9792 41.9375 32.9375 41.9375C32.8958 41.9375 32.8333 41.9375 32.75 41.9375C32.7083 41.9375 32.6562 41.9375 32.5938 41.9375C32.5312 41.9375 32.4792 41.9583 32.4375 42C29.9792 42.5833 27.8854 43.0104 26.1562 43.2812C24.4271 43.5521 22.9583 43.6875 21.75 43.6875C21.25 43.6875 20.7917 43.6667 20.375 43.625C19.9583 43.5833 19.5833 43.5208 19.25 43.4375C18.75 43.3125 18.3229 43.1562 17.9688 42.9688C17.6146 42.7812 17.3125 42.5625 17.0625 42.3125C16.7708 42.0625 16.5104 41.7812 16.2812 41.4688C16.0521 41.1562 15.8333 40.8333 15.625 40.5C15.4167 40.2083 15.2812 39.9167 15.2188 39.625C15.1562 39.3333 15.125 39 15.125 38.625C15.125 38.0417 15.2188 37.4167 15.4062 36.75C15.5938 36.0833 15.8125 35.4583 16.0625 34.875C16.1875 34.5833 16.3125 34.3021 16.4375 34.0312C16.5625 33.7604 16.6875 33.5 16.8125 33.25C16.8542 33.1667 16.8958 33.0625 16.9375 32.9375C16.9792 32.8125 17.0208 32.7083 17.0625 32.625C17.1042 32.5417 17.1354 32.4583 17.1562 32.375C17.1771 32.2917 17.1875 32.1875 17.1875 32.0625C17.1875 31.9792 17.0938 31.7083 16.9062 31.25C16.7188 30.7917 16.5625 30.4375 16.4375 30.1875C16.3125 29.8542 16.1667 29.4896 16 29.0938C15.8333 28.6979 15.6875 28.2917 15.5625 27.875C15.4375 27.4583 15.3333 27.0312 15.25 26.5938C15.1667 26.1562 15.125 25.75 15.125 25.375C15.125 25 15.1562 24.6562 15.2188 24.3438C15.2812 24.0312 15.3958 23.75 15.5625 23.5C15.7292 23.25 15.8854 23.0208 16.0312 22.8125C16.1771 22.6042 16.3125 22.4167 16.4375 22.25C16.6875 21.9583 16.9583 21.6979 17.25 21.4688C17.5417 21.2396 17.8958 21.0417 18.3125 20.875C18.7292 20.7083 19.2083 20.5729 19.75 20.4688C20.2917 20.3646 20.9583 20.3125 21.75 20.3125C22.875 20.3125 24.2812 20.4479 25.9688 20.7188C27.6562 20.9896 29.6667 21.4375 32 22.0625C32.0833 22.1042 32.2396 22.125 32.4688 22.125C32.6979 22.125 32.8333 22.1042 32.875 22.0625C35.4167 21.4375 37.5521 20.9896 39.2812 20.7188C41.0104 20.4479 42.4583 20.3125 43.625 20.3125C44.125 20.3125 44.5729 20.3333 44.9688 20.375C45.3646 20.4167 45.7083 20.4792 46 20.5625C46.4583 20.6875 46.8438 20.8438 47.1562 21.0312C47.4688 21.2188 47.75 21.4375 48 21.6875C48.25 21.9375 48.4896 22.2083 48.7188 22.5C48.9479 22.7917 49.1667 23.125 49.375 23.5C49.5417 23.7917 49.6667 24.0833 49.75 24.375C49.8333 24.6667 49.875 25 49.875 25.375C49.875 25.9583 49.7812 26.5833 49.5938 27.25C49.4062 27.9167 49.1667 28.5417 48.875 29.125C48.75 29.4167 48.625 29.6979 48.5 29.9688C48.375 30.2396 48.2708 30.5 48.1875 30.75C48.1458 30.8333 48.1042 30.9375 48.0625 31.0625C48.0208 31.1875 47.9792 31.2917 47.9375 31.375C47.8958 31.4583 47.8646 31.5417 47.8438 31.625C47.8229 31.7083 47.8125 31.7917 47.8125 31.875C47.8125 31.875 47.8125 31.8854 47.8125 31.9062C47.8125 31.9271 47.8125 31.9583 47.8125 32C47.8125 32.0417 47.8125 32.0729 47.8125 32.0938C47.8125 32.1146 47.8125 32.125 47.8125 32.125C47.8125 32.2083 47.8229 32.2917 47.8438 32.375C47.8646 32.4583 47.8958 32.5417 47.9375 32.625C47.9792 32.7917 48.0417 32.9792 48.125 33.1875C48.2083 33.3958 48.3125 33.6042 48.4375 33.8125C48.6042 34.1458 48.7708 34.5104 48.9375 34.9062C49.1042 35.3021 49.25 35.7083 49.375 36.125C49.5417 36.5417 49.6667 36.9688 49.75 37.4062C49.8333 37.8438 49.875 38.25 49.875 38.625C49.875 39 49.8333 39.3333 49.75 39.625C49.6667 39.9167 49.5417 40.2083 49.375 40.5Z" fill="#009CDE"/>
</g>
<defs>
<clipPath id="clip0_1_3671">
<rect width="64" height="64" fill="white" transform="matrix(1 0 0 -1 0 64)"/>
</clipPath>
</defs>
</svg>
