<svg width="140" height="143" viewBox="0 0 140 143" fill="none" xmlns="http://www.w3.org/2000/svg">
<g clip-path="url(#clip0_43_679)">
<path d="M70.0002 142.999C108.66 142.999 140 110.988 140 71.4996C140 32.0115 108.66 0 70.0002 0C31.3405 0 0.000610352 32.0115 0.000610352 71.4996C0.000610352 110.988 31.3405 142.999 70.0002 142.999Z" fill="#FF5B62"/>
<path d="M62.4932 66.6479L60.5911 76.411L54.2181 78.6501L57.9897 139.423L82.2383 139.283L83.3712 77.5022L79.3011 76.1943L77.2265 66.2349L62.4937 66.6488L62.4932 66.6479Z" fill="#F0BA7D"/>
<path d="M52.7716 95.6057C63.3813 100.86 74.2952 101.962 85.784 95.9032L85.3921 141.261C80.4388 142.396 75.2883 143 69.9998 143C63.9145 143 58.011 142.205 52.3817 140.715L52.7711 95.6063L52.7716 95.6057Z" fill="#21D0C3"/>
<path d="M81.3473 76.938L99.8294 82.0868C104.622 83.5978 108.904 86.493 109.041 91.6946L110.055 130.139C105.843 133.147 101.292 135.691 96.4721 137.704L95.2928 116.443L92.0559 139.374C85.1221 141.726 77.7067 143 69.9999 143C69.7984 143 69.599 142.994 69.3981 142.992L69.3901 123.501L81.3464 76.9385L81.3473 76.938Z" fill="#EEF3F7"/>
<path d="M59.7252 76.7434L41.157 81.5582C36.3384 82.9832 32.0075 85.8004 31.7803 90.9984L30.068 130.226C34.2428 133.194 38.7496 135.707 43.5192 137.701L45.0994 115.99L47.9912 139.39C54.7304 141.669 61.9245 142.927 69.3981 142.992L69.3901 123.5L59.7247 76.7437H59.7252V76.7434Z" fill="white"/>
<path d="M49.9235 43.2351C49.6129 46.4344 50.2407 53.5389 54.0401 53.2685C54.0401 53.2685 59.5094 69.5504 70.0387 71.394C79.1291 69.6975 84.659 54.9507 85.0788 53.5481C86.3308 53.9846 89.8355 48.0306 87.149 43.1588C86.3787 41.7615 84.1972 42.8929 84.1972 42.8929C86.2573 15.0066 49.8593 17.3887 53.327 43.1831C53.327 43.1831 52.2989 42.5312 51.1573 42.5058C50.8141 42.498 50.3728 42.8033 49.9235 43.2351Z" fill="#FED298"/>
<path d="M95.3002 117C92.5685 116.519 90.7365 113.866 91.2076 111.076C91.6793 108.287 94.2764 106.414 97.0075 106.895C99.7392 107.377 101.571 110.031 101.1 112.821C100.628 115.61 98.0313 117.482 95.2999 117H95.3002Z" fill="#FEFEFE"/>
<path d="M95.3499 116.707C92.7774 116.253 91.0515 113.756 91.4964 111.128C91.9407 108.5 94.3861 106.737 96.9591 107.19C99.5316 107.644 101.257 110.142 100.813 112.77C100.368 115.399 97.923 117.16 95.3499 116.706V116.707Z" fill="#0F7986"/>
<path d="M95.7089 114.582C94.286 114.331 93.3311 112.948 93.5764 111.494C93.8217 110.04 95.176 109.065 96.5987 109.316C98.0222 109.567 98.977 110.949 98.7312 112.403C98.4859 113.856 97.1322 114.832 95.7092 114.581V114.582H95.7089Z" fill="#EBECEC"/>
<path d="M96.0166 109.602L97.1659 109.805L97.7838 106.149L96.6346 105.946L96.0166 109.602Z" fill="#FEFEFE"/>
<path d="M57.5237 118.015L59.6773 117.579C60.5925 117.393 61.3502 116.843 61.8339 116.104C62.3163 115.366 62.526 114.44 62.3439 113.505L59.811 100.471C58.8548 95.5525 55.088 93.0447 50.7835 92.4886C49.1341 92.2755 47.4049 92.3532 45.7296 92.692C44.0529 93.0308 42.4275 93.6329 40.9835 94.473C37.2227 96.661 34.6882 100.444 35.6455 105.37L38.1783 118.405C38.3604 119.34 38.8999 120.113 39.6224 120.607L39.6243 120.607C40.3472 121.101 41.252 121.314 42.1672 121.128L44.3197 120.692L44.1436 119.785L41.9906 120.222C41.3196 120.358 40.6549 120.201 40.1252 119.84L40.1258 119.839C39.5958 119.477 39.1999 118.91 39.0667 118.225L36.5339 105.19C35.6652 100.72 37.9875 97.2741 41.4287 95.2735C42.7888 94.4817 44.3225 93.9139 45.9057 93.593C47.4889 93.2726 49.1191 93.2003 50.6728 93.4008C54.6127 93.9094 58.058 96.1885 58.9245 100.65L61.4579 113.685C61.5906 114.37 61.4369 115.048 61.0831 115.59C60.7281 116.131 60.1728 116.535 59.5015 116.671L57.3479 117.107L57.524 118.014L57.5237 118.015Z" fill="#21D0C3"/>
<path d="M60.4942 102.403L60.1072 100.412C59.122 95.3409 55.2464 92.7563 50.8208 92.184C49.1394 91.967 47.3785 92.0449 45.6717 92.391C43.9649 92.7359 42.3081 93.3503 40.8368 94.2055C36.9687 96.4555 34.3634 100.351 35.3505 105.43L35.738 107.421L37.2162 107.121L36.8293 105.13C35.9907 100.813 38.2424 97.4792 41.5764 95.54C42.9092 94.7652 44.412 94.2092 45.9643 93.8947C47.516 93.5799 49.1143 93.5093 50.6368 93.7056C54.4542 94.1983 57.7918 96.4008 58.6299 100.711L59.0168 102.702L60.4955 102.402L60.4942 102.403Z" fill="#4D4D4D"/>
<path d="M42.6113 121.237L43.7636 121.003C44.0528 121.335 44.5005 121.505 44.9566 121.413C45.6421 121.274 46.0875 120.594 45.9513 119.893C45.8157 119.193 45.1496 118.738 44.4641 118.877C44.0069 118.97 43.6575 119.302 43.5147 119.721L42.3633 119.954L42.6121 121.236L42.6113 121.237Z" fill="#076673"/>
<path d="M58.4387 118.028L57.2878 118.262C57.1448 118.681 56.7953 119.013 56.339 119.106C55.6534 119.244 54.9879 118.79 54.8517 118.089C54.7161 117.39 55.161 116.709 55.8459 116.571C56.3023 116.479 56.7505 116.649 57.0384 116.98L58.1899 116.746L58.4387 118.028Z" fill="#076673"/>
<path d="M46.3722 92.2734L45.9328 90.0122L45.0592 90.1896L44.1866 90.3663L44.631 92.6499C44.9638 92.5507 45.3006 92.4664 45.6408 92.3974C45.883 92.348 46.1267 92.3072 46.3722 92.2734Z" fill="#666666"/>
<path d="M44.4874 119.979C44.6947 119.937 44.8295 119.73 44.7882 119.52C44.7472 119.308 44.5465 119.17 44.3384 119.211C44.1308 119.253 43.9963 119.459 44.0376 119.671C44.0786 119.882 44.2799 120.021 44.4874 119.978V119.979Z" fill="#0F7986"/>
<path d="M55.8771 117.666C56.0841 117.624 56.2184 117.418 56.1773 117.207C56.1363 116.994 55.9356 116.857 55.7275 116.899C55.5203 116.941 55.3855 117.147 55.4267 117.359C55.4672 117.57 55.669 117.707 55.8771 117.666Z" fill="#0F7986"/>
<path d="M95.5692 114.557C94.223 114.32 93.3204 113.013 93.5523 111.637C93.7845 110.262 95.0636 109.34 96.41 109.577C97.7561 109.815 98.6593 111.122 98.4269 112.496C98.1942 113.871 96.9142 114.794 95.5684 114.557H95.5692Z" fill="#FEFEFE"/>
<path d="M57.0285 77.8013C56.99 77.8019 43.395 77.917 45.6913 90.0658L44.4269 90.3127C41.8383 76.6165 56.9706 76.4903 57.0135 76.4897L57.0285 77.8013Z" fill="#4D4D4D"/>
<path d="M84.1573 76.5526C86.3754 76.6138 90.6629 77.231 93.9633 81.3316C97.1929 85.3443 99.4569 92.7135 97.7641 106.225L96.4896 106.061C98.128 92.9833 96.0108 85.9423 92.9718 82.1654C90.0026 78.4756 86.131 77.9195 84.1281 77.8645L84.1581 76.5526H84.1573Z" fill="#4D4D4D"/>
<path d="M70.0002 71.4998C63.4111 70.4429 57.8199 61.4529 57.7773 60.6765L57.3884 53.6137L67.3374 53.1732C68.6445 52.4169 69.6091 52.4169 70.9167 53.1732L80.8657 53.6137L81.0538 61.9462C79.3052 64.564 76.7401 69.5821 70.001 71.4998H70.0002Z" fill="#FEFEFE"/>
<path d="M69.1267 52.6334L69.9328 55.3652L69.5049 57.2725L70.3876 61.8694L69.4598 66.2656L70.0006 71.4993C74.9359 70.0059 77.524 67.6629 81.0541 61.9717L80.8654 53.6134L70.9164 53.173C70.9164 53.173 69.7321 52.489 69.1265 52.6331L69.1267 52.6334Z" fill="#EEF3F7"/>
<path d="M53.2986 42.1919L58.1245 53.8631L57.5577 54.0732L52.7318 42.4019L53.2986 42.1919Z" fill="#21D0C3"/>
<path d="M85.3353 42.568L80.7927 54.2438L80.2073 54.0843L84.7504 42.4086L85.3359 42.568H85.3353Z" fill="#21D0C3"/>
<path d="M58.7854 39.1908C52.5882 41.6115 51.953 47.4278 52.9223 50.3518C53.8925 53.2752 55.0932 55.3917 55.0932 55.3917L56.9916 59.7669C56.9916 59.7669 50.2574 58.4087 49.5118 56.5583C45.9806 47.796 44.4715 35.722 50.8929 27.7752C60.9581 15.318 79.3454 15.0809 88.8408 27.7752C94.9655 35.9624 92.6973 47.7962 89.167 56.5583C88.421 58.4081 81.6871 59.7669 81.6871 59.7669L83.5856 55.3917C83.5856 55.3917 84.9005 52.8132 85.8701 49.8901C86.8403 46.9667 84.2626 40.5518 80.6401 39.1369C71.8699 35.7119 64.9837 36.771 58.7865 39.1911L58.7854 39.1908Z" fill="#21D0C3"/>
<path d="M59.1102 66.1438C55.3532 70.3364 57.025 77.4439 57.025 77.4439L60.5909 76.4105L62.4202 67.0239C62.4202 67.0239 58.6432 62.8777 57.8437 61.2374C57.045 59.5969 56.6362 58.7944 56.6362 58.7944C56.0166 63.91 59.0596 63.1135 59.1102 66.1438Z" fill="#666666"/>
<path d="M80.6967 66.1438C84.4537 70.3364 82.7819 77.4439 82.7819 77.4439L79.216 76.4105L77.3867 67.0239C77.3867 67.0239 81.1637 62.8777 81.9632 61.2374C82.7619 59.5969 83.1707 58.7944 83.1707 58.7944C83.7906 63.91 80.7475 63.1135 80.6967 66.1438Z" fill="#666666"/>
<path d="M70.5831 18.3478C70.8303 18.4205 82.021 22.6186 85.8204 26.4413C89.6198 30.264 89.4448 32.6475 90.2973 34.1172C91.1505 35.5871 92.0041 44.5157 90.1918 48.9797C88.3795 53.4437 89.2531 55.0331 86.1411 56.7106C83.0289 58.388 81.6852 59.7664 81.6852 59.7664C81.6852 59.7664 88.4202 58.4082 89.165 56.5578C92.6962 47.796 94.9636 35.9622 88.8388 27.7747C84.2044 21.5782 77.4513 18.4643 70.5823 18.3473L70.5831 18.3478Z" fill="#15BDB2"/>
</g>
<defs>
<clipPath id="clip0_43_679">
<rect width="140" height="143" fill="white"/>
</clipPath>
</defs>
</svg>
