<svg width="32" height="32" viewBox="0 0 32 32" fill="none" xmlns="http://www.w3.org/2000/svg">
<path d="M16 31.625C7.384 31.625 0.375 24.615 0.375 16C0.375 7.385 7.384 0.375 16 0.375C24.615 0.375 31.625 7.385 31.625 16C31.625 24.615 24.615 31.625 16 31.625Z" fill="white"/>
<path d="M16 0.75C24.409 0.75 31.25 7.591 31.25 16C31.25 24.409 24.409 31.25 16 31.25C7.591 31.25 0.75 24.409 0.75 16C0.75 7.591 7.591 0.75 16 0.75ZM16 0C7.163 0 0 7.163 0 16C0 24.836 7.163 32 16 32C24.837 32 32 24.836 32 16C32 7.163 24.837 0 16 0Z" fill="#E5E5E5"/>
<path d="M18.226 8.88609C16.636 9.46509 15.631 10.9571 15.745 12.5901L15.783 13.2201L15.147 13.1431C12.832 12.8471 10.809 11.8441 9.09098 10.1591L8.25098 9.32309L8.03598 9.94009C7.57798 11.3161 7.87098 12.7701 8.82498 13.7481C9.33398 14.2881 9.21898 14.3651 8.34198 14.0441C8.03698 13.9411 7.76898 13.8641 7.74398 13.9031C7.65498 13.9931 7.95998 15.1631 8.20198 15.6271C8.53298 16.2711 9.20698 16.9001 9.94498 17.2741L10.569 17.5701L9.82998 17.5811C9.11798 17.5811 9.09198 17.5941 9.16898 17.8651C9.42298 18.7011 10.428 19.5891 11.548 19.9751L12.337 20.2451L11.65 20.6571C10.632 21.2501 9.43598 21.5841 8.23998 21.6081C7.66698 21.6211 7.19598 21.6721 7.19598 21.7111C7.19598 21.8391 8.74898 22.5591 9.65098 22.8431C12.361 23.6791 15.58 23.3181 17.997 21.8911C19.715 20.8751 21.432 18.8551 22.234 16.8991C22.667 15.8581 23.099 13.9541 23.099 13.0411C23.099 12.4491 23.137 12.3721 23.849 11.6651C24.269 11.2531 24.663 10.8031 24.74 10.6751C24.868 10.4301 24.854 10.4301 24.206 10.6491C23.125 11.0351 22.972 10.9841 23.507 10.4051C23.901 9.99309 24.372 9.24709 24.372 9.02909C24.372 8.99109 24.181 9.05509 23.965 9.17009C23.736 9.29909 23.227 9.49209 22.845 9.60709L22.158 9.82609L21.535 9.40009C21.191 9.16909 20.709 8.91109 20.454 8.83409C19.804 8.65409 18.812 8.68009 18.226 8.88609Z" fill="#023047"/>
</svg>
