<svg width="65" height="64" viewBox="0 0 65 64" fill="none" xmlns="http://www.w3.org/2000/svg">
<path d="M44.23 31.25C43.4383 31.2083 42.7508 31.1042 42.1675 30.9375C41.5842 30.7708 41.0425 30.5833 40.5425 30.375C40.1675 30.25 39.7821 30.125 39.3862 30C38.9904 29.875 38.5633 29.8125 38.105 29.8125C37.8133 29.8125 37.5217 29.8438 37.23 29.9062C36.9383 29.9688 36.6258 30.0833 36.2925 30.25C35.3342 30.75 34.48 31.0521 33.73 31.1562C32.98 31.2604 32.2092 31.3125 31.4175 31.3125C31.2925 31.3125 31.1571 31.3125 31.0112 31.3125C30.8654 31.3125 30.7092 31.3125 30.5425 31.3125C30.3758 31.3125 30.2092 31.3125 30.0425 31.3125C29.8758 31.3125 29.6883 31.3125 29.48 31.3125C28.0217 31.3125 26.6571 31.625 25.3862 32.25C24.1154 32.875 23.0633 33.5 22.23 34.125C22.0217 34.2917 21.855 34.5 21.73 34.75C21.605 35 21.5425 35.25 21.5425 35.5C21.5425 35.5833 21.5425 35.6771 21.5425 35.7812C21.5425 35.8854 21.5633 35.9792 21.605 36.0625C22.23 37.8542 22.6467 39.3854 22.855 40.6562C23.0633 41.9271 23.2092 43.0833 23.2925 44.125C23.3342 44.7083 23.3862 45.2604 23.4487 45.7812C23.5112 46.3021 23.605 46.7917 23.73 47.25C23.855 47.6667 24.0425 48.0521 24.2925 48.4062C24.5425 48.7604 24.855 49.0625 25.23 49.3125C25.4383 49.4375 25.6362 49.5312 25.8237 49.5938C26.0112 49.6562 26.2092 49.6875 26.4175 49.6875C26.5842 49.6875 26.7404 49.6771 26.8862 49.6562C27.0321 49.6354 27.1675 49.5833 27.2925 49.5C27.6258 49.375 27.9175 49.1667 28.1675 48.875C28.4175 48.5833 28.5633 48.2708 28.605 47.9375C28.7717 46.4792 29.0217 45.0833 29.355 43.75C29.6883 42.4167 30.0425 41.25 30.4175 40.25C30.5842 39.75 30.7717 39.3021 30.98 38.9062C31.1883 38.5104 31.3758 38.1875 31.5425 37.9375C31.6258 37.7708 31.7196 37.6354 31.8237 37.5312C31.9279 37.4271 32.0217 37.3542 32.105 37.3125C32.1883 37.2292 32.2612 37.1771 32.3237 37.1562C32.3862 37.1354 32.4383 37.125 32.48 37.125C32.5217 37.125 32.5737 37.1354 32.6362 37.1562C32.6987 37.1771 32.7717 37.2292 32.855 37.3125C33.0217 37.3958 33.1883 37.5521 33.355 37.7812C33.5217 38.0104 33.6883 38.2917 33.855 38.625C34.355 39.5833 34.8446 40.8958 35.3237 42.5625C35.8029 44.2292 36.1467 46.0208 36.355 47.9375C36.4383 48.2708 36.5946 48.5833 36.8237 48.875C37.0529 49.1667 37.3342 49.375 37.6675 49.5C37.8342 49.5833 37.98 49.6354 38.105 49.6562C38.23 49.6771 38.3758 49.6875 38.5425 49.6875C38.7508 49.6875 38.9592 49.6562 39.1675 49.5938C39.3758 49.5312 39.5633 49.4375 39.73 49.3125C40.1467 49.0625 40.48 48.7604 40.73 48.4062C40.98 48.0521 41.1675 47.6667 41.2925 47.25C41.4175 46.8333 41.5008 46.375 41.5425 45.875C41.5842 45.375 41.6258 44.8333 41.6675 44.25C41.7508 43.0833 41.9071 41.7917 42.1362 40.375C42.3654 38.9583 42.8967 37.1667 43.73 35C43.7717 34.9167 43.8446 34.7708 43.9487 34.5625C44.0529 34.3542 44.1675 34.125 44.2925 33.875C44.4175 33.625 44.5425 33.3854 44.6675 33.1562C44.7925 32.9271 44.9175 32.7292 45.0425 32.5625C45.0842 32.5208 45.1154 32.4583 45.1362 32.375C45.1571 32.2917 45.1675 32.2083 45.1675 32.125C45.1675 32.0417 45.1571 31.9688 45.1362 31.9062C45.1154 31.8438 45.0842 31.7708 45.0425 31.6875C44.9592 31.5625 44.8446 31.4583 44.6987 31.375C44.5529 31.2917 44.3967 31.25 44.23 31.25ZM42.7925 33.5C42.6675 33.7083 42.5633 33.9062 42.48 34.0938C42.3967 34.2812 42.3342 34.4167 42.2925 34.5C41.4175 36.75 40.8654 38.625 40.6362 40.125C40.4071 41.625 40.2508 42.9583 40.1675 44.125C40.1258 44.6667 40.0842 45.1458 40.0425 45.5625C40.0008 45.9792 39.9383 46.3542 39.855 46.6875C39.73 47.0208 39.5946 47.3021 39.4487 47.5312C39.3029 47.7604 39.105 47.9583 38.855 48.125C38.8133 48.1667 38.7612 48.1979 38.6987 48.2188C38.6362 48.2396 38.5842 48.25 38.5425 48.25C38.5008 48.25 38.4592 48.25 38.4175 48.25C38.3758 48.25 38.3342 48.2292 38.2925 48.1875C38.1675 48.1458 38.0737 48.0833 38.0112 48C37.9487 47.9167 37.9175 47.8333 37.9175 47.75C37.9175 47.7083 37.8862 47.5104 37.8237 47.1562C37.7612 46.8021 37.6675 46.3542 37.5425 45.8125C37.3758 44.9792 37.1467 43.9896 36.855 42.8438C36.5633 41.6979 36.23 40.6042 35.855 39.5625C35.6467 39.0208 35.4175 38.5208 35.1675 38.0625C34.9175 37.6042 34.6675 37.2083 34.4175 36.875C34.2925 36.7083 34.1571 36.5521 34.0112 36.4062C33.8654 36.2604 33.7092 36.125 33.5425 36C33.3758 35.9167 33.2092 35.8438 33.0425 35.7812C32.8758 35.7188 32.6883 35.6875 32.48 35.6875C32.23 35.6875 31.9904 35.7396 31.7612 35.8438C31.5321 35.9479 31.3342 36.0833 31.1675 36.25C30.7925 36.5417 30.4592 36.9271 30.1675 37.4062C29.8758 37.8854 29.605 38.4375 29.355 39.0625C28.605 40.8125 28.0425 42.6771 27.6675 44.6562C27.2925 46.6354 27.105 47.6667 27.105 47.75C27.0633 47.8333 27.0112 47.9167 26.9487 48C26.8862 48.0833 26.7925 48.1458 26.6675 48.1875C26.6258 48.2292 26.5842 48.25 26.5425 48.25C26.5008 48.25 26.4592 48.25 26.4175 48.25C26.3758 48.25 26.3237 48.2396 26.2612 48.2188C26.1987 48.1979 26.1467 48.1667 26.105 48.125C25.855 48 25.6571 47.8125 25.5112 47.5625C25.3654 47.3125 25.2508 47.0208 25.1675 46.6875C25.0842 46.3542 25.0217 45.9583 24.98 45.5C24.9383 45.0417 24.8758 44.5417 24.7925 44C24.7092 42.9167 24.5633 41.7188 24.355 40.4062C24.1467 39.0938 23.7092 37.4792 23.0425 35.5625C23.0425 35.5625 23.0425 35.5521 23.0425 35.5312C23.0425 35.5104 23.0425 35.5 23.0425 35.5C23.0425 35.4583 23.0529 35.4167 23.0737 35.375C23.0946 35.3333 23.1258 35.2917 23.1675 35.25C23.9175 34.6667 24.855 34.1042 25.98 33.5625C27.105 33.0208 28.2925 32.75 29.5425 32.75C29.7092 32.75 29.8758 32.75 30.0425 32.75C30.2092 32.75 30.3758 32.75 30.5425 32.75C30.7092 32.75 30.8654 32.75 31.0112 32.75C31.1571 32.75 31.3133 32.75 31.48 32.75C32.355 32.75 33.23 32.6771 34.105 32.5312C34.98 32.3854 35.9592 32.0417 37.0425 31.5C37.2508 31.4167 37.4383 31.3542 37.605 31.3125C37.7717 31.2708 37.9592 31.25 38.1675 31.25C38.4175 31.25 38.6883 31.2917 38.98 31.375C39.2717 31.4583 39.6258 31.5625 40.0425 31.6875C40.4592 31.8542 40.9279 32.0208 41.4487 32.1875C41.9696 32.3542 42.5842 32.4792 43.2925 32.5625C43.2092 32.7292 43.1258 32.8854 43.0425 33.0312C42.9592 33.1771 42.8758 33.3333 42.7925 33.5ZM21.98 23.4375C21.98 23.1875 22.0008 22.9479 22.0425 22.7188C22.0842 22.4896 22.1258 22.2917 22.1675 22.125C22.2092 22.0417 22.2404 21.9688 22.2612 21.9062C22.2821 21.8438 22.3133 21.7917 22.355 21.75C22.355 21.7083 22.355 21.6875 22.355 21.6875C22.355 21.6875 22.355 21.6667 22.355 21.625C22.48 21.4583 22.5112 21.2812 22.4487 21.0938C22.3862 20.9062 22.2717 20.7708 22.105 20.6875C21.9383 20.5625 21.7612 20.5312 21.5737 20.5938C21.3862 20.6562 21.23 20.7708 21.105 20.9375C21.105 20.9792 21.0112 21.2292 20.8237 21.6875C20.6362 22.1458 20.5425 22.7292 20.5425 23.4375C20.5425 23.7708 20.5842 24.125 20.6675 24.5C20.7508 24.875 20.9175 25.25 21.1675 25.625C21.2508 25.7917 21.3967 25.8958 21.605 25.9375C21.8133 25.9792 22.0008 25.9375 22.1675 25.8125C22.3342 25.7292 22.4383 25.5833 22.48 25.375C22.5217 25.1667 22.48 24.9792 22.355 24.8125C22.1883 24.6042 22.0842 24.375 22.0425 24.125C22.0008 23.875 21.98 23.6458 21.98 23.4375ZM32.48 0C28.0633 0 23.9175 0.833333 20.0425 2.5C16.1258 4.16667 12.7196 6.44792 9.82373 9.34375C6.9279 12.2396 4.64665 15.6458 2.97998 19.5625C1.31332 23.4375 0.479984 27.5833 0.479984 32C0.479984 36.4167 1.31332 40.5625 2.97998 44.4375C4.64665 48.3542 6.9279 51.7604 9.82373 54.6562C12.7196 57.5521 16.1258 59.8333 20.0425 61.5C23.9175 63.1667 28.0633 64 32.48 64C36.8967 64 41.0425 63.1667 44.9175 61.5C48.8342 59.8333 52.2404 57.5521 55.1362 54.6562C58.0321 51.7604 60.3133 48.3542 61.98 44.4375C63.6467 40.5625 64.48 36.4167 64.48 32C64.48 27.5833 63.6467 23.4375 61.98 19.5625C60.3133 15.6458 58.0321 12.2396 55.1362 9.34375C52.2404 6.44792 48.8342 4.16667 44.9175 2.5C41.0425 0.833333 36.8967 0 32.48 0ZM54.105 53.625C52.73 55 51.23 56.25 49.605 57.375C47.9383 58.4583 46.1987 59.3854 44.3862 60.1562C42.5737 60.9271 40.6675 61.5208 38.6675 61.9375C36.6675 62.3542 34.605 62.5625 32.48 62.5625C30.355 62.5625 28.2925 62.3542 26.2925 61.9375C24.2925 61.5208 22.3862 60.9271 20.5737 60.1562C18.7612 59.3854 17.0217 58.4583 15.355 57.375C13.73 56.25 12.23 55 10.855 53.625C9.47998 52.25 8.22998 50.75 7.10498 49.125C6.02165 47.4583 5.09457 45.7188 4.32373 43.9062C3.5529 42.0938 2.95915 40.1875 2.54248 38.1875C2.12582 36.1875 1.91748 34.125 1.91748 32C1.91748 29.875 2.12582 27.8125 2.54248 25.8125C2.95915 23.8125 3.5529 21.9062 4.32373 20.0938C5.09457 18.2812 6.02165 16.5417 7.10498 14.875C8.22998 13.25 9.47998 11.75 10.855 10.375C12.23 9 13.73 7.75 15.355 6.625C17.0217 5.54167 18.7612 4.61458 20.5737 3.84375C22.3862 3.07292 24.2925 2.47917 26.2925 2.0625C28.2925 1.64583 30.355 1.4375 32.48 1.4375C34.605 1.4375 36.6675 1.64583 38.6675 2.0625C40.6675 2.47917 42.5737 3.07292 44.3862 3.84375C46.1987 4.61458 47.9383 5.54167 49.605 6.625C51.23 7.75 52.73 9 54.105 10.375C55.48 11.75 56.73 13.25 57.855 14.875C58.9383 16.5417 59.8654 18.2812 60.6362 20.0938C61.4071 21.9062 62.0008 23.8125 62.4175 25.8125C62.8342 27.8125 63.0425 29.875 63.0425 32C63.0425 34.125 62.8342 36.1875 62.4175 38.1875C62.0008 40.1875 61.4071 42.0938 60.6362 43.9062C59.8654 45.7188 58.9383 47.4583 57.855 49.125C56.73 50.75 55.48 52.25 54.105 53.625ZM43.7925 15.6875C43.0842 15.3125 42.2612 14.9896 41.3237 14.7188C40.3862 14.4479 39.2717 14.3125 37.98 14.3125H37.9175C36.7508 14.3125 35.8029 14.5 35.0737 14.875C34.3446 15.25 33.6675 15.6458 33.0425 16.0625C32.9592 16.1458 32.8654 16.2188 32.7612 16.2812C32.6571 16.3438 32.5633 16.3958 32.48 16.4375C32.3967 16.3958 32.3029 16.3438 32.1987 16.2812C32.0946 16.2188 32.0008 16.1458 31.9175 16.0625C31.2925 15.6458 30.6258 15.25 29.9175 14.875C29.2092 14.5 28.2508 14.3125 27.0425 14.3125H26.98C25.6883 14.3125 24.5737 14.4479 23.6362 14.7188C22.6987 14.9896 21.8758 15.3125 21.1675 15.6875C20.5008 16.1042 19.9383 16.5625 19.48 17.0625C19.0217 17.5625 18.6675 18.0625 18.4175 18.5625C18.0008 19.2292 17.7092 19.9375 17.5425 20.6875C17.3758 21.4375 17.2925 22.1875 17.2925 22.9375C17.2925 23.8958 17.4175 24.7917 17.6675 25.625C17.9175 26.4583 18.2717 27.1667 18.73 27.75C18.7717 27.7917 18.8342 27.8542 18.9175 27.9375C19.0008 28.0208 19.0842 28.125 19.1675 28.25C19.4175 28.5 19.6987 28.8125 20.0112 29.1875C20.3237 29.5625 20.5425 29.9167 20.6675 30.25C20.7508 30.4583 20.8342 30.6667 20.9175 30.875C21.0008 31.0833 21.0842 31.2917 21.1675 31.5C21.2508 31.6667 21.3654 31.8125 21.5112 31.9375C21.6571 32.0625 21.8133 32.1458 21.98 32.1875C22.0633 32.1875 22.1258 32.1875 22.1675 32.1875C22.2092 32.1875 22.2508 32.1875 22.2925 32.1875C22.4592 32.1875 22.605 32.1667 22.73 32.125C22.855 32.0833 22.98 32.0208 23.105 31.9375C23.855 31.3542 24.7925 30.7812 25.9175 30.2188C27.0425 29.6562 28.2508 29.375 29.5425 29.375C29.7092 29.375 29.8758 29.375 30.0425 29.375C30.2092 29.375 30.3758 29.375 30.5425 29.375C30.7092 29.375 30.8758 29.375 31.0425 29.375C31.2092 29.375 31.355 29.375 31.48 29.375C32.355 29.375 33.23 29.3021 34.105 29.1562C34.98 29.0104 35.9592 28.6667 37.0425 28.125C37.2508 28.0417 37.4383 27.9792 37.605 27.9375C37.7717 27.8958 37.9592 27.875 38.1675 27.875C38.4175 27.875 38.6883 27.9167 38.98 28C39.2717 28.0833 39.6258 28.1875 40.0425 28.3125C40.5008 28.4792 41.0425 28.6667 41.6675 28.875C42.2925 29.0833 43.0425 29.2083 43.9175 29.25H44.0425C44.2925 29.25 44.5529 29.1979 44.8237 29.0938C45.0946 28.9896 45.3133 28.8333 45.48 28.625L45.855 28.25C45.9383 28.125 46.0112 28.0208 46.0737 27.9375C46.1362 27.8542 46.1883 27.7917 46.23 27.75C46.6883 27.1667 47.0425 26.4583 47.2925 25.625C47.5425 24.7917 47.6675 23.8958 47.6675 22.9375C47.6675 22.1875 47.5842 21.4375 47.4175 20.6875C47.2508 19.9375 46.98 19.2292 46.605 18.5625C46.3133 18.0625 45.9487 17.5625 45.5112 17.0625C45.0737 16.5625 44.5008 16.1042 43.7925 15.6875ZM45.0425 26.875C45.0008 26.9167 44.9487 26.9792 44.8862 27.0625C44.8237 27.1458 44.7508 27.2292 44.6675 27.3125C44.6675 27.3125 44.605 27.375 44.48 27.5C44.355 27.625 44.2925 27.6875 44.2925 27.6875C44.2508 27.7292 44.2092 27.7604 44.1675 27.7812C44.1258 27.8021 44.0842 27.8125 44.0425 27.8125C43.2925 27.7708 42.6467 27.6667 42.105 27.5C41.5633 27.3333 41.0425 27.1667 40.5425 27C40.1675 26.875 39.7821 26.75 39.3862 26.625C38.9904 26.5 38.5842 26.4375 38.1675 26.4375C37.8758 26.4375 37.5737 26.4688 37.2612 26.5312C36.9487 26.5938 36.6467 26.7083 36.355 26.875C35.355 27.3333 34.4904 27.625 33.7612 27.75C33.0321 27.875 32.2508 27.9375 31.4175 27.9375C31.2925 27.9375 31.1571 27.9375 31.0112 27.9375C30.8654 27.9375 30.7092 27.9375 30.5425 27.9375C30.3758 27.9375 30.2092 27.9375 30.0425 27.9375C29.8758 27.9375 29.7092 27.9375 29.5425 27.9375C28.1258 27.9375 26.8029 28.2188 25.5737 28.7812C24.3446 29.3438 23.3133 29.9375 22.48 30.5625C22.3967 30.4375 22.3237 30.3021 22.2612 30.1562C22.1987 30.0104 22.1467 29.8542 22.105 29.6875C21.8967 29.2708 21.6154 28.8438 21.2612 28.4062C20.9071 27.9688 20.605 27.6042 20.355 27.3125C20.2717 27.2292 20.1987 27.1458 20.1362 27.0625C20.0737 26.9792 20.0217 26.9167 19.98 26.875C19.6467 26.5 19.3654 25.9583 19.1362 25.25C18.9071 24.5417 18.8133 23.75 18.855 22.875C18.855 22.2917 18.9175 21.6771 19.0425 21.0312C19.1675 20.3854 19.3967 19.7708 19.73 19.1875C20.0633 18.6458 20.4592 18.1562 20.9175 17.7188C21.3758 17.2812 21.9175 16.9167 22.5425 16.625C23.1258 16.3333 23.7925 16.1146 24.5425 15.9688C25.2925 15.8229 26.105 15.75 26.98 15.75H27.0425C27.5425 15.75 27.9696 15.7917 28.3237 15.875C28.6779 15.9583 29.0008 16.0625 29.2925 16.1875C29.5842 16.3125 29.8758 16.4583 30.1675 16.625C30.4592 16.7917 30.7508 16.9792 31.0425 17.1875C31.1675 17.3125 31.3029 17.4271 31.4487 17.5312C31.5946 17.6354 31.7508 17.7292 31.9175 17.8125C31.9175 17.8125 31.9279 17.8229 31.9487 17.8438C31.9696 17.8646 31.98 17.875 31.98 17.875C32.0217 17.9167 32.2404 18.1042 32.6362 18.4375C33.0321 18.7708 33.3967 19.1667 33.73 19.625C33.855 19.75 34.0217 19.8229 34.23 19.8438C34.4383 19.8646 34.605 19.8125 34.73 19.6875C34.8967 19.5625 34.9904 19.4062 35.0112 19.2188C35.0321 19.0312 34.98 18.8542 34.855 18.6875C34.6467 18.4375 34.4383 18.2083 34.23 18C34.0217 17.7917 33.8342 17.6042 33.6675 17.4375C33.7092 17.3958 33.7612 17.3542 33.8237 17.3125C33.8862 17.2708 33.9383 17.2292 33.98 17.1875C34.2717 16.9792 34.5529 16.7917 34.8237 16.625C35.0946 16.4583 35.3967 16.3125 35.73 16.1875C36.0217 16.0625 36.3446 15.9583 36.6987 15.875C37.0529 15.7917 37.48 15.75 37.98 15.75H38.0425C38.9175 15.75 39.7196 15.8229 40.4487 15.9688C41.1779 16.1146 41.855 16.3333 42.48 16.625C43.0633 16.9167 43.5946 17.2812 44.0737 17.7188C44.5529 18.1562 44.9383 18.6667 45.23 19.25C45.5633 19.7917 45.8029 20.3854 45.9487 21.0312C46.0946 21.6771 46.1675 22.3125 46.1675 22.9375C46.1675 23.7708 46.0529 24.5417 45.8237 25.25C45.5946 25.9583 45.3342 26.5 45.0425 26.875Z" fill="#009CDE"/>
</svg>
