<svg width="1728" height="376" viewBox="0 0 1728 376" fill="none" xmlns="http://www.w3.org/2000/svg">
<path d="M0 250.2L26.16 215.407C52.32 181.134 104.4 110.766 157.2 132.007C209.4 152.466 261.6 264.534 314.4 312.75C366.6 360.966 418.8 347.934 471.6 340.507C523.68 333.6 576 333.6 628.8 347.543C680.76 360.966 733.2 389.634 786 368.393C837.84 347.934 890.4 277.566 942 271.05C994.92 264.534 1047.6 319.266 1099.2 291.9C1152 264.534 1204.8 152.466 1256.4 145.95C1309.08 139.434 1362 235.866 1413.6 236.257C1466.16 235.866 1518 139.434 1570.8 90.3066C1623.24 41.7 1675.2 41.7 1701.6 41.7H1728V0H1701.84C1675.68 0 1623.6 0 1570.8 0C1518.6 0 1466.4 0 1413.6 0C1361.4 0 1309.2 0 1256.4 0C1204.32 0 1152 0 1099.2 0C1047.24 0 994.8 0 942 0C890.16 0 837.6 0 786 0C733.08 0 680.4 0 628.8 0C576 0 523.2 0 471.6 0C418.92 0 366 0 314.4 0C261.84 0 210 0 157.2 0C104.76 0 52.8 0 26.4 0H0V250.2Z" fill="#E0F3FE"/>
</svg>
