<svg width="64" height="64" viewBox="0 0 64 64" fill="none" xmlns="http://www.w3.org/2000/svg">
<g clip-path="url(#clip0_100_190)">
<path d="M32 0C14.327 0 0 14.327 0 32C0 49.673 14.327 64 32 64C49.673 64 64 49.673 64 32C64 14.327 49.673 0 32 0Z" fill="#023047"/>
<path d="M31.488 31.657C30.528 30.768 29.461 29.522 28.998 28.418C28.927 28.276 28.785 27.919 28.998 27.635C29.424 27.065 29.495 27.03 29.958 26.497C30.279 26.105 30.526 25.75 30.421 25.43L28.82 21.266C28.678 20.982 28.252 20.945 27.753 20.911C27.327 20.911 26.864 20.911 26.544 20.982C25.832 21.232 24.375 23.153 24.196 24.541C23.804 27.564 26.544 31.586 29.281 34.078C32.02 36.604 36.253 38.989 39.24 38.313C40.628 37.992 42.405 36.391 42.547 35.645C42.618 35.324 42.584 34.864 42.51 34.436C42.476 33.939 42.368 33.582 42.082 33.44L38.456 31.766C38.135 31.587 37.815 31.729 37.496 32.123C37.104 32.657 36.926 32.87 36.465 33.44C36.215 33.761 36.039 33.974 35.755 34.008C35.434 34.079 35.008 33.9 34.937 33.9C33.799 33.507 32.485 32.545 31.488 31.657ZM19.539 44.432L21.603 39.201C19.326 36.567 17.941 33.116 17.941 29.343C17.941 21.017 24.698 14.291 33.021 14.291C41.342 14.291 48.065 21.018 48.065 29.343C48.065 37.671 41.343 44.43 33.021 44.43C29.677 44.43 26.619 43.363 24.13 41.512L19.539 44.432ZM17.013 39.306L14.168 50.694L24.34 46.068C26.937 47.419 29.887 48.203 33.018 48.203C43.403 48.203 51.832 39.77 51.832 29.344C51.832 18.955 43.403 10.522 33.018 10.522C22.597 10.522 14.168 18.955 14.168 29.344C14.168 33.008 15.235 36.425 17.013 39.306Z" fill="#25D366"/>
</g>
<defs>
<clipPath id="clip0_100_190">
<rect width="64" height="64" fill="white"/>
</clipPath>
</defs>
</svg>
