<svg width="32" height="32" viewBox="0 0 32 32" fill="none" xmlns="http://www.w3.org/2000/svg">
<path d="M16 0C7.1635 0 0 7.1635 0 16C0 24.8365 7.1635 32 16 32C24.8365 32 32 24.8365 32 16C32 7.1635 24.8365 0 16 0Z" fill="white"/>
<path d="M16.244 15.8292C15.764 15.3847 15.2305 14.7617 14.999 14.2097C14.9635 14.1387 14.8925 13.9602 14.999 13.8182C15.212 13.5332 15.2475 13.5157 15.479 13.2492C15.6395 13.0532 15.763 12.8757 15.7105 12.7157L14.91 10.6337C14.839 10.4917 14.626 10.4732 14.3765 10.4562C14.1635 10.4562 13.932 10.4562 13.772 10.4917C13.416 10.6167 12.6875 11.5772 12.598 12.2712C12.402 13.7827 13.772 15.7937 15.1405 17.0397C16.51 18.3027 18.6265 19.4952 20.12 19.1572C20.814 18.9967 21.7025 18.1962 21.7735 17.8232C21.809 17.6627 21.792 17.4327 21.755 17.2187C21.738 16.9702 21.684 16.7917 21.541 16.7207L19.728 15.8837C19.5675 15.7942 19.4075 15.8652 19.248 16.0622C19.052 16.3292 18.963 16.4357 18.7325 16.7207C18.6075 16.8812 18.5195 16.9877 18.3775 17.0047C18.217 17.0402 18.004 16.9507 17.9685 16.9507C17.3995 16.7542 16.7425 16.2732 16.244 15.8292ZM10.2695 22.2167L11.3015 19.6012C10.163 18.2842 9.47048 16.5587 9.47048 14.6722C9.47048 10.5092 12.849 7.14622 17.0105 7.14622C21.171 7.14622 24.5325 10.5097 24.5325 14.6722C24.5325 18.8362 21.1715 22.2157 17.0105 22.2157C15.3385 22.2157 13.8095 21.6822 12.565 20.7567L10.2695 22.2167ZM9.00648 19.6537L7.58398 25.3477L12.67 23.0347C13.9685 23.7102 15.4435 24.1022 17.009 24.1022C22.2015 24.1022 26.416 19.8857 26.416 14.6727C26.416 9.47822 22.2015 5.26172 17.009 5.26172C11.7985 5.26172 7.58398 9.47822 7.58398 14.6727C7.58398 16.5047 8.11748 18.2132 9.00648 19.6537Z" fill="#023047"/>
</svg>
